<svg xmlns="http://www.w3.org/2000/svg" viewBox="0 0 304.91 828.22"><g id="af26df9c-916e-4c24-8d2c-c915f3bf2c1f" data-name="Layer 1"><polygon points="257.91 719.44 267.09 719.45 254.59 705.53 261.46 701.55 276.46 697.15 269.24 688.98 262.46 682.75 275.14 672.92 255.57 672.25 250.97 668.33 266.9 649.27 253.59 650.57 246.07 648.72 244.55 638.11 235.89 638.98 231.42 628.34 221.57 640.46 215.17 640.42 207.49 630.56 200.48 634.14 192.09 633.27 189.75 644.95 185.1 649.78 186.49 660.3 167.58 652.46 176.98 666.94 155.92 664.43 151.3 671.88 169.19 682.92 150.53 688.98 174.12 706.45 155.7 708.72 149.91 704.3 142 685.47 134.63 688.68 133.43 707.23 122.82 699.08 120.08 707.47 111.48 707.32 102.4 708.6 106.85 720.98 100.45 724.74 95.1 729.91 102.63 739.03 91.27 743.57 92.38 750.69 87.14 758.3 107.94 761.05 105.01 767.72 113.43 769.83 102.65 783.31 111.53 784.69 117.84 786.89 114.99 801.27 116.84 813.66 132.62 796.26 137.98 799.03 143.87 800.33 149.91 798.88 156.41 803.99 166.19 816.49 168.75 800.14 181.32 810.22 175.58 787.7 182.07 802.11 179.89 802.62 195.04 801.79 204.03 802.1 192.98 820.39 197.3 826.78 208.34 823.43 214.25 826.27 225.35 814.22 227.27 827.38 234.61 817.02 239.49 820.38 244.82 817.43 250.05 816.47 258.34 823.37 268.12 828.22 263.37 808.29 282.33 822.03 278.32 808.09 292.46 810.26 300.6 805.77 278.72 788.57 304.91 789.8 304.62 781.59 295.95 773.69 289.73 767.79 281.36 763.72 296.23 752.95 290.37 748.03 288.44 741.34 290.38 730.74 281.19 729.21 274.43 726.4 272.57 715.87 258.36 729.4 257.91 719.44" style="fill:#736457"/><path d="M180.3,751.11a31.4,31.4,0,0,1-1.85,10.67,30.12,30.12,0,0,1-1.37,3.25c-5.65,8.21-13.25,12-21.22,16.74a21.85,21.85,0,0,1-3.52.77,31.93,31.93,0,0,1-10.94-.62c-9.22-6.15-19.35-13.74-23.54-23.57a31.32,31.32,0,0,1-.64-3.55,32.08,32.08,0,0,1-.21-3.69,31.48,31.48,0,0,1,4.93-17,24.94,24.94,0,0,1,2.11-2.82c8.13-7.46,18.26-8.73,28.3-11.63a28.14,28.14,0,0,1,3.56.6A31.66,31.66,0,0,1,180.3,751.11Z" style="fill:#402211"/><path d="M247.82,687.83a31.56,31.56,0,0,1-6.95,19.79,17.46,17.46,0,0,1-2.34,2.43c-7.6,2.42-15.2,6.22-22.38,9.19a18,18,0,0,1-3.67,0,31.65,31.65,0,0,1-23.67-47.33,28.65,28.65,0,0,1,1.77-2.71c6.17-12.45,20.09-12.45,31.82-14.47a16.69,16.69,0,0,1,3,.13c6.67,1,12,6.15,15.44,13.14.73.93,1.41,1.87,2,2.84A31.54,31.54,0,0,1,247.82,687.83Z" style="fill:#402211"/><path d="M276.37,767.72A35.6,35.6,0,0,1,265.91,793c-.81.81-1.66,1.58-2.54,2.31-7.12,8.35-18.51,10.88-29.92,7.43-1.16-.24-2.3-.54-3.45-.85-14.26,1.77-18.06-8.36-22.26-20.24-.45-1.07-.85-2.17-1.2-3.28a35.88,35.88,0,0,1-1.6-10.62q0-1.86.18-3.66c-4.57-19.94,14.42-31.33,31.88-31.91a14.73,14.73,0,0,1,3-1.3c7-2.19,14.59,1.44,20.63,7.25.95.64,1.87,1.33,2.75,2.06A35.63,35.63,0,0,1,276.37,767.72Z" style="fill:#402211"/><path d="M272.19,751a35.71,35.71,0,0,1-7.12,40.33c-.81.81-1.65,1.58-2.53,2.31C255.42,802,244,804.49,232.62,801c-1.16-.24-2.31-.53-3.45-.85-9.58,1.19-14.43-3-17.86-9.45,3.48,7.39,8.32,12.41,18.69,11.12,1.15.31,2.29.61,3.45.85,11.41,3.45,22.8.92,29.92-7.43.88-.73,1.73-1.5,2.54-2.31a35.69,35.69,0,0,0,6.28-42Z" style="fill:#fff"/><path d="M174,751.11a24.19,24.19,0,0,1-.24,3.43c-2.3,11.11-13.7,13.64-21.66,21.59a18.36,18.36,0,0,1-3.42.29,24.3,24.3,0,0,1-3.43-.23,24.76,24.76,0,0,1-3.32-.69c-8.45-8.59-23.64-20-16.57-34.24a18.47,18.47,0,0,1,1.53-2.92c9.12-6.88,18-10.67,28.52-11.63a24.08,24.08,0,0,1,3.13,1.08A25.33,25.33,0,0,1,174,751.11Z" style="fill:#1f110b"/><path d="M240.45,687.83a24.12,24.12,0,0,1-1.91,9.44,23.79,23.79,0,0,1-1.41,2.81c-6.2,6.06-15.06,9.86-24.25,11.79a22.11,22.11,0,0,1-3.16-.64A24.28,24.28,0,0,1,193,680.76a22.57,22.57,0,0,1,1.24-3.24c3.82-13.15,16.48-14.42,27.89-15a14,14,0,0,1,3,.42c6.23,1.79,10.75,8.28,13.42,15.43a24.16,24.16,0,0,1,1.91,9.45Z" style="fill:#1f110b"/><path d="M271,767.72a30.24,30.24,0,0,1-6.67,19,30.89,30.89,0,0,1-2.22,2.48c-7.14,8.12-18.53,13.18-28.42,8.1-.7.16-1.37.29-2,.38-15,2.28-18.55-11-20.57-23a27.78,27.78,0,0,1-.6-3.42,32,32,0,0,1-.2-3.54c0-1.2.06-2.39.12-3.59-7.34-18.74,11.65-26.34,26.63-26.83a13.65,13.65,0,0,1,3.07-2.08c7.18-3.42,15.45,2.24,19.52,8.76.86.74,1.69,1.49,2.48,2.27A30.27,30.27,0,0,1,271,767.72Z" style="fill:#1f110b"/><polygon points="222.59 82.68 232.85 93.67 219.75 101.56 226.47 114.66 199.85 111.86 199.82 121.45 206.41 139.81 191.65 137.9 184.9 144.38 180.12 157.13 164.3 138.71 156.82 139.82 149.28 166.81 138.54 164.38 131.33 149.67 121.5 149.74 119.78 133.8 97.81 149.75 103.75 128.21 92.12 126.53 77.62 124.06 90.08 107.19 81.97 100.72 75.92 92.33 70.13 82.68 77.75 73.26 87.85 66.21 90.17 58.2 76.02 40.37 88.39 35.95 99.34 32.74 113.91 36.57 119.73 31.47 125.82 26.01 127.85 2.66 138.41 0 149.28 5.31 157.46 20.66 164.66 25.33 179.69 9.28 184.88 21.02 193.9 24.53 198.5 33.47 215.79 31.63 220.39 41.61 209.19 57.86 206.2 67.42 225.22 72.69 222.59 82.68" style="fill:#736457"/><path d="M187.08,82.68a37.4,37.4,0,0,1-4.19,17.23c-.45.86-.93,1.7-1.44,2.53a33.61,33.61,0,0,1-31.88,17.75c-1,0-2.06,0-3.07-.14a37.26,37.26,0,0,1-11-2.6A27.3,27.3,0,0,1,133,116.3c-.68-.3-1.36-.62-2-.94-10.54.78-14-6.43-15.52-15.15-.16-1-.3-2-.43-3-5.76-11-10.76-24,1.42-32.13.41-.75.83-1.48,1.27-2.2a37.78,37.78,0,0,1,14.65-13.56c.86-.44,1.74-.86,2.64-1.23,7.26.1,14.26,2.1,20.68-2.46,1,.16,2,.36,2.93.6s1.8.48,2.68.77,1.75.61,2.6,1c8.37,4.23,9.37,14.23,18.37,16.23a9,9,0,0,1,2.2,4.6c.34.86.65,1.73.92,2.62A37.2,37.2,0,0,1,187.08,82.68Z" style="fill:#402211"/><path d="M175.36,60.08c-2.64-2.85-4.6-6.51-7.67-9.37C170.57,53.75,172.51,57.41,175.36,60.08Z" style="fill:#fff"/><path d="M185.36,71.45c-.27-.89-.58-1.76-.92-2.62a9,9,0,0,0-2.2-4.6l-.23-.07a9.26,9.26,0,0,1,1.51,3.76c.34.85.65,1.73.93,2.61A37.6,37.6,0,0,1,182,99c-.44.86-.92,1.71-1.43,2.53a33.65,33.65,0,0,1-31.88,17.76c-1,0-2.06-.06-3.08-.14a37.58,37.58,0,0,1-11-2.6c-.86-.35-1.7-.73-2.53-1.15l-2-.94c-4.48.33-7.69-.8-10-2.87,2.37,2.65,5.82,4.16,10.93,3.78.68.32,1.36.64,2,.94a27.3,27.3,0,0,0,2.53,1.15,37.26,37.26,0,0,0,11,2.6c1,.09,2,.13,3.07.14a33.61,33.61,0,0,0,31.88-17.75c.51-.83,1-1.67,1.44-2.53a37.52,37.52,0,0,0,2.47-28.46Z" style="fill:#fff"/><path d="M183.38,82.68a33.68,33.68,0,0,1-1.21,9c-.26,1-.56,1.9-.9,2.81-5,11.76-18,25.76-31.73,22.1-1-.08-2-.13-3-.22a33.64,33.64,0,0,1-10.83-2.85q-1.26-.57-2.46-1.23c-.62-.38-1.23-.76-1.84-1.12-6.39-.65-9.78-4.27-11.62-9.14-.26-.7-.5-1.42-.72-2.18-4.79-11.6-13.79-24.6.75-33.13.42-.79.88-1.57,1.36-2.32a34,34,0,0,1,13.94-12.25,15.42,15.42,0,0,1,2.75-1c6.41,1.14,11.41-.86,17.83-1.67,1,.17,2,.4,2.9.66s1.78.53,2.64.84,1.71.67,2.54,1c6.5,7.26,13.5,14.26,18.58,22.26.23.9.42,1.81.58,2.74A33.59,33.59,0,0,1,183.38,82.68Z" style="fill:#1f110b"/><polygon points="153.31 552.39 158.16 561.99 172.29 576.63 180.91 594.8 149.92 590.32 165.51 620.2 130.38 597.4 133.79 623.22 123.85 632.88 112.12 643.56 97.7 620.76 85.63 628.57 69.93 637.85 60.27 625.84 50.31 617.6 56.89 593.19 15.57 612.08 44.26 579.6 30.08 574.36 23.45 564.15 0 552.39 35.71 542.55 29.1 530.1 41.81 523.93 19.78 495.77 45.22 499.91 47.39 483.15 56.53 471.61 79.04 494.98 86.97 484.74 97.7 451.11 106.6 496.38 127.81 459.69 132.86 483.37 150.38 479.89 142.88 507.2 165.82 502.89 175.09 512.95 192.45 521.61 177.61 539.73 153.31 552.39" style="fill:#736457"/><path d="M146.58,552.33c-.08,1-.17,2-.26,3s-.18,1.94-.29,2.89a46.1,46.1,0,0,1-10.28,23.72c-.61.73-1.24,1.45-1.89,2.14-6.16,9.33-14.16,14.33-24.89,13.79-1,.19-2,.34-3,.47s-2,.22-3,.29-2,.09-2.93.09C88.7,606.39,81.7,595.39,72.67,590c-.78-.48-1.54-1-2.27-1.51a37.11,37.11,0,0,1-15.78-27.24c-.19-1-.35-2-.47-2.94s-.23-2-.29-3-.09-2-.09-2.93c-3.07-14,3.93-24,13.53-32.56.63-.63,1.27-1.25,1.93-1.85,7.21-6.65,16-11.58,25-11.54q1.42-.18,2.88-.27c1-.06,1.94-.09,2.93-.09a46.48,46.48,0,0,1,5.81.36c1,.12,1.89.27,2.82.44,5,1.51,11-1.49,13,3.51,4,10,15,13,20.3,21.64.39.65.77,1.31,1.13,2,2.52,4.67,4.29,9.77,3.65,15.32C146.74,550.32,146.67,551.32,146.58,552.33Z" style="fill:#402211"/><path d="M146.78,546.16c0,1-.11,2-.2,3s-.17,2-.26,3-.18,1.94-.29,2.89a46.1,46.1,0,0,1-10.28,23.72c-.61.74-1.24,1.45-1.89,2.15-6.16,9.32-14.16,14.32-24.89,13.78-1,.19-2,.35-3,.47s-2,.23-3,.29-2,.09-2.93.09c-11.38,7.69-18.38-3.31-27.41-8.69-.78-.48-1.54-1-2.27-1.51a37.07,37.07,0,0,1-15.78-27.24c-.19-1-.35-2-.47-2.94s-.23-2-.29-3-.09-1.94-.09-2.93a30.86,30.86,0,0,1-.68-4.89,29.14,29.14,0,0,0,.68,8.06c0,1,0,2,.09,2.93s.16,2,.29,3,.28,2,.47,2.94A37.11,37.11,0,0,0,70.4,588.5c.73.52,1.49,1,2.27,1.51,9,5.38,16,16.38,27.41,8.69,1,0,2,0,2.93-.09s2-.16,3-.29,2-.28,3-.47c10.73.54,18.73-4.46,24.89-13.79.65-.69,1.28-1.41,1.89-2.14A46.1,46.1,0,0,0,146,558.2c.11-1,.21-1.92.29-2.89s.18-2,.26-3,.16-2,.2-3a20.26,20.26,0,0,0,.06-4C146.82,545.58,146.82,545.86,146.78,546.16Z" style="fill:#ededed"/><path d="M139.88,551.33c-1.18,3.06-3.18,6.06-3.58,10-.23,1-.51,1.91-.82,2.83a37,37,0,0,1-5.29,10.24c-.57.78-1.16,1.52-1.78,2.25-4.71,10.72-11.71,13.72-22.28,12.54-1,.16-2,.28-3,.36s-2,.13-3.06.13c-.83,0-1.64,0-2.46-.08-11.92,6.77-16.92-5.23-25.81-12.41-.62-.63-1.21-1.28-1.77-2a28.47,28.47,0,0,1-6.78-16.73c-.16-1-.28-2-.37-3.07s-.12-2-.12-3.06c0-.77,0-1.54,0-2.3-6.12-11.7,1.88-18.7,11.05-25.88.64-.64,1.27-1.24,1.93-1.81A27.92,27.92,0,0,1,97,515.21c1-.09,2-.13,3.07-.13a37.72,37.72,0,0,1,7.72.8c.84.18,1.66.38,2.46.61,11.44.9,15.44,11.9,23.3,18,.63.57,1.31,1.14,2,1.72,4.19,3.49,8.87,7.26,5.09,13.34C140.43,550.1,140.16,550.71,139.88,551.33Z" style="fill:#1f110b"/><polygon points="221.82 363.6 240.08 356.84 206.43 349.87 212.01 345.63 238.38 337.93 242.55 331.01 237.94 325.68 211.12 328.31 217.04 321.12 209.51 319.36 205.9 316.24 219.52 301.83 195.05 313.5 194.92 308.41 209.47 288.03 186.14 305.94 181.57 305.62 190.23 286.12 189.7 277.02 191.92 260.11 185.66 258.08 178.52 258.88 169 270.12 163.19 271.68 155.08 293.56 151.63 289.13 147.64 263.26 141.94 262.89 134.86 252.68 133.6 279.37 128.37 277.98 115.81 256.1 111.73 263.2 121.06 295.93 100.76 268.7 113.76 299.14 111.26 302.43 91.39 285.74 101.87 304.1 96.53 305.05 83.78 300.87 79.11 304.08 76.54 308.82 80.14 316.58 62.53 314.61 63.01 321.14 86.04 333.35 75.74 335.56 88.94 342.12 60.13 344.14 72.36 349.87 76.96 354.51 73.67 359.61 62.32 366.83 63.21 372.49 93.03 368.41 84.95 375.83 79.16 383.64 66.81 396.56 66.84 403.88 82.4 399.93 93.83 397.06 105.82 391.69 85.51 420.7 92.32 421.95 114.12 400.07 99.28 433.59 121.78 402.33 114.13 430.76 123.99 419.54 130.97 412.03 128.84 444.49 135.38 443.13 141.38 445.72 147.64 408.46 151.6 407.62 155.78 408.93 157.16 436.01 180.04 426.9 163.08 437.29 150.06 449.79 181.73 438.46 174.56 448.76 169.59 460.02 194.31 441.93 187.09 456.77 185.87 467.63 186.87 478.12 200.89 459.71 196.93 489.31 207.69 469.95 211.08 488.33 217.75 488.44 222.84 471.21 225.72 458.81 236.42 481.92 234.63 459.84 242.81 466.59 254.95 476.32 241.36 447.56 261.45 464.2 274.3 467.82 269.13 455.08 280.46 455.12 279.12 446.84 286.49 442.91 284.43 435.24 254.35 423.13 259.61 420.17 269.65 416.27 290.99 409.22 258.46 408.32 257.92 404.34 266.12 396.68 254.09 397.32 279.93 375.75 247.74 392.37 254.23 380.92 262.82 363.28 236.8 388.92 246.37 365.39 242.24 360.86 229.74 380.1 228.2 370.39 221.82 363.6" style="fill:#736457"/><path d="M195.57,348.3c1.46,9.29-.54,19.29-7.31,25.25-.42.66-.86,1.32-1.31,2s-1.1,1.53-1.68,2.28c-4.24,7.8-5.24,19.8-17.54,13.92-.91.31-1.78.68-2.67,1a47.81,47.81,0,0,1-31.75.95c-1-.27-1.93-.57-3-.88-10.32-.22-15.32-7.22-20-15-.58-.74-1.14-1.5-1.68-2.27a47.35,47.35,0,0,1-7-15c-.21-.78-.39-1.56-.59-2.37-4.26-8.76-7.75-17.86-1.59-25.38a21.45,21.45,0,0,1,4.92-4.31c6.55-11.83,14.55-22.83,28.84-25.58.9-.27,1.83-.53,2.77-.77a47.7,47.7,0,0,1,59.31,43.19C195.46,346.26,195.5,347.27,195.57,348.3Z" style="fill:#402211"/><path d="M195.57,348.3c-.07-1-.11-2-.17-3A47.56,47.56,0,0,0,177.55,311a47.6,47.6,0,0,1,16.07,32.74c.06,1,.1,2,.17,3,1.46,9.29-.54,19.29-7.31,25.25-.43.66-.86,1.32-1.31,2s-1.1,1.53-1.68,2.28c-4.24,7.8-5.24,19.8-17.55,13.92-.9.31-1.78.68-2.67,1a47.81,47.81,0,0,1-31.75.95c-1-.27-1.93-.57-3-.88a18,18,0,0,1-10.77-3.58,18.12,18.12,0,0,0,12.55,5.08c1,.31,2,.61,3,.88a47.81,47.81,0,0,0,31.75-.95c.89-.35,1.76-.72,2.67-1,12.3,5.88,13.3-6.12,17.54-13.92.58-.75,1.15-1.51,1.68-2.28s.89-1.3,1.31-2C195,367.59,197,357.59,195.57,348.3Z" style="fill:#fff"/><path d="M246.82,425.81c1.66,5.84-1.3,10.11-5.39,13.89-.68.63-1.4,1.25-2.15,1.86-7.25,8-18.25,14-28.05,7.52-.83-.26-1.65-.56-2.45-.9C196,443.59,185,432.59,193,418.67c.15-.8.34-1.59.56-2.36a26.73,26.73,0,0,1,12.94-16.15c.76-.41,1.53-.78,2.33-1.12,2.18-3.13,4.51-4.88,6.89-5.61a9.2,9.2,0,0,1,2.43-.39c8.89,2.44,18.76,7.46,24,15.35a24.33,24.33,0,0,1,1.3,2.22c2.66,4,1.66,9,3.19,13.43C246.65,424.62,246.74,425.22,246.82,425.81Z" style="fill:#402211"/><path d="M188.86,348.42c.17,6.17-.83,12.17-4,17.45-.37.76-.75,1.51-1.16,2.24s-1,1.67-1.48,2.48c-3.15,8-8.15,15-17.09,14.83-.87.41-1.77.78-2.67,1.13a41,41,0,0,1-31.85-75.41q1.31-.61,2.67-1.14c1.36-.68,2.72-1.38,4.1-2,.68-.32,1.37-.63,2.06-.91,9.76-1,21.9.48,31.06,6,.76.46,1.51.95,2.24,1.47,9.33,8,22.33,18,16.39,31.91C189,347.08,188.93,347.73,188.86,348.42Z" style="fill:#1f110b"/><path d="M243.56,426.53c.92,3.79-.69,6.77-3.15,9.27-.5.5-1,1-1.59,1.45-8.79,7.34-16.79,14.34-27.4,8a25.59,25.59,0,0,1-2.38-1c-10-3.63-19-12.63-12.71-23.3.14-.86.29-1.72.49-2.57A23,23,0,0,1,209.07,403c.76-.38,1.55-.73,2.35-1.11a14.93,14.93,0,0,1,1.75-2.59,8.62,8.62,0,0,1,1.88-1.66c9.15-2.54,17.62,4,23.66,10.86,1.21,1.37,2.32,2.76,3.32,4.12,0,4,2,8,1.28,12.08C243.4,425.31,243.48,425.92,243.56,426.53Z" style="fill:#1f110b"/></g></svg>