<svg xmlns="http://www.w3.org/2000/svg" viewBox="0 0 464.28 656.24"><g id="b12b09f0-a5b0-407c-adab-404d02b7f14e" data-name="Layer 1"><polygon points="341.26 428.89 337.14 409.87 325.5 442.2 322.09 436.07 318.19 408.88 311.92 403.77 305.99 407.59 304.82 434.52 298.54 427.64 295.73 434.84 292.14 437.98 279.79 422.47 287.9 448.34 282.83 447.75 264.7 430.47 279.15 456.09 278.19 460.58 260.11 449.25 251.02 448.49 234.59 443.91 231.71 449.82 231.49 457.01 241.28 468.01 242 473.99 262.52 485.1 257.64 487.88 231.47 488.2 230.3 493.78 219.2 499.35 245.44 504.36 243.33 509.35 219.9 518.7 226.36 523.74 260.08 519.12 230.25 535.38 262.22 526.79 265.13 529.74 245.8 547.05 265.46 539.26 265.64 544.69 259.71 556.72 262.23 561.79 266.56 565 274.76 562.54 270.32 579.69 276.85 580.13 292.19 559.06 292.92 569.57 301.27 557.42 299.21 586.23 306.61 574.92 311.85 571.02 316.44 575 321.99 587.26 327.72 587.17 327.88 557.08 334.09 566.12 341 572.96 352.05 587 359.31 588 357.59 572.04 356.36 560.32 352.73 547.69 378.59 571.89 380.79 565.32 362.19 540.66 393.29 560.07 365.51 533.39 392.58 544.97 382.86 533.63 376.41 525.66 408.25 532.35 407.82 525.67 411.23 520.1 375.23 508.65 374.95 504.61 376.83 500.66 403.84 503.11 398.04 479.18 405.94 497.43 416.48 512.08 409.73 479.13 418.91 487.68 429.37 494.19 414.94 467.17 428.61 476.4 439.19 479.14 449.71 479.63 433.47 463.15 462.22 471.25 444.56 457.86 463.23 457.1 464.28 450.51 447.94 443.04 436.07 438.44 460.46 431.1 438.35 429.77 446.18 422.62 457.53 411.97 427.14 421.37 446.45 403.83 451.84 391.62 438.49 394.94 440.13 383.73 431.75 383.89 428.89 376.04 421.01 377 404.79 405.07 402.59 399.45 400.15 388.96 396.18 366.84 390.7 398.92 386.69 398.9 380.26 389.7 379.2 401.69 361.48 373.07 373.39 407.29 362.98 399.25 346.73 388.25 368.44 417.63 346.5 404.84 341.43 408.29 358.71 423.37 348.88 423.54 341.26 428.89" style="fill:#736457"/><path d="M322.42,452.72c9.4-.13,19,3.25,24,10.8.6.51,1.19,1,1.76,1.57s1.36,1.3,2,2c7.13,5.3,18.87,8,11.31,19.33.18.94.43,1.87.64,2.8a47.93,47.93,0,0,1-3.52,31.56c-.41.93-.85,1.83-1.29,2.8-1.67,10.19-9.31,14.15-17.7,17.66-.81.47-1.64.92-2.48,1.34a47.4,47.4,0,0,1-15.86,4.78q-1.2.13-2.43.24c-9.28,3-18.78,5.16-25.36-2a22,22,0,0,1-3.57-5.49C279.12,532,269.35,522.48,268.64,508c-.14-.93-.27-1.89-.37-2.85a47.7,47.7,0,0,1,51.12-52.63C320.38,452.54,321.39,452.65,322.42,452.72Z" style="fill:#402211"/><path d="M322.42,452.72c-1-.07-2-.18-3-.25A47.53,47.53,0,0,0,283,465.31,47.55,47.55,0,0,1,317.65,454l3,.26c9.41-.14,19,3.25,24,10.79.6.52,1.18,1,1.76,1.57s1.36,1.31,2,2c7.13,5.3,18.87,8,11.31,19.33.19.94.43,1.86.65,2.79a47.86,47.86,0,0,1-3.53,31.57c-.41.92-.84,1.83-1.29,2.8a18,18,0,0,1-5.07,10.15,18.14,18.14,0,0,0,6.81-11.71c.44-1,.88-1.87,1.29-2.8a47.93,47.93,0,0,0,3.52-31.56c-.21-.93-.46-1.86-.64-2.8,7.56-11.35-4.18-14-11.31-19.33-.66-.68-1.33-1.34-2-2s-1.16-1.06-1.76-1.57C341.44,456,331.82,452.59,322.42,452.72Z" style="fill:#fff"/><path d="M406.38,412.91c6-.82,9.82,2.71,13,7.29.53.76,1,1.56,1.55,2.39,6.93,8.31,11.32,20,3.49,28.83-.38.79-.79,1.56-1.23,2.3-6.34,12-18.78,21.31-31.45,11.51-.77-.26-1.52-.55-2.26-.88a26.72,26.72,0,0,1-14.16-15.09c-.3-.81-.56-1.63-.79-2.47-2.79-2.59-4.19-5.15-4.58-7.61a9.65,9.65,0,0,1-.05-2.46c3.68-8.46,10-17.52,18.58-21.56a22.45,22.45,0,0,1,2.38-1c4.32-2.08,9.13-.38,13.74-1.27Q405.48,412.9,406.38,412.91Z" style="fill:#402211"/><path d="M321.59,459.38c6.14.7,11.94,2.54,16.71,6.46.7.47,1.38,1,2.05,1.47s1.52,1.18,2.25,1.81c7.48,4.24,13.7,10.18,12.27,19,.28.92.53,1.86.74,2.81a41,41,0,0,1-79.14,20.9c-.28-.92-.53-1.85-.75-2.8-.48-1.44-1-2.89-1.44-4.35-.22-.72-.44-1.45-.62-2.17.42-9.79,3.57-21.61,10.35-29.9q.86-1,1.77-2c9.28-8.11,21-19.57,33.91-11.73Z" style="fill:#1f110b"/><path d="M406.62,416.24c3.89-.38,6.62,1.63,8.74,4.42.43.57.83,1.16,1.22,1.78,6,9.73,11.83,18.64,4,28.25a23,23,0,0,1-1.32,2.21c-5,9.4-15.18,17-24.85,9.3-.84-.26-1.68-.53-2.48-.84a23,23,0,0,1-13.48-14.29c-.26-.81-.5-1.64-.76-2.49a15.21,15.21,0,0,1-2.32-2.09,8.71,8.71,0,0,1-1.38-2.1c-1.22-9.42,6.43-16.89,14.08-21.9,1.53-1,3.07-1.9,4.55-2.7,3.94.56,8.18-.86,12.14.43Z" style="fill:#1f110b"/><polygon points="217.23 91 218.97 94.89 206.37 97.72 205.91 101.05 188.79 101.47 204.36 107.58 216.8 114.36 205.33 114.89 204.17 118.16 200.81 120.51 185.72 117.17 178.58 116.5 179.14 119.61 178.42 122.09 188.57 132.3 184.77 133.35 183.77 136.47 192.47 148.63 190.15 151.57 186.68 153.31 166.91 135.51 185.15 163.4 168.78 146.99 175 162.27 166.02 154.11 167.19 163.24 160.39 157.08 150.51 141.52 157.63 168.05 157.07 178.2 145.15 149.03 148.32 175.59 142.63 164.99 137.46 150.62 136.28 167.51 132.29 152.6 129.59 175.52 126.24 167.73 124.74 146.13 120.76 157.98 116.1 167.5 116.9 148.13 106.93 175.57 105.85 166.29 99.28 174.26 98.28 166.57 90.57 174.63 103.14 141.84 84.36 169.3 86.51 158.6 86.26 152.87 84.36 149.94 71.94 159.69 67.04 159.25 63.96 156.62 70.15 145.46 83.58 129.6 64.88 140.65 65.78 135.68 66.95 130.9 59.2 131.64 55.02 129.83 69.15 119.18 73.43 114.26 63.45 115.08 73.19 108.79 72 106.44 70.54 104.11 45.91 105.75 49.96 101.48 40.03 98.82 37.46 95.02 42.53 91 46.25 87.37 43.75 83.5 48.35 80.32 60.37 78.79 45.63 72.4 73.42 75.94 47.99 65.28 44.04 59.86 47.25 56.89 57.67 57.46 54.71 52.01 68 55.45 62.32 48.14 81.81 57.57 59.73 37.39 81.47 50.64 76.38 42.24 75.76 37.17 81.95 39.01 80.26 32.21 86.81 35.25 98.19 46.14 80.29 13.64 86.03 15.57 92.15 19.09 99.7 26.9 94.33 5.89 101.79 14.63 111.25 32.88 109.2 14.93 117.31 35.73 115.97 13.76 119.35 13.2 121.64 0 126.32 16.22 129.59 30.23 132.94 14.12 136.35 13.68 139.17 18.24 144.66 5.45 141.97 35.24 152.93 3.85 156.24 6.46 153.8 24.49 153.76 32.64 161.53 22.52 171.05 11.4 165.47 28.86 164.19 36.67 168.7 35.13 170.15 38.13 180.75 30.04 179.53 36.5 179.52 41.08 190.37 35.31 178.26 50.17 176.82 54.78 202.89 39.66 201.62 45.11 194.82 53.34 187.78 60.72 211.2 52.93 186.56 67.41 188.02 69.73 189.29 72.18 197.95 72.69 183.4 79.06 190.92 80.17 186.71 83.46 187.96 85.88 190.48 88.33 217.23 91" style="fill:#736457"/><path d="M171.26,90.17a52.61,52.61,0,0,1-2.3,14.19c0,1.06,0,2.1-.05,3.11-.46,11.12-4.42,19.64-17.83,19.52-.92.57-1.87,1.11-2.84,1.62a42.38,42.38,0,0,1-47-5.47c-.82-.7-1.61-1.44-2.38-2.21C86.7,115.84,83.31,104.55,86.46,91c0-1,0-1.94.1-2.89a42.16,42.16,0,0,1,12.3-27c.77-.77,1.56-1.51,2.36-2.25,5.79-7.33,11.44-13,20.57-9.75.62,0,1.21-.06,1.82-.09a44.34,44.34,0,0,1,5.18-.31,42.19,42.19,0,0,1,29.93,12.4c.76.76,1.5,1.55,2.23,2.34,9.27,5,11.53,15.17,10.4,24.67C171.33,88.79,171.3,89.49,171.26,90.17Z" style="fill:#402211"/><path d="M159.32,61.79l.18.11c-.26-.27-.51-.56-.78-.82s-.57-.54-.85-.81C158.36,60.78,158.85,61.28,159.32,61.79Z" style="fill:#402211"/><path d="M164.64,66c4.79,5.45,5.94,13.14,5.08,20.45,0,.7-.05,1.4-.09,2.08a52.48,52.48,0,0,1-2.3,14.18c0,1.07,0,2.1-.05,3.12-.46,11.11-4.43,19.64-17.83,19.51-.92.58-1.87,1.12-2.84,1.62a42.34,42.34,0,0,1-47-5.46c-.82-.71-1.62-1.44-2.38-2.21a23.27,23.27,0,0,1-6.62-4.12,22.36,22.36,0,0,0,8.25,5.75c.77.77,1.56,1.51,2.38,2.21a42.38,42.38,0,0,0,47,5.47c1-.51,1.92-1.05,2.84-1.62,13.41.12,17.37-8.4,17.83-19.52,0-1,.06-2,.05-3.11a52.61,52.61,0,0,0,2.3-14.19c0-.68.07-1.38.09-2.08C172.31,80,170.8,71.47,164.64,66Z" style="fill:#fff"/><path d="M166.41,83.56c-3,7.44-.71,17.6-3.7,25.51a24.06,24.06,0,0,1-.93,2.51c-2.49,5.57-7.25,9.38-15,10.22-.88.52-1.79,1-2.71,1.44a35.74,35.74,0,0,1-35.86-3.09c-.83-.59-1.64-1.21-2.41-1.86-14.6-5.84-21.37-14.87-12.62-29.88.08-.87.18-1.72.3-2.56a35.47,35.47,0,0,1,8-17.83c.65-.77,1.34-1.52,2-2.25C107,52.63,117.17,51.5,128.79,55.33c1,0,2,0,2.92.12A35.57,35.57,0,0,1,154,65.78c.72.72,1.4,1.47,2.06,2.24,2.86,4.93,13,6,10.54,13.41C166.57,82.09,166.5,82.8,166.41,83.56Z" style="fill:#1f110b"/><polygon points="207.91 543.87 208.3 551.28 191.26 556.22 207.09 566.16 208.86 574.54 205.7 581.67 207.79 591.26 202.04 597.36 179.77 591.83 173.16 594.69 182 611.22 174.09 613.58 167.07 616.18 160.89 619.38 156.75 625.86 153.47 635.36 143.84 631.6 140.91 645.99 128.34 626.77 122.34 629.54 116.28 635.44 109.41 646.72 102.33 638.38 93.82 647.36 87.76 638.74 77.83 646.27 74.53 632.73 68.03 629.81 54.68 638.64 56.44 621.57 49.22 619.34 46.7 611.46 43.24 605.26 33.1 604.72 34.23 595.12 17.09 597.18 10.66 591.43 30.15 574.97 22.13 570.79 22.91 563.62 29.17 555.98 19.86 550.59 26.59 543.87 3.67 535.96 0.99 527.54 28.49 525.38 14.11 514.47 10.63 505.1 35.83 508.44 36.08 501.54 27.95 488.33 27.96 478.91 38.02 477.63 52.48 482.51 41.52 458.75 52.2 459.96 58.13 455.06 72.77 467.77 76.08 458.95 83.33 459.32 86.17 442.03 95.4 450.91 101.57 439.15 109.41 437.46 116.29 452.14 123.34 451.51 130.53 451.35 134.64 462.1 146.25 450.01 144.38 471.24 164.21 448.98 165.95 460.95 165.88 473.06 182.09 465.54 168.66 488.91 180.37 487.29 197.17 484.03 187.76 498.64 197.4 501.5 190.48 512.05 191.62 518.51 196.35 524.02 198.68 530.4 216.62 535.85 207.91 543.87" style="fill:#736457"/><polygon points="165.23 522.51 182.61 524.33 179.49 532.85 181.22 540.19 176.66 547.47 172.83 553.98 165.05 558.84 165.51 565.48 166.61 573.1 168.45 582.3 155.64 581.4 150.94 585.49 147.42 590.91 140.82 592.34 137.85 599.82 133.29 606.28 124.26 599.58 121.17 618.6 113.36 620.9 106.04 606.9 98.4 612.86 91.72 609.57 87.04 601.96 74.9 611.41 71.97 601.38 63.03 601.02 55.02 598.14 60.04 583.75 52.74 580.58 40.69 578.77 55.87 564.35 41.09 562.1 52.87 552.75 42.6 547.29 52.38 540.82 46.3 533.8 41.08 525.47 42.57 518.12 44.04 510.47 60.28 511.87 56.25 500.72 62.24 496.59 73.16 499 70.03 483.06 76.74 479.56 88.05 488.02 90.88 474.42 99.11 478.34 105.98 476.98 113.35 470.38 120.87 472.1 127.91 475.14 130.04 490.3 135.79 492.25 140.62 495.94 149.37 494.64 162 491.4 164.14 499.65 171.06 503.94 166.77 514.72 165.23 522.51" style="fill:#c6b198"/><path d="M154.21,543.87a44.62,44.62,0,0,1-.41,6c-.13,1-.3,2-.5,3-5.89,13.82-13.89,28.82-29,33-.91.32-1.84.61-2.78.87a44.44,44.44,0,0,1-11.83,1.59c-1,0-2,0-3-.1a27.42,27.42,0,0,1-3-.43,37.51,37.51,0,0,0-16.42-5.74,16.65,16.65,0,0,1-2.44-1.33,45.47,45.47,0,0,1-8.06-7c-.59-.66-1.17-1.34-1.73-2a115,115,0,0,1-9.81-27.91c0-1,0-1.92.08-2.88a44.52,44.52,0,0,1,35.44-40.69,9,9,0,0,1,2.93-.2c5.74,4.61,11.74,4.61,17.86,1a20.67,20.67,0,0,1,2.79.8,44.29,44.29,0,0,1,16.14,9.88c.65.62,1.29,1.27,1.91,1.94,5,9,8,18,11.74,27.32C154.17,541.93,154.21,542.9,154.21,543.87Z" style="fill:#402211"/><path d="M154.11,541c-3.32-8.35-6.1-16.46-10.28-24.57,3.68,7.51,6.3,15,9.37,22.76.06,1,.1,1.92.1,2.9a44.47,44.47,0,0,1-.41,6c-.13,1-.3,2-.5,3-5.89,13.82-13.89,28.82-29,33.05-.91.32-1.84.61-2.78.87a44.85,44.85,0,0,1-11.83,1.59c-1,0-2,0-3-.11a25.13,25.13,0,0,1-3-.42,37.51,37.51,0,0,0-16.42-5.74A16.06,16.06,0,0,1,83.92,579a44.77,44.77,0,0,1-8.06-7c-.58-.64-1.14-1.3-1.68-2,.28.58.55,1.16.85,1.74.56.7,1.14,1.38,1.73,2a45.47,45.47,0,0,0,8.06,7,16.65,16.65,0,0,0,2.44,1.33,37.51,37.51,0,0,1,16.42,5.74,27.42,27.42,0,0,0,3,.43c1,.07,2,.1,3,.1a44.44,44.44,0,0,0,11.83-1.59c.94-.26,1.87-.55,2.78-.87,15.09-4.23,23.09-19.23,29-33,.2-1,.37-2,.5-3a44.62,44.62,0,0,0,.41-6C154.21,542.9,154.17,541.93,154.11,541Z" style="fill:#fff"/><path d="M148.17,543.92q0,1.4-.12,2.82c-.07,1-.18,1.88-.32,2.82-5.32,12.12-11.32,26.12-24.34,30.25-.84.32-1.7.61-2.58.88a38.41,38.41,0,0,1-11.1,1.63c-1,0-1.93,0-2.87-.13-6.43-4.51-11.43-9.51-20.27-7.66a22.9,22.9,0,0,1-2.09-1.65,37.67,37.67,0,0,1-3.79-3.79c-.59-.67-1.15-1.37-1.69-2.09-6.59-8.32,1.41-18.32-5.59-26.32-2-2-1-7,.64-11.22q.54-1.34,1.17-2.61a38.5,38.5,0,0,1,26.06-20.5A15.88,15.88,0,0,1,104,506c5.39,2.73,11.39,3.73,16.79,1.17a18.52,18.52,0,0,1,2.59.82,38.47,38.47,0,0,1,14.19,9.46q1,1,1.89,2.16c3.93,7.12,4.93,15.12,8.56,21.65A21.13,21.13,0,0,1,148.17,543.92Z" style="fill:#1f110b"/><polygon points="250.47 286.32 259.66 286.33 247.15 272.42 254.03 268.44 269.02 264.03 261.8 255.86 255.02 249.63 267.71 239.8 248.14 239.13 243.54 235.21 259.47 216.16 246.16 217.45 238.63 215.6 237.12 204.99 228.46 205.86 223.99 195.22 214.13 207.34 207.74 207.3 200.06 197.45 193.05 201.02 184.66 200.15 182.32 211.83 177.66 216.67 179.05 227.18 160.15 219.34 169.55 233.82 148.48 231.32 143.87 238.76 161.75 249.8 143.1 255.86 166.68 273.33 148.27 275.61 142.47 271.19 134.56 252.35 127.19 255.56 125.99 274.12 115.38 265.96 112.65 274.36 104.05 274.21 94.96 275.48 99.42 287.86 93.02 291.62 87.67 296.79 95.19 305.91 83.84 310.46 84.95 317.57 79.7 325.19 100.5 327.93 97.58 334.6 105.99 336.71 95.22 350.19 104.09 351.57 110.41 353.77 107.56 368.15 109.41 380.54 125.19 363.15 130.55 365.91 136.44 367.21 142.47 365.76 148.98 370.87 158.76 383.37 161.31 367.02 173.89 377.1 168.15 354.58 174.63 368.99 172.46 369.5 187.61 368.67 196.6 368.99 185.55 387.27 189.87 393.66 200.91 390.31 206.82 393.15 217.92 381.1 219.84 394.26 227.18 383.9 232.06 387.27 237.39 384.31 242.62 383.35 250.9 390.26 260.69 395.1 255.93 375.18 274.89 388.92 270.89 374.97 285.03 377.14 293.17 372.65 271.29 355.45 297.48 356.69 297.19 348.47 288.52 340.57 282.3 334.67 273.92 330.6 288.79 319.84 282.93 314.91 281 308.22 282.95 297.62 273.76 296.1 267 293.28 265.13 282.76 250.93 296.28 250.47 286.32" style="fill:#736457"/><path d="M172.86,318A31.64,31.64,0,0,1,171,328.66a32.28,32.28,0,0,1-1.37,3.25c-5.66,8.21-13.25,12-21.22,16.74a20.83,20.83,0,0,1-3.52.77A31.93,31.93,0,0,1,134,348.8c-9.22-6.14-19.35-13.74-23.54-23.57a27.43,27.43,0,0,1-.64-3.55,32.08,32.08,0,0,1-.21-3.69,31.56,31.56,0,0,1,4.92-17,26,26,0,0,1,2.12-2.82c8.13-7.46,18.26-8.73,28.29-11.63a26.62,26.62,0,0,1,3.57.61A31.64,31.64,0,0,1,172.86,318Z" style="fill:#402211"/><path d="M166.48,299a31.7,31.7,0,0,1,3.73,28.59,33.11,33.11,0,0,1-1.37,3.24c-5.66,8.22-13.25,12-21.22,16.74a20.85,20.85,0,0,1-3.52.78,32.52,32.52,0,0,1-7.38,0,32.46,32.46,0,0,1-3.57-.62c-7.12-4.75-14.77-10.37-19.82-17.21,5,7.36,13.13,13.33,20.64,18.33a31.49,31.49,0,0,0,10.94.62,20.83,20.83,0,0,0,3.52-.77c8-4.73,15.56-8.53,21.22-16.74a32.28,32.28,0,0,0,1.37-3.25A31.69,31.69,0,0,0,166.48,299Z" style="fill:#fff"/><path d="M240.38,254.71a31.5,31.5,0,0,1-6.95,19.79,16.93,16.93,0,0,1-2.33,2.44c-7.6,2.42-15.2,6.21-22.38,9.18a17.33,17.33,0,0,1-3.67,0,31.65,31.65,0,0,1-23.67-47.33,30.66,30.66,0,0,1,1.76-2.71c6.17-12.45,20.1-12.45,31.82-14.46a15.94,15.94,0,0,1,3,.12c6.67,1,12,6.15,15.44,13.14.73.93,1.4,1.87,2,2.84A31.53,31.53,0,0,1,240.38,254.71Z" style="fill:#402211"/><path d="M235.46,237.74c-.63-1-1.3-1.91-2-2.84a27.3,27.3,0,0,0-7.5-9.66,28.51,28.51,0,0,1,6.25,8.6c.73.92,1.4,1.87,2,2.84a31.68,31.68,0,0,1-2,36.76,16.85,16.85,0,0,1-2.33,2.43c-7.6,2.42-15.2,6.22-22.38,9.19a18,18,0,0,1-3.67,0,31.55,31.55,0,0,1-16.15-6.79,31.5,31.5,0,0,0,17.4,7.85,17.33,17.33,0,0,0,3.67,0c7.18-3,14.78-6.76,22.38-9.18a16.93,16.93,0,0,0,2.33-2.44,31.68,31.68,0,0,0,2-36.76Z" style="fill:#fff"/><path d="M268.93,334.6a35.56,35.56,0,0,1-10.46,25.25c-.81.81-1.65,1.58-2.53,2.31-7.12,8.35-18.52,10.88-29.92,7.43-1.16-.24-2.31-.53-3.45-.85-14.26,1.77-18.06-8.36-22.26-20.24-.45-1.07-.85-2.16-1.2-3.28a35.83,35.83,0,0,1-1.61-10.62,33.92,33.92,0,0,1,.19-3.65C193.11,311,212.1,299.61,229.57,299a14.9,14.9,0,0,1,3-1.3c7.06-2.19,14.6,1.45,20.64,7.25.95.64,1.86,1.33,2.75,2.06A35.65,35.65,0,0,1,268.93,334.6Z" style="fill:#402211"/><path d="M264.76,317.85a35.71,35.71,0,0,1-7.12,40.33c-.81.81-1.65,1.58-2.54,2.31-7.12,8.35-18.51,10.88-29.91,7.43-1.17-.24-2.31-.53-3.45-.85-9.58,1.19-14.44-3-17.87-9.45,3.49,7.4,8.32,12.41,18.7,11.12,1.14.32,2.29.61,3.45.85,11.4,3.45,22.8.92,29.92-7.43.88-.73,1.72-1.5,2.53-2.31a35.71,35.71,0,0,0,6.29-42Z" style="fill:#fff"/><path d="M166.53,318a26,26,0,0,1-.23,3.44c-2.31,11.1-13.7,13.63-21.66,21.58a18.36,18.36,0,0,1-3.42.3,24.3,24.3,0,0,1-3.43-.24,23,23,0,0,1-3.32-.69c-8.46-8.59-23.65-20-16.57-34.24a18.85,18.85,0,0,1,1.52-2.92c9.13-6.87,18-10.67,28.53-11.63a24,24,0,0,1,3.12,1.08A25.31,25.31,0,0,1,166.53,318Z" style="fill:#1f110b"/><path d="M233,254.71a24.2,24.2,0,0,1-1.9,9.45,24.44,24.44,0,0,1-1.41,2.8c-6.2,6.07-15.06,9.86-24.26,11.79a22,22,0,0,1-3.15-.64,24.32,24.32,0,0,1-16.78-30.47,23.85,23.85,0,0,1,1.25-3.24c3.82-13.15,16.48-14.42,27.89-15a13.27,13.27,0,0,1,3,.41c6.24,1.79,10.76,8.28,13.42,15.43a23.65,23.65,0,0,1,1.05,3A24.43,24.43,0,0,1,233,254.71Z" style="fill:#1f110b"/><path d="M263.57,334.6a30.18,30.18,0,0,1-6.67,19,27.47,27.47,0,0,1-2.22,2.48c-7.13,8.12-18.52,13.18-28.42,8.1-.69.16-1.37.29-2,.38-15,2.28-18.56-11-20.58-23a31.46,31.46,0,0,1-.8-7c0-1.2.06-2.39.13-3.58-7.35-18.75,11.65-26.34,26.63-26.84a13.65,13.65,0,0,1,3.07-2.08c7.18-3.42,15.44,2.24,19.51,8.76.87.75,1.7,1.49,2.48,2.27A30.24,30.24,0,0,1,263.57,334.6Z" style="fill:#1f110b"/></g></svg>