<svg xmlns="http://www.w3.org/2000/svg" viewBox="0 0 415.1 924.58"><g id="f5d55669-76de-4449-93c4-9c44771a5522" data-name="Layer 2"><rect x="-292" y="-13.13" width="1000" height="1000" style="fill:#fff"/></g><g id="ff82f4f0-1f00-4a28-a9d4-9d3291a6fb01" data-name="Layer 1"><path d="M321.78,832.69l-6.42-1.75-5-2.19,5.91-11.14.77-1.47-1.45.78-8,4.28-2.68-7.57-.15-.42-.46-.08-4.71-.79-.53-.09-.33.47-6.1,8.49-2.12-7-.39-1.26-1.24.54-5.47,2.37h0l-.06,0-4.46,2.34L276,813.73l-.45-.71-.88.05-4.49.27-4-2.24L266,811l-.34,0-3.77-.5L259.06,804l-.88-2-1.88,1.3-3.21,2.22-.86-.32,4.27-3.79,3.63-3.21-4.72-.72-9.34-1.43.91-1.95,6.74-9.88,6.89-10.09-10.43,6.21-7.61,4.53-1,.57-.47.28-.24.14-.12.07-.06,0-.22.15-1.83,1.26-1.58,1.09-2.31-2.37L233.65,785l-1.68.4-2,.49L228,778.11l-1.46-5.88-4.18,4.62-2.46,2.73-5.08-6.38,6.59-4-3.37-6.12-.08-.45.07-.06,0-.09h.53l2.91,2.84,2.15,2.1,2.33-1.67,5-3.59.66-.48.34-.59,1.28-2.28,1.88,3.28.52.91.85.38,4.87,2.2,3.56,1.6.59-3.74,1-6.35,2.17,2,2.81,2.61,1.34-3.49,2.18-5.72,1-2.2,4.25,1.5,1.63.57.94-1.35,2.32-3.34,2.15-2.27.17.4.31.73.72.13,1.22.22.63.12.11-.09v.16l-.14,1.33,1.28.08,1.24.07.67.76.67.75.81-.48,1.49-.87.31-.19.14-.27.3-.6.65.79.22.26.27.08,1.16.35,1.43.43-.13-1.44-.06-.77.49.56.62-.82.89-1.19.74-.15.19,1.39.05.36.27.17,1,.62.86.9.2.21h.25l.91,0,.67,1.21.3.54.51-.31,2.2-1.33.73,1.76.39.94.44-.89,1.4-2.88.81,0,1.19,1.82.27.41.23-.42.88-1.6,1.23,2.52.1.21.15-.16,1.1-1.09h0l1.1-1.34,1.1,1.1,0,0,0,0,1.12-1.48-1.15,1.39-1.08-1.19-.06-.06-.06.06L299.72,750l-1,.89-1.2-2.8-.18-.42-.24.4-.94,1.52-1-1.63-.09-.16h-.2l-1.24,0h-.22l-.11.21-1.15,2.11-.52-1.44-.2-.55-.54.3-2.22,1.21-.51-1-.16-.3-.36,0-1-.08-.72-.83,0-.05-.08-.06-.75-.52-.17-1.92-.07-.8-.83.13-1.87.29-.28.05-.21.25-.45.54-.9-1.12L278.64,742l.12,2.8.06,1.5-.91-1.21-1-1.3-.83,1.46-1,1.69-.38.2-.38-.48-.3-.37-.53-.06-.37,0,.28-1.89.44-2.94L271.39,743l-1.51,1-.67-1.78-.14-.37.34-1.88,4.45-1.88,1.47-.62L275,736l-1.29-5.37-.35-3.43,6.38.17,2.45.06-1.06-2.14-4.45-9.07,2.17-2.06,2.66,1.82,3.64,4,.39.43.51-.16,5.18-1.65,3.74,2.71.32.23.32-.19L299,719.3l4.7.8.11,0,.08,0,3.77-1.86.1-.05,0-.1.67-2.87,4.63-4,4,7.21-3.76-7.54-.09-.18-.16.13-4.37,3.45.76-3.28-1,3.48-.12.1-3.53-4.25-.24-.28-.3.22-4.73,3.41-.59.41-.6.41-1.2.83-1.82,1.25-4.9-8.73-.8-1.42-.68,1.51-2.83,6.18-6.49-2.93-.65-.29-.17.15-.54-.42-.75.49-5.27,3.45L270,710.11l-.54-1.07-1.25.29-4.66,1.07-3.33-2.63-.37-.29-.58-.07-4.86-.55h-.17l-.29,0-3.24.37-4.06-1-1.6-.41-1,1.6-2.6,4.33-2.38,3.8-1.95,1.65-5.94-2.23-3.66-1.37-.32,4.23-.33,4.37-2.53.15-2.49.14-.6,2.72-1,4.34-1.38.69L213.57,729l-.73,3.48-6.68.64-2.42-.91L209,721.1l.12-10-6.64,1.54-.68-2.21-.73-2.87,3.74-2,1.58-.83-.22-1.63-.64-4.75.39-3.65,2.89-2.86.84-.84-.24-1-.94-4,4.91-1.51,2.14-.65-1.13-1.68.81.73.52.47.64-.09,1.13-.16.93-.14.09-.32,0,0,.68,1.27,1.17-.77.39-.26.53.4,1,.78.74-1,1.15-1.56.1-.14,0-.13.1-.24.3.63.14.3.25.16,1.42.89L228,684l.21-1.64.24-1.81.33.4,1.16,1.39.48-1.71.55-2,.16-.45,1.18.59.54.28.42-.41.8-.78,1.07-.45.29-.12.13-.25.37-.77,1.41.06.81,0,0-.79L238,673.8l0-.74,1.84.61,1.33.45-.56-1.26-1.42-3.19.49-.46,2.1,1,.67.31v-2.28l1.93,1.92.37.37.2-.47.72-1.71.61-1.39,1.19.91.22.17.15-.23.93-1.48,1.16,2.24.06.11.11,0,1.22-.25h0l0,0,1.15-.77,1.22.91.08.06,0-.08,1.05-1.87,1.38,1.51-1.36-1.6,0,0,0,0-1.1,1.8-1.18-1-.05,0-.07,0-1.22.76-1.07.18-1.2-2.52-.15-.33-.21.31-1,1.52-1.24-1-.27-.23-.16.33-.81,1.68-.57,1.22-2.2-2.36-.67-.72,0,1-.07,1.81-1.74-.9-.3-.16-.28.24-1.06.91-.29.25.15.37.92,2.28-1.38-.52-.83-.31,0,.91-.11,1.67v.06l0,1-1.14-.08-.48,0-.24.45-.48.9-1,.36-.13.05-.13.12-.47.43-1.52-.83-.85-.47-.38.93-.57,1.38v0l0,.05-.08.25-.63-.82-1.38-1.77-.38,2.25-.34,2-1-2.34-1.05-2.4-1.07,2.44-1.09,2.47-.32.4-.26-.22-.69-.56-.71.44-.87-1.77-1.46-2.95-1,3.17-.45,1.36-1.49-1.45-.92-.9-1.05.84-.63.5-2.15-3.21,2.58-2.69,4.67-3.06.68-.45-.22-.71-1.6-5.27,3.18-3.29.13-.14,0-.13,1.37-4.33,4.8-2.56.11-.06.05-.09,2.18-4,.06-.11,0-.1-2.86-7.68L227.6,649l-2.3,3.64-5.07,2.32L220,655l-.09.23-1.64,4.26-3.66,3.35-.35.32.12.52,1.2,5-4.35,2.49-.09,0-.13.12-3.64,3.38-.78.71.58,1,3.19,5.46L205.76,683l-1.61.4.3,1.74.78,4.51-2.89,2.52-.53.47-.14.82-.78,4.66,0,.2,0,.35.23,3.2-4.33,2-1.83.83.41,2.13.93,4.88v.13l0,.16,0,.15.07.3.15.6.15.62-3.17.41-5.76,6.35-.92.27-1-1.63-1.37-.18-2-4.47-5.21-6.68-2.48,6-2.56-3.8-6.93-4.22-4.86.41,0-1,0-2.56-2.2-.72-.19-.06.92-2.26-2.61-1,1.54-2.69-3.25-1.13-1-.33.52-1.71.21-.71-.09-.53-.35-2-.22-1.25-.57-.34,1.28-.86-.2-1.36-.21-1.43.46-1.24.5-1.34-.88-.92-1.54-1.61,2.5-.64,3.39-.85-2.52-2.23-1.77-1.57.4-.24,1.3-.81-.68-1.24L154,669.11l-.38-.73,3.6-.16,1.79-.08-.77-1.52-1.33-2.6-1.13-2.34.39-1.12,3.46-.31h.13l2.59-.75.7-.2-.32-.61-1.44-2.74,2.39.06H164l0-.35-.25-2.88.91-2.91,2.7.1-2.77-.3h-.07l0,.08-1.17,2.94v.09l0,2.55-2.79-.28-.74-.08.31.71,1.24,2.84-1.87.39-4,.06H155l-.23.53-.83,1.93-.13.31.15.38,1.07,2.74.46,1.08-4-.12-2-.06.85,2,1.13,2.63.57,1.25-1.18.61-1.91,1,1.59,1.63.71.73-.73.13-1.18.2-.33,1.3-.52,2-.24.93.71.85,1.24,1.52-.29.63-.2.44,0,.66,0,.39-2,1.17-.29-.33-3.1-3.46-1.46-1.64-1.94.81-5.48,2.27-3.6-.15-2.12-1.13-.45-9-.08-1.57-1.27-.64L123.74,669l-.73-.37-.71.11-4.79.74-3.78-1.26-1.14-.38-.92.68-5.3,3.92-1.49-2.66-.76-9.51-.21-2.59-2.25,1.07-5.4,2.57-5.11-.45-2.28-2.54-.23-4.88V653l0-.33-.06-.68-.12-1.35L88.16,648l-.11-1.22-1.14.08-7.54.57-1.85-3,2.13-8.23.45-1.75-1.54.81-5.67,3-.06,0,0,0-4.28,3.22-4-8.1-.19-.38-.32.27-4.79,4.1L54.53,640,50,637.66l4.44,2.55.05,0,0,0,4.84-2.39h0l0,0,4.61-3.63,3.77,8.47.25.57.54-.37,4.86-3.36,4.15-2-2.08,6.89-.12.41.22.38,2.26,3.94.29.52.64,0,6.93-.23.2,4.21L86,659v.5l.35.42,2.87,3.49.35.43.61.08,6.09.8.4,0,.45-.19,3.51-1.5.3,7.51V671l.22.44,2.64,5.19,1,2,2-1.34,6.33-4.3,3.25,1.23.47.18.6-.06,4.5-.51,2,1.15.1,9.18,0,1.55,1.39.82,4,2.33.49.28.69.06,4.85.41.58.05.67-.24,4-1.49.74.91-.5,5.41L141,695l.29.8,1.68,4.66.55,1.54,1.66.51,3.8,1.17.67,1.13-.36.74,1.05.43.15.25.2.56-.57.31-1.83,1-1.61-.12.09.93-4.89,2.62,5.26,1.36.8,8.58-7.41-.77-1.79,6.14-6.85,1.66-4.2,1.91-4.36-1.79L121,726.38l-.88-1.65,2.94-6.57.75-1.7-1.06-1.33-2.89-3.63-.68-.85-.94-.19-4.89-1-.68-.13-.62-.11-1.23-.22-2.46-.43-2.12-.37-.75,1.88-1.84,4.62-2.15-.66-7.58-3.81-2-1-.83,1.95-2.37,5.54-3,4.46L80.8,721l-1.44-4.86-1-4.95-.39-2-1.59,1.18-5.23,3.85-2.91-.58L64.69,708l-.44-.7-.67.41-4.33,2.62,0,0h0l-3.62,2.77L51.06,707l-.25-.34-.29.3L47,710.57l-.22.23-.1.1-.11.11-.47.43-.93.86L43.35,714l-4,.28,4-.08h0l0,0,1.95-1.61,1-.82.49-.4.12-.1.12-.12.23-.22,3.37-3.18L55,714.2l.3.47.49-.33L60,711.46l3.72-2L66.81,715l.2.35.44.11,3.77.94.44.11.42-.28,4.09-2.71.45,3.14v0l0,.1,1.49,6.09.25,1.05,1.16.1,6.91.6.91.08L88,724l3.92-5.22.08-.1.1-.21,1.73-3.52,5.74,3.25.11.06.23.09,4.37,1.6,2,.73.94-2.06,2.07-4.52.46.11,1.22.27.61.14.15,0,.08,0h0l.3.08,3.78,1,1.07,1.49-2.38,4.69-.86-.33.32,1.39-.3.59-.66,1.3.07.16-.44.2-1.11.49-.73.33v1.58l-.3,0-1-.17-.25.94-.18.68-.59-.28-1-.48-.34,1-.42,1.25-.6-.07-1.34-.34-.22-.05-.19,0-1.25.27-.4.08-.18.33-.45.81-.82-.95-.33-.38-.45.13-1.12.33-1.15-.14-.45-.06-.23.36-1,1.54-.63.09-1.22-1.75-.57-.82-.41.89-.9,2L92,732.1l-.35-.27-.27.3-2.09,2.2L88,731.68l-.21-.42-.3.34L86.28,733l-1.11,1.37-1.06.2-1.51-1.83,0,0h0L81,731.78l-.1-.06,0,.11L80,734l-1.63-1.13L80,734.13l0,0,0,0,1-2.1,1.37.91,1.48,2,.07.09h.12l1.27-.18h.07l.06-.07,1.22-1.38.95-1,1.21,2.81.22.51.4-.4,2.27-2.19,1,.86.47.4.3-.58.81-1.58.83,1.32.2.31.4,0,1.31-.13.27,0,.18-.26,1-1.35.88.15.14,0,.16,0,.77-.18,1.22,1.54.72.9.61-1,.87-1.42.67-.11,1.23.37h.11l1.43.24.74.12.29-.75.33-.87.74.38,1.08.56.38-1.21.27-.86.68.15,1.29.27,0-1.37,0-1.29,1.57.76.68,1.46.19.4.42.45,3.06,3.2.37.4.65.3,1.94.91-1,1.33,3.9,3.17-.42,3.44-.16,1.28.81,1.24,3.38,5.13,1,1.59,2.09.1,1.5.07-2.38,3.28-5.73,5.77,8.91,3.89-1,.81-.38-.26L130,764.55l-2.14,2.33-4,4.34-2.94,3-1.61-.1-4.37-5.1-1-1.14h-1.38l-4.59,0-2.41,0-.77,2.24-2.89,8.37-2.49.82-3.26,0-4.84-3.32-3.57-2.44L87,777.83l-.92,5.44-.19,1.14.57.85.89,1.35-1.22,0-2.37-.08.74-4.14,0-.16-.15,0-2.55-.32-2.63-.71-1.31-2.07,1.24,2.13v0h0l2.63.83h0l2.38.39-.93,4.23-.06.26.28,0,2.63.19h1.67l1.67,2.51.16,3.52-2.17,4.22-.13.25,0,.19-1.17,3.94-1.92.95-.89-.23-1.07-.28-.82.67-3.52,2.87-4,.14L73,806l-.55.56-3.88,4-.29.3-.13.31-2.77,6.56-3,.79-5-3.37-5.75-3.66-1.32-.83-.69,1.4-3.09,6.21L43,819.89l-.78.36,0,.82.1,4.58-5.28.3-.61,0-.25.54-1.83,3.86-5.09,1-.6.13-.06.6-.54,5.31-3.46-5.76-.24-.41-.41.22-5.65,3-5.12,1.25-4.39-2.07H8.76l-4.82-.48L0,829l3.81,4.44,0,0h0l4.8.66L13,836.36l.08,0,.1,0,5.31-1.08h0l.05,0L24,832.62l4,7.24,1,1.72.27-2,.92-6.66,5-.81.44-.07.22-.44L37.65,828l5.83-.12,1.07,0v-1.14l.06-4.82L48,820.48l.42-.17.24-.45,2.74-5.06,4.3,3,5.46,4,.56.41.74-.17L67,821l.83-.19.39-.85,3.19-6.86,3.15-3H79.2l.6-.45L83,807.17l.69.2.71.22.78-.35,3.62-1.63.91-.4.35-1.05,1.54-4.59,2.59-4.63.33-.57v-.75l0-1.66.93.46.18.09.21-.06,2.54-.63,1.35,1.07.09.07.13,0,1.52.45,1.16,2.64.4.89.77-.64,2-1.65,1.54-.2,2,.35h.08l1.11.09.55,0h.6l1.23,0-.07,1.74,0,.78.79.22,1.78.48v2.53l.91.19,2.23.47.29.75L117.18,806l-.33.78h0l-7,.33-1.49.07-.57,1.27-2.63,5.84-.26.6.06.56.52,4.45-1.82,3-.43.71.15.73,1,4.84.06.31.12.21,3.11,5.66-1.42,2.61-5.75.94-6.22.48-1.39.1.14,1.32.66,6.27L91,850.26l-.16.19-.05.19-1.43,4.93-5.55-1-.4-.08-.28.26-3.25,3-5.15-1.13-.44-.09-.19.38-2.56,5.22-5.64-4.32-.2-.15-.15.2L62.1,862.6l-4.23,2.87,4.37-2.69h0l0,0,3.54-4.39,5.65,4.73.38.32.25-.45,2.82-5.15,5,1.34.32.09.29-.24,3.33-2.8,6,1.35.8.18.28-.82,1.83-5.4,3-3.33.31-.34,0-.52L95.73,842l5-.16h.12l6.63-.78.74-.09.43-.7,2.44-4,.46-.78-.43-.88L108,828.22l-.63-3.82,2-2.93.37-.56-.06-.76-.32-4.48,2-3.89,5.82,0h.1l.2,0,4.31-.54,4.27.86.68.13.76-.27,4-1.42.72-.26.54-.7,2.67-3.44,2.23-.44,1.56.59,0,.17.22,1.38-2.37,2-.7.59.21.86.58,2.34.27,1.08,1.07,0,3.26,0-2.07,1.64-.56.44.07.67.22,2.22.1.94.89.16,2.37.45-.5,1.33-.44,1.17,1.17.35,1.8.53-.95,1.57-.71,1.18,1.28.4,2.5.79-.31,1.22-1,1.91-.12.22v.23l0,2v.49l.38.29,1.6,1.17-2.4,1.1-.56.25.05.6.17,1.73-.69,1.61-.23.53.42.38,2.33,2.15-.14,1.08-3.73.72-1.36.26,1,.92,2.84,2.56-1.7.72-.56.23.23.54,1.16,2.72.72,2-5.28-.78-.74-.11.26.7,1.08,2.9,1.11,2.73-.61,1.51-4.09.2h-.05l0,0-2.76,1.13-.33.13.22.26,2.45,3-3,1.06-.2.07.12.18,1.91,2.67h0l2,2.26-.77,1.7-4.61,2.3,4.69-2.2h0v0l.84-1.75,0,0,0,0-1.95-2.35-1.72-2.53,3.1-1,.28-.09-.18-.23-2.34-3,2.42-.92,4.27-.1h.21l.09-.2.8-1.84.06-.13-.06-.15-1.09-2.88-.76-2.2,5.38.93.84.15-.27-.83-.94-2.85-.89-2.25,2.1-.83.91-.36-.72-.68-2.49-2.35,2.93-.49.51-.09.09-.53.31-2,.06-.38-.29-.28-2.14-2.08.58-1.28.09-.19,0-.22-.09-1.32,3.29-1.41,1.4-.6-1.22-1-2.38-1.84,0-1.23,1-1.8.06-.1,0-.13.63-2.27.25-.92-.92-.31-2.08-.72,1-1.63.77-1.2-1.38-.44-2-.63.62-1.52.52-1.29-1.4-.3-2.81-.59,0-.63,4.58-3.44,3-2.24-3.75-.15-5.88-.24-.09-.42,2.41-1.92.64-.52-.12-.86-.09-.71.44.17,1.24.47,1.32-.67L150,805.1l.63-.32.5-.68,3.06-4.14,1.44-1.94-.92-1.27,2.49-1.07,3.69,4.34,4,6,4.6,10.54,6.8.46,3.57-1.78.09.79,1.81.73,3.51,1.41L182.77,820l-1.24.9-.13,1.41L181,827l-.16,1.58,1,1,3,2.74-1.28,2.84-.81,1.79,1.2,1.31,3.25,3.54,1.63,4.94.61,1.83,1.78-.1,5.1-.28.84,1.07.8,1,.4.51.2.26.1.12.05.07v0l3,4.2.23.32.24.18,4,2.89.5.37.54,0,3,.17L207.94,862l-.51.61,0,.72.28,4.63-.83,4.55-.13.75.41.53,3.43,4.48,0,3.67-4.73,4.31-1.13,1,1.13.88,5.14,4,.73,4.13.11.65.6.13,9.48,2-2.2,8-.17.61.58.11,5.23,1,5.16.89,3.05,2.89-.49,6.7v0h0l1.11,5.19-.9-5.22.77-6.8,0-.11-.09-.09L231,909.06l-.06-.07-.1,0-5.2-1.13-4.57-1.09,2.58-8.1.24-.76-.77-.19-9.49-2.44-.54-4-.05-.38-.32-.28-4.12-3.5,4.28-3.59.47-.39,0-.67.15-4.82v-.47l-.29-.42-3.08-4.4.91-4.08,0-.18v-.25l-.08-4,4.5-5,2.62-2.88-3.82-.38-6.12-.61-3.13-2.49-2.65-4.12-3.1-4.32-.66-.92h-1.23l-4.34.05-1.1-3.85-.14-.5-.39-.47-2.21-2.61,1.56-3.12.94-1.87-1.51-1.52L187,826.05l.23-1.65,6.55-4.34,1.9-1.26-.22.91,2,1.12,3.75,2.13-.16,4.2-.1,2.77,2.63.21,5.11.42,2.14,2.72.19.25.16.13,3.92,3.33.57.48.63.1,4.85.76,1.1.17.78-.64,3.12-2.58,3.17,3.5.74.82,1-.11.84-.09-.09.4-.16.76-.18.81.37.36h-.29l-.34.69-.64,1.26-.41.82.62.6.8.76-.26.51-.5,1,.91.51.39.22-.22.3-.63.88.85.57.73.48-.1.19-.73.7-.12.12-.06.11-.48.92-.18.36.11.33.23.65-.95.08-.51,0-.16.45-.36,1-.68.91-.26.36.18.37.74,1.46-.12.72-1.46,1.47-1,1,1.41-.08,2-.11.41,1,.13.32.33,0,1.42-.18,1,.48-1.88,1.28-.27.18.21.23.95,1,.79,1.22-.18.92-1.86.55h0l-1.17.94-.06,0,0,.05,1.56,1.29-1.43-1.33,1.16-.82,2-.47.08,0,0-.1.27-1.07,0-.07,0-.07-.76-1.34v0l0,0-.7-.84,2.22-1.34.51-.31-.54-.3-1.61-.88-.09-.05h-.13l-1.19.08-.36-1-.11-.31h-1.27l.65-.58.13-.12.05-.2.25-1.11,0-.19-.09-.21-.55-1.27.54-.66.06-.07.05-.13.26-.63,1.56,0,1,0-.3-1-.36-1.26.26-.44.81-.69.09-.08.1-.16.63-1.07.43-.72-.71-.54-.51-.38.36-.44.73-.9-1-.66-.44-.28.22-.36.41-.72-.61-.65-.41-.44,1.77.19,3.43.35-2.38-2.6-1.29-1.4.48-.24,1.22-.61-.31-.72,2.71.7.83.21.64-.41,4.24-2.67,2.4,1,.12,5.72,0,1.83,1.73-.36,5.94-1.23.5,3.77.1.78.7.23,5.09,1.66,4.05,1.49-3.75,7.31-.41.81.83.27,5.19,1.72h.05l5.14,1.26L275.1,866l-.29,6.64v.08l0,.06,2.51,5.12.06.14.14-.06,6.37-2.76-6.35,2.42-2.19-5,.6-6.75,0-.19-.14-.14-2.79-3-.09-.1-.15,0-5.16-1.51-4.25-1.62,4.18-7.34.54-.93-1-.43-5-2.09-4.35-1.64-.39-4.51-.12-1.39-1.44.23-5.57.9.12-5.07,0-1-1-.47-4.15-1.92-.78-.37-.82.47-4.36,2.48-3.43-1-.3-.09-.4,0-3.37.21-3.74-4.54-1.33-1.6L225,830.46l-4,3-3.08-.63L214.82,830l-2.61-3.65-.65-.91-1.22-.15-3.44-.44.28-3.41.14-1.73-1.58-1-3.09-2,.91-3.2.61-2.11-1.89-1.36-3.84-2.77,0-1.44,5.49-6.52,5.42-6.43,6.42.23-2.14-4.81,4.23,1.08,2.12.54,1.4-1.65,2-2.31,1.3,4.61.85,3,2.86-.78,3.4-.93,2.85,2.74,1.78,1.71,2-1.44,3.58-2.64.72-.54,0,.08-2.24,5.23L239,800.13l3.13.37,7.93.94-3.16,3-2.63,2.48,3.25,1.1,5.1,1.72,1,.33.81-.6,2.2-1.63,2.42,5.1.44.9.92.09,4.49.44,4.1,2.14.42.22.43,0,4.13-.38,3.25,4.7.73,1,1.08-.61,5.49-3.1,4.15-2,2.59,7.62.69,2,1.2-1.78,6.74-10,3.75.51,3,7.7.27.71.64-.37,7.09-4.1-5,10.11-.15.31.3.12,5.39,2.16h0l6.4,1.52-1.59,6,1.8-6.07,0-.1ZM286.2,716.36l.92.38.37-.89,2.34-5.71,4.72,7.7.36.59.54-.4,2.34-1.74,1.16-.87.59-.44.58-.45,4.31-3.36,3.62,4,.14.15-.74,2.52-3.67,1.55-4.72-1.1-.16,0-.16.09-3.35,1.75-3.59-3-.26-.21-.38.09-5,1.27-2.36-2.93Zm-61.31,18.85,1.62-.94.28-1.67.61-3.72,2.6-.3,2.95-.35.06-2.87.07-3.37,3.57,1.1,1.58.48,1.12-1.06,3.35-3.18.38-.35.17-.32,2.46-4.47,1.55-2.94,2.68.52.45.09.32-.06,3.51-.62,4.12.21,3.63,2.52.73.51.75-.22,4.3-1.27,2.63,4.54.8,1.39,1.25-.92,1.66-1.23,3.37,7.59-5.86-.38-1.81-.12.12,1.87.34,5.41v.08l0,.15.78,3.92L267,736.8l-1,.36-.23,1.07-.85,3.83-2.87,2.8-.09.08-.12.16-1.49,2-4.66-1.84-1.92-.76-1,1.9-2.15,4.11,0,0-.05.13-.92,2.15-3.09-3.1L243,746.14l-1,5-1.48,7.43-.46-.24-4-7.61-2.59-5-3,4.88-3.89,6.3-2.08,1.37-1.91-2-1-1-1.58,0-1.11,0-4.79-4.13.69-3.42,3.2-6.15,1.38-3.5.46.08,1-.59ZM149.1,691.47l-.65,1.68,0,.05-.07.25-.27,1-.29-.72.17-3.27,1.11.79ZM122.62,806l.12,0,.15.09Zm23.55-6.31-2.58,1.46-4.68-1.53-.89-.29-.77.19-4.12,1-1.13.28-.6.84-2.74,3.89-2.46,1-.49-1.64-.17-.58-.48-.27-1.52-.84-.65-.36-.62.29-1.5.73.46-1.19.19-.48-.19-.43-.76-1.78-.26-.6-.6-.11-2-.34,0-1.51,0-.85-.78-.18-1.85-.42v-2.86h-.95l-2.21,0h-.51l-.55,0-1.09,0-2.11-.28-.14,0-.11,0-1.88.31-.25,0-.16.15-1.36,1.23-1-2-.14-.29-.3-.08-1.74-.45-1.51-1.1-.26-.19-.27.08-2.64.77-1.22-.55,0-2.12V788l-.4-.65-2.55-4.15,2,1.49.65.48.91,0,4.57.14.41,0,.49-.15L105,783.9l1.44-.42.6-1.55,2.83-7.36.8,0,4.24,5.34.84,1,1.45.14,4.6.45,1.53.15,1.25-1.19,2.13-2,1.07-1,.53-.51.27-.26.13-.12.21-.21,1.82-1.84,2.39,1.73.47-.7,2.86,1.92-3.65,5.89,11.61-1.93L146,783.7l-.31.15-1.32.65-.5,1.2-1.4,3.33-.86,2.05,1.28,1.61,4.34,5.47Zm47.18,14.47-6.92-3.13-.06-1,1.1-1.32.9-1,3.33.63.07.85.12,1.73,1.33.87,3.57,2.35-.33,1.4Z" style="fill:#9b9b9b"/><path d="M204.09,760.39c1.71,3.79.94,7.93-1.09,11.64-.34.62-.71,1.23-1.11,1.82-3.87,5-7.11,9.88-12.56,12.34-.53.33-1.06.63-1.6.92a28.64,28.64,0,0,1-3.33,1.53,29,29,0,0,1-7.16,1.75,28,28,0,0,1-6.54,0c-.7-.09-1.4-.2-2.08-.27-6.26,1-11.13-3.91-14.92-7.8-.52-.41-1-.83-1.52-1.27a27.64,27.64,0,0,1-9-16.58c-.19-.69-.36-1.37-.52-2.06-1.39-6.21-1.28-12.62,1.84-18.35,3.65-6.89,10.14-11.14,17.38-13,.73-.19,1.46-.35,2.19-.55,4.75-3.47,10.43-1.85,15.59.56.71.2,1.42.4,2.11.63s1.37.48,2,.75a31.93,31.93,0,0,1,4.69,2.23c.38.22.75.45,1.12.68,6.76,3.84,14.87,9.51,13.62,18.36.1.42.19.84.26,1.27s.15.86.21,1.29.11.88.16,1.32.07.91.11,1.38S204.06,759.88,204.09,760.39Z" style="fill:#414042"/><path d="M204.09,760.39c0-.51-.06-1-.09-1.46s-.07-.93-.11-1.38-.1-.88-.16-1.32-.13-.86-.21-1.29-.16-.85-.26-1.27c1-7-3.95-12.08-9.42-15.77,4.72,3.56,8.56,8.23,7.67,14.52.1.42.19.84.26,1.27s.15.86.21,1.29.11.88.16,1.32.07.91.11,1.38.06,1,.09,1.46c1.71,3.79.94,7.93-1.09,11.64-.34.62-.71,1.23-1.11,1.82-3.87,5-7.11,9.88-12.56,12.34-.53.33-1.06.63-1.6.92a28.64,28.64,0,0,1-3.33,1.53,29,29,0,0,1-7.16,1.75,28,28,0,0,1-6.54,0c-.7-.09-1.4-.2-2.08-.27a11.9,11.9,0,0,1-8.37-2.07c2.89,2.27,6.23,3.91,10.12,3.32.68.07,1.38.18,2.08.27a28,28,0,0,0,6.54,0,29,29,0,0,0,7.16-1.75,28.64,28.64,0,0,0,3.33-1.53c.54-.29,1.07-.59,1.6-.92,5.45-2.46,8.69-7.32,12.56-12.34.4-.59.77-1.2,1.11-1.82C205,768.32,205.8,764.18,204.09,760.39Z" style="fill:#fff"/><path d="M199.69,759.69a24.7,24.7,0,0,1-6.63,16.87,22.08,22.08,0,0,1-1.62,1.59c-5.11,4.37-12.35,8.82-19.28,6.64a13.09,13.09,0,0,1-1.89-.76c-5.54.36-10-2.31-13.26-6.29-.46-.57-.91-1.16-1.33-1.78a25.16,25.16,0,0,1-6.06-13.9q-.17-1-.24-2.07a22.11,22.11,0,0,1,1.63-10.3c4.86-10.54,15.4-15.41,26.75-14.59,8.11.81,14.59,5.67,18.54,12.08a24.22,24.22,0,0,1,2.5,5.92A24.72,24.72,0,0,1,199.69,759.69Z" style="fill:#231f20"/><path d="M335.43,86.49l-.05,0,0,0-4.5,4L326,92.25l-6.56-9-.36-.49-.32.53-3.92,6.68-5.41-4.11-.53-.4-.37.58-4.29,6.84-3.65,4.44-6.78-11.5L292.73,84,292,86l-3,7.58-5.94-6.25-.56-.58-.8.26-5.31,1.75-.88.29-.05,1-.56,11.66L269,96.43l-.95-.84,1.3-1.32L268,95.53l-.66-.58-1,2-.11.23-2,2-3.46,1-.15,0,0,.17-1,6.37-1.55.63-1.44-.31-1.73-.37-.27.78-2.53-.85-.2-.06-.22.08-3.33,1.2-3.75-.9L244,107l-.34.34-2.85,2.92-3.31-2.16-.06,0-.12,0-3.68-1.47-.82-.33-.54.77-3,4.33L227,108.09l-.84-1.13-1.19.87-3.15,2.3-3-.92-.66-.2-.65.38-3.29,1.91-.23.13-.22.26-1.71,2-3.79-1.3-1.55-.53-.81,1.53-2,3.7,0,.06-.06.15-1.33,3.34-1.1,1.42-6.1-.81L191,120.7l1.87,4.06,1.74,3.78-1.89,1-1.6.81.07.65h0l-3-2.64-.4-2.34-1.66-.73-1.2-1.32-2.37-4.54-2.15-1.86-.13-.22,1.12-2.21,1.57-3.07-2.87-1.59-2.79-1.55,3.45-1.89,1.59-.87.05-1.66.12-4.57,0-.48-.09-.33L181.1,94l-.46-3.17,4.47-1.39,1.68-.52.11-1.64.35-5,1.49-3.4,4-1.4,1-.36.3-1L195.41,72l5.49,1.71,2.4.74L203.23,72,203,63.66l3.82-1,6.12-.34,1.06-.06.14-1,.05-.32.41-.23.36-.13,1.2,1.83.26.38.41.1.91.22.21.06.19,0,.65-.08-.67,1.21-.62,1.12,1.2.36,1.31.39.7,1.33.39.74.76-.25,2.08-.69.24-.08.15-.16,1-1,.56,1.77.12.37.34.15,1.92.85,1.13.5,0-1.21.07-2.91,1.47.71,1.25.6L232,65.52l-.35-2.12v-.06l-.22-.87,1.67-.49.35-.1.09-.34.29-1.21,1-.74.06-.05,0,0,.62-.76,1.3.69.42.23.27-.38,1.06-1.46.89-.82,1.23,2,.46.73.33-.78,1.42-3.34h1.07l1.14,2.24.22.42.31-.35,1.4-1.54.76,3.13.07.3.27-.15,1.63-.92h0l1.6-1.19L252.42,59l.09.12.12-.09,1.6-1.28.93,2.65,0,0h1.56l1.54-.59,1.37,1.11-1.35-1.16h0l-1.55.56-1.43,0-.89-2.77-.05-.15-.13.09-1.65,1.24-1-1.5-.1-.14-.14.1-1.76,1.24-1.37.72-.72-3.38-.11-.52-.38.39-1.49,1.55-1-2-.09-.19h-.23l-1.55-.07h-.25l-.11.24L241,57.79,239.94,56l-.29-.49-.45.38-1.39,1.21,0,0,0,0-.84,1.09-1.3-.73-.39-.23-.31.36-.89,1-1.11.81-.17.12-.06.22-.28,1-2,.51-.61.16.14.63.32,1.46.1.74-1.29-.67-1-.53L228,64.34l-.16,2.84-.45-.22-.83-2.88-.42-1.43-1.08,1.06-1.89,1.86-1.09.33-.49-1-.18-.36-.41-.14-.47-.15,1.16-2,1.07-1.81-2.12.22-2.53.25-.27-.07-1.43-2.32-.48-.78-.9.31-.45.15.4-2.81,4.42-1.86.29-.12.15-.22,2.68-4,5.72-1.83.27-.08.12-.2,2.76-4.49.17-.28-.14-.28-4-7.83,2.82-3.73,0-.05v-.05l.77-4.81.94-4.76-1.17,4.72-1,4.7L226.75,34l-.13.16.09.21,3.55,7.91-2.64,3.87-5.87,1.57-.27.07-.19.26-2.85,3.82-4.86,1.76-.56.21-.13.64-1,5.37-5.3,0h-.1l-.17,0L201.08,61l-1.17.25,0,1.26-.15,7.05-5-1.82L193,67.06l-.69,1.87-1.82,4.9L186.39,75l-.88.26-.45.92-2.27,4.56-.16.32,0,.46-.42,3.53L177,86.44l-2.13.55.23,2.32.54,5.6V95l0,.21,1,4.74-.18,2.4L169,106l-5.26,2.56,5.1,3.16,3.09,1.92-3.18,6.62-.84.68-3.85-4.11-6.43,1.1-5.66-4-6.7-3.11-5.75.71v-.72l-.42-.42-.65-.64.67-1.92.26-.73-.46-.57-1.07-1.38-.59-.74-.86.26-1.7.52.72-1.11.33-.51-.2-.55-.61-1.63-.28-.76h-.77l-1.65,0,.14-.93.14-1-.95-.22-.82-.19.31-.36.63-.75-.7-.64-1.54-1.4.5-1,.93-1.69.11-.21V89.75l-.31-.25-1.26-1,1.75-1.12.43-.28-.07-.48L131.31,85l.39-1.54.09-.36-.23-.27-1.37-1.63.63-.75L133.17,82l1,.65-.08-1.16-.22-3.34.61-1.69.19-.53-.54-.13-2.36-.53L130,74.56l2.84-2.9.31-.31-.36-.22-2-1.25-1.74-1.74,0-1.72L132,65h0l0,0,1.76-1.67.11-.11-.12-.1-2.46-2,1.93-1.86,0,0,0,0-2.06-1.67,2,1.7-2,1.83-.08.07.08.06,2.35,2-1.67,1.49-3,1.35-.13.06v.15l-.09,2v.11l.08.08,1.79,1.9,0,0,0,0,1.6,1.09-3.1,3-.45.43.59.26,2.38,1h.07l1.81.47-.49,1.26,0,.09v.12l.08,2.27-1.82-1.28-.45-.32-.39.43-1.42,1.56-.37.41.36.46,1.43,1.82-.38,1.34,0,.13,0,.15L130,86.3l-2.36,1.4-1,.58.87.75,1.75,1.52,0,1.1-.87,1.47-.92,1.76-.32.61.52.51,1.29,1.26-.83.93L127,99.44l1.66.43,1.47.39-.22,1.21-.22,1.23,1.28.06,2.08.11.12.35-2.41,3.46-1.88,2.71-2.13-.49-1.7-1.21.14-7,0-1.22-1-.57-3.35-2-.54-.33-.55,0-4.08.2-3.23-1.2-.88-.33-.71.49-4.39,3L105,96.51l-1.36-7.32-.31-1.67-1.49.69-4.78,2.21-.09,0,0,0-.07,0-.14.08-.29.16-.59.3-1.16.62-2,1.08-3.06-.42-3-2.76-.05,0v0l-3.47-2.66-.58-.45-.46.53-4.13,4.63-3-.37L71.3,86l-.23-.34-.32.23-3.7,2.71,0,0h0l-3.17,3.09L59,86.14,63.71,92l.11.14L64,92l3.42-3,3.47-2.3L74.13,92l.12.2.25,0,3.58.6.31,0,.24-.24,4-4.14,2.76,2.33L88.49,94l.2.2.32.06,3.68.68L93,95l.33-.16L98,92.58l3.29-1.34.84,6.06,0,.26.16.28,2.33,4,.8,1.37,1.41-.87L112,99.19l2.76,1.17.31.13h.41l3.79,0,1.8,1.2-.37,5.6-.15-.08-.45-.22-.4.24-.94.58-.51.31.11.56.21,1.12-.65-.54-.3-.25-.35.08-1.08.26-.5.12-.06.49-.13,1-.57-.16-.62-.18-.21.6-.17.49-.19-.21-.43-.47-.46.41-1,.88-.61-.39-1-.72-.12-.09-.14,0-1.09-.13-.27,0-.18.18-.73.72-.57-1.2-.14-.3-.32,0-1,0-.93-.35-.22-.09-.19.13-1.13.76-.42-.45L104,109l.5-.58-.76,0-2.14-.09-1-.52-.33-.17-.11.34-.5,1.46L99,110.54l-1.62-2.05-.17-.22-.16.21-.93,1.17-1.22,1-1.08-.14-.65-2v0h0l-.92-1.24-.06-.09-.07.07-1.44,1.44-1-1.38,0,0,0,0-1.2,1.19,1.21-1.13,1,1.43,0,0,0,0,1.45-1.36.8,1.18.61,2,0,.09h.09L95,111H95l.06,0,1.33-1v0h0l.79-1,1.64,2.22.23.32.21-.35.82-1.44v0l.42-1.12.74.42.06,0h.08l1.44.1-1,1-.24.26.24.27.88,1,.23.27.32-.2,1.25-.79.8.34.08,0h.88l.7,1.61.29.67.54-.51,1.08-1,.68.1.86.67,1,.72.37.26.36-.31.88-.73.51.6.71.84.39-1.05.34-.9.75.24.76.24.13-.82.21-1.32.22,0,2,1.82,1.65,1.49-.35-2.22L120.1,109l0,0,.42.23,0,.65,1,.75,2.92,2.29.31.25.49.13,3.77,1.07.4.11.52-.06,4.08-.46,1.63,1.22,1.14,4.43.15.59.49.54.75.83.4,2.87-1.67,5.33-4.59,4.19-6.47,4,.11.23-4.66-.17-.32,0h-.13l-5.58.41-1.24.09-.85.63-3.78,2.83-3.18-.66-4.86-4-1-.84h-.91l-.1-.16-.46-.73-.8-.16-1.19-.23-.67-2.65-.26-1-.93-.31-2.23-.74-1.2-.4-.77.93-1.52,1.84,0-1.77v-.83l-.63-.46-1.9-1.38-.88-.63-.87.55-1.87,1.18-.53-1.13L82,127.05l-1.23.46-1.06.4.08-.64L79.9,126l-1.26-.2-2.76-.43-.21-1.53-.21-2.59,0-.32-.16-.24-1.28-2-.32-.47-.53-.06L71,118l1.13-2.55.28-.63-.44-.49-1.45-1.6-.71-2-.17-.48-.45-.13-2.75-.82.16-1.3,3.78,0h1.58L71,106.69l-2.72-3.58-.57-2.34-.19-.75-.69.27-3,1.15-2.54.53,1-5.36L62.4,96h-.57l-3.13.07-3.24-.66L54.2,93.51l2.21-3.7,0,0v0l.73-3.17,0-.21-.2,0-4.24-.41.79-3.51v-.06h-.06L50,82l3.46.46L52.51,86l0,.12.13,0,4.14.53L56,89.59l-2.41,3.77-.1.16.1.16L54.94,96l.07.13.15,0,3.41.81h.09l2.6,0L60,102.57l-.19.82.84-.15,3.44-.6h0l0,0,2.38-.81.38,1.78,0,.13.09.13,1.76,2.48-3-.08-.74,0L65,107l-.43,2.8-.11.74.73.25,2.95,1,.57,1.78.06.18.14.16,1.06,1.26-1.59,3.32-.66,1.36,1.54.2,3.08.4.77,1.26.12,2.3.27,2.65.09.93,1,.18,2.38.45-.25,1.66-.33,2.23,2.18-.74,1.93-.65.66,1.52.66,1.54,1.48-.88,2.41-1.42.39.3-.13,5.67-.11,4.43-2.74,1-2.81-.1-5-7.91-.87-1.38-1.51.07-5.25.22-.85,0-.59.43-4.43,3.25-4.5,1L56,138.8l-.44,1.07-2.7,6.6L49.55,145l-6.94-7.19L41,136.2l-1.16,1.87-3.71,6-.07.12,0,0-.06.09-.1.2-.22.39-.42.77-.85,1.55L32.92,150l-3.74,1.8-5.39-.89h-.11l-5.85-.41-1-.07-.13.93-1.19,8.24-3.67,1.84-7.91-3.23-.51-.2-.18.49L1.1,164.24v0h0l-1.26,5.8-9.58-2.55,9.69,3.07.23.07.06-.24L1.8,164.5,4,159.35l7.59,3.51.29.13.31-.14,4.45-2,.38-.17.09-.45,1.46-7.62,4.81.56,5.76,1.22.37.08.41-.17,4.62-2,.39-.17.25-.42,3.63-6,2.69-3.94L46.94,148l.23.26.39.19,5.55,2.73,1.91.94.94-2,3.36-7.25,4-.73.44-.09.47-.31,4.24-2.82h2.89l3.73,6.55-.22,0-.67.08-.26.57-.63,1.34-.34.73.53.55,1.07,1.11-1.13-.14-.52-.06-.33.36-1,1.09-.47.5.29.6.63,1.26-.75.24-.84.27.21.82.18.68-.38-.1-.82-.21-.21.8-.46,1.72h-1l-1.64-.07h-.21l-.17.08-1.32.66-.33.16-.07.34-.28,1.35-1.52-.92L62,159.1l-.34.25-1.11.79-1.31.29-.31.07-.12.28-.7,1.69-.8-.19.3-2.41.13-1-.86.53-2.47,1.49-1.52.16-.49.05.12.47.53,2,.15,1.64-3.33-1.1-.35-.11,0,.36-.17,2-.64,2-1.31.64-2.17-1.71h0l-1.94-.72-.13-.05,0,.13-.55,2.68-2.15-.79,0,0v0l-.47,2.23.53-2.17,2.17.87.08,0,0-.09.62-2.6,1.77.72,2.2,1.84.09.08.12-.05L49,168.7l.08,0,0-.09.74-2.11v-.05l.19-1.64L53.51,166l.51.18,0-.55-.14-2.22v-.06l-.36-1.56,1.15-.08h.09l.09-.05,1.7-.95-.3,1.87-.08.47.48.14,1.73.47.46.13.2-.45.82-1.81,1.15-.22.12,0,.11-.08.86-.57L64,162l.82.54.23-1,.47-1.94.84-.39,1.45.12,1.69,0h.6l.18-.6.44-1.47,1,.29,1.41.41-.33-1.46-.28-1.27,1-.28,1-.3-.46-1L73.41,152l.21-.21,3.62.54,3,.44-2-2.23-2.49-2.75,0,0,.63-.06.44.77,1.63.13,5,.4.54,0,.64-.21,5-1.59.52-.17.54-.45,4.24-3.54,2.73.15,4.55,4.12.61.55,1,.25,5.68,1.46,1.57.4,1.49-1,4.22-2.86,4.21-.11,5.68.48-7.67,2.26,8.33,8.7-8.29,4.21,6.36,7.73-3.87-.39,3,3.62,4.4,6.08,5.06-1.9-.26,1.67-.16,1,.28.86.56,1.68,0,.06-2.16,3.32-.36.55,0,.58-.12,4.45-1.87,2.26-3.25.71-3.11.72-2.91-2.35-.5-.4-.57,0-2.39-.07h-.2l-.14,0-1.22.2-.1-.47-.08-.32-.15-.21-.43-.61.89-1.18.41-.55-.15-.59-.66-2.53-.27-1-1,0-2.27.11.63-1.82.22-.64-.42-.46-1.46-1.59-.41-.44-.54.1-2.08.4-1.14-1.21-.48-.51-.58.28-1.63.79-1.37-1.09-.55-.44-.49.44L99.77,180l-1.44-.34-1.77-.6-.1,0h-.07l-1.74-.12h-.17l-.13.06-1.64.8L92,177.8l-.08-.2-.18-.08-1.56-.65-1.23-1.18-.12-.11h-.15l-2.29,0-1.16-1.14.45-2.52,0-.31-.3.05-2.77.51-1-1.54,0-.07-.07,0-1.86.87-1.81,1,1.85-.89,1.82-.74.94,1.6,0,.08h.1l2.57-.34-.53,2.34,0,.14.1.11,1.3,1.42.09.09h.15l2.24.08,1.13,1.18,0,.05.09,0,1.4.67.78,2.37.18.56.55-.25,2-.87,1.49.17,1.71.68H98l1.84.53.35.1.32-.26,1.33-1.09,1.24,1.1.39.34.51-.22,1.51-.64,1,1.2.33.38.55-.08,2-.28.6.72-1.15,2.85-.64,1.58h4.68l.19.91-1.23,1.48-.39.46h-.54l-4.28.07h-.31l-.24.09-4.24,1.68,0-.38-.72-.29L97.91,190l-.34-.14-.32,0-5.57.6-1.45.15.34,1.37,1.33,5.39-1.45,3.09-.13.29,0,.27.37,4-4.47.78-.51.09-.18.46-1.27,3.3-4.23,1-.6.14,0,.59.18,4.58-5.53-1.35-.53-.13-.11.51-1,4.78L70,223.09l-3.91.51h-.06l-3.68,1.29-4-2.2-.1,0-.06.08-3.8,5.39L58.33,223l3.93,2.34.08,0,.09,0,3.77-1.18,4.06-.37.14,0,.1-.12,2.74-3.43.05-.07,0-.1,1-4.29,5.79,1.63.8.23v-.85l0-4.79,4.13-.81.41-.08.17-.42L87,207.49l4.93-.68.88-.12,0-.92-.26-4.6L94.14,198l.17-.34-.08-.42-.93-4.4,3.82-.27,2,.94.07.62.2,1.76,1.73-.61,5.68-2,3.34.06,2.06,2.06.56.56.86-.11,3.26-.41,1.61.1,3.11,2.7.67.58.93-.18,4-.77,2.25-.41.26.67,2.21,5.6,1,2.52,1-.07-.54.86.81.58.67.48-.41.19-.91.44.42.88.89,1.91-.88.75-1.54,1.17-.2.16-.08.19-.7,1.6-.17.4.19.36.78,1.44-2.08.31-.52.08-.12.48-.4,1.56-1,1.25-.23.3.11.35.65,2.06-.87.43-1.55-2.4-.66-1-.39,1.13-1.1,3.22-1.25,1.29-.41.42.47.33,2,1.42,1.39,1.36-3.85,1.53-.41.17.25.35,1.35,1.93,1,2.3-.63,1.42-.22.16-1.74.06-.38-1.48-.22-.88-.81-.2-2.82-.7-.79-.2-.52.52-2,2-2.18-.51-.91-.21-.44.75-1.24,2.09-2.35-.22-.93-.08-.22.86-.69,2.67-1.87.69-2.43.64-.13,0-.08.05-2,1.16-.21.11-.1.17-1.24,2.1-2.27-1.62-.24-.17-.25,0-2.24.42-2.24-.4-.23,0-.16.12-2.54,1.72-2.15-.42-1.36-3.15-.17-.39-.3.29-2.74,2.61-2.27-1-.11,0-.06.09-1.44,2.35-1.3,2.43,1.42-2.35,1.48-2.18,2.24,1.09.12.05.1-.09,2.63-2.28,1.13,3,.07.18.21.05,2.5.62.17,0,.17-.11,2.57-1.57,2.14.49.09,0h.12l2.07-.29,2.63,2.08.61.48.45-.68,1.64-2.5,1.79-.9,2.43-.51h0l.06,0,2.45-.77.47-.15.17-.52.68-2.21,2.2.31.69.1.41-.63,1.21-1.83,2,.58.65.19.56-.49,2-1.81,1.21.37.12.6-.8.28-.16.06.08.14,1.53,2.84-2.55.92h0l0,0,1.27,2.37L117.26,243l2.54-.82.44,2.2,2-1.3,3.28-2.15.9.89-.29,2.57-.09.79-.61.42-4.74,3.26-.34.23-.2.28-3.51,5-.34-.38-1,.19-4.48.86-.48.1-.34.27-5.79,4.8-1.51,1.24,1.39,1.28,5.5,5.06.66,4.54.06.42.23.28,3.37,4.22-4.43,4.18-.51.48.15.64,1,4.65-4,4.24-.57.6.46.64,3.59,5-7.2,2.59-.69.25.26.65,2.44,6.08-.29,5.56-4,3.46,0,0,0,0-3.17,4.17-6.14.52h-.14v.14L90.29,330l.58-8.68L97,321h.12l.08-.1,3.36-4.11,4.27-3.43.15-.12,0-.2.52-5.88,0-.11,0-.13-2-5.58,7.7-2.46,1.06-.34-.64-.95-3.56-5.36,4-4,.4-.39-.11-.59-.83-4.55,5-4.41.9-.79-.74-1-3.69-5-.52-4.76-.05-.51-.41-.4-4.29-4.25,4.07-3.13,3-.46.54.63,1.53,1.83,1.48-2,4.88-6.46L127,249.7l3.83.78,1,.22.88-.76,3.34-2.88L138,246l5.48.72,1.18.16.91-.9,3.86-3.79,3.35-3.2,0,0,1.75,1.56,1,.84,1.08-.56,2.16-1.12-.72,1.65-.32.76.39.68,1.19,2,.55.94,1-.17,2.2-.38,0,1.25,0,1.39,1.35,0,1.1,0-.31.53-.7,1.15,1.12.69,2.42,1.48-.43,1.48-.86,2.46-.11.31.05.29.41,2.31.1.57.48.26,1.93,1-2.09,1.89-.52.47.21.63.71,2-.16,2.12,0,.52.37.3,2.26,1.83-.66,1.13-3.51-1.55-1.49-.66.4,1.56,1.14,4.42-.44,2.37-.14.78.77,0,3.28.11,2.56.5-3.18,4.57-.34.48.54.21,2.95,1.16,2.77,1.88.38,2.28-3.58,2.54,0,0,0,0-2,2.63-.13.17.19.1,3.81,2.05-2.17,2.92,0,.05,0,0,3.17,1.72-3.05-1.78,2.31-2.91.08-.1L174,297l-3.67-2.12,1.9-2.37L176,290l.16-.11,0-.2-.36-2.63,0-.15-.13-.09-2.86-2.08,0,0-.05,0-2.41-1,3.5-4.7.51-.69-.85-.19L170,277.3h-.09l-2.53-.16.39-1.77,0-.15,0-.16-.68-3,2.72,1.3.68.33.42-.67,1.5-2.41.41-.64-.6-.52-2.38-2.06.19-1.84,0-.19-.07-.21-.48-1.57,2.85-2.42,1.18-1-1.37-.79-2.73-1.58-.21-1.45.83-2.16.43-1.3.4-1.24.29-.91-.83-.55-2-1.34.91-1.41,1.26-2-2.37-.16-2-.14,0-1.65,0-1.71-1.74.24-2.82.38-.22-.41,2.46-5.25,2-4.28-4.31,2.07-5.3,2.54,0-.05.61-3,.24-1.18-1-.74-1-.7L155,231l.13-.92-.51-.89-3-5.23.11-3.76,3.37-6.38.58-1.09-.37-1.3-1.73-5.92-.15-.52-.4-.53-3.6-4.75-1-1.37-1.83.07-5.47.19.21-.12-3.53-.49-.24,0-.22-.61,4.36-6.22.4-.58.19-.83.91-4.15.21-.92-.31-1-.36-1.26.41-.22.09-.27,2.84,3.26,3.43,8.84,5.78,2.09,6.54-.06,7-1.48,5,4.34,4.29-2.73,2,1.75L179,200.81l-.65,1.65,1.34,1,3.13,2.4-.68,3.82-.36,2,1.93.43,4.46,1,1.59,2.73.11.2.11.12,3,3.31.37.41.46.14,4.07,1.23.79.23.64-.39,3.2-2,2.45,3.61.46.68.76,0,2.18.07v0l-.69.27-.32.12-.11.29-.24.63-.15.39.24.32.61.8-.76-.15-.41-.08-.24.33-.69,1-.27.38.27.36.77,1-.47.67-.33.45.43.33.63.48-.53.55-.38.39.39.36.78.7-.32.44-.77.55-.07,0,0,.05-.52.73-.12.17,0,.18.19.93-1.21-.06-.26,0-.11.22-.46.88-.73.73-.16.16.07.21.46,1.41-.24.73-1.49,1.13-.59.44.73.07,1.85.17.26,1,0,.17h.17l1.28,0,1,.68-2,1-.15.07.09.14.69,1,.53,1.18-.29.82-1.7.24h0l-1.12.65,0,0,0,0,1.17,1.31-1.1-1.32,1.1-.6,1.75-.19h.05l0,0,.34-.89,0,0,0,0-.51-1.25h0l-.57-.9,2.14-1,.29-.13-.26-.18-1.29-.93,0,0h-.07l-1.16-.06-.23-1,0-.16-.18,0-1.29-.16,1-.72.08-.05,0-.1.34-.92,0-.1,0-.11-.38-1.31.64-.61,0,0,0-.05.38-.68,1.5.13.54,0-.09-.55-.2-1.27.38-.5.8-.52.06,0,.06-.07.66-.85.26-.35-.32-.31-.68-.65.61-.59.43-.42-.47-.39-.65-.54.44-.58.26-.34-.26-.36-.72-1,.21-.28,2.12.49,1.73.4-1-1.47-1.36-1.9,1.05-.37.67-.24-.21-.7,0-.14,3,1.24.58.23.52-.23,4-1.83,2.15,1.26-.59,5.06-.16,1.34,1.31-.08,5.41-.37,0,3.48v.58l.49.24,4.17,2,3.41,1.83-4.16,5.93-.39.56.59.28,4.25,2.09h0l4.28,1.69,2,2.59-1.05,5.69v.06l0,0,1.54,4.7,0,.11.1,0,5.8-1.62-5.74,1.37-1.32-4.6,1.28-5.73,0-.14-.09-.12-2.05-2.87-.06-.09-.1,0L235,246.43l-3.57-1.93,4.49-5.91.49-.64-.72-.42-4-2.35-3.63-2,.18-4,.05-1-1.08,0-5.11.15.71-4.55.12-.77-.7-.44-3.34-2.12-.54-.35-.64.26-4.13,1.68-2.91-1.32-.22-.1-.3,0-3-.21L204.35,216l-.83-1.32-1.4.79-3.91,2.21-2.78-.95L193,213.86l-1.84-3.45-.39-.74-.88-.23-3.24-.85.7-3.21.27-1.27-1.06-.88L183.93,201l1.26-2.9.65-1.5-1.25-1.18L182,193l2.16-2.22v-2.31l.43-.4,1.71,2.72.87,1.37,1.41.39,4.31,1.19,1.82.5,1.43-1,2.48-1.69-.45,2.09-.28,1.35.62,1.09,2.55,4.46.85,1.49,1.58.21,5.27.72.89,4.1.5,2.32,2.25.16,5.29.37,2.07,4.78,1.09,2.53,2.47-.94,5.74-2.2,3.8,1.88.28.14.2.06,5.78,1.51.71.19.62-.18L246,216.1l1.06-.32.42-.92,2.13-4.58,5.42,2.23,1,.41.86-.53,2.49-1.54,0,0-.57.82-.27.37.1.41.19.89.12.55.5.17,1.29.45-1,.4-.53.21v.55l-.05,1.63,0,.63.57.19,1.59.53,0,1.1,0,.75.72.05,1.06.07-.19,1-.13.72.71.11,1.39.21,0,.74-.46,1.17,0,.11v.09l-.05,1.21v.27l.18.18.89.91-1.39.82-.31.18,0,.33.13,1.32-.27,1.36-.06.3.23.18,1.57,1.23.27,1-.84,2.37-.33.93.86-.46,2.21-1.18,1,.92.17.16.2-.12,1.45-.92h1.63l-1.5,2.53-.11.19.2.08,1.52.62,1.47.92.28,1.14-1.72,1.53h0l-.78,1.57,0,0,0,0,2.28.6-2.21-.66.79-1.49L274,241.4l.05,0,0-.06-.27-1.26v0l0,0-1.49-1h0l-1.3-.58,1.69-2.66.22-.35-.42,0-2.13-.09h-.08l-.07,0-1.35.79-1-1-.17-.16-.21.11-1.57.77.61-1.56.05-.12,0-.14-.31-1.28,0-.14-.12-.09-1.4-1.18.27-1.16V230l-.08-1,1.79-1,.63-.34-.5-.55-1.17-1.27.07-.84.5-1.19,0-.08v-.12l.11-1.44,0-.59-.6-.11-1.23-.23.24-1.11.18-.79-.83-.08-1.12-.12.07-1,0-.58-.56-.21-1.53-.57,0-.46,2.74-1,2.23-.84-2.25-.87-2.93-1.13.9-1.19.57-.76-.75-.64-.15-.12,4.32-.86.82-.16.42-.66,3.17-5,3.34-.18,3.09,6.11.82,1.62,1.4-1.07,5.79-4.41L287,209l.43.65.73-.09,6.18-.81,5.17-.49-.26,9.74,0,.9.87-.11,6.31-.81h0l6-1.27,4.17,1.42,3,7.14,0,.07.05,0,5.21,4.13.12.09.09-.11,5.3-6.1-5.43,5.79L320.21,225l-2.82-7.38-.06-.17-.19-.08-4.43-1.69-.12-.05-.15,0-6.18,1.05-5.42.48.65-9.95.07-1.07-1.11.06-6.27.35-5.5.51-2.76-4.62-.72-1.2-1.19.83-5.61,4-2.58-5.62-.43-1-1.11,0-5.32.1h-.86l-.53.77-3.38,4.94L260,206l-.32,0-.34.19-3.58,2-6.38-2.91-1.89-.86-1,1.92-2.75,5.37-3.83,1-4.8-1.46-4.61-2.51-1-.53-1.16.39-4.26,1.45-1.6-4.12-.63-1.62-1.84-.2-4.63-.5-.74-4.18-.38-2.16L212,197l-5.71-1-1-1.92,2.48-9.81,1.91-7.57,3.2-.41.65-.09.48-.33,3.23-2.28.24,5.26,0,1.05.77.62,4.53,3.65,2.72,2.2.78-3.35,1.89-8.18,3.5,3.06,3.07,2.68.1-4,.16-6v-.17l-.16-2.33,4.84,0h1l.45-.9,1.47-2.94,3-1.26.23-.09.15-.13,2-1.59,2.94,2.83,1,1,1-.92,3.65-3.45,2.77-1.7,1.89,6.31.71,2.38,1.38-2-.16.42.32.37.64.75.31.36.43-.07.55-.08-.18.8-.13.58.5.26.59.3.07.67,0,.44.4.15,1.8.71-.7.57-.12.1-.06.13-.49,1.21-.22.55.53.21,1.53.61-.66.75-.36.4.4.32,1.11.88.61.64-.51,1.12-.09.2.09.17.53,1,.33,1.07,0,.1.07.06.76.71.19,1.28,0,.23.22,0,1.35.25h0l1,.08.11,1.51,0,.37.31-.19,1.84-1.09.75.41.21,1.54,0,.15.14,0,1.41-.37-.28,2v0h.05c.86.12,1.71.22,2.57.32l-2.5-.41.38-2.09,0-.14-.14,0-1.42.31-.14-1.49v-.08l-.07,0-.9-.54-.08-.05-.1.05-1.64.89,0-1.38v-.21l-.23,0-1.16-.14-1.1-.25-.13-1.19v-.11l-.09-.09-.74-.75-.28-1v0l0,0-.4-.83.6-1.2.13-.25-.2-.23-.8-.92v0l0,0-.69-.6.87-.91.51-.55-.7-.3-1.64-.72.24-.52,1.49-1.13.86-.66-1-.44-2.36-1,0-.67,0-.38-.36-.2-.39-.22.36-1.38.29-1.1-1.16.13-1.2.14,0,0,.51-1.21.18-.44-.31-.42-.34-.45-.07-.13,4.22-6.1,2.75.66,1.45,7,.27,1.35,1.09-.81,4.7-3.51-.21,9.22,0,.89.82-.28,4.92-1.67h.06l5-2.44,1.78,4.65.15.41.38-.2,5.1-2.67.57,8v.14l.13,0,3.9.87h.05l4.41-.77,2.82,3.95-2.73-4.06,0,0h-.05l-4.45.65-3.71-.93-.37-8.31,0-.46-.41.21-5.18,2.53-1.68-4.77-.16-.47-.46.21-5.48,2.49-4.09,1.26.51-9.93.08-1.56-1.29.92-5,3.49-1.12-6.32-.11-.59-.6-.17-4-1.09-.67-.18L268,155l-5.14,7-1.53-5.64-.43-1.61-1.48.85L255,158.18l-.11.06-.12.11-2.8,2.5-2.86-2.91-.92-.94-1.08.83L244.23,160l-3.4,1.32-.53.21-.29.55-1.33,2.49-5.73-.11-1.84,0,.07,1.89.17,4.07-.1,1.9-2.95-2.72-2.45-2.26L225,170.6l-2.07,8-1-.86-.15-8.67-.07-4.33L218,167.13l-6.36,4.22-3.12.31-.57-2.95-.23-1.16-1.08-.62-1-.59,4.65-4.57,4.38-4.3-6.19-.57-2.36-.21,3.57-.33,4.87-.43,3.94,3.8,2.31,2.24,2.37-2,6.22-5.37.66-.58.29-.73,1.94-4.94,4.15,5.72.83,1.14,1.32.12,7.78.74,4.68.45-1.62-4.33-3.93-10.56,6.19.83,5.42.73-2.86-4.58L250,131.69l-.08-.13,0-.07-1.9-2.48,5.38-3.64,1.17-.78-.16-1.34-.42-3.41.33-.31.9-.06h.1l.69-.22.53,1,.17.31.32-.12,1.26-.47.89-.15,0,1.73,0,.64.52-.35,2.26-1.49.66.45-.21,1.85,0,.36.34-.09,1.5-.38-.81,2.25-.08.22h.22l1.4.1h0l1.48-.09.08,1.34v.11h.11l1.52-.13-.5,2v0l0,0,.92.61h0l1.19.26.4,1.25-.36-1.27h0l-1.19-.3-.87-.61.58-2.09,0-.12h-.12l-1.53.09,0-1.36v-.13h-.13l-1.6,0-1.15-.11.94-2.39.15-.38-.4.09-1.56.35.23-1.67,0-.16-.14-.1-.94-.67-.15-.11-.16.1-1.92,1.19.08-1.54,0-.42-.43,0-1.36.18h0l0,0-1,.33-.5-1-.15-.3-.34.1-1,.27-1,0h-.09l2.25-3.39.18-.27.09-.25,1-3.24,5.39,1,1.84.34.41-1.77,1.53-6.56,1.85-4,6.79,5.67,2.56,2.14.06-3.27.14.6.62.18,1.28.37.61.17.44-.4.55-.49.39,1,.29.74.75-.08.88-.1.57.69.38.47.55-.12,2.54-.55-.35,1.16-.06.21,0,.19.34,1.71.16.79.76-.16,2.15-.46-.18,1.34-.1.71.69.06,1.89.16,1.15.27.26,1.64.05.28.23.13,1.31.7,1.16.94.11.09.12,0,1.39.23,1.14,1.3.21.23.27-.12,1.7-.73h0l1.14-.63,1.24,1.61.31.39.21-.44,1.24-2.58,1.16-.1,1.37,1.57.13.15.13-.14,1.31-1.45,1.17,2.45,0,.07.06,0,3.1-1.55c-1,.47-2.06.94-3.1,1.39l-1.12-2.61-.08-.18-.13.14-1.36,1.39-1.27-1.56-.06-.08h-.12l-1.4.06h-.14l-.06.12-1.18,2.22L303.87,117l-.17-.24-.27.14-1.41.7-1.42.54-1-1.24-.09-.11-.17,0-1.39-.29-1.09-1,0,0-.05,0-1.06-.63-.21-1.79-.05-.39-.4-.11-1.57-.43h-.08l-1.21-.16.29-1.67.18-1-1,.17-2.37.41-.12-.75.82-2.37.48-1.38-1.46.26-3.41.59-.53-.71-.31-.41-.55,0-.61,0-.61-1.82-.49-1.44-1.21,1L280,103.93l0,0-.32-1.73-.12-.64-.66-.23-.71-.26L278,101l.21-10,3.58-1.28,6.79,6.76,1.31,1.3.61-1.71,2.67-7.42,6.6,10.5.63,1,.72-.92,4.28-5.51,0,0,0,0,3.79-6.43,5.43,3.89.48.34.28-.5,3.73-6.76,6.54,8.51.12.15.17-.07,5-1.91,0,0,0,0,4.37-4.14L341.5,89ZM135.73,109l-.49-.33-.92.14-4.68.75-.61-.15,3.1-.83,4.13-1.11,0,.06Zm-43.3,27.29-.92.84-4.7,4.3-.79.29,2.85-3.23,3.8-4.3.09,0,.46,2.07Zm152.14-27.56,3.51.67.23,0,.18-.07,3.3-1.38,2.31.65-1.54,4.45-2.82,4-.45.63.08.83,0,.49-.43.58-1.26,1.7-.19-.32.66-2.13.34-1.06-1.11.22-1.94.38-.82-.25.11-.83,0-.3-.2-.25-.22-.29,1.52-.74,1.41-.68-1.41-.74-1.68-.88-.13-.16.06-2,0-.68-.69-.18-.34-.09ZM119.15,239l.49,2.43-1.11-2.23Zm3-.49h1l-.86.62Zm25.4-30.34,1.34,4.05L146,218.05l-.34.69v.65l0,5.32v.88l.42.67,3.16,5.07-.43,3.92-3.11,3.2-3,3.11-5-.47L137,241l-.65.41-2.74,1.69-.22.14-.14.13L132,244.5l-.47-.45-.31-.31-.33-.13-.94-.35.13-2,.05-.91-.61-.55-2.61-2.35-1.06-1-1,.76.35-.71,0-.1,0-.11-.92-2.47v0l0,0-1.07-1.63,4.11-1.48.6-.22-.45-.47-1.82-1.9,0,0,0,0-1.5-1.14,1-.94.08-.07,0-.12.81-2.15,1.16,1.93.29.48.53-.24,1.92-.88.52-.24-.16-.56-.64-2.26.88-1.07.09-.11,0-.15.34-1.18,2.76-.33,1.15-.14-.53-1.06-1-2.1.46-1,1.4-1,.8-.64.76-.6.56-.45-.3-.68-.71-1.67,1.14-.51,1.59-.7-1.41-1.07-1.21-.93.36-.52,8.6-.62ZM206.76,177l.79-.1-5.42,3.41-8.63,5.43-1.07-.34-1.68-2.91,1.42-1.3-2.2,0-.11-.2,1.31-.77L186.35,172l8.44-3.57L191.56,163l2.11-4.42,1.27-1.3.54,1.63.39,1.19,1,.55,2.12,1.12.6.32.6,0,1.69.11L199.24,165l-2.52,2.61,3.13,1.69,3.2,1.73.89,4,.51,2.34ZM205.84,152v-.06l-6.48-1-.09-.3-.19-1.68.9-.09,3.21-.31.91-.09.7-.4,2-1.13Zm37.39-25.49-2.09,1.33,1.49,2.06,3.19,4.43,1.3,2.2-5.32-.86-4.41-.72,1.47,4.3,3.56,10.45-1.77-.22-6.58-9.6-3.29-4.79-2.3,5.43-4,9.43-3.26,2.66-2.83-2.88-1.11-1.13-1.68.1-1.59.1,1.83-8.56,1.73-8.06-7.36,4L206.56,138l-3-5.6L198.09,135l-.56-2,1.66-.94,2.23-1.27-1.12-2.16-1.1-2.11,2.92.25,1.34.11.72-1,1.95-2.78.2-.3.09-.24,1.26-3.68,1-2.16,3.35,1,1.26.36.74-1,2.25-2.93,2.32-1.5,3,.77.8.2.58-.47L225.6,111l2.71,3.31,1.19,1.45.95-1.54,3.29-5.3,2.78,1,3.94,2.3.68.4.5-.56.16-.18.35,0,.27.07v2l.22.24.47.51.11.12.13.06.44.22-.92.47L242,116l.6.71.65.78-.11,1.11-.07.62.58.16,1.58.42.18,0,.16,0,1-.23-.37,1.33-.08.28.15.23.84,1.32.49.77.52-.73,1.24-1.78.23.38.09,1Zm20-23.37-.08.14-.05.21-1.28,4.87-2.4-.51.57-.26.22-.11,0-.22.75-6.5,3.28-1.16,0,0,0,0,1.48-1.61Z" style="fill:#9b9b9b"/><path d="M188.43,156.39c1.38,3.08.76,6.44-.89,9.45-.28.51-.58,1-.9,1.48-3.14,4.07-5.77,8-10.2,10-.43.26-.86.51-1.3.75a24.38,24.38,0,0,1-2.7,1.24,23.48,23.48,0,0,1-5.82,1.42,22.41,22.41,0,0,1-5.31,0c-.57-.07-1.13-.16-1.69-.22-5.08.78-9-3.17-12.11-6.34-.43-.33-.84-.67-1.24-1A22.53,22.53,0,0,1,139,159.66c-.16-.56-.3-1.11-.42-1.67-1.14-5.05-1.05-10.25,1.49-14.9,3-5.6,8.23-9.05,14.11-10.56.59-.15,1.19-.28,1.78-.45,3.86-2.81,8.47-1.5,12.66.46.58.16,1.15.33,1.72.51s1.11.39,1.65.61a26,26,0,0,1,3.81,1.81c.31.18.61.37.91.56,5.49,3.11,12.07,7.72,11.06,14.9.08.34.15.68.22,1s.12.7.17,1.06l.12,1.07q0,.54.09,1.11C188.38,155.58,188.4,156,188.43,156.39Z" style="fill:#414042"/><path d="M188.43,156.39c0-.41-.05-.81-.08-1.19s-.06-.75-.09-1.11l-.12-1.07c0-.36-.11-.71-.17-1.06s-.14-.69-.22-1a9.84,9.84,0,0,0-1-6,9.85,9.85,0,0,1,.53,4.91c.08.35.15.69.22,1s.12.7.17,1l.12,1.07c0,.36.06.73.09,1.12s.05.77.08,1.18c1.38,3.08.76,6.45-.89,9.46-.28.5-.58,1-.9,1.48-3.14,4.07-5.77,8-10.2,10-.43.26-.86.51-1.3.74a22.67,22.67,0,0,1-2.7,1.24,23.5,23.5,0,0,1-5.82,1.43,23,23,0,0,1-5.31,0c-.57-.07-1.13-.16-1.69-.21-5.08.77-9-3.18-12.11-6.34-.43-.33-.84-.68-1.24-1a22,22,0,0,1-5.3-7.08,21.92,21.92,0,0,0,5.8,8.21c.4.35.81.69,1.24,1,3.08,3.17,7,7.12,12.11,6.34.56.06,1.12.15,1.69.22a22.41,22.41,0,0,0,5.31,0,23.48,23.48,0,0,0,5.82-1.42,24.38,24.38,0,0,0,2.7-1.24c.44-.24.87-.49,1.3-.75,4.43-2,7.06-6,10.2-10,.32-.48.62-1,.9-1.48C189.19,162.83,189.81,159.47,188.43,156.39Z" style="fill:#fff"/><path d="M184.85,155.82a20.05,20.05,0,0,1-5.38,13.7c-.42.45-.86.88-1.31,1.29-4.16,3.55-10,7.17-15.67,5.39a9.82,9.82,0,0,1-1.53-.62c-4.5.3-8.1-1.87-10.76-5.1-.38-.46-.75-.95-1.09-1.44a20.49,20.49,0,0,1-4.92-11.29c-.09-.56-.15-1.12-.19-1.68a17.83,17.83,0,0,1,1.32-8.37c4-8.56,12.51-12.51,21.72-11.85a20.12,20.12,0,0,1,15.06,9.81,19.86,19.86,0,0,1,2,4.81A20.08,20.08,0,0,1,184.85,155.82Z" style="fill:#231f20"/><path d="M392.08,463.89l0,0,0,0-3.79,3.39-4.08,1.43-5.53-7.61-.3-.42-.26.46-3.31,5.61-4.55-3.45-.45-.34-.3.48-3.61,5.76L362.74,473l-5.7-9.68-.9-1.51-.65,1.66-2.5,6.38-5-5.26-.47-.49-.67.22-4.47,1.47-.75.25v.26l-1.06-2.12,5.83-1.67.28-.08-.15-.24-2.12-3.66-1.12-3.39,2.09-2.69L343.16,455l0,0v0l1,3.49h0L346,462.1l-6.05,1.46-.41.09.18.4,1.63,3.61.19.7-.09,1.92-3.58-1.84-.26-.13-.28.1-2.87,1-.38.13L334,470l-.49,3.23-1.25,1.24-1.75-.24-3.6-.63-.33-.06-.32.18-2.65,1.47-.32.18-.13.39-1.27,3.93-.08.25.07.32.18.78-.25-.08-.16-.06-.19.07-2.81,1-3.15-.75-.37-.09-.28.29-1.74,1.78-1.16.34L309.68,482l-.05,0-.1,0-3.1-1.24-.69-.28-.45.65-2.51,3.64-2-2.67-.7-1-1,.74-2.64,1.93-2.34-.71-.45-1.85-.16-.68-.51-.34-2.73-1.78-.92-1.91.2-2.86,0-.17,0-.12-.28-2.47.84-1,.54-.08.66-.1.3-.57,1.28-2.42,2.21-1,.45-.21.17-.45,1.21-3.14.09-.23v-.21l0-4.3,1.46-1.14,3.58.69,4.06.67.93.15.05-.95.24-4.17,1.6-1.76.35-.38-.2-.45-1.15-2.52,2.86-1.42.33-.16,0-.36.09-2.58L313.8,441l.31-.22-.11-.35-.39-1.23.47-1.09,1.78,1.29.18.36.18.35.25-.27.08.06.18-.21.84-1.07.1-.1.63,2.63.06.26.23-.13,1.37-.77h0l1.34-1,.9,1.21.08.1.1-.07,1.35-1.08.78,2.23,0,0h1.31l1.29-.5,1.16.93-1.14-1h0l-1.31.47-1.2,0-.75-2.33,0-.13-.11.08-1.39,1-.88-1.26-.08-.12-.12.08-1.48,1.05-1.16.61-.59-2.78,1.1-1.38,2.56-1.91,2.92.1h0l2.79-.88,3.2,1.43-3.17-1.56h0l-2.83.77-3-.22h-.06l0,0-2.69,1.86h0l0,0-2.35,2.74-.23-.18-.69-1.44-.07-.17h-.19l-1.17,0L312.53,436l-.94-.73.32,1.19.83,3-.14.29-.88-1.5-.24-.41-.38.32-1.17,1,0,0,0,0-.71.92-1.09-.62-.33-.19-.26.3-.75.86-.93.68-.14.1-.05.18-.24.87-1.65.43-.51.14.11.53.27,1.22.09.63-1.09-.56-.87-.45-.05,1-.13,2.39-.38-.19-.7-2.42-.35-1.21-.9.9-1.6,1.57-.92.27-.41-.85-.15-.3-.35-.12-.39-.13,1-1.64.9-1.53-1.79.18-2.13.22-.23-.06-1.2-1.95-.41-.66-.75.26-.38.13.34-2.37,3.72-1.56.24-.1.13-.19,2.26-3.35,4.81-1.54.22-.07.11-.18,2.32-3.77.14-.24-.11-.23-3.35-6.59,2.37-3.14,0,0v-.05l.65-4,.78-4-1,4-.84,3.95-2.61,3.13-.12.14.08.17,3,6.66-2.22,3.26-4.95,1.32-.22.06-.16.21-2.4,3.22-4.09,1.48-.47.18-.11.53-.87,4.52-4.45,0h-.09l-.14,0-4.39.91-1,.2,0,1.06-.12,5.94-4.2-1.53-1.49-.55-.59,1.57-.55,1.5-.2-.05-4.3-1,.72-1.92,4.54-4.51,1.24-1.23-1.53-.69-3.66-1.65-2-2.81.32-2.27,2.39-2.23.07-.07,0,0,.08-.08.16-.16.32-.32.65-.65,1.28-1.3.58-.58-.54-.55-3.55-3.62.7-2.23,5.14-2.47,1.09-.52-1.08-.44-4-1.6,0,0h0l-3.5-.79,2.41-5.56.11-.27-.28,0-4.17-.68L260.71,409l-.75-3.32.62,3.39v0l0,0,3.33,1.44h0l3.86.78-2.7,5.61-.19.37.42.11,3.83,1,2.82,1.27-4.43,1.92-.26.11-.1.29-1,2.86-.14.38.28.31,3.13,3.46-2.07,1.92-2.77,2.38-.26.22-.06.36-.54,3-.07.37.22.34,2.23,3.47.15.23.29.15,2.29,1.14L265.14,446l-.2.19-.13.3-1.52,3.6-.6,1.41,1.55.43,4.94,1.38.07.18-2.59.77-.74.22-.38.77-1.91,3.85-.13.26-.05.39-.35,3-4.38,1.13-1.8.47.2,1.95.45,4.71V471l0,.18.83,4-.16,2-6.25,3-4.43,2.15,4.29,2.66,2.6,1.61-2.67,5.57-.71.58-1.05-1.12.39-.41,1.5-1.53-1.28-1.69-2.37-3.17-1.63-2.3.26-1.05,3.9-2.27.87-.51.17-.91.59-3,.3-1.59-1.39-.78-5.16-2.92-.25-1.74.39-2.15,2.77-2.8,2-2.05-2.76-1-3.49-1.26-.72-.27-.63.27L240.25,460l-2.34-.32-2.52-1.94-.15-.12-.12-.06-2.46-1.25-.39-1.38.26-.55.31-.68-.34-.62L231,450.4l.4-2.69.09-.55-.31-.42L229,443.69l-.15-.23-.2-.13-4-2.62-.16-2,2.83-2.88,3.11-3.36.71-.76-.84-.63-3.72-2.79-.64-2.56-.14-.55-.54-.09-3-.49.44-3.52.06-.4-.33-.24-2.32-1.67-.06-3.48v-.42l-.39-.11-3.44-1,4.22-1.58.3-.11-.1-.29-1.32-4.1-.2-3.54,1.89-2.64,0,0v0l.91-3.12,3.28-2.08-3.39,2h0v0l-1,3.09-2,2.6,0,0V404l.07,3.63v.07l1.1,3.86-5.26,1.75-1.26.42,1.3.42,4.28,1.41-.07,3.4v.3l.26.2,2.17,1.69-.63,3.85-.11.71.75.15,3.17.62.5,2.37.06.3.27.21,3,2.42-2.48,2.48-3.31,3.12-.34.32,0,.51.13,3.13,0,.57.51.36,4.14,2.94,1.61,2.45-.49,2.64-.08.43.23.44,1.22,2.44-.22.43-.23.45.14.55.63,2.59.16.65.65.36,2.84,1.57,2.74,2.27.34.28.49.09,3.28.56.45.08.48-.18,3.05-1.18-1.23,1.14-.39.37-.13.6-.65,3-.06.27,0,.34.32,3.09.1,1,1,.58,4.51,2.76-.12.52-4,2.15-.79.43-.27.94-.86,3-.28,1,.63,1,1.08,1.65.54.83.28.41.13.21.07.1.11.16,1,1.43-.94.9-1.84.31L237.7,487l-5.63-2.62-1.25.16.44-.73.48-.8-.26-.81-.86-2.69-.29-.92-.8-.28-2.31-.82,0-1.88,0-1.19-1-.44-2.65-1.2-2.07-2.35-.77-.87-1,.47-.71.35.05-.1.78-1.42.1-.18v-2l-.26-.21-1.06-.86,1.47-.94.36-.23-.06-.41-.2-1.34.32-1.29.07-.31-.19-.22-1.15-1.38.53-.63,2,1.3.83.55-.06-1-.19-2.81.51-1.42.16-.45-.45-.1-2-.45-1.51-.61,2.4-2.43.25-.26-.3-.19-1.66-1-1.46-1.46,0-1.45,2.43-1.18h0l1.48-1.41.1-.09-.1-.09-2.08-1.67,1.63-1.56,0,0,0,0-1.73-1.41,1.65,1.44-1.71,1.54-.06.05.07.06,2,1.71-1.4,1.25-2.56,1.14-.11.05v.12l-.08,1.66v.09l.07.07,1.5,1.6v0l0,0,1.35.91-2.61,2.48-.38.37.5.21,2,.87h.06l1.52.4-.41,1.06,0,.08v.1l.06,1.9-1.53-1.07-.38-.27-.32.36-1.2,1.32-.31.34.3.39,1.2,1.53-.32,1.12,0,.12,0,.13.12,1-2,1.18-.81.48.73.64,1.48,1.27,0,.93-.73,1.24-.78,1.48-.16.31-.53-.3-.69-.37-.34-.19-.18-.1-.08,0,0,0h0l-2.64-1.63-.2-.12-.18,0-2.9-.67-.36-.08-.31.11-1.71.62.61-2,.13-.45-.19-.39-1.26-2.5-.62-2.73-.1-.45-.35-.2L202,458l-.89-2,1.61-3.52.38-.84-.84-.22-3.8-1L197,448.3l-.22-.34-.36.07-5.74,1.14-.68-5,0-.38-.35.07-3.14.69-3.08.73-2.38-.88-1.32-3.84h0L177.87,438l1.73,2.69,1.19,4,0,.06.07,0,2.46,1,0,0h.06l3.16-.6,2.8-.48.49,5.11,0,.47.47-.07,5.85-.89,1.24,2.07.12.2.25.08,3.12,1-1.53,3-.16.32.14.38L200.5,459l.1.27.27.16,2.75,1.71.47,2.49,0,.11.06.13,1,2.22-1.32,3.83-.58,1.65-.15.11-3.69,2.51-1.23-1.89-1.15-6.16-.26-1.41-1.26.58-4,1.87-.08,0,0,0-.06,0-.12.07-.25.13-.49.26-1,.51-1.72.92-2.57-.36-2.51-2.32,0,0h0l-2.91-2.24-.49-.38-.39.44-3.47,3.9-2.56-.3-3-4.43-.19-.28-.27.19-3.12,2.28h0l-2.66,2.6-4.13-4.65,4,5,.09.12.12-.1,2.87-2.56,2.93-1.94,2.76,4.47.1.16.21,0,3,.5.26,0,.2-.2,3.39-3.48,2.33,2,2.58,2.62.17.17.27.05,3.09.57.27.05.27-.13,4-1.86,2.77-1.14.71,5.11,0,.21.14.24,2,3.34.67,1.15,1.19-.73,4.26-2.63,2.33,1,.26.11h3.54l1.5,1-.31,4.71-.12-.06-.38-.19-.33.21-.79.48-.43.26.09.47.17.95L209,483l-.25-.21-.3.07-.91.22-.42.1-.05.41-.11.88-.21-.06-.06-.64-.71.42h0v0l-.73.43-.1-.11-.39.34-.22.19-.36.21-.4.24-.36-.23-.84-.61-.1-.07-.12,0-.91-.11-.23,0-.16.15-.61.61-.48-1-.12-.25h-.26l-.85,0-.78-.3-.19-.07-.16.1-1,.65-.36-.38,1-1.15.42-.49-.63,0-1.8-.07-.85-.44-.28-.14-.1.28-.41,1.23-.49.91-1.36-1.72-.14-.19-.15.18-.77,1-1,.83-.91-.12-.54-1.64v0h0l-.76-1.05-.06-.07-.06.06-1.21,1.21-.85-1.16,0,0v0l-1,1,1-1,.83,1.2,0,0,0,0,1.22-1.14.68,1,.51,1.72,0,.07h.07l1,.17h.06l.05,0,1.11-.84h0v0l.67-.79,1.37,1.86.2.28.17-.3.69-1.21v0l.35-.94.63.35.05,0h.07l1.21.08-.8.88-.2.22.2.23.74.85.19.23.27-.17,1-.66.68.28.06,0h.74l.59,1.35.24.57.46-.43.91-.85.57.08.72.57h0L201,487.19l-.67.4-.19.66-1,3.47-1.73,1.61-3.1.71-.19,0-.12.06-2.52,1.1-1.32-.57-.26-.55-.33-.67-.7-.13-3-.56-1.82-2-.38-.42-.52,0-3.73-.26-.28,0-.22.07-4.56,1.42-1.69-1.18-.43-4-.62-4.53-.14-1-1,.25-.7.17-.22-.29-2.29-3-.48-2-.15-.62-.59.22-2.55,1-2.14.44.88-4.51.09-.47h-.47l-2.64.05-2.73-.55-1-1.64,1.85-3.12,0,0v0l.61-2.67,0-.17-.17,0-3.57-.34.67-2.95v-.06h-.06l-3-.3,2.91.38-.78,3,0,.11h.11l3.48.45-.65,2.44-2,3.18-.09.13.09.14,1.15,1.92.06.1.13,0,2.86.68h.08l2.19,0-1.08,4.72-.16.69.71-.13,2.89-.5h0l.05,0,2-.68.32,1.5,0,.11.08.11,1.48,2.09-2.51-.07-.62,0-.1.64,0,.27-.87-.42-.52-.24-.41.36-2.3,2-2.44-2.58-.28-.29-.39.1-2.77.74L151.74,479l-.33-.26-.34.23-2.95,2,1.45-4.27.11-.3-.29-.11-4-1.57-2.86-2.09-.84-3.14v0l0,0-1.84-2.68.48-3.86-.63,3.87v.05l1.74,2.75.73,3.22,0,.06.05,0,2.86,2.25,0,0h0l3.68,1.6-2,5.18-.47,1.23,1.15-.73,3.8-2.41,2.59,2.21.23.19.32-.07,2.68-.62,2.58,2.93.47.54.59-.48,2.5-2.06.9.47,0,.36-.1.62.62.21,2.48.82.48,1.5.05.14.12.14.9,1.06-1.35,2.79-.55,1.15,1.29.16,2.6.34.65,1.06.09,1.94.23,2.23.08.78.81.15,2,.38-.21,1.4-.28,1.88,1.84-.63,1.62-.55.55,1.29.56,1.29,1.24-.74,2-1.19.32.25-.11,4.76v.42l-.59.31-2.92-1.83-.65-.42-.46.6-2,2.55-2.39-3.77-.73-1.17-1.27.06-4.42.19-.72,0-.49.36-3.73,2.73-3.78.88-1,.24-.37.9v0l-1.56,0h0l-3.91.68-.55-3.72.44,3.8v.06H151l4-.55,1.42,0-2.13,5.2-2.79-1.21-5.84-6-1.34-1.39-1,1.59-3.12,5.06-.06.1,0,0,0,.08-.09.16-.17.33-.36.65-.71,1.31-1.26,2.29-3.15,1.51-4.53-.74h-.09l-4.93-.36-.83-.06-.11.79-1,6.94-3.09,1.54-6.66-2.71-.43-.18-.15.41-1.81,4.87v0l-1.06,4.88-8.07-2.15,8.16,2.58.19.06.06-.2,1.32-5,1.85-4.33,6.39,3,.24.1.26-.11,3.75-1.67.32-.14.07-.38,1.23-6.41,4.05.48,4.84,1,.32.07L135,521l3.89-1.65.33-.14.21-.35,3.06-5,2.26-3.32,4.58,5.19.19.22.33.16,4.67,2.3,1.61.79.78-1.7.88-1.88-.1,1.19-.09,1,.62-.77,3.41-4.27,3.29,3.56.18.2.28-.06,2.8-.68.32-.07.07-.35,1.37-6.16,1.69,2,1.35,2.37-.19,0-.56.07-.22.48-.53,1.13-.28.61.45.47.89.92-.95-.11-.43,0-.29.3-.85.92-.4.42.25.5.52,1.07-.63.2-.7.22.18.69.15.57-.32-.08-.7-.17-.17.67-.39,1.45H167l-1.39-.07h-.17l-.14.07-1.11.56-.28.14-.06.28-.23,1.14-1-.62-.12-.19-.54-.87-.72.64-1.27,1.13-.25.05-.27.06-.1.24-.13.31-1.08,1-.05,0,.26-2,.1-.86-.73.44-2.07,1.25-1.28.14-.41,0,.1.4.38,1.44-.57,1.38-2-.68-.3-.1,0,.3-.15,1.68-.53,1.69-.84.41-1.13-.54-1-.76h0l-1.64-.61-.11,0,0,.11-.46,2.25-1.82-.66,0,0v0l-.39,1.87.44-1.83,1.83.74.07,0,0-.07.52-2.19.43.17-.12.31-1.3,3.33-1.21,3.3-2.28,1.66-4.36-1.14h0l-3.55.1,3.55,0,4.39,1.33.07,0,.07,0,2.47-1.65,0,0,0-.07,1.38-3.29,1.27-2.89,5,2.69.47.25.22-.48,2-4.28.06,0,.42.15,0-.46,0-.6.37-.8,2.69.13h.26l.22-.18.24-.2.31.08.17-.38.06-.14,2-1.65L163.4,530l.2.36.44.1,3.16.68.31.07.31-.15,3.27-1.5,2.59,1.1.11,0,.17,0,2.67.44,2.72,3.57.82,1.08-.82.15-.86-1.29,0-.07-.06,0-1.57.73-1.52.82,1.56-.75,1.53-.62.79,1.34,0,.07h.09l1.07-.14.56.73.24-.83.29,0-.45,2,0,.12.09.1,1.1,1.19.07.08h.12l1.89.06,1,1,0,0,.07,0,1.18.57.65,2,.16.47.47-.21,1.72-.73,1.25.14,1.44.58h.06l1.55.44.3.09.26-.22,1.12-.92,1,.93.33.29.43-.19,1.27-.54.86,1,.28.32.46-.06,1.69-.24.5.61-1,2.39-.54,1.33h3.94l.16.77-1,1.24-.32.39h-.46l-3.61.06h-.25l-.2.08-3.57,1.41-.05-.31-.6-.25L192.2,551l-.28-.12-.27,0-4.69.5-1.21.13.28,1.15,1.12,4.55-1.22,2.6-.11.23,0,.23.31,3.37-3.76.66-.43.07-.15.38-1.07,2.79-3.56.83-.51.12,0,.49.15,3.85-4.66-1.13-.44-.11-.09.43-.83,4-2.07,2.81-3.3.42h0l-3.1,1.09-3.39-1.85-.08,0-.05.07-3.2,4.53,3.31-4.33,3.31,2,.06,0,.08,0,3.18-1,3.41-.32h.12l.08-.1,2.31-2.89,0,0,0-.09.88-3.61,4.87,1.37.67.19v-4.74l3.47-.69.35-.06.15-.35,1.13-2.66,4.15-.57.75-.1,0-.78-.21-3.87,1.37-2.67.15-.28-.07-.36-.78-3.7,3.21-.22,1.72.79.06.51.17,1.49,1.46-.51,4.78-1.7,2.81,0,1.73,1.74.48.47.72-.09,2.74-.35,1.36.09,2.61,2.27.57.48.78-.15,1.57-.3-.46,1.46-.73,2.37-1.47-.31-.52-.1-.37.3-.22.19-1.17-1.81-1.12,2-.4.72-1.72-1.28-.77-.59-.48.81-2.17,3.71-2.39-.48-3-1.36-.32-.15-.25.21-2.48,2.14-2.73-.61-.23-.06-.13.19-1.43,2-2.79.67h-.07l0,0L186,569.93l0,.05V570l.76,4.3-.51-4.27,1.67-1.73,2.88-.51.1,0,.07-.09L192.4,566l2.7.78.2.06.18-.14,2.48-1.9,2.68,1.44.05,0,.09,0,2.92.78.47.12.3-.45,2.11-3.16,1.12,1-.41.74-.34.61.3.6.81,1.65-3.66,1-.65.18-.17.6-.84,2.91-1.9,2.44-.2.26,0,.28-.25,2.78-3.49,1.57-.78.35.27.79,1.38,4,.79,3-5.34.79-1.43.21,1,1,5.27,5.13-1.06.39-2,.53-.11,0-.07,0-1.71,1-.17.1-.08.14-1,1.77-1.91-1.36-.2-.15-.21.05-1.89.35-1.88-.34-.19,0-.15.1-2.13,1.45L181.4,599l-1.14-2.64-.15-.34-.25.25-2.3,2.2-1.91-.82-.1,0-.05.08-1.2,2-1.1,2.05,1.19-2,1.25-1.83,1.89.92.09,0,.09-.07,2.21-1.92,1,2.54.05.15.17,0,2.11.53.15,0,.14-.09,2.16-1.32,1.8.42h.18l1.74-.24,2.21,1.75.52.41.22-.35,1.54,4.31-6.07-4.5-.18-.14-.12.18-2.07,3.3h0l-1.78,4-3.78-1.78,3.79,1.93.06,0,0-.06,1.93-4,2.06-3,6.63,5.24.88.69-.34-1.05L193,600.12l5.32-.85.3,0,.1-.3.58-1.59,0,1-1.79,2.16-.29.34.2.36,3.08,5.72-5.05,2.34-.38.18.19.34,1.75,3.12,1.78,3-.16,2.82-3.64,2.65h0l-2.18,2.81,2.29-2.72L199,619l.07,0v-.08l.29-3v-.06l0-.07-1.67-3.15-.2-.39,4.56,4.2.55,3.81.06.35.19.24,2.84,3.55-3.73,3.52-.43.4.12.54.86,3.91-3.37,3.57-.48.51.39.54,3,4.21-6,2.17-.58.21.22.55,2.05,5.12-.25,4.68L194,657.23l0,0,0,0-2.66,3.51-5.17.43H186v.12l-.23,7.44.49-7.31,5.17-.24h.1l.07-.08,2.82-3.46,3.6-2.88.12-.1,0-.18.44-4.94v-.1l0-.11-1.69-4.69,6.48-2.07.89-.29-.53-.8-3-4.51,3.39-3.33.33-.34-.09-.49-.69-3.83,4.22-3.71.76-.66-.63-.84-3.1-4.18-.44-4,0-.44-.35-.33-3.6-3.58,3.42-2.63,2.52-.39.45.53,1.29,1.54,1.25-1.65,4.1-5.44,3.19-2,3.22.66.89.18.74-.64,2.81-2.43,1.59-.9,4.61.61,1,.13.77-.76,3.24-3.19,2.83-2.69,0,0,1.48,1.31.8.71.91-.47,1.81-.94-.6,1.39-.27.64.33.57,1,1.7.47.8.87-.15,1.85-.31,0,1,0,1.17,1.14,0,.93,0-.27.44-.58,1,.94.58,2,1.24-.36,1.25-.72,2.07-.09.26,0,.25.34,1.93.08.49.41.21,1.62.88-1.76,1.59-.43.4.18.53.59,1.71-.13,1.79,0,.43.32.26,1.89,1.54-.55.94-3-1.3-1.26-.55.34,1.31,1,3.72-.37,2-.12.65.64,0,2.76.1,2.16.42-2.67,3.84-.29.41.45.18,2.49,1,2.33,1.58.32,1.92-3,2.14,0,0,0,0-1.66,2.21-.11.15.16.09,3.21,1.72-1.84,2.45,0,0,.05,0,2.66,1.45-2.57-1.5,1.95-2.45.07-.09-.1-.05-3.09-1.79,1.6-2,3.19-2.11.13-.09,0-.17-.3-2.22,0-.12-.1-.08-2.41-1.75,0,0,0,0-2-.87,2.95-3.95.43-.58-.71-.16-2.9-.66h-.08l-2.13-.14.33-1.49,0-.12,0-.14-.57-2.53,2.29,1.09.57.28.35-.56,1.27-2,.34-.54-.5-.44-2-1.73.17-1.55v-.16l0-.18-.41-1.32,2.4-2,1-.84-1.15-.67-2.3-1.33-.18-1.22.7-1.81.36-1.1.34-1,.25-.77-.7-.46-1.72-1.13.76-1.19,1.06-1.65-2-.14-1.72-.11V596l0-1.44-1.46.2-2.37.33-.19-.35,2.07-4.42,1.68-3.6-3.62,1.74-4.47,2.14,0,0,.51-2.5.21-1-.86-.62-.81-.6,0-.31.12-.78L240,584l-2.52-4.39.09-3.18,2.84-5.36.49-.92-.32-1.09-1.45-5-.13-.44-.34-.45-3-4-.87-1.14-1.54.05-.82,0-.74-2.59-.57-2,.61,0-.24-.68,3.53-.22.68,1.76,4.87,1.76,5.5-.05,5.91-1.25,3.05,2.65.58,1.2H259l-1.79,2.67-1.16,1.73,1.64,1.12,2,1.34-.17,2.65-.11,1.65,1.59.38,2.9.69.59.14h-.06l-3.65,1.12-2.15.65,1.16,1.76,3,4.47-2.89-.32-2.42-.27.85,2.14,1.33,3.35.26.65.65.15,1.79.43-1.56,3.44-.28.62.36.51,1.72,2.49.68,3,.07.32.2.2.75.73-1.69,1-.33.2,0,.36.47,3.61-2.25,2.15-.19.18.09.23.95,2.53-1.1,3,0,.07V610l.77,2.71,0,.07.06,0,4.45,1.93-4.27-2.15-.58-2.61,1.3-3,.05-.1,0-.12-.75-2.42,2.38-2,.18-.15,0-.25-.24-3.46,1.73-.94.22.22-1,3.7-.23.83.79.29,4,1.47,2.8,1.27L269,609.91l-.75,1.24,1.43-.16,8.07-.9,1.36,2.14-2.64,4.89-.24.44.47.17,5.17,1.85-7.33,1.84-.23.06.07.2,1.23,3.7h0l2,3.94-3.77,1.79,3.89-1.71.06,0,0-.06-1.88-4.05-1-3.51,8.26-1.8,1.09-.24-1-.41-5.65-2.23,2.71-4.65.16-.26-.16-.27-1.64-2.75-.18-.31-.39,0-7,.56,2.65-4.12.48-.74-.81-.41-3.59-1.77h0l0,0-3.12-1.27,1.05-3.45.17-.54-.41-.42-.34-.36,2.05-1.83.41-.36-.24-.55-1.63-3.89,3.24-1,.77-.22,0-.87-.14-3.2,2.13-1.88.24-.21L274,582l.95-3.14,0-.11,0-.2.1-1.61,1.21.37.67.2.54-.34,2.69-1.66,2.07,3,.38.57.64,0,1.83.05v0l-.58.22-.27.11-.09.25-.2.53-.13.32.2.27.52.68-.64-.13-.35-.07-.2.28-.58.84-.23.32.23.3.65.83-.4.56-.27.38.36.28.53.4-.45.46-.32.33.33.3.66.59-.28.38-.64.46-.06,0,0,0-.44.62-.1.14,0,.15.15.79-1-.06h-.22l-.09.18-.39.74-.61.62-.13.13.05.17.4,1.19-.21.62-1.25.95-.5.37.61.06,1.57.14.21.84,0,.14h.14l1.08,0,.85.57-1.66.8-.12.06.07.11.58.85.45,1-.24.69-1.43.21h0l-.95.55,0,0,0,0,1,1.1-.93-1.11.94-.5,1.47-.16h0v0l.29-.75,0,0,0,0-.43-1.05h0l-.48-.76,1.81-.81.23-.1-.21-.16-1.08-.78,0,0h-.06l-1,0-.2-.85,0-.14-.15,0-1.08-.14.86-.6.06-.05,0-.08.28-.78,0-.08,0-.09-.33-1.1.54-.51,0,0,0,0,.32-.57,1.27.11.45,0-.08-.46-.17-1.07.33-.41.67-.45.05,0,.05-.06.55-.71.23-.29-.28-.27-.57-.55.52-.49.36-.35-.4-.33-.55-.45.38-.49.22-.29-.23-.31-.6-.82.18-.23,1.78.41,1.46.33-.88-1.23-1.14-1.6.88-.32.56-.19-.17-.59,0-.13,2.55,1.05.49.2.44-.2,3.4-1.54,1.81,1.06-.5,4.26-.13,1.13,1.1-.07,4.55-.31,0,2.92v.5l.42.2,3.5,1.71,2.87,1.53-3.5,5-.32.46.49.24,3.58,1.76h0l3.59,1.43,1.69,2.18-.88,4.79v0l0,0,1.29,4,0,.09.09,0,4.88-1.36-4.84,1.15-1.1-3.87,1.08-4.82,0-.12-.07-.1-1.73-2.42-.05-.06-.09,0-3.59-1.59-3-1.61,3.78-5,.4-.54-.6-.35-3.39-2-3.05-1.64.15-3.37,0-.87-.91,0-4.3.13.59-3.83.1-.65-.58-.37L294,576.65l-.46-.29-.54.22L289.55,578l-2.45-1.12-.19-.08-.24,0-2.57-.17-2.33-3.73-.69-1.1-.87.49L273.58,570h0l-.26-.22-2.22-2-.85-1.48,2.19-3.65,1.35-2.25L271,559.6l-2.85-.75.21-1.68.21-1.66-1.47-.63.39-.53-1.77-.05-1.62-.69-.27-.94,1-1v-1.35l.38-.9,1.42,2.26.73,1.15,1.19.33,3.63,1,1.52.42,1.21-.82,2.08-1.43-.37,1.77-.24,1.13.52.92,2.15,3.75.71,1.25,1.33.18,4.44.61.75,3.45.42,2,1.9.14,4.44.3,1.74,4,.92,2.13,2.08-.8,4.83-1.84,3.2,1.58.23.11.17,0,4.87,1.28.6.16.52-.16,4.6-1.38.89-.27.36-.77,1.79-3.86,4.56,1.88.85.35.73-.45.59-.36,1.08,1.83,0,.07.06,0,1,.45-.33.13-.44.19v.45l0,1.38,0,.53.48.16,1.34.44,0,.93,0,.63.6,0,.9.07-.16.84-.12.61.6.09,1.17.18,0,.62-.39,1,0,.09v.07l0,1v.23l.15.15.75.77-1.17.69-.26.14,0,.28.11,1.11-.22,1.15-.06.25.19.15,1.33,1,.23.84-.71,2-.28.78.73-.39,1.85-1,.87.78.15.13.16-.1,1.22-.77h1.37l-1.25,2.13-.1.16.17.07,1.28.52,1.23.77.24,1-1.45,1.29h0l-.65,1.33,0,0h0l1.92.51-1.86-.56.67-1.25,1.53-1.27,0,0v-.05l-.23-1.06v0l0,0-1.26-.85h0l-1.1-.49,1.42-2.24.19-.29-.35,0-1.8-.07h-.06l-.06,0-1.14.67-.84-.81-.14-.13-.18.08-1.32.66.52-1.32,0-.1,0-.11-.26-1.08,0-.12-.1-.08-1.18-1,.23-1v-.13l-.06-.88,1.5-.81.53-.29-.42-.46-1-1.07,0-.71.43-1,0-.07v-.1l.1-1.21,0-.49-.51-.1-1-.19.21-.93.15-.67-.7-.07-1-.1.06-.83,0-.48-.47-.18-1.29-.48,0-.38,2.3-.87,1.88-.7-.75-.29,1.94-1-2.1.94-1-.38-2.46-1,.76-1,.48-.63-.63-.54-.13-.11,3.63-.72.7-.13.34-.55L337,562l2.81-.16,2.59,5.14.69,1.36,1.18-.89,4.88-3.72,2.14,3.29.36.55.62-.08,5.2-.68,4.35-.41-.22,8.2,0,.76.74-.1,5.31-.68h0l5.08-1.07,3.51,1.2,2.56,6,0,0,.05,0,4.38,3.47.1.08.08-.09,4.46-5.14L383.37,584l-4.1-3.51-2.37-6.21-.06-.15-.15-.06L373,572.62l-.11,0-.12,0-5.2.88-4.56.41.54-8.38.06-.9-.93,0-5.27.3-4.63.42-2.33-3.88-.6-1-1,.7-4.73,3.32-2.17-4.73-.31-.69,1.61-3.26,2-2.53,3.05.23-3.07-.37h0l0,0L343,555.68h0l-1.7,3.11L337.18,555l-.27-.25-.21.33-1.9,3L333,560.19l-.48-4.33,0-.25-.22-.16-2.19-1.65-.28-.22-.35.16-3.8,1.77-1.11-2.28-1.31-3-.13-.28-.29-.15-2.42-1.25-.3-.16-.35.1-1.37.39-.58-.43-2.57-1.93-.09-2.84,0-.32-.22-.32L313,540.29l-.06-.1-.15-.13-1.59-1.5L310,536l-.48-1-1.24.2-.76.12,0-.78v-.14l-.14-2,4.07,0h.88l.38-.75,1.23-2.48,2.5-1.05.19-.08.13-.11,1.65-1.34,2.48,2.38.84.82.83-.78,3.07-2.91,2.32-1.43,1.6,5.31.6,2,1.16-1.68-.14.36.27.31.54.63.26.3.36,0,.46-.08-.15.68-.1.49.42.21.49.26.06.56,0,.37.33.13,1.51.59-.58.49-.11.08,0,.11-.42,1-.18.46.45.18,1.28.51-.56.63-.29.34.33.27.94.74.51.54-.43.94-.08.17.08.14.44.82.28.89,0,.09,0,0,.65.6.15,1.07,0,.2.18,0,1.14.2h0l.82.06.09,1.27,0,.31.27-.16,1.54-.92.63.35.18,1.3,0,.12.11,0,1.19-.31-.24,1.7v0h0q1.08.15,2.16.27l-2.1-.34.31-1.76,0-.12-.12,0-1.19.26-.12-1.26v-.06l-.06,0-.76-.46-.07,0-.08,0-1.38.75,0-1.15v-.19l-.2,0-1-.12-.93-.21-.11-1v-.09l-.07-.07-.63-.64-.23-.87v0l0,0-.34-.7.51-1,.11-.21-.17-.2-.67-.77h0l0,0-.58-.51.74-.77.43-.45-.59-.26-1.38-.61.2-.43,1.25-.95.72-.56-.85-.37-2-.87,0-.55,0-.33-.3-.16-.33-.19.3-1.16.25-.93-1,.11-1,.12,0,0,.43-1,.16-.38-.27-.35-.28-.38-.06-.1,3.55-5.14,2.32.56,1.21,5.88.23,1.13L341,530l4-3-.19,7.76v.75l.69-.24,4.14-1.4h.06l4.2-2.05,1.49,3.91.14.34.32-.17,4.28-2.24.48,6.71v.12l.11,0,3.28.73h0l3.72-.65,2.37,3.33-2.3-3.42,0,0h0L364,541l-3.13-.78-.3-7,0-.38-.35.17-4.36,2.13-1.41-4-.13-.4-.39.18-4.61,2.1-3.44,1.06.42-8.36.07-1.31-1.09.77-4.17,2.94-.94-5.32-.09-.5-.51-.14-3.38-.92-.56-.15-.36.49-4.32,5.9-1.29-4.75-.36-1.35-1.24.71-3.7,2.14-.1,0-.1.09-2.35,2.1L319.42,524l-.77-.79-.91.7-2.41,1.84-2.85,1.11-.46.18-.24.46-1.12,2.1-4.82-.09-1.55,0,.06,1.59.14,3.42-.07,1.35-.25,0-2.24-2.07-2.06-1.9-.43,1.64-.59-1.64-.88-2.47-1.58,1.14,0-.88-3.08,2-.64.43-.54-.57L291,530.38l-1.65.87-2.64,1.39-.95-.41-1.37-2.61,2.43-2.38,3.69-3.62-5.21-.48L284,523l.13-.15,2.11-.19,4.09-.37,3.32,3.2,1.95,1.89,2-1.72,5.23-4.53.56-.48.24-.61,1.63-4.16,3.5,4.81.7,1,1.11.1,6.54.63,3.94.37-1.36-3.64-3.31-8.89,5.21.7,4.56.62-2.41-3.86-3.61-5.79-.07-.11,0-.05-1.6-2.1,4.54-3.05,1-.67-.14-1.12-.35-2.87.28-.26.75-.05h.09l.58-.18.44.81.14.26.27-.1,1.07-.4.74-.11,0,1.45v.54l.44-.3,1.89-1.25.56.38-.18,1.56,0,.29.28-.07,1.27-.32-.69,1.89-.06.19h.19l1.17.08h0l1.25-.07.06,1.12v.1h.1l1.27-.11-.42,1.7v0l0,0,.78.52h0l1,.22.33,1.05-.31-1.07h0l-1-.25-.74-.51.5-1.76,0-.1h-.1l-1.28.07,0-1.14v-.11H334l-1.34,0-1-.09.79-2,.12-.31-.33.07L331,494l.2-1.41,0-.13-.12-.08-.79-.57-.12-.09-.15.08-1.61,1,.07-1.3,0-.36-.37.05-1.14.15h-.06l-.82.28-.42-.83-.13-.25-.29.08-.82.23-.86,0h-.07l1.89-2.85.15-.23.07-.21.86-2.73,4.54.84,1.54.28.35-1.48,1.29-5.53,1.55-3.33,5.72,4.78,2.15,1.79.06-2.75.12.51.52.15,1.07.31.51.14.37-.33.47-.42.33.87.24.62.63-.07.75-.08.47.58.32.4.47-.1,2.13-.46-.29,1-.06.18,0,.15.29,1.45.14.66.63-.14,1.82-.38-.16,1.13-.08.59.57.05,1.6.14,1,.23.22,1.38,0,.23.2.11,1.1.59,1,.79.09.08h.1l1.17.2,1,1.09.18.2.23-.1,1.42-.62h0l1-.53,1,1.35.26.33.18-.37,1.05-2.17,1-.08,1.16,1.32.11.12.1-.11,1.1-1.22,1,2.06,0,.06.05,0c.87-.43,1.75-.86,2.61-1.3-.86.39-1.73.79-2.6,1.17l-.95-2.2-.07-.15-.11.12L370,490.17l-1.07-1.32-.05-.07h-.1l-1.18,0h-.11l-.06.11-1,1.86-.9-1.27-.14-.2-.23.12-1.19.59-1.2.46-.85-1.05-.08-.1-.14,0-1.17-.24-.91-.81,0,0,0,0-.9-.53-.18-1.51,0-.32-.34-.1-1.32-.36h-.07l-1-.13.25-1.4.15-.83-.86.15-2,.33-.1-.62.7-2,.4-1.16L353,480l-2.87.49-.45-.59-.26-.35-.46,0-.51,0-.52-1.53-.41-1.21-1,.84-1.06.88h0l-.27-1.46-.11-.54-.55-.2-.6-.21-.15-.07.07-3.44,0,0,0-.11.1-4.86,3-1.09,5.71,5.69,1.1,1.1.52-1.43,2.25-6.26,5.55,8.84.53.85.6-.77,3.6-4.64,0,0,0,0,3.19-5.41,4.57,3.27.4.29.24-.42,3.14-5.69,5.5,7.17.1.12.14-.05,4.22-1.62h0l0,0,3.68-3.48,5.11,2Zm-58.61,9.65v.07l-.46.93-.4-.06ZM321.7,482l.63.18.12.55-1.86-.27ZM297,486.67l.49-.39,2.16-1.74,2.28,2.78,1,1.22.81-1.29,2.77-4.46,2.34.81,3.31,1.94.47.27,1.2,2.73-.35.19.5.6.39.46-1.21,2-.17.29,0,.41-.21,3-1,1.21-6.07-1.05-1-.17-.71.82-2,2.33-.25.29-.12.44-.86,3.15-.1.38.08.48.49,2.84-.69.39-3.51-1-.46-.13-.56.1-3.28.54-.6.1.84-3.92-6.2,3.32-3.06,1.65-2.55-4.72-4.58,2.12L276,503l1.39-.79,1.88-1.07-.95-1.82-.92-1.77,2.46.21,1.13.09.6-.85.51-.73.49-.21,2.55-1.06,1.35-.56-.11-1.44-.25-3.49,2.07.6,1.06.3.63-.81,1.89-2.47.87-.56,2.38.48-.22-.91,1.49.38Zm-4.37,51.73.14,3.18,0,.88.64.53,1.67,1.34-.43-.06-2.75-.35-.34,0-.39.13-2.79.92-.34.11-.31.3-1.9,1.79-.62-.33-.46-1.41,1.42-5.62,2.69-.35.55-.06.4-.29,2-1.4Zm-10.91,2.3-.68-.73-1,.11-2.39.26-1.45-1.06-1.9-2.09-.13-.15-.24-.17-1.71-1.23.4-.23,5.08-2,.32.17,2.69,1.45.75,3.36.43,2,1.94-.25.67-.09-2.14,1.35ZM223.3,569.09l-.74.63-1.3,1-.16.13L221,571l-.59,1.35-.15.33.17.31.65,1.21-1.75.26-.44.07-.1.4-.34,1.31-.81,1.06-.2.25.1.29.54,1.74-.73.36-.27-.42,0-1.4,1-3.14.87-3.46.19-.74-.54-.62-1.91-2.2,1.5-2.23.19-.29.07-.41.22-1.28,4.06,4Zm-10.81,22.35-.31-1.25-.19-.74-.68-.17-1.44-.35,1.72-.9.1,0,.13-.11,1.16-1,.9,1.28.8,1.94-.54,1.2-.18.13Zm.95.33-.73.53-.13-.52Zm-2.95,2.47-.93-1.88.52-.17Zm-22.9-88.43-.62.57-1.15-.09,2-2.25.08,0,.38,1.75ZM184,508.34l.3-.15.61.07-2,1.87-.67.25Zm39.18-28.73.61-.93h0l0,.77Zm1.29,1.95,0,.05-.48,1.23-.41-.27-.77.12-3.94.63-.52-.12,2.61-.71Zm55.08,46.23-.21-.21.38,0Zm-78.5-11-.14.75-.26.19-1.71-1.19-.68-.47Zm6-.31.05-.07,0,0,.09-.14.72-1.14.61-1,1.85.77.9.38.84-.63.74-.54.45,0,.7.91-4.19,1.24,1.31,1.37-1.3,2L209,517.9l-.44-.93-.91-.27-.59-.16Zm4.44,9.07,2.91-4.19.32,0,2.12,2.21-6.19,3.14Zm2.88,56.26.18.23.53.7-.94-.71Zm11.19-24.13-.14-.4,2.49.73-2.15-.3Zm61.86-71.18,1.58-.69-.81,1Zm27.64-48.64.09.17-.22-.17Zm-2-.52.49.35-.23.5ZM274.25,451.7l4.62,1.44,2,.63-.06-2-.19-7,3.22-.83,5.14-.28.89-.05.12-.84,0-.27.35-.19.3-.11,1,1.54.21.32.35.09.76.18.18.05.16,0,.55-.07-.57,1-.52.94,1,.3,1.1.33.59,1.12.33.62.64-.21,1.75-.58.2-.07.13-.13.82-.86.47,1.48.11.32.28.12,1.62.72.94.42,0-1,.06-2.45,1.24.59,1,.51-.19-1.14-.29-1.79v0h0l-.18-.73,1.4-.41.3-.09.07-.29.25-1,.8-.62.05,0,0,0,.52-.63,1.09.58.35.19.23-.32.9-1.23.75-.68,1,1.65,0,0-2,1.23-.22.15,0,.29-.18,2.47-3.2,1.44-.59.27.26.64,1.11,2.69L306,451.5l-.19.2,0,.3-.32,3.47-3.09-.63-4-.94-.4-.09-.38.27-2.29,1.66-.41.3v.56l-.15,4.57-1,2.43-2.23.94-.36.16-.22.39-1.23,2.13-.42,0-.45.05-.35.38-1.63,1.76-.41.44.06.67.23,2.91-.34,3.19,0,.39.18.41,1.21,2.75.16.37.38.27,2.4,1.7-1.47-.35-.48-.11-.51.2-2.58,1-.22.09-.24.2L283,485.36l-.7.58,0,1,0,.87-1,1.85,0,0-.05.13-.53,1.35-2.34-1.27-.72-.39-.84.27-2.66.84-.89.28-.41,1-.06.15L271.79,491l1.1-2,.14-.27.06-.19.9-3,.27-.91-.36-.75-1.09-2.29.77-1.47,3.14-2.39.77-.59.12-.84.43-3.08.2-1.46L277,471l-3.54-1.82L272,467.28l-.34-1.58,4.39-4.11.77-.72-.22-.92-.71-3-.13-.53-.36-.32-2-1.71Zm-10.94,22.78-1.1-4.26-.39-2.66,3.76-1.17L267,466l.1-1.38.29-4.16,1.26-2.87,2.37-.83,1.56,1.47.3,1.55-4.66,4-.79.68.18,1.07.53,3,.07.38.26.37,1.89,2.67.23.32.42.23,2.51,1.43-.14.77-3,2.1-.39.27-.28.49L268,480.45l-.55.95.46,1.07,1.05,2.46-.65,1.88-1.6,2.7-.12.19-.1.31-1,3,.78.2-1.3,1.46-1.62-3.09L261.6,490l-.12-.19.95-1.86,1.32-2.58L261.34,484l-2.35-1.3,2.9-1.59,1.34-.73,0-1.4.1-3.85,0-.4Zm-35.85,6.92.26,1-1,1.48-.41-.41.56-1.62.2-.57Zm-3.54-4.87-.07,1.13-.47-1.25-.07-.18Zm-2.18-1.1.33.17.32.16-1.28,0,.12-.78,0-.13.3.37Zm-1.62-2h0l.39.47-.66-.15Zm-8.59-.81-.46-.27-.46,0-3.43.17-2.49-.92.6-.19,3.54-1.11,2.33.64,2.45,1.66,2.75,1.66.47.29-.17.18,1.4.37,1.23.32-.18,1-.18,1,1.07.05,1.75.09.1.29-2,2.92-1.59,2.28-1.79-.42-1.43-1,.12-5.86,0-1-.81-.49Zm-4.21,13.16.64.21.11-.69.18-1.11.18,0,1.71,1.53,1.38,1.25-.28-1.87-.36-2.3h0l.35.19,0,.55.81.63,2.46,1.93.26.2.41.12,3.17.89.34.1.43,0,3.44-.39,1.38,1,0,.13-.85,1.29,1.19,0,.58,2.27.13.5.41.46.64.7.33,2.41-1.4,4.49-1.15,1h-.31l-2.81-.2-.64-.87.71-4.45.17-1-.6-.71-2-2.37-1-1.24-1.49.58-5.53,2.14-1.5-.91-1.42-1.67-.4-3.91-.1-1ZM165.83,482h.81l-.69.17-.13-.06Zm2.71,2.29-.14-.4-.39-.11-.59-.18,2.38-.5.34,3.49,0,.55-1.05-1.16Zm1.75,4.42.12,1.79-.87-.09ZM182,498.55l-.73.46-1.58,1-.45-1-.48-1-1,.38-.89.34.06-.54.13-1.1-1.06-.16-2.33-.37-.17-1.29-.13-1.58,0,0,.46.34.6-.17,4.9-1.34,2.91.31,1.73,2.05.28.34.49.11,2.66.6.19.44.2.46.52.24,2.4,1.16.61.28.68-.27,3-1.2,3.49-.67.44-.09.38-.33,2.51-2.17.35-.3.16-.49,1-3.1.11,1.67,0,.54.37.48,1.91,2.41.17.21.29.19,2.59,1.72.84.56,1.05-.37,5-1.74.32.43-.89,4.48-.18.89.56.81,1.76,2.55.59.85.18,0-2.44,1.49.09.2-3.93-.15h-.37l-4.69.34-1.05.07-.71.54-.27.19v-.19l-1.82.54L199,509.82l-.45-.37.79-1.82.87-2-2.07.16-3.24.26-.44,0-.26-.22h-.77l-.08-.13-.39-.62-.67-.13-1-.2-.56-2.23-.22-.85-.78-.26-1.88-.62-1-.34-.65.79-1.28,1.55v-2.19l-.53-.39-1.6-1.16Zm-3.75,9,2.69,1.82.42.28.48-.23.16-.08,0,1.12-2.31.86-2.36-.08-.9-1.42Zm-10.69,7.22-2.2.61-3.51-3.56-.32-.33-.26.36-3,4,.09-1.62,1.32-2.84,3.33-.61.37-.07.39-.26L167.4,508h1.47Zm-19.87,17.32,0,0-.19-.1Zm4.35,2.11-1.71-.82.67-.3.07,0,0-.07.62-1.78v0l.17-1.38,1.7.62Zm3.07-6.39h-.21l-.12-.51,1-.07h.08l.08-.05,1.43-.79-.23,1.45Zm23.08,1.61-.34-.41-.47-.06-3.09-.37-2.91-1.1-.47-.18-.41.2-3.37,1.73-2.42-.43-.76-1.22.41.27.19-.82.4-1.63.7-.32,1.22.09,1.42,0h.51l.15-.51.37-1.24.86.25,1.19.34-.28-1.22-.24-1.07.85-.24.87-.25-.38-.85-.63-1.37.18-.18,3,.45,2.48.37-1.7-1.87-2.1-2.32,0,0,.53-.05.37.65,1.37.11,4.19.33.44,0,.55-.17,4.22-1.35.44-.14.45-.38,3.57-3,2.3.13,1.91,1.73-.39.82,1-.26,1.3,1.18.51.46.8.2.58.15-.82.51-2.73,1.72-3.45.48-1.28.17-.16,1.19-.43,3.4-.81.42-.77.41-.38.2-.2.1-.09.05,0,0h0l-3.13,1.45-.24.11-.14.13-2.4,2.28-.3.29-.08.35-.48,2ZM211.15,553l-.42-.34h-.48l-2-.06h-.17l-.12,0-1,.16-.08-.39-.06-.27-.13-.18-.37-.51.75-1,.35-.46-.13-.49-.55-2.14-.23-.86-.84,0-1.91.08.53-1.53.19-.53-.36-.39-1.23-1.34-.34-.37-.46.09-1.75.33-1-1-.4-.43-.49.24-1.37.67-1.15-.92-.46-.37-.42.37-1.27,1.16-1.22-.28-1.49-.51-.08,0h-.06l-1.46-.1h-.15l-.11.06-1.38.67-.62-1.64-.07-.17-.15-.06-1.32-.55-1-1-.1-.1h-.13l-1.92,0-1-1,.37-2.11.05-.27-.26.05-.4.07.37-1.28,1.14-4,2-1.77,3-1.24,3.22-1.52.69-.33.14-.81.5-2.87,2.67-.26.35,0,.35-.2,2-1.14,1.86,1.41.4.29-1.14,5.75,4.32-5.92,1.31-1.79,1,.32,2.08,4.85,1.6,3.75,1-1.39,5.08,6.17-3.26-.33,2.5,3,3.7,5.11,4.26-1.59-.22,1.4-.13.87.23.73.47,1.41,0,0-1.82,2.8-.3.46,0,.49-.09,3.74-1.58,1.9-2.74.6-2.62.61Zm5.71,4.59,1.79-.32.1.21-.06,1.48-.75.21-.8-.53-1.27-.85Zm-3.8,6.93-.44-.68.6.16ZM199.72,589.7l.88-.1-.21-.89-.9-3.9h0v0l-1-3.22,3.34-1.38.52-.21.07-.59.37-3,2-2.33.12-.15.07-.22.78-2.43,4.56-1.06,1.44-.34-.63-1.4L210,566l.32-.53,2,3.28,1.68,2.78.38-1.1,1.18,1.26-.18.89-.18.85-.09.43,0,.21,0,.11v.07l-.87,3.33-.07.26,0,.2.19,2.62v0l-1.05,1.08-.35.36.4.28,1.67,1.19.07.06h-2.07l-.35.33-2.25,2.16-2.69,1.54-.44.26-.1.44-.34,1.57-.66.64-1.83-.44-.76-.18-.38.64-1,1.75-2-.17-.79-.08-.19.73-.37,1.45-3.93-4.09Zm5.88,3-1.16,1-.79-.1.81-1.23Zm-12.2,6.4.46-.71,1.51-.76,2-.43h.07l.74-.24-.42,1.3Zm3.27,11.59-.46-.9,3.1-1.29-1.84,1.52Zm19.26-14-.07.66-.51.35-4,2.74-.29.2-.16.24-3,4.22-.29-.32-.85.16-3.77.73-.41.08-.28.23-.75.62L198.88,601l1.8-2,.18-.2v-3.91l3.7.64.4.07.36-.28,2.53-2,.24-.2.09-.33.36-1.37.37-.33,1,.31.1.51-.68.24-.13,0,.07.12,1.28,2.39-2.14.77,0,0,0,0,1.06,2-1-2,2.13-.7.38,1.86,1.67-1.1,2.76-1.81.75.75Zm18-30.48,1.13,3.41-2.39,4.93-.28.58v.56l0,4.47v.74l.35.56,2.66,4.27-.37,3.3-2.61,2.69L230,594.38l-4.21-.4-.71-.07-.55.34-2.3,1.42-.2.12-.11.11-1,1-.39-.38-.27-.26-.27-.1-.79-.31.11-1.67,0-.76-.51-.47-2.2-2-.89-.8-.89.64.3-.6,0-.08,0-.1-.78-2.07v0l-.91-1.38,1.07-.38,3.86.13,2.61.1-1.46-2.12-2.11-3.07,0,0,1.62-.74.44-.2-.14-.47-.53-1.9.74-.9.07-.09,0-.13.29-1,2.33-.28,1-.12-.44-.89-.89-1.77.4-.82,1.18-.85.67-.53.64-.51,0,0,5,4.91L227,567.18l-1.05-2.82,6.14-.44Zm-5.37-8,0,0,.06,0Zm4.73-8.11H234l.7,1.82Zm38.8,28.09-.64,2.69L269.36,583l-.41.42.05.52.31,3L266,588.13l-1,.36.45.93,2.1,4.29L266,595.23l-.69-.73-.57-3,0-.19-.13-.19L263.23,589l2.07-4.2.65-1.33-1.48-.39-2.53-.69-.21-.58,3.79.55,3.22.47-1.67-2.73-3.32-5.41,1.39-.37,5.21-.54,1.78,2v.09Zm4.5-3.94-.44-.15.14-.32.34-.71,2.52-.27Zm-4-26.85-.89-.28-1.42-2.46,1.19-1.09-1.84,0-.1-.17,1.1-.65-.48-.81,1.5-.8,1.47,1.49.19.2.15.09,2.35,1.57.71.48Zm47,16.49-1.59-.72-.83,1.62-2.31,4.52-3.23.83-4-1.23-3.89-2.1-.83-.46-1,.34-3.59,1.21L297,564.48l-.53-1.37-1.55-.16-3.89-.43-.62-3.51-.32-1.82-1.92-.34-4.81-.84-.84-1.61,1-4,1.86.87,1.2.56.89-.9,2.5-2.57,2-.77,1.45.12,2.38,4.87.41.85.86.06,2.76.18.49,0,.37-.23,2.49-1.55,2.4-.19.72-.06.35-.6,2-3.43,1.46,1.12,2.68,5.1.73,1.39.93-1.05.68.16,4.64,1.1.28,2.7-.48,3.59-.05.39.3.2,3.09,1.93.09,1.26Zm8,5.32-.22.31.08.35,0,.12-.45-.87,1-.63,0,0Zm1.63,2.39h0l-.09,0Zm-9.33-21.22,1.87.87,1.29,2.66,0,.07,0,.05.05.09.09.18.2.36.39.72.77,1.45.35.65.61-.32,4.06-2.1,1.73,1.2.77,5.08.16,1.08.66-.82,2.44-3,0,0v0l1.61-2.81,3.79,3.24h-.23l-4.47.08h-.73l-.44.65-2.85,4.15-3.57.57-.27,0-.29.17-3,1.7-1-.45,0-2v-.23l-.21-.15-2.82-2,.64-3.32v-.16l-.14-3.35,0-.54-.57-.17-4.05-1.21.67-1.56Zm-12.2-11.88.9,1.6.15.27.17.14,1.83,1.53,1.68,2.2.28,3,.06.59.43.29,2.49,1.64h0l-1.59,1.67-2-4.1-.1-.23-.23-.18-2.7-2.27-1.05-.88-.79,1.21-2.49,3.89-2.09.09h-.31l-.32.18-2.38,1.35-1.41-.16-2.23-5.07-.12-.29,1.34,1.09,2.29,1.85.66-2.82,1.25-5.4.13,0,.34,0,.23,0,1.09-.22,1.49,1.3,2.59,2.26.09-3.39,0-1Zm-10.22.72.45,0-.53,2.05-.85-.72-.07-3.71.56,1.31ZM296,519.5l-2.38-2.43-.93-1-1.42.08-1.34.09.31-1.42,2.37-1,.87-.37.35-.76,1.08-2.29,1.62-.34,3.84.91.92.22-2.55,6Zm17.32-14.26-3.72-.61,1.24,3.62,3,8.79-1.49-.18-5.54-8.08-1.12-1.64,0-.09-.84-3.9.53-2.35,1-1.27,6,.79,1,.14.36-.47.29.39,2.68,3.73,1.09,1.86Zm2.84-8.75v-.16l.09-3.25.69-1.24.44-.1-.32,1.12-.07.24.13.19.71,1.11.41.65.44-.62,1-1.5.2.33.07.79Zm3.84-6.84-.38.53.07.7,0,.42-.36.48-1.06,1.43-.17-.27.57-1.79.28-.89-.93.18-.39.08.26-.48-.34-.7-.47-1,.85-.42-1.19-.62-.23-.12-.9-1.83,1.94-.67,5.15.53-.37,1Zm5.66-8.35-1.18-.25-.27-1,.92-3.31,1.95-1.2,1.95.26-.85,5.23-1.3.53Zm5.64-3.31,0,.17-1.08,4.1-2-.43.48-.22.19-.09,0-.19.63-5.47.85.12h.26l.23,0,.45,0,.91.09h0l-.86,1.7Zm4.91-5.74-.81-.7,1.1-1.12-1.15,1.07h0l.1-.89,2.17-.87,3.8,1.77-.25,5.13Z" style="fill:#9b9b9b"/><path d="M274.29,523c1.39,3.08.76,6.45-.88,9.46-.28.5-.58,1-.9,1.48-3.14,4.07-5.78,8-10.2,10-.43.26-.86.51-1.3.74a22.11,22.11,0,0,1-2.71,1.24,23.31,23.31,0,0,1-5.81,1.43,23,23,0,0,1-5.31-.05c-.57-.07-1.14-.16-1.69-.21-5.09.77-9-3.18-12.11-6.34-.43-.33-.84-.68-1.24-1a22.43,22.43,0,0,1-7.29-13.46c-.16-.56-.3-1.12-.43-1.68-1.13-5-1-10.24,1.5-14.89,3-5.6,8.23-9.06,14.11-10.56.59-.15,1.19-.29,1.78-.45,3.86-2.82,8.47-1.5,12.66.45.58.17,1.15.33,1.71.52s1.12.38,1.66.6a26.08,26.08,0,0,1,3.81,1.82l.91.55c5.49,3.12,12.07,7.72,11.06,14.91.08.34.15.68.21,1s.12.7.17,1.05.09.71.13,1.07.06.74.09,1.12S274.27,522.56,274.29,523Z" style="fill:#414042"/><path d="M274.29,523c0-.41-.05-.8-.07-1.18s-.06-.76-.09-1.12-.08-.72-.13-1.07-.1-.7-.17-1.05-.13-.69-.21-1a9.92,9.92,0,0,0-.87-5.7,9.74,9.74,0,0,1,.52,4.91c.08.35.16.69.22,1s.12.7.17,1.05.09.71.12,1.07.07.73.09,1.12.05.77.08,1.18c1.39,3.08.76,6.45-.89,9.46-.27.5-.57,1-.9,1.48-3.14,4.07-5.77,8-10.19,10-.44.26-.87.51-1.3.74a22.81,22.81,0,0,1-2.71,1.24,23.5,23.5,0,0,1-5.82,1.43,22.86,22.86,0,0,1-5.3,0c-.58-.07-1.14-.16-1.69-.21-5.09.77-9-3.18-12.12-6.34-.42-.33-.84-.68-1.23-1a21.8,21.8,0,0,1-5.43-7.33,21.92,21.92,0,0,0,5.77,8.11c.4.35.81.7,1.24,1,3.07,3.16,7,7.11,12.11,6.34.55,0,1.12.14,1.69.21a23,23,0,0,0,5.31.05,23.31,23.31,0,0,0,5.81-1.43,22.11,22.11,0,0,0,2.71-1.24c.44-.23.87-.48,1.3-.74,4.42-2,7.06-5.95,10.2-10,.32-.48.62-1,.9-1.48C275.05,529.42,275.68,526.05,274.29,523Z" style="fill:#fff"/><path d="M270.72,522.41a20.06,20.06,0,0,1-5.39,13.7A17.73,17.73,0,0,1,264,537.4c-4.15,3.55-10,7.16-15.66,5.39a10.9,10.9,0,0,1-1.53-.62c-4.5.29-8.11-1.88-10.77-5.1-.38-.47-.74-1-1.08-1.45a20.43,20.43,0,0,1-4.92-11.29c-.09-.55-.15-1.12-.2-1.68a18,18,0,0,1,1.33-8.37c3.95-8.55,12.5-12.5,21.72-11.85a20.09,20.09,0,0,1,17.81,20Z" style="fill:#231f20"/></g></svg>