<svg xmlns="http://www.w3.org/2000/svg" viewBox="0 0 584.81 515.08"><g id="a81ef052-f59f-4ad4-8aff-42dda02f426f" data-name="Layer 9"><path d="M574.71,109.67l-.08,0-.07.06-7.5,6.71L559,119.25l-10.93-15.06-.6-.82-.52.89-6.54,11.11-9-6.83-.89-.68-.61,1-7.14,11.39-6.08,7.4-11.29-19.15-1.77-3-1.29,3.29-4.94,12.62L487.5,111l-.93-1-1.33.44-8.84,2.91-1.48.48-.07,1.62-.94,19.41-9.8-8.65-1.59-1.4,2.16-2.2-2.27,2.1-1.1-1-1.71,3.41-.19.38L456,130.89l-5.76,1.73-.25.07L450,133l-1.74,10.6-2.57,1.06-2.4-.51-2.88-.62-.45,1.3-4.22-1.42-.32-.1-.37.13-5.56,2-6.24-1.49-.72-.18-.56.58-4.74,4.85-5.5-3.58-.11-.08-.2-.08L405.26,143l-1.37-.55-.9,1.29-5,7.2-3.91-5.29-1.4-1.89-2,1.46L385.5,149l-5-1.53-1.09-.33-1.1.64L372.8,151l-.37.22-.37.44L369.21,155l-6.31-2.17-2.58-.88L359,154.49l-3.26,6.16,0,.09-.1.25-2.21,5.57-1.83,2.36-10.17-1.34-7.18-1,3.11,6.75,2.9,6.3L337,181.26l-2.67,1.35.11,1.07h0l-4.94-4.4-.66-3.89-2.78-1.22-2-2.2-4-7.56-3.57-3.09-.22-.38,1.87-3.67,2.6-5.11L316,149.52l-4.64-2.58,5.75-3.14,2.64-1.45.08-2.77.2-7.6,0-.8-.15-.56-2.18-8.42-.77-5.27,7.44-2.32,2.8-.87.19-2.72.58-8.24,2.48-5.67,6.64-2.32,1.73-.61.51-1.59,2.23-7,9.13,2.84,4,1.24-.12-4-.39-13.94L360.59,70l10.18-.56,1.77-.09.23-1.66.08-.53.68-.38.6-.23,2,3.06.42.63.69.17,1.51.37.36.09.31,0,1.09-.15-1.12,2-1,1.87,2,.6,2.17.65,1.17,2.21.64,1.23,1.28-.42,3.46-1.15.4-.13.25-.26,1.62-1.7.94,2.94.2.62.56.25,3.2,1.42,1.88.83.05-2,.12-4.85L400.76,76l2.07,1-.36-2.24-.58-3.54v-.1l-.37-1.44,2.77-.81.6-.18.14-.57.48-2,1.6-1.23.1-.08.06-.07,1-1.26,2.17,1.15.7.37.45-.62,1.77-2.44,1.48-1.35,2.06,3.27.75,1.21.55-1.29,2.36-5.56,1.79,0,1.9,3.71.36.71.52-.57,2.33-2.58,1.26,5.21.13.5.44-.25L432,63.42h0l2.66-2,1.78,2.39.15.21.2-.16,2.67-2.12,1.55,4.4,0,.08h2.6l2.56-1,2.28,1.85-2.25-1.93,0,0h0l-2.59.92L441.27,66l-1.48-4.62-.08-.26-.21.17-2.74,2L435,60.84l-.16-.24-.25.17-2.92,2.06L429.39,64l-1.19-5.63-.19-.88-.62.66-2.48,2.58-1.62-3.41-.16-.33h-.37l-2.58-.11h-.42l-.19.4-2.1,4.58-1.75-3-.48-.83-.74.64-2.32,2-.06.05-.06.07-1.4,1.82-2.15-1.22-.66-.38-.52.6-1.48,1.7L404,64.72l-.27.2-.1.36L403.15,67l-3.26.85-1,.27.23,1,.53,2.42.17,1.24-2.15-1.11-1.72-.89-.1,2-.26,4.73-.75-.37-1.39-4.8L392.76,70,391,71.74l-3.15,3.1-1.82.55-.82-1.69-.3-.6-.69-.23-.77-.25,1.93-3.26,1.79-3-3.54.36-4.21.42-.46-.12-2.38-3.85-.8-1.3-1.49.51-.75.25.67-4.69,7.36-3.08.48-.21.25-.36,4.47-6.64,9.52-3,.44-.14.21-.34,4.59-7.47.29-.47-.23-.45-6.63-13,4.69-6.2.07-.09v-.09l1.29-8L402.53.36,400.6,8.23,399,16.05l-5.18,6.19-.22.27.15.35L399.61,36l-4.4,6.44-9.77,2.62-.45.12-.31.42L379.94,52l-8.1,2.94-.94.34-.2,1.07L369,65.28l-8.81.06H360l-.28.06L351,67.19l-1.94.4,0,2.1-.24,11.74-8.29-3-3-1.09-1.15,3.11-3,8.15-6.77,2-1.47.44-.76,1.52-3.77,7.61-.27.52-.09.77-.7,5.87-8.66,2.25-3.55.92.37,3.86.91,9.32v.14l.07.36,1.65,7.87-.3,4-12.39,6-8.75,4.26,8.49,5.26,5.14,3.19-5.29,11-1.4,1.14-6.41-6.84-10.71,1.83-9.42-6.61-11.16-5.18-9.57,1.18v-.11l0-1.08-.72-.7-1.07-1.07,1.12-3.19.42-1.22-.75-1-1.8-2.29-1-1.23-1.43.44-2.83.86,1.19-1.84.56-.87-.34-.9-1-2.72-.47-1.26-1.28,0-2.74,0,.23-1.55.24-1.66-1.59-.36-1.37-.32.52-.61,1.05-1.25-1.17-1.06L231.8,124l.83-1.73,1.55-2.82.19-.35v-4l-.52-.42-2.1-1.7,2.91-1.86.72-.46-.12-.81-.41-2.65.64-2.56.15-.6-.38-.45L233,100.87l1.06-1.24,3.91,2.56,1.64,1.08-.12-1.93-.37-5.56,1-2.81.32-.89-.9-.21L235.62,91l-3-1.19L237.37,85l.51-.51-.59-.37L234,82l-2.9-2.89,0-2.87,4.81-2.33.05,0,0,0,2.92-2.78.2-.18-.21-.17-4.1-3.32L238,64.34l.06-.06-.06,0-3.42-2.79,3.27,2.85-3.38,3-.12.11.13.1,3.91,3.38-2.77,2.48-5.07,2.25-.21.1V76l-.15,3.28v.18l.13.14,3,3.16,0,0,.05,0,2.67,1.81-5.16,4.92-.75.71,1,.43,4,1.73,0,0h.07l3,.79-.82,2.1-.07.15v.2l.13,3.77-3-2.12-.75-.53-.65.7-2.36,2.61-.62.69.6.75,2.38,3-.63,2.23-.06.22,0,.26.24,2-3.92,2.33-1.61,1,1.46,1.26,2.92,2.52-.07,1.83L230,120.71l-1.53,2.92-.54,1,.87.84,2.16,2.1-1.39,1.54-1.88,2.08,2.77.73,2.44.64-.36,2-.37,2,2.13.11,3.47.18.19.57-4,5.77-3.14,4.52-3.54-.83-2.83-2,.23-11.6,0-2-1.6-1L217.48,127l-.9-.54-.9,0-6.8.34-5.37-2-1.47-.54-1.19.8-7.3,5-2.44-3.76-2.26-12.17-.52-2.79-2.49,1.15-7.94,3.68-.16.08-.06,0-.12.06-.24.13-.48.26-1,.51-1.94,1-3.4,1.81-5.1-.7-5-4.6-.07-.07,0,0-5.77-4.44-1-.74-.77.87L146,118.12l-5-.6-6-8.75-.38-.56-.53.38-6.17,4.51,0,0,0,0-5.27,5.13-8.16-9.18,7.93,9.79.18.23.23-.21,5.7-5.05,5.78-3.83,5.46,8.82.2.33.42.07,6,1,.51.08.39-.4,6.72-6.89,4.59,3.88,5.12,5.19.33.34.54.1,6.12,1.13.52.09.55-.26,7.83-3.69,5.48-2.24,1.41,10.1.06.42.27.47,3.87,6.62,1.33,2.28,2.35-1.45,8.44-5.21,4.6,1.95.51.23h.69l6.31,0,3,2-.62,9.32-.25-.13-.73-.37-.67.41-1.57,1-.85.52.18.94.34,1.87-1.07-.91-.5-.42-.59.15-1.79.42-.83.2-.11.82-.21,1.73-.95-.26-1-.3-.34,1-.28.83-.32-.36-.72-.78-.76.68-1.65,1.47-1-.66-1.65-1.2-.21-.15-.23,0-1.81-.22-.45,0-.31.3-1.21,1.21-.95-2-.23-.49h-.52l-1.69.07-1.55-.6-.37-.14-.32.21-1.88,1.27-.69-.74,2-2.28.83-1-1.26-.05-3.57-.15-1.67-.87-.55-.28-.2.57-.82,2.42-1,1.82-2.7-3.42-.28-.36-.28.35-1.54,1.94-2,1.65-1.79-.23-1.09-3.26v0l-1.52-2.07-.11-.14-.11.12-2.4,2.39-1.69-2.3,0,0,0,0-2,2,2-1.88,1.65,2.39.06.08.07-.07,2.42-2.27,1.34,2,1,3.41,0,.14.16,0,2.05.33.11,0,.1-.08,2.21-1.67,0,0,0,0,1.32-1.57,2.72,3.7.4.53.34-.59,1.37-2.39v0l0-.05.7-1.85,1.23.69.1.06h.14l2.4.17L186,149.07l-.4.43.4.46,1.46,1.68.39.45.52-.33,2.08-1.31,1.34.56.14.06h1.46l1.16,2.68.48,1.11.91-.84,1.8-1.69,1.13.17,1.43,1.12L202,154.8l.62.43.6-.5,1.46-1.23.85,1,1.18,1.39.66-1.74.57-1.5,1.24.39,1.27.4.22-1.35.35-2.2.36-.07,3.37,3,2.75,2.47-.57-3.7-.7-4.54,0,0,.69.38-.07,1.09,1.6,1.25,4.86,3.81.53.41.81.22L231,156l.66.18.87-.09,6.8-.76,2.72,2,1.89,7.37.25,1,.82.91,1.25,1.38.66,4.77-2.77,8.89-7.64,7-10.79,6.62.19.39-7.77-.3-.53,0h-.22l-9.28.67-2.06.15-1.42,1.07-6.29,4.7L193,200.8l-8.1-6.69-1.69-1.39h-1.52l-.16-.26-.78-1.22-1.32-.26-2-.4-1.11-4.41-.43-1.68-1.55-.51-3.71-1.23-2-.67-1.28,1.55-2.54,3.07,0-2.95,0-1.38-1-.76-3.17-2.3-1.45-1.06-1.45.92-3.12,2-.88-1.89-1-2.05-2,.77-1.77.66.13-1.06.26-2.18-2.1-.33-4.61-.71-.34-2.56-.35-4.3,0-.54-.26-.4-2.14-3.26-.52-.79-.89-.09-3.61-.36,1.88-4.24.46-1.05-.73-.81-2.41-2.66-1.18-3.34-.28-.8-.76-.22-4.57-1.35.26-2.17,6.29,0H136l-1.58-2.07-4.52-6-.95-3.89-.31-1.24-1.16.44-5,1.91-4.24.88,1.75-8.91.18-1-.93,0-5.23.1-5.39-1.09-2.09-3.24,3.67-6.17,0-.06,0,0,1.21-5.28.08-.35-.34,0-7.06-.67,1.32-5.84,0-.11h-.1l-5.9-.59,5.77.76-1.54,5.91,0,.21.22,0,6.89.89-1.28,4.83-4,6.28-.16.26.16.28,2.28,3.8.12.2.25.06,5.67,1.34.07,0h.08l4.33,0-2.14,9.33-.31,1.36,1.4-.25,5.73-1H123l.09,0,4-1.36.62,3,0,.23.15.21,2.94,4.13-5-.13-1.24,0-.2,1.27-.72,4.67-.19,1.23,1.23.4,4.91,1.63,1,3,.1.3.23.27,1.77,2.1L130,162.85l-1.09,2.27,2.56.34,5.14.67,1.28,2.09.19,3.83.45,4.41.15,1.55,1.61.3,4,.75-.42,2.76-.55,3.72,3.63-1.23,3.21-1.09,1.1,2.54,1.1,2.55,2.46-1.45,4-2.37.64.5-.22,9.43-.17,7.38-4.58,1.7-4.66-.16-8.33-13.17-1.45-2.3-2.51.11-8.75.37-1.41.06-1,.72L119,194.54l-7.5,1.74-2,.47-.73,1.79-4.49,11-5.51-2.4-11.56-12-2.65-2.74-1.93,3.13-6.17,10-.12.19,0,.08-.09.16-.18.33-.35.64L75,208.26l-1.4,2.59-2.49,4.54-6.22,3-9-1.48-.13,0h0l-9.75-.7-1.64-.12-.22,1.55-2,13.73L36,234.4,22.8,229l-.84-.35-.3.82-3.58,9.62,0,0v0L16,248.86,0,244.61l16.14,5.1.38.13.1-.41,2.63-9.88L22.9,231l12.65,5.85L36,237l.52-.24L44,233.51l.63-.28.14-.74,2.43-12.69,8,.94,9.58,2,.62.13.67-.29,7.7-3.27.65-.27.42-.7,6-9.93,4.48-6.58,9.06,10.28.38.43.66.32,9.23,4.55,3.18,1.57,1.56-3.37,5.6-12.08,6.6-1.21.73-.14.78-.52,7-4.69H135l6.21,10.9-.37,0-1.11.13-.44.95-1,2.24-.57,1.21.89.92,1.77,1.83-1.87-.22-.87-.1-.56.6-1.69,1.81-.78.84.48,1,1,2.1-1.25.4-1.39.44.36,1.37.29,1.13-.62-.16-1.38-.35-.35,1.33-.77,2.87-1.61,0-2.74-.13-.34,0-.28.14-2.19,1.09-.55.28-.12.56-.47,2.26-2.54-1.54-.62-.38-.57.4-1.84,1.32-2.18.48-.53.12-.2.47L113,236.17l-1.33-.32.5-4,.22-1.71L111,231l-4.1,2.48-2.52.26-.83.09.21.78.87,3.33.26,2.74-5.55-1.83-.59-.2,0,.6-.28,3.32-1.06,3.35L95.15,247l-3.62-2.84,0,0h0l-3.24-1.2-.22-.08,0,.22L87,247.52l-3.59-1.32-.06,0v.06l-.78,3.7.88-3.6,3.61,1.45.13.06,0-.14,1-4.33,2.95,1.2,3.66,3.07.16.13.19-.09,2.54-1.15.14-.07.06-.15,1.23-3.51,0,0v-.05l.32-2.73,5.78,2.12.84.3-.05-.91-.24-3.7v-.1l-.59-2.6,1.9-.14h.15l.16-.09,2.82-1.58-.5,3.13-.12.78.79.22,2.88.79.77.22.34-.76,1.35-3,1.92-.36.2,0,.19-.13,1.43-1,3.3,2.15,1.36.88.39-1.61.77-3.23,1.39-.64,2.43.19,2.8.07,1,0,.3-1,.73-2.45,1.7.49,2.35.68-.55-2.44-.47-2.1,1.67-.48,1.73-.49-.76-1.68-1.24-2.72.35-.35,6,.9,4.91.73-3.38-3.71-4.15-4.58,0-.07,1.06-.09.73,1.28,2.72.22,8.27.66.89.07,1.07-.35,8.35-2.66.88-.28.9-.74,7.05-5.89,4.55.24,7.58,6.87,1,.91,1.58.41,9.46,2.43,2.61.68,2.48-1.69,7-4.77,7-.18,9.46.8-12.77,3.77L228,227.89l-13.8,7,10.59,12.86-6.45-.63,5,6,7.33,10.12,8.42-3.16-.43,2.77-.27,1.74.47,1.44.92,2.79-.07.1-3.59,5.53-.6.91,0,1-.2,7.41-3.13,3.76-5.4,1.18-5.18,1.2L216.73,286l-.82-.67-1,0-4-.12h-.33l-.23,0-2,.33-.17-.79-.12-.53-.25-.36-.73-1,1.49-2,.68-.91-.26-1-1.09-4.22-.45-1.72-1.66.08-3.79.17,1.06-3,.37-1.07-.7-.76-2.44-2.65-.68-.74-.9.17-3.47.67-1.9-2-.79-.85-1,.48-2.71,1.31L186.62,263l-.91-.73-.82.74-2.53,2.29-2.41-.56-2.94-1-.16-.05h-.12l-2.89-.2-.29,0-.22.11-2.72,1.33-1.24-3.23-.13-.34-.3-.13-2.61-1.09-2-1.95-.2-.19h-.25l-3.8.06-1.93-1.91.73-4.18.1-.53-.51.09-4.62.84-1.68-2.55-.08-.13-.13.06-3.09,1.45-3,1.62,3.07-1.47,3-1.24,1.58,2.67.08.13.16,0,4.28-.56-.88,3.89-.06.23.18.19,2.16,2.36.15.16h.25l3.73.13,1.88,2,.08.08.14.07,2.32,1.12,1.3,3.94.3.92.93-.4,3.41-1.46,2.47.29,2.86,1.13,0,0,.08,0,3.06.87.6.17.52-.43,2.21-1.82,2.07,1.83.65.57.86-.37,2.5-1.06,1.7,2,.55.65.92-.14,3.34-.47,1,1.21-1.92,4.73-1.07,2.64h7.81l.31,1.53-2,2.46-.64.76-.91,0-7.13.13h-.51l-.4.16-7.06,2.79-.09-.63-1.18-.49-5.22-2.17-.57-.23-.54.05-9.27,1-2.4.26.56,2.27,2.22,9-2.42,5.14-.22.47,0,.45.61,6.68-7.44,1.29-.85.15-.29.76-2.12,5.5-7,1.64-1,.24,0,1,.29,7.62L139.64,323l-.88-.22-.17.86L137,331.55l-4.1,5.55-6.52.84h-.09l-6.13,2.15-6.7-3.66-.16-.09-.1.14-6.33,9,6.54-8.58,6.55,3.89.13.08.15-.05,6.28-2,6.76-.62.24,0,.15-.21,4.57-5.71.08-.11,0-.17,1.74-7.15,9.64,2.72L151,328v-1.42l0-8,6.86-1.35.69-.14.29-.68,2.25-5.27L169.3,310l1.47-.2-.09-1.54-.42-7.65,2.72-5.28.29-.57-.14-.69-1.54-7.32,6.35-.46,3.41,1.57.12,1,.34,2.94,2.87-1,9.46-3.35,5.57.1,3.42,3.42.94.94,1.43-.18,5.43-.69,2.68.17,5.18,4.49,1.11,1,1.55-.3,6.58-1.28,3.76-.68.44,1.1,3.67,9.33,1.66,4.2,1.66-.12-.9,1.43,1.36,1,1.12.81-.69.32-1.51.73.69,1.47,1.48,3.18-1.45,1.24-2.57,2-.33.25-.14.33-1.16,2.66-.29.66.32.6,1.29,2.39-3.46.53-.86.13-.2.81-.67,2.58-1.61,2.09-.39.5.18.58,1.09,3.43-1.45.72-2.58-4-1.09-1.7-.65,1.88-1.84,5.35L220.83,343l-.68.7.78.55,3.31,2.36,2.32,2.27-6.42,2.55-.68.27.42.58,2.26,3.22,1.57,3.83-1.05,2.37-.36.26-2.9.1-.63-2.47-.37-1.46-1.35-.34-4.7-1.16-1.3-.33-.88.86-3.39,3.31-3.63-.85-1.51-.36-.74,1.25L198.84,364l-3.91-.36-1.56-.14-.36,1.43-1.14,4.45-3.12,1.16-4,1.05-.22.06-.13.08L181,373.61l-.34.2-.17.28-2.06,3.5-3.79-2.7-.39-.28-.42.08-3.74.7-3.72-.67-.38-.07-.28.19-4.22,2.88-3.57-.71-2.27-5.23-.29-.66-.5.48L150.28,376l-3.78-1.62-.19-.08-.1.16-2.39,3.92-2.17,4,2.36-3.92,2.47-3.63,3.73,1.82.19.09.17-.15L155,372.8l1.89,5,.11.3.34.09,4.17,1,.29.07.28-.17,4.28-2.63,3.56.83.15,0,.2,0,3.44-.47,4.38,3.46,1,.81.75-1.14,2.73-4.16,3-1.5,4-.85h0l.11,0,4.08-1.29.78-.25.27-.86,1.14-3.68,3.66.52,1.15.16.69-1.05,2-3.05,3.38,1,1.09.32.93-.82,3.4-3,2,.61.2,1-1.33.48-.26.09.13.24,2.54,4.71-4.25,1.54-.07,0,0,.07,2.11,3.93-1.94-3.92,4.22-1.38.74,3.68,3.3-2.17,5.46-3.58,1.49,1.47-.49,4.29-.15,1.32-1,.69-7.9,5.43-.57.39-.32.46-5.85,8.35-.57-.63-1.69.33-7.46,1.43-.81.16-.55.46-9.65,8-2.51,2.07,2.32,2.13,9.14,8.43,1.1,7.55.1.69.38.48,5.63,7-7.38,7-.85.8.24,1.06,1.7,7.74-6.68,7.06-.94,1,.76,1.07,6,8.33-12,4.3-1.14.42.43,1.09L190,477.17l-.5,9.27-6.68,5.76-.06.05,0,0-5.27,6.95-10.22.86-.25,0v.23l-.46,14.73,1-14.46,10.23-.49H178l.14-.16,5.59-6.85,7.11-5.71.25-.19,0-.35.87-9.78,0-.19-.08-.22-3.35-9.29,12.82-4.1,1.77-.56-1.06-1.58-5.93-8.92,6.7-6.6.67-.66-.18-1L202,436.41l8.36-7.34,1.5-1.32-1.23-1.66-6.15-8.26-.86-7.93-.09-.85-.68-.67-7.14-7.07,6.78-5.21,5-.77.89,1.06,2.55,3,2.47-3.26,8.12-10.77,6.31-4,6.38,1.3,1.75.36,1.46-1.26,5.57-4.8,3.14-1.8,9.12,1.21,2,.26,1.52-1.5,6.43-6.3,5.58-5.34.05,0,2.92,2.6,1.58,1.41,1.8-.93,3.59-1.87-1.18,2.75-.55,1.27.66,1.12,2,3.38.93,1.58,1.72-.3,3.67-.62,0,2.08.05,2.31,2.23.08,1.85.06-.53.88-1.15,1.93,1.85,1.14,4,2.47-.72,2.46-1.42,4.1-.19.52.09.48.67,3.84.17,1,.8.42,3.22,1.73-3.49,3.16-.86.78.36,1.05L296,407.8l-.26,3.53-.06.86.63.51,3.75,3L299,417.62,293.12,415,290.64,414l.66,2.59,1.91,7.36-.74,4-.23,1.3,1.28,0,5.46.18,4.27.84-5.3,7.6-.56.81.89.35,4.92,1.93,4.6,3.12.64,3.8-6,4.23-.05,0,0,0-3.29,4.38-.23.29.32.17,6.35,3.41-3.63,4.86-.06.09.09.05,5.28,2.85-5.09-3,3.85-4.84.14-.17-.2-.12-6.11-3.53,3.16-3.94,6.32-4.18.26-.18,0-.33-.6-4.39,0-.24-.21-.15-4.77-3.47-.05,0-.08,0-4-1.72,5.83-7.83.85-1.14-1.42-.32-5.72-1.31-.07,0h-.1l-4.21-.27.65-2.95.05-.24-.06-.28-1.13-5,4.53,2.17,1.13.54.69-1.1,2.51-4,.67-1.07-1-.86-4-3.42.32-3.08,0-.31-.11-.35-.81-2.62,4.75-4,2-1.67-2.29-1.32-4.55-2.63-.34-2.41,1.38-3.59.71-2.17.66-2.07.5-1.51-1.39-.92-3.4-2.23,1.51-2.36,2.1-3.26-3.94-.27-3.41-.23,0-2.76,0-2.85-2.89.4-4.69.65-.38-.7,4.1-8.73,3.34-7.13-7.18,3.44-8.83,4.24-.09-.08,1-5,.4-1.95-1.7-1.24-1.6-1.17.09-.63.22-1.53-.85-1.48-5-8.7.18-6.28,5.62-10.61,1-1.82-.63-2.15L272,307.88l-.26-.88-.67-.88-6-7.91-1.72-2.27-3,.11-9.11.32.34-.2-5.87-.81-.4-.06-.36-1,7.25-10.36.67-1,.31-1.37,1.52-6.92.34-1.53-.5-1.73-.61-2.09.69-.38.14-.45,4.73,5.44,5.71,14.72,9.63,3.47,10.88-.09,11.7-2.48,8.31,7.24,7.13-4.55,3.33,2.92L314.28,300l-1.08,2.74,2.23,1.71,5.21,4-1.13,6.36-.59,3.36,3.2.72,7.43,1.65,2.64,4.54.2.33.17.2,4.94,5.51.61.69.77.23,6.77,2,1.31.4,1.07-.66,5.33-3.29,4.08,6,.77,1.12,1.26,0,3.62.11,0,.07-1.15.45-.53.2-.18.49-.4,1.05-.25.65.39.52,1,1.35-1.27-.25-.69-.14-.39.55-1.16,1.66-.45.64.46.59,1.28,1.63-.79,1.12-.53.75.7.55,1.05.8-.88.91-.64.65.66.6,1.3,1.17-.54.74-1.27.9-.12.09-.07.09-.87,1.21-.2.28.06.3L358,359l-2-.11-.44,0-.19.37-.76,1.46-1.21,1.22-.27.27.11.33.78,2.35-.4,1.23-2.48,1.87-1,.74,1.21.11,3.09.29.44,1.65.07.29h.28l2.14,0,1.67,1.13-3.28,1.6-.24.12.15.22,1.15,1.68.88,1.95-.48,1.37-2.83.41h0l-1.87,1.09-.06,0,0,0,1.95,2.18-1.84-2.19,1.85-1,2.91-.32h.08l0-.08.58-1.48,0-.06,0-.06-.85-2.06v0h0l-.95-1.5,3.57-1.59.47-.21-.43-.32-2.14-1.54-.08-.06h-.1l-1.93-.1-.38-1.69-.07-.27-.29,0-2.15-.27,1.7-1.19.13-.09.06-.17.56-1.54.06-.16-.06-.18-.64-2.18,1.07-1,.06-.05.05-.1.64-1.13,2.51.22.88.08-.14-.9-.34-2.12.64-.83,1.33-.88.1-.06.09-.12,1.1-1.41.45-.58-.55-.52L361.22,352l1-1,.72-.7-.79-.65-1.08-.89.74-1,.43-.57-.44-.6L360.62,345l.35-.45,3.52.81,2.89.66-1.74-2.44-2.25-3.17,1.74-.62,1.11-.39-.34-1.17-.07-.24,5.05,2.07,1,.39.87-.39,6.73-3,3.58,2.09-1,8.42-.26,2.24,2.18-.14,9-.61,0,5.79v1l.82.4,6.94,3.38,5.68,3-6.93,9.88-.64.92,1,.48,7.08,3.48,0,0h0l7.11,2.81,3.35,4.32L415.63,394l0,.09,0,.08L418.2,402l.06.18.17-.05,9.65-2.69-9.57,2.28-2.19-7.66,2.14-9.55.05-.22-.15-.21-3.42-4.78-.09-.13-.18-.08-7.1-3.13-5.94-3.2,7.47-9.85.81-1.07-1.19-.69L402,357.22,396,354l.3-6.66.07-1.73-1.8.05-8.5.24,1.18-7.58.2-1.27-1.16-.74-5.56-3.53-.91-.57-1.07.43-6.87,2.8L367,333.21l-.36-.16-.49,0-5.08-.34-4.61-7.37-1.36-2.19-2.34,1.32-6.51,3.68-4.64-1.6-4-4.78L334.58,316l-.65-1.23-1.46-.38-5.4-1.42,1.16-5.35.46-2.11L326.92,304l-4.45-3.68,2.1-4.82,1.08-2.49-2.08-2-4.24-4,3.59-3.7v-3.85l.73-.66,2.84,4.53,1.44,2.28,2.36.65,7.17,2,3,.84,2.39-1.63,4.12-2.82-.74,3.48-.48,2.26,1,1.8,4.25,7.43,1.42,2.48,2.62.36,8.79,1.19,1.47,6.82.83,3.87,3.76.27,8.8.61,3.44,8,1.82,4.21,4.12-1.57,9.54-3.65,6.33,3.13.46.23.34.09,9.62,2.52,1.19.32,1-.31,9.11-2.73,1.76-.53.71-1.53,3.54-7.63,9,3.71,1.68.69,1.44-.88,4.14-2.57.07.06-.95,1.36-.44.62.15.69.33,1.47.21.91.82.29,2.15.75-1.6.66-.88.36,0,.9-.08,2.72,0,1.05,1,.31,2.65.89-.06,1.83-.05,1.24,1.2.09,1.77.13-.32,1.66-.22,1.22,1.18.17,2.31.35-.05,1.23-.76,2-.07.18V340l-.09,2v.45l.29.3,1.49,1.52-2.33,1.36-.51.29.06.56.23,2.2-.46,2.26-.1.5.38.3,2.61,2.05.46,1.67-1.4,3.94-.55,1.56,1.43-.78,3.68-2,1.71,1.54.29.26.33-.2,2.42-1.53,2.71,0-2.49,4.22-.18.31.32.14,2.53,1,2.45,1.53.47,1.89-2.87,2.55,0,0v0l-1.29,2.61,0,.07.08,0,3.8,1L468,372.58l1.33-2.48,3-2.51.09-.07,0-.11-.45-2.09,0-.09-.07,0-2.48-1.69h0l-2.17-1,2.82-4.43.37-.58-.71,0-3.54-.15H466l-.12.07-2.25,1.31L462,357.1l-.27-.26-.36.18-2.61,1.28,1-2.6.07-.19-.05-.23-.52-2.14-.05-.23-.2-.16-2.33-2,.45-1.92,0-.11v-.15l-.12-1.74,3-1.6,1.06-.57-.83-.91-1.95-2.12.11-1.4.84-2,.06-.15,0-.2.18-2.39.08-1-1-.19-2.06-.38.42-1.84.29-1.31-1.38-.15-1.87-.2.11-1.63.07-1-.94-.35-2.54-.94,0-.77,4.56-1.71,3.72-1.39-3.76-1.45-4.87-1.88,1.5-2,.95-1.26-1.24-1.06-.26-.21,7.19-1.43,1.38-.27.68-1.08,5.29-8.39,5.56-.32,5.13,10.17,1.37,2.71,2.33-1.78,9.65-7.35,4.24,6.51.72,1.09,1.21-.16,10.29-1.35,8.61-.8-.44,16.2,0,1.51,1.45-.19,10.5-1.34h.08l10.06-2.11,7,2.36,5.06,11.89.05.12.08.07,8.67,6.87.19.15.16-.18,8.83-10.17-9,9.65-8.12-7L544.68,328l-.11-.29-.32-.12-7.37-2.83-.21-.07-.24,0-10.28,1.75-9,.81,1.08-16.57.12-1.79-1.85.1-10.42.58-9.16.85-4.61-7.69-1.19-2-2,1.39-9.35,6.58-4.29-9.37-.72-1.58-1.84,0-8.85.17-1.44,0-.88,1.28-5.63,8.22L449,308.67l-.52.09-.57.32L442,312.45l-10.62-4.84-3.15-1.44-1.65,3.21L422,318.32,415.63,320l-8-2.43L400,313.37l-1.64-.89-1.93.65-7.1,2.41-2.66-6.85-1.05-2.7-3.06-.34-7.72-.83-1.21-7-.64-3.59-3.79-.67-9.52-1.66-1.67-3.2,4.12-16.32,3.18-12.61,5.34-.69,1.08-.14.79-.56,5.38-3.79.39,8.76.08,1.74,1.28,1,7.53,6.08,4.54,3.66,1.29-5.58,3.15-13.61,5.83,5.09,5.11,4.47.17-6.7.26-10v-.29l-.26-3.87,8-.08H417l.75-1.49,2.44-4.91,4.94-2.08.37-.16.26-.21,3.27-2.65,4.89,4.71,1.67,1.61,1.64-1.55,6.07-5.74,4.61-2.83,3.15,10.51,1.19,4,2.3-3.33-.27.72.52.6,1.07,1.25.51.6.73-.11L458,244l-.3,1.34-.21,1,.83.43,1,.5.11,1.11.08.74.65.26,3,1.17-1.16.95-.21.18-.08.21-.82,2-.38.92.89.35,2.55,1-1.11,1.27-.58.66.66.53,1.85,1.46,1,1.07-.85,1.87-.15.32.15.29.88,1.62.55,1.77.06.17.11.1,1.27,1.19.3,2.12.06.38.36.07,2.25.4h.05l1.61.13.18,2.51.05.61.52-.31,3.05-1.82,1.26.69.35,2.57,0,.24.23-.06,2.34-.61-.46,3.35v.08h.08c1.43.19,2.85.36,4.27.52-1.38-.21-2.77-.43-4.15-.67l.62-3.48,0-.23-.24,0-2.35.51-.24-2.48v-.13l-.12-.07-1.5-.9-.14-.09-.16.09-2.72,1.48-.08-2.29v-.36l-.38-.05-1.93-.23-1.85-.41-.2-2,0-.19-.15-.14-1.24-1.26L467,264.8v-.05l0-.07-.67-1.37,1-2,.22-.43-.33-.38L465.88,259l0,0-.05-.05-1.15-1,1.46-1.52.85-.9-1.17-.52-2.72-1.2.38-.85,2.48-1.89,1.44-1.09-1.69-.75-3.93-1.71-.07-1.1,0-.64-.59-.33-.66-.37.61-2.3.48-1.82-1.93.21-2,.23,0,0,.85-2,.31-.74-.52-.7-.56-.75-.13-.21,7-10.17,4.59,1.12,2.4,11.64.46,2.24,1.8-1.35,7.84-5.85-.36,15.36,0,1.48,1.38-.46,8.18-2.78.07,0,0,0,8.32-4.06,3,7.73.26.69.63-.34,8.48-4.44,1,13.28v.23l.22.05,6.5,1.44h.08l7.35-1.3L531.3,268l-4.54-6.77,0-.06h-.07l-7.41,1.09-6.19-1.55-.6-13.84,0-.76-.69.34-8.62,4.22-2.79-7.94-.27-.79-.78.36-9.11,4.14-6.81,2.1.84-16.53.14-2.59-2.15,1.52-8.25,5.81-1.87-10.52-.18-1-1-.28-6.68-1.82-1.12-.31-.71,1-8.55,11.67-2.54-9.4-.72-2.68-2.46,1.42L440.76,229l-.18.1-.2.18-4.66,4.16L431,228.62l-1.53-1.56-1.8,1.38-4.76,3.64-5.66,2.21-.89.35-.48.91-2.21,4.14-9.54-.17-3.07-.05.12,3.14.28,6.77-.17,3.16-4.9-4.52-4.08-3.76-1.42,5.45L387.4,263l-1.68-1.43-.25-14.44-.12-7.2-6.09,4-10.58,7-5.2.53-1-4.91-.37-1.93-1.81-1-1.72-1,7.74-7.6,7.3-7.16-10.31-.94-3.92-.37,5.94-.53,8.1-.73,6.56,6.34,3.86,3.73,3.93-3.4L398.19,223l1.11-1,.48-1.22,3.22-8.23,6.92,9.52L411.3,224l2.19.21,12.95,1.24,7.8.74L431.55,219,425,201.4l10.3,1.39,9,1.21-4.76-7.63-7.15-11.46-.13-.21-.09-.11L429,180.45l9-6,1.94-1.31-.27-2.22-.7-5.67.56-.52,1.49-.11h.1l.07,0,1.15-.36.88,1.61.28.51.53-.2,2.11-.78,1.47-.24-.07,2.88,0,1.06.87-.58,3.75-2.48,1.1.75-.35,3.08-.06.59.56-.14,2.5-.64-1.35,3.75-.13.36.37,0,2.33.16h0l2.46-.15.13,2.22v.2l.19,0,2.53-.22-.84,3.37,0,.06.06,0,1.54,1h0l2,.44.66,2.08-.6-2.12h0l-2-.49-1.45-1,1-3.48.06-.19h-.2l-2.55.15-.06-2.26v-.22h-.22l-2.67.08-1.91-.19,1.57-4,.24-.62-.66.15-2.6.58.39-2.78,0-.26-.22-.17L452.43,165l-.26-.18-.27.17-3.2,2,.14-2.56,0-.71-.73.09-2.26.29h-.05l-.07,0-1.62.56-.83-1.65-.26-.5-.56.16-1.63.45-1.69.08H439l3.75-5.64.3-.45.14-.42,1.7-5.4,9,1.66,3.06.56.69-2.94,2.55-10.93,3.07-6.59,11.32,9.45,4.25,3.55.11-5.44.23,1,1,.3,2.12.61,1,.29.74-.67.91-.82.66,1.71.47,1.24,1.25-.14,1.48-.16.94,1.16.63.77.92-.2,4.23-.91-.58,1.93-.11.35.06.31.57,2.85.26,1.31,1.26-.26,3.59-.77-.31,2.24-.16,1.17,1.14.1,3.15.28,1.92.45.43,2.73.08.47.38.2,2.18,1.17,1.94,1.57.18.15.19,0,2.32.39,1.91,2.15.34.39.45-.19,2.83-1.22,0,0h0l1.91-1,2.06,2.67.51.66.35-.73,2.07-4.31,1.92-.15,2.29,2.61.22.25.21-.24,2.18-2.41,2,4.09.05.1.1,0c1.73-.84,3.45-1.71,5.17-2.58-1.72.79-3.43,1.57-5.16,2.33l-1.88-4.36-.12-.29-.23.23L531,161.67l-2.1-2.61-.11-.13h-.19l-2.34.09H526l-.12.22L524,162.94l-1.79-2.51-.28-.4-.46.23-2.34,1.16-2.37.91L515,160.27l-.16-.2-.28,0-2.31-.5-1.81-1.58,0-.05-.08,0-1.78-1-.34-3-.08-.64-.66-.18-2.61-.72-.06,0h-.09l-2-.26.5-2.78.29-1.64-1.69.29-3.94.67-.2-1.24,1.38-4,.8-2.28-2.45.42-5.67,1-.89-1.18-.51-.68-.92.06-1,.07-1-3-.81-2.4-2,1.67-2.08,1.74-.06,0-.55-2.89-.2-1.06-1.1-.4-1.18-.42-.29-.15.34-16.59,6-2.15,11.31,11.26,2.18,2.17,1-2.84,4.45-12.37,11,17.49,1.06,1.68,1.19-1.54,7.12-9.17.06-.08,0-.05,6.32-10.71,9,6.48.8.57.46-.84,6.21-11.25L558.5,120l.19.25.28-.11,8.34-3.19.06,0,0,0,7.28-6.89,10.12,3.9Zm-332.49,37.5-.81-.54-1.52.24-7.8,1.23-1-.23,5.16-1.39,6.87-1.86.07.1Zm-72.09,45.44L168.6,194l-7.82,7.16-1.32.49,4.75-5.38,6.33-7.17.15.06.76,3.45Zm253.3-45.87,5.84,1.1.38.07.31-.12,5.5-2.29,3.85,1.08-2.57,7.4-4.7,6.66-.74,1.05.13,1.39.08.82-.72,1-2.09,2.83-.33-.54,1.11-3.55.56-1.76-1.85.37-3.23.63-1.35-.41.18-1.38.06-.5-.33-.43-.37-.47,2.53-1.23,2.35-1.14-2.35-1.23-2.79-1.47-.23-.26.1-3.37,0-1.13-1.14-.3-.57-.14ZM214.62,363.51l.82,4.05-1.85-3.71Zm4.95-.82h1.69l-1.43,1Zm42.29-50.5,2.23,6.75-4.74,9.76-.55,1.15v1.09l.07,8.85v1.47l.69,1.1,5.26,8.46-.72,6.52-5.18,5.33L254,367.85l-8.33-.8-1.41-.13-1.09.68-4.55,2.81-.38.24-.23.21-2,1.88-.78-.75-.53-.52-.54-.21-1.56-.59.21-3.31.09-1.51-1-.92L227.52,361l-1.77-1.59L224,360.69l.58-1.2.08-.16-.07-.18L223.06,355l0,0,0-.06-1.78-2.72,6.84-2.46,1-.36-.74-.79-3-3.16,0,0-.06-.05-2.5-1.89,1.61-1.57.13-.13.08-.2,1.35-3.57,1.93,3.21.48.79.88-.4,3.21-1.46.85-.39-.26-.94-1.06-3.76,1.46-1.78.15-.18.08-.26.57-1.95,4.6-.56,1.91-.23-.88-1.76-1.74-3.5.77-1.64,2.34-1.66,1.33-1.06,1.26-1,.93-.74-.49-1.14-1.2-2.78,1.92-.84,2.64-1.17L245.2,311l-2-1.54.59-.88,14.33-1Zm98.63-51.76,1.31-.17-9,5.67-14.38,9-1.77-.56-2.8-4.85,2.36-2.15-3.65-.09-.2-.34,2.18-1.28-8-13.64,14.05-5.94L335.18,237l3.51-7.35,2.11-2.17.9,2.72.66,2,1.71.91L347.6,235l1,.53,1,.06,2.82.18L348,240.36l-4.19,4.35,5.21,2.81,5.33,2.87,1.47,6.63.87,3.9ZM359,218.67v-.11l-10.8-1.64-.15-.5-.31-2.8,1.5-.15,5.34-.51,1.52-.15,1.15-.66,3.3-1.89Zm62.26-42.45-3.49,2.22,2.48,3.43,5.32,7.38,2.15,3.67-8.84-1.44-7.35-1.2,2.44,7.17,5.94,17.39-2.95-.37-11-16-5.47-8-3.83,9L390,215.25l-5.44,4.44-4.7-4.8L378,213l-2.8.17-2.66.16,3.05-14.25,2.87-13.42-12.25,6.57-6.06,3.25-5-9.33-9.07,4.2-.93-3.33,2.76-1.56,3.72-2.11-1.88-3.6-1.82-3.51,4.86.41,2.24.19,1.18-1.7,3.25-4.63.34-.49.14-.41,2.1-6.12,1.69-3.6,5.57,1.62,2.1.61,1.23-1.61,3.74-4.88,3.87-2.5,5.08,1.28,1.33.33,1-.78,4.27-3.45,4.51,5.51,2,2.42,1.59-2.56,5.48-8.82,4.62,1.6,6.56,3.83,1.13.67.83-.93.27-.3.58,0,.46.11v3.29l.37.39.78.84.19.2.21.11.73.36-1.52.79-1.41.74,1,1.19,1.08,1.3-.18,1.85-.11,1,1,.26,2.62.7.3.09.26-.06,1.71-.39-.62,2.21-.13.47.24.38,1.41,2.2.82,1.28.86-1.22,2.06-3,.38.64.15,1.58Zm33.32-38.91-.13.25-.09.35L452.18,146l-4-.85.95-.44.37-.18.05-.37,1.24-10.83,5.46-1.93.07,0,.05-.05,2.47-2.69Z" style="fill:#c7b299"/><path d="M330,226c2.31,5.12,1.26,10.73-1.48,15.74-.45.84-1,1.66-1.49,2.46-5.23,6.78-9.62,13.36-17,16.69-.72.43-1.44.85-2.17,1.24a39.47,39.47,0,0,1-14.19,4.43,37.72,37.72,0,0,1-8.83-.07c-1-.12-1.9-.27-2.82-.36-8.46,1.29-15-5.28-20.16-10.55-.72-.56-1.4-1.13-2.06-1.71a37.45,37.45,0,0,1-12.15-22.42c-.25-.93-.49-1.86-.7-2.79-1.88-8.4-1.73-17,2.49-24.8,4.93-9.32,13.7-15.07,23.5-17.58,1-.25,2-.47,2.95-.74,6.43-4.7,14.1-2.5,21.08.75,1,.27,1.92.55,2.86.86s1.86.64,2.76,1a43.77,43.77,0,0,1,6.34,3c.51.3,1,.6,1.51.92,9.14,5.18,20.1,12.86,18.41,24.81.13.57.26,1.14.36,1.72s.2,1.16.29,1.75.14,1.19.2,1.79.11,1.22.15,1.85S329.92,225.36,330,226Z" style="fill:#412312"/><path d="M330,226c0-.68-.08-1.34-.13-2s-.09-1.25-.15-1.85-.12-1.2-.2-1.79-.18-1.17-.29-1.75-.23-1.15-.36-1.72a16.51,16.51,0,0,0-1.71-10.06,16.32,16.32,0,0,1,.88,8.19c.13.57.25,1.14.36,1.72s.2,1.16.28,1.75.15,1.18.21,1.79.1,1.21.15,1.85.09,1.29.13,2c2.31,5.13,1.26,10.74-1.48,15.75q-.69,1.26-1.5,2.46c-5.23,6.78-9.61,13.36-17,16.68-.71.44-1.43.85-2.16,1.24a40.7,40.7,0,0,1-4.5,2.07,38.81,38.81,0,0,1-9.69,2.37,37.81,37.81,0,0,1-8.84-.07c-1-.12-1.89-.27-2.81-.36-8.47,1.29-15-5.29-20.17-10.55-.71-.56-1.39-1.13-2.05-1.71a36.57,36.57,0,0,1-8.84-11.8,36.53,36.53,0,0,0,9.67,13.67c.66.58,1.34,1.15,2.06,1.71,5.12,5.27,11.7,11.84,20.16,10.55.92.09,1.86.24,2.82.36a37.72,37.72,0,0,0,8.83.07,39.47,39.47,0,0,0,14.19-4.43c.73-.39,1.45-.81,2.17-1.24,7.36-3.33,11.75-9.91,17-16.69.53-.8,1-1.62,1.49-2.46C331.22,236.77,332.27,231.16,330,226Z" style="fill:#fff"/><path d="M324,225.1a33.4,33.4,0,0,1-9,22.81c-.69.75-1.42,1.46-2.18,2.15C306,256,296.16,262,286.78,259a17.56,17.56,0,0,1-2.54-1c-7.49.49-13.5-3.13-17.93-8.5-.63-.77-1.23-1.57-1.81-2.4a34.17,34.17,0,0,1-8.19-18.79c-.14-.93-.25-1.87-.32-2.81a29.88,29.88,0,0,1,2.2-13.93c6.58-14.25,20.82-20.82,36.17-19.73,11,1.1,19.72,7.67,25.07,16.35a32.94,32.94,0,0,1,3.38,8A33.5,33.5,0,0,1,324,225.1Z" style="fill:#1f120b"/></g></svg>