<svg xmlns="http://www.w3.org/2000/svg" viewBox="0 0 558.53 515.08"><g id="eb63f36e-f630-48f1-bc4e-72725809c263" data-name="Layer 9"><path d="M548.89,127.89l-.08,0-.07.06-7.16,6.41L533.86,137l-10.44-14.38-.57-.79-.5.85-6.24,10.61-8.6-6.52-.85-.65-.58.93L499.26,138l-5.8,7.06-10.79-18.29L481,123.88,479.75,127,475,139.08l-9.44-9.93-.88-.94-1.28.43L455,131.41l-1.41.47,0,.49-2-4,11-3.14.53-.16-.28-.46-4-6.91-2.11-6.41,3.94-5.08-4.2,5,0,0v.08l1.89,6.58v0l0,0,3.47,6.58-11.43,2.76-.76.19.34.75L453,135l.35,1.31-.18,3.63-6.77-3.48-.47-.24-.54.19L440,138.34l-.72.25-.12.79-.91,6.1-2.38,2.34-3.3-.45-6.8-1.19-.63-.11-.6.33-5,2.79-.61.34-.24.73-2.39,7.42-.16.49.13.6.34,1.47-.47-.15-.31-.11-.35.13-5.3,1.91-6-1.42-.69-.17L403,161l-3.29,3.36-2.19.65-4.3-2.8-.11-.07-.19-.07-5.84-2.35-1.31-.52-.86,1.23-4.73,6.87-3.74-5.05-1.34-1.8-1.9,1.39-5,3.65-4.4-1.34-.85-3.5-.31-1.28-1-.64-5.14-3.36-1.75-3.62.38-5.4,0-.32,0-.22-.54-4.67,1.59-1.85,1-.15,1.25-.2.56-1.07,2.42-4.58,4.17-2,.86-.4.32-.84,2.29-5.93.17-.44v-.4l0-8.12L372,113l6.75,1.31,7.68,1.25,1.75.29.1-1.79.46-7.89,3-3.32.66-.71-.39-.86-2.16-4.75,5.41-2.69.62-.31,0-.68.18-4.86L401,84.65l.59-.4-.21-.66-.73-2.33.88-2.07,3.37,2.45.34.67.35.67.46-.51.16.12.33-.41,1.6-2,.17-.19,1.2,5,.12.48.42-.24,2.6-1.47h0l2.53-1.9,1.71,2.29.14.2.19-.15,2.55-2,1.48,4.21,0,.07h2.48l2.44-.94,2.18,1.76-2.15-1.84v0h0l-2.47.88-2.28-.07L420,81.76l-.08-.24-.2.15-2.62,2-1.67-2.38L415.3,81l-.22.16-2.8,2-2.18,1.15L409,79.06l2.09-2.61,4.82-3.61,5.52.2h0l0,0,5.28-1.65,6,2.7-6-3,0,0h0l-5.33,1.46-5.6-.42h-.1l-.1.07-5.08,3.52,0,0-.05,0L406,81l-.43-.34-1.3-2.72-.14-.31-.36,0-2.21-.09-3-2.33-1.77-1.39.62,2.24L399,81.7l-.25.55L397,79.41l-.46-.79-.71.61-2.22,1.92,0,0-.06.08L392.2,83l-2.05-1.17-.63-.36L389,82l-1.42,1.63L385.85,85l-.26.19-.1.34L385,87.14l-3.12.81-1,.25.21,1,.51,2.31.16,1.18-2-1.06-1.64-.84-.1,1.87-.24,4.51-.73-.34-1.32-4.59L375.11,90l-1.72,1.69-3,3-1.73.52-.79-1.61-.29-.58-.65-.22-.74-.24L368,89.39l1.7-2.88-3.38.35-4,.4-.43-.11-2.28-3.68-.76-1.24-1.43.48-.71.25.64-4.48,7-3,.46-.19.23-.35,4.27-6.34,9.1-2.91.41-.14.2-.32,4.38-7.14.28-.45-.22-.43L377.17,44.8l4.48-5.93.07-.08v-.08L383,31.08l1.48-7.59L382.59,31,381,38.47l-4.94,5.92-.22.26L376,45l5.64,12.58-4.2,6.15-9.33,2.5-.43.11-.3.4-4.53,6.08-7.73,2.81-.89.33-.2,1-1.65,8.54-8.41,0h-.17l-.27.06-8.29,1.7-1.86.39,0,2-.23,11.21L325.2,98l-2.83-1-1.1,3-1,2.83-.37-.09-8.13-1.91,1.36-3.62,8.58-8.52L324,86.32,321.11,85l-6.9-3.12-3.75-5.31.59-4.29,4.53-4.22.13-.12.08-.08.15-.15.31-.31.6-.61,1.21-1.22,2.43-2.45,1.09-1.1-1-1-6.71-6.83L315.18,50l9.72-4.67,2.06-1-2-.82-7.55-3-.08,0h0l-6.63-1.5,4.55-10.51.22-.51-.53-.09L307,26.5l-6.3-2.43-1.43-6.26,1.17,6.39v.07l.07,0L306.76,27h.06l7.28,1.49L309,39.11l-.34.71.79.21L316.68,42,322,44.37,313.63,48l-.49.21-.2.54-2,5.41-.26.71.54.59,5.9,6.54-3.91,3.63L308,70.13l-.48.41-.12.68-1,5.64-.13.69.42.65,4.21,6.55.28.44.55.27L316,87.63l-7,6.44-.38.35-.24.57-2.88,6.81-1.12,2.66,2.92.82,9.34,2.6.12.34-4.88,1.46-1.4.41-.72,1.46-3.61,7.26-.25.5-.09.74-.66,5.61-8.28,2.14-3.39.88.36,3.69.86,8.9v.13l.07.34,1.57,7.53-.28,3.82-11.83,5.74-8.36,4.07,8.11,5,4.9,3-5,10.53-1.34,1.09-2-2.12.74-.76,2.83-2.89-2.41-3.21-4.49-6-3.07-4.35.49-2L282,157l1.65-1,.33-1.72,1.1-5.7.58-3L283,144.14l-9.76-5.51-.46-3.29.73-4.07,5.24-5.28,3.86-3.88-5.23-1.91-6.58-2.39-1.38-.49-1.19.51L262,120.52l-4.43-.6-4.76-3.67-.28-.22-.22-.11-4.65-2.37-.74-2.61.49-1,.59-1.28-.65-1.18-2.76-5,.75-5.06.15-1-.57-.81-4.1-5.75-.3-.43-.37-.24-7.53-5-.31-3.88,5.36-5.44,5.87-6.34L244.87,67l-1.6-1.19-7-5.26L235,55.69l-.26-1-1-.17L228,53.56l.83-6.66.1-.76-.61-.44-4.4-3.16L223.83,36v-.78l-.74-.22-6.5-1.89,8-3,.56-.22-.18-.55-2.5-7.74-.38-6.68,3.58-5,0,0v0l1.7-5.91L233.59,0l-6.41,3.73,0,0v0L225.2,9.63l-3.82,4.93-.07.09v.13l.13,6.87v.05l0,.07,2.07,7.29-9.94,3.31-2.37.79,2.46.81,8.09,2.66-.14,6.42v.57l.49.38,4.11,3.18L225,54.46l-.22,1.34,1.42.28,6,1.18.94,4.48.12.55.5.41,5.69,4.58L234.8,72l-6.26,5.89-.64.6,0,1,.25,5.92,0,1.07,1,.69L237,92.65l3.05,4.62-.94,5-.15.81.43.85,2.31,4.61-.41.8-.43.85.25,1,1.2,4.89.3,1.23,1.22.68,5.37,3,5.18,4.29.64.53.93.16,6.2,1.07.85.15.91-.34,5.76-2.23-2.32,2.16-.75.7-.25,1.13-1.23,5.67-.1.5.06.65.6,5.85.19,1.89,1.79,1.1,8.53,5.21-.22,1-7.64,4.07-1.5.8-.51,1.78-1.62,5.63-.54,1.88,1.2,1.82,2.05,3.12,1,1.57.51.78.26.39.12.19.21.31,1.88,2.7-1.78,1.7-3.48.59-9-6.31-10.65-5-2.35.29.83-1.38.9-1.5-.49-1.54-1.62-5.09-.55-1.73-1.52-.53-4.36-1.55.08-3.55,0-2.24-1.85-.84-5-2.26-3.92-4.45-1.45-1.65-1.83.91-1.34.65.1-.19,1.47-2.69.19-.34v-3.78l-.49-.41-2-1.62,2.78-1.78.68-.44-.12-.77-.38-2.52.61-2.45.14-.58-.36-.43-2.18-2.6,1-1.18,3.74,2.45,1.57,1-.13-1.85-.35-5.3,1-2.69.3-.85-.86-.2-3.75-.84-2.85-1.14,4.52-4.61.49-.48-.57-.36-3.14-2-2.77-2.76,0-2.74,4.59-2.22,0,0,0,0L228.2,91l.19-.17-.19-.16-3.92-3.17,3.07-3,.05,0-.05-.05-3.27-2.66,3.12,2.72L224,87.45l-.11.1.12.11,3.74,3.22-2.65,2.37-4.84,2.15-.21.1v.23l-.14,3.14V99l.12.13,2.84,3,0,0,0,0,2.55,1.73-4.93,4.69-.71.69.93.4,3.78,1.65.05,0,.06,0,2.89.75-.79,2-.06.15v.19l.12,3.6-2.89-2-.71-.51-.62.68-2.25,2.49-.6.65.57.73,2.28,2.89-.61,2.13-.05.21,0,.25.23,1.94-3.74,2.23-1.54.92,1.38,1.2,2.79,2.41-.06,1.74-1.39,2.35-1.46,2.79-.31.59-1-.55-1.3-.71-.65-.36-.32-.18-.17-.09-.08,0h0l-5-3.08-.38-.24-.34-.08-5.48-1.25-.68-.15-.58.2-3.23,1.17,1.13-3.77.27-.86-.37-.73-2.37-4.74-1.18-5.15-.19-.84-.67-.38-5.61-3.16L188,113l3-6.65.72-1.59-1.58-.42-7.19-1.89-2.61-4-.41-.63-.69.13-10.84,2.15-1.28-9.37L167,90l-.65.15-5.94,1.29L154.6,92.8l-4.49-1.67-2.49-7.25v0h0l-3.49-5L147.39,84l2.24,7.48,0,.13.12,0,4.66,2,.09,0,.12,0,6-1.14,5.29-.92.93,9.67.08.9.9-.14,11.05-1.7,2.34,3.93.23.38.46.14,5.89,1.83-2.88,5.69-.31.62.28.72,2,5.11.2.5.5.32,5.21,3.23.88,4.69,0,.21.12.25,1.89,4.2-2.5,7.23-1.09,3.13-.28.19-7,4.76-2.32-3.59-2.17-11.63-.5-2.66-2.37,1.1-7.59,3.52-.15.07-.05,0-.12.06-.23.12-.46.25-.92.49-1.85,1-3.26,1.72-4.86-.67-4.75-4.39-.07-.07,0,0-5.51-4.24-.92-.71-.74.83L139.43,136l-4.83-.58L128.89,127l-.37-.54-.5.37-5.89,4.3,0,0h0l-5,4.91-7.8-8.78,7.57,9.36.18.21.22-.19,5.43-4.83,5.54-3.66,5.2,8.43.2.31.4.07,5.69.95.49.08.37-.38L147,131.1l4.38,3.7,4.89,5,.32.33.51.09,5.84,1.08.5.09.53-.25,7.47-3.52,5.24-2.15,1.34,9.65.06.41.26.44,3.69,6.32,1.28,2.18,2.24-1.38,8.06-5,4.39,1.87.49.21h.67l6,0L208,152l-.59,8.9-.24-.12-.7-.36-.64.4-1.49.91-.81.5.16.89.34,1.78-1-.86-.47-.4-.57.13-1.71.42-.8.19-.1.77-.2,1.66-.39-.11-.13-1.2-1.33.79,0,0,0,.06-1.36.81-.2-.22-.74.65-.4.36-.69.41-.76.45-.68-.44-1.58-1.15-.2-.14-.21,0-1.74-.21-.43-.05-.29.29-1.16,1.15-.9-1.91-.22-.47-.5,0-1.61.06-1.48-.57-.36-.14-.3.2-1.8,1.22-.66-.71,1.87-2.18.79-.92-1.2-.05-3.4-.14-1.61-.83-.52-.27-.19.54-.78,2.31-.92,1.74-2.57-3.27-.28-.34-.26.33-1.47,1.86-1.94,1.57-1.72-.22-1-3.11v0l0,0-1.44-2-.1-.13-.12.11-2.28,2.29-1.62-2.2,0,0,0,0-1.91,1.89,1.93-1.8,1.58,2.29.05.08.08-.07,2.31-2.17,1.28,1.88,1,3.25,0,.14.15,0,2,.31.1,0,.1-.08,2.11-1.59,0,0,0,0,1.26-1.5,2.6,3.53.37.51.33-.56,1.31-2.29v-.07l.67-1.77,1.19.66.09.05h.13l2.29.17-1.52,1.66-.38.41.38.44L179,168l.37.43.5-.31,2-1.26,1.28.54.13.06h1.39l1.11,2.56.46,1.06.86-.81,1.73-1.61,1.08.17,1.36,1.06,0,0-3.48,2-1.25.75-.36,1.25-1.89,6.55-3.28,3-5.86,1.36-.35.08-.22.09-4.78,2.1-2.48-1.09-.5-1-.61-1.26-1.32-.25-5.66-1.06-3.45-3.8-.7-.78-1-.07-7.05-.49-.52,0-.42.13-8.61,2.68-3.2-2.22-.81-7.59-1.17-8.56-.27-2-1.94.48-1.31.32-.42-.55-4.32-5.69-.91-3.72-.29-1.18-1.11.42-4.82,1.83-4,.84,1.67-8.52.17-.9h-.89l-5,.1-5.15-1-2-3.09,3.5-5.9,0,0,0-.06,1.16-5,.08-.33-.34,0L99.42,127l1.26-5.58,0-.1h-.1L95,120.74l5.5.74L99,127.12l-.05.2.22,0,6.58.84-1.22,4.62-3.83,6-.16.26.16.27,2.17,3.62.12.19.23.06,5.42,1.28.06,0h.08l4.14.05-2,8.91-.3,1.29,1.34-.23,5.46-1h.07l.08,0,3.79-1.3.6,2.83,0,.22.15.21,2.8,3.94-4.74-.13-1.18,0-.18,1.21-.08.51-1.65-.78-1-.46-.78.69L111,164.26l-4.62-4.86-.52-.56-.73.19-5.23,1.4-5.16-4.09-.62-.49-.63.44-5.58,3.82,2.75-8.06.19-.57-.54-.21-7.57-3-5.41-3.94-1.59-5.93v0l0,0-3.48-5.06.9-7.3-1.18,7.32v0l0,0,3.29,5.19,1.39,6.08,0,.12.1.08,5.4,4.25,0,0,.07,0,6.94,3L85.46,162l-.89,2.33,2.18-1.38,7.18-4.57,4.89,4.18.43.36.6-.13,5.07-1.16,4.87,5.54.9,1,1.12-.92,4.71-3.88,1.71.89-.1.67L118,166.1l1.17.39,4.69,1.55.91,2.83.08.28.22.26,1.7,2-2.54,5.27-1,2.17,2.44.32,4.91.64,1.22,2,.18,3.66.43,4.21.15,1.48,1.53.29,3.79.71-.4,2.64-.53,3.55,3.47-1.18,3.07-1,1,2.43,1.05,2.43,2.36-1.38,3.83-2.26.62.48-.21,9,0,.78-1.12.6-5.51-3.48-1.23-.77-.87,1.13-3.69,4.81-4.5-7.13-1.39-2.19-2.4.1L123,203l-1.36.06-.93.69-7,5.16-7.16,1.67-2,.45-.7,1.7,0,.08-2.93.06h0l-7.38,1.27-1-7,.82,7.19v.11h.12l7.51-1,2.68,0-4,9.84L94.31,221l-11-11.43-2.53-2.62-1.84,3L73,219.48l-.12.18,0,.08-.08.16-.17.3-.34.62-.67,1.23-1.35,2.47-2.37,4.34-6,2.85-8.57-1.41-.13,0h0l-9.31-.67-1.57-.11L42.09,231,40.2,244.09,34.37,247l-12.59-5.13-.8-.32-.3.77-3.41,9.19,0,0v0l-2,9.22L0,256.77l15.41,4.87.36.12.11-.39,2.51-9.44,3.49-8.19L34,249.33l.45.2.5-.22L42,246.17l.61-.27.13-.71L45,233.07l7.66.89,9.15,1.95.59.12.65-.27,7.35-3.13.62-.26.4-.66,5.77-9.49,4.28-6.28,8.65,9.81.36.42.63.3,8.82,4.35,3,1.49,1.48-3.21,1.65-3.56L106,227.8l-.16,1.88,1.17-1.46,6.45-8.07,6.21,6.74.34.38.52-.13,5.3-1.27.59-.14.14-.65,2.59-11.64,3.19,3.79,2.56,4.49-.36,0-1.05.12-.43.91-1,2.13-.55,1.16.86.87,1.69,1.76-1.79-.21-.83-.1-.53.57-1.62,1.73-.75.8.46.95,1,2-1.19.38-1.33.42.33,1.3.29,1.09-.6-.16-1.32-.33-.33,1.27-.73,2.74h-1.54l-2.62-.12h-.33l-.26.13-2.1,1-.52.27-.11.53-.45,2.16L115.25,244l-.23-.38L114,242l-1.36,1.21-2.4,2.14-.47.1-.51.11-.19.45-.24.59-2,1.82-.1,0,.48-3.83.21-1.62-1.38.83-3.92,2.37-2.41.26-.79.08.2.75.71,2.72-1.07,2.6-3.86-1.28-.56-.19-.05.58L94,254.84,93,258l-1.58.78-2.13-1-1.84-1.44,0,0h0l-3.09-1.15-.21-.08,0,.21-.87,4.25-3.43-1.26-.07,0v.07l-.74,3.53.84-3.45,3.45,1.4.12.05,0-.14,1-4.13.81.33-.23.58-2.45,6.3L80.16,269l-4.3,3.14L67.62,270h0l-6.73.2,6.71.08,8.3,2.51.14.05.13-.09,4.67-3.11.09-.06,0-.12,2.6-6.23L86,257.79l9.51,5.07.89.47.42-.9,3.74-8.09.1,0,.81.3-.06-.88-.08-1.13.7-1.51,5.07.24.49,0,.42-.34.47-.39.57.16.32-.72.12-.27,3.82-3.12,3.5,6.16.38.67.84.18,6,1.3.59.12.59-.27,6.19-2.84,4.89,2.07.2.09.32.05,5,.83,5.16,6.75,1.55,2-1.57.29-1.61-2.44-.08-.12-.12.06-3,1.38-2.88,1.55,2.94-1.41,2.89-1.18,1.5,2.54.08.13.16,0,2-.27,1,1.38.45-1.57.55-.07-.84,3.71,0,.22.17.19,2.06,2.25.14.15h.24l3.57.12,1.78,1.89.08.08.13.06,2.23,1.06,1.24,3.77.28.88.89-.38,3.25-1.39,2.37.27,2.73,1.09h0l.07,0,2.93.83.56.16.5-.41,2.12-1.73,2,1.74.62.55.82-.35,2.39-1,1.62,1.9.53.62.87-.13,3.19-.45,1,1.15-1.83,4.52-1,2.52H195l.31,1.47-2,2.35-.61.72-.86,0-6.82.12h-.48l-.38.14-6.74,2.67-.09-.6-1.13-.47-5-2.07-.54-.23-.51.06-8.86.95-2.29.25.54,2.17,2.12,8.58-2.31,4.92-.21.44,0,.43.59,6.38-7.11,1.24-.81.14-.28.72-2,5.25-6.73,1.57-1,.23,0,.94.28,7.27-8.8-2.14-.84-.2-.17.81-1.56,7.6-3.92,5.3-6.23.8h-.08L114.72,348l-6.41-3.5-.15-.09-.09.13-6,8.56,6.25-8.19,6.26,3.71.11.08.14-.05,6-1.87,6.45-.59.23,0,.15-.2,4.36-5.46.08-.1,0-.16,1.66-6.83L143,336l1.26.36V335l0-7.61,6.56-1.29.66-.13.27-.65,2.15-5,7.84-1.08,1.41-.19-.09-1.47-.4-7.31,2.59-5,.28-.55-.13-.66-1.47-7,6.06-.43,3.26,1.49.11,1,.33,2.81,2.74-1,9-3.2,5.31.09,3.27,3.28.9.89,1.36-.17,5.19-.67,2.56.17,4.94,4.29,1.07.92,1.48-.28,3-.58-.86,2.77-1.38,4.47-2.79-.57-1-.21-.69.57-.43.36-2.21-3.41L203,313.4l-.75,1.35L199,312.33l-1.47-1.1-.9,1.52-4.11,7-4.52-.9-5.6-2.57-.61-.28-.47.4-4.69,4.05-5.15-1.17-.44-.1-.24.35-2.7,3.72-5.28,1.27-.13,0-.07.08-3.13,3.64-.07.09v.11l1.44,8.13-1-8.07,3.16-3.28,5.45-.95.17,0,.14-.16,2.72-3.34,5.1,1.48.37.11.35-.26,4.68-3.59,5.07,2.71.1.05.16,0,5.53,1.46.88.23.57-.85,4-6,2.12,1.79-.78,1.41-.63,1.14.55,1.14,1.53,3.13-6.91,1.85L193,327l-.32,1.14-1.57,5.49-3.61,4.62-.37.48,0,.54-.47,5.24-6.61,3-1.47.66.52,1.5,2.6,7.56,1.5,5.61-10.1,1.49-2.7.4,1.95,1.9,9.95,9.7-2,.73-3.86,1-.21.06-.13.07L172.84,380l-.33.18-.16.27-2,3.35-3.61-2.58-.38-.27-.4.08-3.57.67-3.56-.64-.36-.07-.26.19-4,2.74-3.42-.67-2.16-5-.28-.63-.48.46-4.34,4.16-3.62-1.54-.17-.08-.1.15-2.28,3.74-2.07,3.87,2.25-3.75,2.36-3.46,3.56,1.73.19.09.16-.14,4.18-3.63,1.8,4.79.11.29.33.08,4,1,.27.07.27-.16,4.09-2.51,3.4.79.14,0,.2,0,3.28-.45,4.18,3.3,1,.78.43-.66,2.91,8.15-11.47-8.51-.35-.26-.22.35-3.92,6.22v0L155,400.11l-7.14-3.36,7.15,3.64.12.06.06-.11,3.65-7.6,3.89-5.73,12.53,9.91,1.65,1.31-.64-2-3.51-10.92,10.05-1.61.56-.09.2-.55,1.1-3,.08,1.93-3.4,4.08-.54.65.37.68L187,398.23l-9.53,4.41-.73.34.36.65,3.32,5.88,3.36,5.72-.31,5.32-6.88,5,0,0h0l-4.12,5.32,4.32-5.14L184,421l.13-.08v-.15l.55-5.58V415l-.06-.12-3.16-6-.38-.75,8.62,7.94,1,7.21.09.66.37.45,5.37,6.71-7.05,6.65-.81.76.23,1,1.62,7.39-6.37,6.75-.91,1,.73,1,5.71,7.95-11.45,4.11-1.09.39.42,1,3.88,9.67-.47,8.84-6.39,5.51,0,0,0,.05-5,6.63-9.76.82-.23,0V501l-.44,14.07.93-13.81,9.77-.47H170l.13-.15,5.34-6.54,6.8-5.45.23-.19,0-.33.84-9.34,0-.18-.08-.21-3.2-8.88,12.25-3.91,1.68-.53-1-1.52L187.33,455l6.4-6.3.64-.63-.18-.94L192.88,440l8-7,1.43-1.26-1.18-1.59-5.87-7.89-.82-7.57-.09-.82-.64-.64-6.82-6.75,6.47-5,4.76-.74.85,1,2.44,2.91,2.35-3.12,7.76-10.28,6-3.83,6.09,1.25,1.67.34,1.39-1.2L232,383.2l3-1.71,8.72,1.15,1.87.25,1.45-1.43,6.13-6,5.33-5.1.06,0,2.78,2.49,1.51,1.34,1.72-.89,3.43-1.78-1.13,2.62-.52,1.21.63,1.07,1.89,3.23.88,1.51,1.64-.28,3.51-.6,0,2,.05,2.2,2.14.08,1.75.06-.5.84-1.1,1.84,1.78,1.09,3.84,2.36-.68,2.35L280.84,397l-.17.5.08.46.64,3.67.16.91.77.41,3.07,1.65-3.33,3-.83.74.35,1,1.11,3.23-.24,3.37-.06.82.6.49,3.59,2.91-1,1.79L280,419.54l-2.38-1,.64,2.47,1.82,7-.7,3.77L279.1,433l1.23,0,5.21.17,4.08.8-5.06,7.26-.54.77.85.34,4.7,1.84,4.4,3,.61,3.63-5.69,4-.05,0,0,0-3.15,4.18-.21.28.31.16,6.06,3.26-3.46,4.64-.07.09.09,0,5,2.73-4.86-2.83,3.68-4.62.13-.17-.19-.11-5.83-3.37,3-3.76,6-4,.25-.17,0-.31-.57-4.2,0-.23-.2-.14-4.56-3.31-.05,0-.08,0-3.83-1.65,5.58-7.47.81-1.09-1.35-.31-5.48-1.25h-.15l-4-.26.62-2.82.05-.22-.06-.27-1.08-4.78,4.33,2.07,1.08.52.65-1.06,2.4-3.83.64-1-.95-.82-3.78-3.27.3-2.94,0-.29-.1-.34-.77-2.5,4.54-3.84,1.87-1.6-2.18-1.26-4.35-2.52-.33-2.3,1.33-3.43.67-2.07.64-2,.47-1.45-1.33-.87L283.13,386l1.44-2.25,2-3.12-3.77-.25-3.26-.22,0-2.64,0-2.72-2.77.39-4.48.61-.36-.66,3.92-8.35,3.18-6.8-6.85,3.29-8.43,4-.09-.08,1-4.73.39-1.86-1.62-1.18-1.54-1.12.09-.6.21-1.46-.81-1.42-4.77-8.31.17-6,5.37-10.14.92-1.73-.6-2.06-2.75-9.42-.24-.83-.64-.85L253.18,308l-1.64-2.17-2.91.1-1.56.06-1.39-4.89-1.08-3.81,1.15-.05-.44-1.29,6.66-.41,1.29,3.32,9.2,3.32,10.39-.09L284,299.69l5.75,5,1.11,2.27h6.57l-3.39,5-2.2,3.26,3.1,2.14,3.69,2.53-.32,5-.2,3.12,3,.71,5.49,1.31,1.11.26-.11,0-6.9,2.1-4.07,1.24,2.2,3.33,5.58,8.44-5.46-.61-4.56-.51,1.6,4,2.52,6.34L299,356l1.23.29,3.39.8-2.95,6.52-.53,1.16.68,1,3.25,4.7,1.28,5.72.13.59.39.38,1.41,1.38-3.18,2-.64.39.09.68.87,6.82-4.24,4.05-.36.35.16.44,1.8,4.78-2.07,5.67-.05.13,0,.12,1.45,5.13,0,.12.11.06,8.41,3.65-8.07-4.06-1.09-4.93,2.46-5.63.08-.19-.07-.23-1.42-4.57,4.5-3.8.33-.28,0-.48-.44-6.54,3.26-1.76.41.41-1.89,7-.42,1.56,1.48.55,7.5,2.78,5.29,2.41-5.26,8.74-1.4,2.34,2.71-.3,15.23-1.7,2.58,4.05-5,9.23-.46.84.89.32,9.76,3.5-13.85,3.47-.42.11.13.39,2.32,7v0h0l3.77,7.43-7.13,3.39,7.36-3.22.12-.06-.06-.11-3.55-7.64-2-6.64L343,422.81l2.06-.44-1.94-.77-10.67-4.21,5.13-8.79.29-.49-.3-.51-3.09-5.22-.34-.57-.74.06-13.2,1.05,5-7.78.91-1.41-1.54-.76-6.78-3.35,0,0-.08,0-5.91-2.41,2-6.51.32-1-.78-.81-.63-.67,3.88-3.46.76-.67-.44-1-3.09-7.36,6.12-1.78,1.45-.43-.07-1.63-.27-6,4-3.54.45-.4.22-.71,1.8-5.94.06-.2,0-.38.2-3,2.29.69,1.26.37,1-.63,5.09-3.13,3.9,5.74.73,1.07,1.2,0,3.47.11v.06l-1.1.43-.5.2-.18.47-.38,1-.24.62.38.5,1,1.28-1.21-.24-.66-.13-.37.53-1.11,1.58-.43.61.44.56,1.22,1.57-.75,1.06-.51.72.67.52,1,.77-.85.86-.61.63.63.57,1.24,1.12-.51.7-1.22.87-.11.08-.07.09-.83,1.16-.19.26.06.29.29,1.48-1.92-.1-.41,0-.19.35-.72,1.4-1.16,1.17-.26.25.11.32.75,2.25-.39,1.17-2.37,1.79-.94.7,1.15.11,3,.27.41,1.58.07.27h.27l2,0,1.6,1.08-3.13,1.52-.24.11.15.21,1.09,1.6.85,1.87-.46,1.31-2.7.39h0l-1.79,1-.05,0,0,0,1.86,2.08-1.75-2.09,1.76-.95,2.78-.31h.08l0-.08.56-1.41,0-.05,0-.06-.82-2h0v0l-.92-1.42,3.41-1.53.45-.2-.41-.29-2-1.48-.07-.05h-.1l-1.85-.1-.36-1.6-.06-.27-.29,0-2-.26,1.63-1.14.12-.09.06-.15.53-1.47.06-.16-.06-.17-.61-2.08,1-1,.06-.05,0-.09.61-1.08,2.39.21.85.08-.14-.87-.32-2,.61-.79,1.28-.84.09-.06.08-.11,1-1.35.43-.55-.52-.5-1.07-1,1-.92.69-.67-.76-.63-1-.85.71-.93.41-.54-.42-.58-1.13-1.55.33-.44,3.36.77,2.76.64-1.66-2.33-2.15-3,1.66-.59,1.06-.38-.32-1.11-.07-.23,4.83,2,.92.38.83-.38,6.43-2.9,3.42,2-.95,8-.25,2.14,2.09-.14,8.6-.57,0,5.52V363l.79.38,6.62,3.23,5.43,2.9-6.62,9.44-.61.88.93.46,6.76,3.32,0,0h0l6.8,2.7,3.19,4.12-1.66,9,0,.09,0,.07,2.45,7.47,0,.17.17,0,9.22-2.57-9.14,2.17-2.09-7.31,2-9.12,0-.21-.14-.2-3.26-4.57-.1-.12-.16-.07-6.78-3-5.68-3.06,7.14-9.4.77-1-1.14-.66-6.41-3.75-5.77-3.09.29-6.36.07-1.65-1.72,0-8.12.24,1.13-7.24L370,345l-1.11-.7L363.59,341l-.87-.55-1,.41-6.56,2.67-4.63-2.1-.35-.16-.46,0-4.85-.33-4.4-7-1.31-2.09-1.64.92L325,328.35l-.06,0-.48-.43-4.19-3.84-1.61-2.81,4.14-6.89,2.55-4.25-5.21-1.37-5.37-1.42.4-3.17.39-3.14-2.77-1.18.72-1-3.33-.1-3.06-1.3-.51-1.78,1.82-1.88v-2.55l.73-1.7,2.68,4.27L313.2,296l2.25.62,6.85,1.89,2.88.8,2.28-1.55,3.94-2.7-.71,3.33-.45,2.15,1,1.73,4.06,7.09,1.36,2.37,2.5.34,8.4,1.14,1.4,6.52.79,3.69,3.59.25,8.41.59,3.29,7.6,1.73,4,3.93-1.51,9.12-3.48,6.05,3,.44.21.32.09,9.19,2.41,1.14.3,1-.29,8.69-2.61,1.69-.5L409,332l3.39-7.29,8.62,3.54,1.61.66,1.37-.84,1.11-.69,2.05,3.46.07.13.11,0,1.94.84-.62.26-.84.34,0,.86-.08,2.6,0,1,.9.3,2.53.85-.06,1.75,0,1.19,1.15.08,1.69.12-.3,1.59-.22,1.16,1.12.17,2.22.33,0,1.17-.73,1.87-.06.17v.15l-.08,1.92v.43l.27.28,1.43,1.46-2.23,1.3-.48.28.06.52.21,2.1-.43,2.17-.1.48.36.28,2.5,2,.44,1.6-1.34,3.76-.53,1.48,1.37-.73,3.51-1.89,1.64,1.47.28.25.3-.19,2.32-1.47,2.59,0-2.38,4-.18.3.32.13,2.41,1,2.33,1.46.45,1.8-2.74,2.45h0v0L446.83,379l0,.07.07,0,3.63,1L447,379l1.27-2.37,2.88-2.41.08-.06,0-.11-.43-2V372l-.07-.05-2.38-1.6h0l-2.07-.93,2.69-4.23.35-.56-.67,0-3.39-.14h-.12l-.12.07-2.14,1.25-1.6-1.53-.26-.25-.34.17-2.49,1.23,1-2.48.07-.19,0-.22-.5-2,0-.22-.2-.15-2.22-1.88.43-1.83,0-.11v-.13l-.12-1.67,2.83-1.53,1-.54-.79-.87-1.86-2,.1-1.34.8-1.88.06-.14,0-.18.17-2.29.08-.94-1-.17-2-.37.4-1.76.28-1.25-1.32-.14-1.79-.2.11-1.55.06-.92-.9-.33-2.42-.9,0-.74,4.35-1.63,3.56-1.33-1.42-.54,3.67-1.89-4,1.77-1.86-.72-4.65-1.8,1.43-1.9.9-1.2-1.18-1-.25-.2,6.87-1.37,1.31-.25.65-1,5.06-8,5.31-.3,4.9,9.72,1.31,2.58,2.22-1.7,9.22-7,4.05,6.22.68,1,1.16-.16,9.83-1.29,8.22-.76L491.36,337l0,1.44,1.38-.18,10-1.28h.08l9.61-2,6.64,2.25,4.83,11.36,0,.11.09.07,8.27,6.55.19.15.15-.17,8.43-9.71-8.63,9.21-7.76-6.64-4.47-11.74-.1-.27-.3-.12-7-2.69-.19-.08-.24,0L502.5,335l-8.63.78,1-15.83.11-1.71-1.77.1-9.95.55-8.75.81-4.4-7.34L469,310.44l-1.89,1.33-8.93,6.28-4.1-8.95-.59-1.3,3-6.16,3.76-4.78,5.77.43-5.81-.69h-.06l-.05,0-4,4.68v0l0,0-3.21,5.87-7.75-7.2-.52-.48-.4.63-3.59,5.71-3.47,3.94-.9-8.16-.06-.48-.4-.31-4.14-3.12-.54-.41-.66.3L423.3,301l-2.09-4.32-2.49-5.7-.23-.52-.55-.29-4.58-2.37-.56-.29-.67.19-2.59.73-1.1-.82L403.6,284l-.18-5.37,0-.6-.41-.62-3.45-5.16-.11-.17-.28-.26-3-2.83-2.3-4.78-.92-1.89-2.34.37-1.43.24,0-1.48v-.27l-.25-3.7,7.69-.07,1.67,0L399,256l2.32-4.68,4.72-2,.36-.15.25-.2,3.12-2.53,4.67,4.5,1.6,1.54,1.56-1.48,5.8-5.49,4.4-2.7,3,10,1.13,3.78,2.2-3.18-.25.68.49.58,1,1.19.49.57.7-.1.86-.14-.28,1.28-.2.92.79.41.94.48.11,1.06.07.7.62.25,2.87,1.12-1.11.91-.2.17-.08.2-.78,1.92-.36.88.85.33,2.43,1L442.05,269l-.56.63.64.5,1.76,1.4,1,1-.82,1.79-.14.31.15.27.84,1.55.53,1.69.05.16.1.09,1.22,1.14.29,2,.05.36.35.06,2.15.39h0l1.54.12.17,2.4.05.58.49-.29,2.92-1.74,1.2.66.33,2.45,0,.23.22-.06,2.24-.58-.44,3.2v.08h.08c1.36.18,2.72.34,4.08.5-1.32-.21-2.65-.42-4-.65l.59-3.32,0-.22-.22.05-2.25.49-.23-2.37v-.13l-.12-.07-1.42-.85-.14-.09-.15.08-2.6,1.42-.08-2.19v-.34l-.36,0-1.85-.22-1.76-.39-.19-1.89,0-.18-.14-.14-1.18-1.2-.45-1.65,0-.05,0-.06-.64-1.31,1-1.91.21-.41-.32-.37L445,270.49l0,0-.05,0-1.1-.94,1.39-1.46.82-.86-1.12-.49-2.6-1.14.37-.82,2.37-1.8,1.36-1-1.61-.71L441,259.51l-.07-1.05,0-.61-.57-.32-.63-.36.58-2.19.46-1.74-1.84.2-1.92.22,0,0,.81-1.92.3-.72-.5-.66-.54-.72-.11-.2,6.71-9.71,4.38,1.07,2.29,11.11.44,2.14,1.72-1.29,7.49-5.58-.35,14.67,0,1.41,1.31-.44,7.82-2.65.07,0,0,0,7.94-3.88,2.82,7.39.25.65.61-.32,8.1-4.24.9,12.68,0,.22.2.05,6.21,1.38h.08l7-1.23,4.47,6.28-4.33-6.46,0-.06H503l-7.08,1.05-5.9-1.49-.58-13.22,0-.72-.66.32-8.23,4L477.83,255l-.26-.75-.74.34-8.71,4-6.5,2,.81-15.79.12-2.47-2.05,1.45-7.88,5.55-1.79-10.05-.16-.94-1-.26-6.38-1.74-1.07-.29-.67.93L433.41,248l-2.43-9-.69-2.56-2.35,1.35-7,4-.17.09-.19.17-4.45,4-4.55-4.63L410.13,240l-1.72,1.31-4.55,3.48-5.39,2.11-.86.33-.46.87-2.11,4-9.11-.17-2.93-.05.12,3,.26,6.46-.13,2.54-.48.07L378.54,260l-3.9-3.59-.8,3.1-1.11-3.11-1.67-4.67-3,2.16,0-1.66-5.81,3.86-1.21.8-1-1.08-2.18-2.29-3.12,1.64-5,2.62-1.8-.77-2.57-4.94,4.58-4.5,7-6.84-9.85-.9-2.3-.21.25-.29,4-.36,7.74-.69,6.26,6,3.68,3.56,3.77-3.25,9.89-8.54,1.06-.91.45-1.16,3.08-7.87,6.61,9.1,1.32,1.81,2.09.2,12.37,1.18,7.44.71-2.56-6.89-6.25-16.79,9.83,1.32,8.62,1.16-4.54-7.29L413,199.75l-.13-.2-.08-.11-3-3.95,8.56-5.78,1.86-1.25-.26-2.12-.67-5.42.54-.49,1.42-.11h.1l.06,0,1.1-.34.84,1.54.27.49.51-.19,2-.76,1.41-.22-.07,2.75,0,1,.83-.55,3.58-2.37,1.05.71-.33,2.95-.06.56.53-.14,2.39-.61-1.29,3.59-.12.34.35,0,2.22.15h0l2.36-.14.12,2.12v.19l.18,0,2.42-.21-.8,3.22,0,.06.05,0,1.47,1h0l1.91.42.62,2-.57-2v0h0l-1.9-.47-1.38-1,.93-3.33.05-.18-.19,0-2.43.14-.06-2.16v-.21h-.21l-2.54.07-1.83-.17,1.5-3.81.23-.6-.63.14-2.48.56.37-2.66,0-.25-.21-.15-1.49-1.08-.25-.17-.26.16-3,1.9.13-2.45,0-.68-.69.09-2.16.28h-.06l-.06,0-1.55.53-.79-1.57-.25-.48-.54.15-1.55.43-1.62.07h-.15l3.58-5.38.29-.43.13-.41,1.63-5.15,8.56,1.58,2.93.54.65-2.81,2.45-10.44,2.92-6.29,10.81,9,4.07,3.39.1-5.19.22,1,1,.28,2,.58,1,.28.7-.64.87-.79.63,1.64.46,1.18,1.19-.13,1.41-.15.9,1.1.61.74.88-.19,4-.87-.56,1.84-.1.34.06.29.54,2.73.25,1.25,1.2-.25,3.43-.73-.29,2.13-.15,1.12,1.08.1,3,.26,1.83.43.41,2.61.07.44.37.2,2.08,1.11,1.85,1.51.17.14.19,0,2.21.37,1.82,2.06.33.37.43-.19,2.7-1.16h0v0l1.82-1,2,2.55.48.63.34-.7,2-4.11,1.83-.15,2.19,2.5.21.23.2-.22,2.08-2.31,1.87,3.91.05.1.1,0q2.48-1.22,4.93-2.46c-1.64.75-3.27,1.49-4.92,2.22l-1.8-4.17-.11-.27-.22.21-2.16,2.22-2-2.49-.11-.13h-.17l-2.24.1h-.21l-.11.2-1.87,3.51-1.7-2.39-.27-.38-.44.22-2.23,1.11-2.27.86-1.61-2-.15-.18-.27-.06-2.21-.47L487.52,174l0,0-.09,0-1.69-1-.33-2.85-.07-.61-.64-.18-2.49-.69h-.05l-.09,0-1.93-.24.47-2.66.29-1.57-1.62.28-3.76.64-.19-1.18L476.6,160l.76-2.18-2.33.4-5.42.94-.85-1.13-.48-.65-.88.06-1,.07-1-2.89-.78-2.3-1.91,1.6-2,1.66-.06,0-.52-2.75-.19-1-1.05-.38-1.13-.4-.28-.14.13-6.5.07,0-.06-.2.19-9.18,5.69-2.05,10.8,10.75,2.08,2.07,1-2.71,4.25-11.81L492.15,148l1,1.61,1.14-1.47,6.81-8.76.05-.08,0,0,6-10.24,8.64,6.19.76.55.44-.8L523,124.21l10.41,13.54.18.23.27-.1,8-3,0,0,0,0,7-6.58,9.66,3.73ZM438.14,146.13l0,.12-.88,1.76-.74-.1Zm-22.25,16,1.19.33.24,1.05-3.53-.51Zm-46.65,8.83.92-.74,4.08-3.29,4.31,5.26,1.89,2.31L382,172l5.23-8.42,4.42,1.53,6.26,3.66.88.52,2.28,5.15-.67.35.95,1.14.74.87-2.28,3.74-.34.55-.05.77-.4,5.72-1.91,2.29-11.46-2-1.94-.33-1.34,1.55-3.8,4.41-.47.54-.23.84-1.63,6-.19.72.15.9.93,5.38-1.3.72-6.64-1.86-.87-.24-1.06.17-6.2,1-1.14.19,1.59-7.4-11.71,6.28L344,209.86,339.16,201l-8.66,4-.89-3.18,2.64-1.49,3.55-2L334,194.83l-1.74-3.35,4.64.39,2.13.18,1.14-1.62,1-1.38.92-.38,4.83-2,2.54-1.07-.19-2.7-.47-6.61,3.91,1.13,2,.58,1.18-1.54,3.57-4.66,1.65-1.06,4.49.9-.41-1.71,2.81.71ZM361,268.69l.27,6,.07,1.66,1.22,1,3.14,2.54-.79-.1-5.2-.67L359,279l-.74.25L353,281l-.64.21-.6.56-3.57,3.37-1.19-.61-.86-2.67,2.68-10.61,5.09-.66,1-.13.75-.53,3.77-2.65ZM340.36,273l-1.27-1.36-2,.21-4.52.47-2.74-2-3.59-3.95-.25-.28-.45-.32-3.25-2.32.76-.44,9.61-3.81.59.32,5.1,2.75,1.4,6.33.83,3.73,3.67-.48,1.25-.16-4,2.54ZM230,326.69l-1.38,1.18-2.46,1.87-.31.24-.14.31-1.11,2.54-.27.64.31.57,1.23,2.29-3.31.5-.82.13-.2.76-.63,2.47-1.54,2-.37.49.17.55,1,3.27-1.38.69-.52-.8-.08-2.64L220,337.8l1.64-6.52.35-1.4-1-1.18-3.6-4.16,2.83-4.22.37-.54.13-.76.41-2.43,7.66,7.58Zm-20.41,42.22-.6-2.36-.35-1.39-1.29-.33-2.71-.67,3.23-1.69.2-.11.24-.21,2.19-1.93,1.7,2.42,1.51,3.67-1,2.26-.35.25Zm1.78.63-1.37,1-.25-1Zm-5.56,4.65L204,370.64l1-.31ZM162.48,207.1l-1.17,1.07-2.18-.17,3.75-4.24.14.06.72,3.29Zm-6.78,4.79.56-.28,1.16.13-3.87,3.53-1.26.47Zm74-54.3,1.14-1.76h0l-.09,1.44Zm2.44,3.68.06.1-.9,2.34-.78-.52-1.45.23-7.45,1.18-1-.23,4.92-1.33Zm104.07,87.37-.4-.39.73.05ZM187.92,227.91l-.28,1.41-.48.36-3.24-2.25-1.28-.89Zm11.37-.59.09-.13.05-.06.16-.26,1.36-2.15,1.16-1.85,3.49,1.45,1.7.71,1.59-1.18,1.4-1,.85.07,1.32,1.74L204.54,227l2.48,2.58-2.45,3.88-1.66-3.49-.84-1.76-1.73-.49-1.1-.31Zm8.4,17.14,5.49-7.91.61.07,4,4.18-11.7,5.94Zm5.43,106.3.34.45,1,1.32-1.77-1.34Zm21.15-45.58-.27-.76,4.71,1.37-4.06-.56ZM351.15,170.67l3-1.3-1.53,1.8Zm52.24-91.91.16.32-.42-.33Zm-3.87-1,.94.67-.43.94Zm-73.28,27.09,8.72,2.71,3.82,1.19-.1-3.86-.38-13.32L344.38,90l9.73-.53,1.69-.09.22-1.58.08-.51.65-.37.57-.21,1.92,2.92.4.6.66.16,1.44.35.35.09.29,0,1-.13-1.07,1.93-1,1.78,1.91.57,2.08.62,1.12,2.11.61,1.18,1.22-.41,3.31-1.09.37-.13.24-.25,1.56-1.62.89,2.81.19.59.54.24,3.06,1.35,1.79.8,0-1.92.12-4.63,2.34,1.12,2,1-.35-2.14-.55-3.38v-.09l-.35-1.38,2.64-.78.57-.17.13-.54.47-1.92,1.53-1.18.09-.07L389,85l1-1.21,2.06,1.1.67.36.43-.59,1.69-2.33,1.42-1.3,2,3.13,0,.07-3.68,2.33-.42.27,0,.56L393.74,92l-6.06,2.73-1.12.51.5,1.2,2.1,5.09-2.89,2.93-.36.37-.05.58-.61,6.54-5.84-1.18L371.88,109l-.77-.18-.71.51-4.32,3.14-.78.56,0,1.07-.27,8.64-2,4.58-4.2,1.78-.69.3-.42.73-2.31,4-.81.09-.85.1-.66.71L350,138.41l-.77.84.1,1.25.43,5.51-.64,6-.08.75.35.78,2.28,5.18.31.71.71.51,4.54,3.21-2.78-.66-.89-.21-1,.37-4.86,1.9-.43.17-.46.37-4.09,3.36-1.32,1.09.07,1.88.05,1.64-1.85,3.5,0,.09-.1.24-1,2.54-4.43-2.39-1.35-.74-1.59.51-5,1.59-1.67.53-.78,1.8-.12.29-2-2,2.08-3.86.27-.5.11-.37,1.7-5.68.51-1.71-.68-1.43-2.06-4.32,1.45-2.78,5.94-4.52,1.46-1.11.22-1.59.81-5.83.39-2.76-2.36-1.21-6.7-3.45-2.79-3.6-.65-3,8.29-7.77,1.46-1.36-.41-1.75-1.34-5.66-.24-1-.7-.6-3.72-3.23Zm-20.67,43-2.09-8-.74-5,7.11-2.21,2.68-.83.18-2.6.55-7.87,2.37-5.41,4.49-1.58,2.94,2.79.56,2.92-8.8,7.61-1.49,1.29.35,2,1,5.73.12.71.5.71,3.58,5,.43.61.79.45,4.75,2.7-.27,1.46-5.65,4-.74.52-.53.92-3.15,5.45-1,1.79.86,2,2,4.64-1.23,3.56-3,5.1-.22.37-.19.57-1.87,5.63,1.47.39L308.79,186l-3.06-5.83-3.4-3-.22-.35,1.79-3.51,2.49-4.88L301.83,166l-4.43-2.46,5.49-3,2.53-1.38.07-2.65.19-7.25,0-.77ZM237.81,161l.51,1.83-1.84,2.8-.78-.78,1.07-3.05.37-1.07Zm-6.69-9.22L231,153.9l-.89-2.36-.12-.34ZM227,149.7l.62.32.6.3-2.41,0,.21-1.47,0-.26.57.71ZM223.94,146l0,0,.74.9-1.26-.29Zm-16.23-1.53-.86-.52-.87,0-6.49.31-4.69-1.74,1.12-.35,6.7-2.11L207,141.3l4.63,3.14,5.18,3.14.89.55-.32.34,2.64.69,2.34.62-.35,1.93-.35,1.95,2,.1,3.32.18.18.54L223.39,160l-3,4.31-3.38-.78-2.71-1.93.23-11.07,0-1.94-1.54-.92Zm-8,24.87,1.22.38.2-1.29.33-2.1.35-.07,3.22,2.9,2.63,2.35-.55-3.52-.67-4.34,0,0,.66.36-.07,1,1.53,1.2,4.65,3.63.5.39.77.22,6,1.7.63.17.82-.09,6.5-.73,2.59,1.93.07.26-1.6,2.43,2.24,0,1.1,4.3.24.94.78.87,1.2,1.32.62,4.56-2.64,8.48-2.16,2-.59,0-5.31-.38-1.22-1.64,1.35-8.41.31-1.89-1.12-1.34-3.71-4.47-2-2.35-2.81,1.09-10.46,4.05-2.83-1.73-2.69-3.15-.75-7.39-.2-1.9ZM121.37,162h1.53l-1.3.32-.25-.12Zm5.11,4.34-.27-.76-.72-.21-1.13-.34,4.51-.94.65,6.59.07,1-2-2.18Zm3.31,8.35.23,3.37-1.65-.16ZM152,193.38l-1.38.88-3,1.88-.85-1.81-.92-2-2,.73-1.69.63.12-1,.25-2.07-2-.32-4.4-.68-.34-2.44-.24-3,.08.06.86.64,1.14-.31,9.26-2.53,5.5.57,3.27,3.89.53.63.92.21,5,1.13.36.84.38.87,1,.46,4.55,2.18,1.14.54,1.29-.51,5.71-2.27,6.6-1.28.82-.16.71-.62,4.76-4.11.66-.57.3-.92,1.93-5.86.2,3.17.07,1,.72.9,3.6,4.55.32.4.54.36,4.9,3.25,1.59,1.05,2-.69,9.45-3.28.61.8-1.69,8.48-.34,1.67,1.06,1.53,3.33,4.81,1.1,1.61.34,0-4.61,2.83.18.36-7.42-.28-.5,0h-.21l-8.86.65-2,.14-1.35,1-.5.37v-.35l-3.45,1L184,214.68l-.86-.7,1.5-3.45,1.65-3.78-3.91.31-6.12.48-.84.07-.49-.4-1.45,0-.15-.24-.74-1.17-1.26-.24-1.9-.38L168.41,201l-.41-1.61-1.48-.49L163,197.67l-1.91-.63-1.23,1.48-2.42,2.92,0-2.81v-1.32l-1-.73-3-2.19Zm-7.07,17,5.08,3.44.78.53.91-.44.3-.15-.05,2.13-4.37,1.62-4.45-.15-1.71-2.69ZM124.69,224l-4.16,1.15-6.62-6.73-.61-.62-.5.67L107.2,226l.16-3,2.49-5.37,6.29-1.16.71-.13.74-.49,6.73-4.49h2.79ZM87.14,256.74l.07.05-.37-.17Zm8.22,4-3.22-1.55,1.26-.57.13-.06.06-.15,1.18-3.35V255l.31-2.61,3.22,1.18Zm5.8-12.07h-.39l-.22-1,1.81-.14h.15l.15-.08,2.69-1.51-.43,2.74Zm43.62,3-.64-.78-.9-.11-5.84-.7L131.91,248l-.9-.34-.76.39-6.37,3.25-4.57-.8-1.44-2.3.77.5.37-1.55.74-3.08,1.33-.61,2.31.18,2.68.07,1,0,.29-1,.7-2.34,1.62.47,2.24.65-.52-2.33-.45-2,1.6-.45,1.65-.47-.73-1.61-1.18-2.59.34-.34,5.75.86,4.69.7-3.22-3.55-4-4.37,0-.07,1-.08.7,1.22,2.59.21,7.9.63.85.07,1-.33,8-2.54.84-.27.86-.72,6.74-5.62,4.34.24,3.61,3.27-.74,1.55,1.92-.49,2.45,2.22,1,.87,1.52.39,1.08.28-1.54,1-5.16,3.24-6.52.9-2.42.33-.29,2.25-.83,6.42-1.52.8-1.46.76-.72.38-.37.2-.18.09-.09,0h0l-5.91,2.73-.46.21-.28.26-4.52,4.3-.56.54-.16.66-.91,3.72ZM207,296.29l-.79-.63-.91,0-3.81-.11h-.32l-.21,0-2,.32-.16-.76-.11-.51-.24-.33-.7-1,1.42-1.88.65-.86-.24-.94-1-4-.42-1.65-1.59.08-3.62.16,1-2.88.36-1-.67-.73L191.32,277l-.65-.7-.86.16-3.31.64-1.82-1.93-.75-.81-.93.45-2.59,1.26-2.18-1.74-.87-.7-.78.7-2.41,2.2-2.3-.54-2.82-1-.15-.05h-.11l-2.76-.18-.28,0-.21.1-2.6,1.27-1.18-3.09-.13-.32-.28-.12-2.49-1-2-1.86-.19-.19h-.24l-3.64.05L151,267.78l.71-4,.09-.5-.49.09-.75.14.7-2.41,2.16-7.5,3.82-3.33,5.75-2.36,6.09-2.87,1.31-.61.26-1.54.94-5.43,5-.48.65-.06.67-.39,3.77-2.14,3.52,2.65.75.57-2.14,10.86L192,237.28l2.47-3.39,1.88.62,3.92,9.16,3,7.08,1.82-2.62,9.58,11.65-6.16-.61,4.73,5.76,7,9.65,8.05-3-.42,2.65-.26,1.65.46,1.38.88,2.66-.07.1-3.43,5.28-.57.88,0,.92-.18,7.08-3,3.59-5.16,1.12L211.62,300ZM217.79,305l3.37-.61.2.4-.12,2.79-1.4.4-1.52-1-2.41-1.6Zm-7.18,13.09-.84-1.29,1.14.32ZM185.4,365.62l1.66-.19-.39-1.68-1.7-7.36v0l0-.09-1.88-6.09,6.3-2.6,1-.4.14-1.11.7-5.65,3.69-4.41.23-.28.14-.41,1.48-4.6,8.6-2,2.73-.64-1.19-2.65-2-4.51.6-1,3.74,6.19,3.17,5.26.73-2.08,2.23,2.37-.35,1.69L214.6,335l-.17.8-.08.4,0,.2,0,.1v0l-1.65,6.3-.12.48,0,.38.37,5v0l-2,2.05-.65.67.74.53,3.17,2.25.12.12h-3.91l-.66.63L205.47,359l-5.08,2.93-.84.48-.18.83-.64,3-1.24,1.21-3.47-.82-1.44-.34-.71,1.2-2,3.32-3.73-.34-1.49-.13-.35,1.36-.7,2.75-7.44-7.72Zm11.12,5.73-2.19,1.89-1.5-.19,1.53-2.32Zm-23.06,12.09.88-1.34,2.85-1.44,3.86-.81h0l.1,0,1.4-.45-.8,2.46Zm6.18,21.9-.86-1.7,5.85-2.44-3.48,2.88ZM216,378.9l-.14,1.26-1,.66L207.39,386l-.54.37-.31.45-5.58,8-.55-.6-1.61.31-7.13,1.37-.77.15-.53.44L189,397.64,183.82,387l3.4-3.77.33-.36v-7.39l7,1.2.76.13.67-.53,4.79-3.79.46-.37.17-.64.68-2.58.7-.62,1.92.58.19,1-1.27.45-.25.09.12.22,2.43,4.51-4.06,1.47-.07,0,0,.07,2,3.76L202,376.69l4-1.31.71,3.51,3.16-2.07,5.21-3.43,1.42,1.41Zm34.05-57.59,2.13,6.44-4.52,9.33-.53,1.09v1.05l.06,8.45v1.4l.65,1.06,5,8.07-.69,6.23-4.94,5.08-4.7,5-7.95-.76-1.35-.13-1,.65-4.35,2.68-.36.23-.22.2-1.94,1.8-.74-.72-.5-.49-.52-.2-1.49-.57.2-3.16.09-1.45-1-.87-4.15-3.75-1.69-1.52-1.67,1.22.55-1.14.08-.16-.06-.17L213,362.23v0l0-.05-1.7-2.6,2-.72,7.3.25,4.92.18-2.75-4-4-5.79.08,0,3.07-1.4.81-.37-.25-.9-1-3.59,1.4-1.7.14-.17.07-.25.55-1.87,4.4-.52,1.82-.23-.84-1.67-1.67-3.35.74-1.56,2.23-1.6,1.27-1,1.21-1,.07-.05,9.37,9.28-5.35-14.42-2-5.34,11.6-.83ZM239.93,306.2l.06,0,.11,0Zm8.95-15.33h1.29l1.33,3.42ZM322.19,344,321,349,317,353l-.79.78.11,1,.59,5.65-6.26,2.25-1.92.68.86,1.76,4,8.1-2.85,2.87-1.3-1.38L308.33,369l-.07-.36-.23-.36-2.61-4.06,3.9-7.93,1.24-2.51-2.8-.75L303,351.78l-.4-1.1,7.16,1,6.08.88-3.16-5.16-6.26-10.21,2.63-.71,9.83-1,3.37,3.76v.18Zm8.5-7.44-.84-.29.28-.6.63-1.35,4.78-.5Zm-7.5-50.74-1.69-.54-2.67-4.63,2.25-2.06-3.49-.08-.18-.33,2.08-1.22-.91-1.54,2.84-1.5,2.78,2.81.36.37.28.18,4.44,3,1.34.9ZM412,316.93l-3-1.37-1.57,3.06L403,327.16,397,328.74l-7.63-2.32-7.34-4-1.57-.86-1.84.63-6.78,2.3L369.25,318l-1-2.58-2.93-.31-7.37-.8-1.16-6.65-.6-3.43-3.63-.63L343.47,302l-1.6-3.05,1.92-7.61,3.5,1.64,2.28,1.06,1.67-1.71,4.74-4.85,3.84-1.45,2.73.23,4.49,9.19.79,1.62,1.61.1,5.23.35.93.06.7-.44,4.69-2.93,4.53-.37,1.38-.11.66-1.13,3.8-6.49,2.75,2.13,5.06,9.63,1.39,2.63,1.75-2,1.28.3,8.77,2.08.52,5.09-.9,6.8-.1.74.58.36,5.84,3.66.17,2.38ZM427.07,327l-.41.59.14.66.05.22-.84-1.64,1.91-1.18.07.05Zm3.08,4.51,0,0-.17-.09ZM412.51,291.4l3.54,1.65,2.43,5,.07.14.05.09.09.17.18.34.37.69.73,1.36,1.46,2.74.66,1.23,1.17-.6,7.65-4,3.28,2.26,1.45,9.6.31,2,1.25-1.54,4.6-5.7.05-.06,0,0,3-5.31,7.17,6.13h-.44l-8.46.15-1.37,0L441,309l-5.37,7.85L428.85,318l-.5.08-.54.31-5.69,3.22-1.87-.85-.06-3.8v-.43l-.39-.28-5.33-3.81,1.21-6.26,0-.12v-.19l-.26-6.34,0-1-1.09-.32-7.64-2.28,1.26-3Zm-23-22.44,1.68,3,.29.51.32.27,3.47,2.88,3.17,4.17.53,5.58.1,1.11.83.54,4.69,3.1h0l-3,3.14-3.69-7.74-.2-.43-.42-.35-5.1-4.28-2-1.67-1.47,2.3-4.72,7.35-4,.15-.57,0-.61.35-4.49,2.54-2.66-.29-4.22-9.59-.24-.54,2.55,2.06,4.33,3.49,1.23-5.33,2.36-10.19.25,0,.65.07.44-.09,2.06-.41,2.81,2.45,4.89,4.27.16-6.4.05-2Zm-19.32,1.34.85.1-1,3.88-1.6-1.37-.12-7,1.05,2.47ZM367.27,233l-4.49-4.59-1.76-1.8-2.67.17-2.54.15.57-2.68,4.48-1.87,1.65-.69.67-1.43,2-4.34,3.08-.64,7.25,1.72,1.73.42-4.81,11.34ZM400,206l-7-1.14,2.34,6.84L401,228.33l-2.81-.35-10.47-15.26-2.13-3.11,0-.17L384,202.08l1-4.44,1.89-2.39,11.27,1.48,2,.26.67-.89.54.75,5.08,7,2.05,3.51Zm5.36-16.53v-.29l.17-6.14,1.3-2.35.83-.19-.59,2.11-.13.45.23.37,1.35,2.1.78,1.22.82-1.17,2-2.83.37.61.14,1.51Zm7.26-12.92-.71,1,.12,1.32.08.78-.69.92-2,2.7-.31-.51,1.07-3.39.52-1.68-1.76.34-.73.15.5-.91-.64-1.31-.9-1.84,1.61-.79-2.24-1.17-.45-.24-1.69-3.46,3.65-1.25,9.74,1-.69,2Zm10.7-15.78-2.24-.48-.5-1.88,1.72-6.26,3.7-2.27,3.69.5-1.62,9.87-2.46,1ZM434,154.53l-.08.33-2,7.75-3.81-.82.91-.42.35-.17,0-.35,1.19-10.34,1.6.22.18,0h.32l.43.05.86.07,1.72.17h.06l-1.61,3.22Zm9.27-10.84-1.52-1.33,2.07-2.1-2.17,2h0l.18-1.68,4.11-1.65,7.17,3.34-.47,9.7Z" style="fill:#c7b299"/><path d="M326.32,239.53c2.62,5.82,1.43,12.18-1.68,17.88-.52.94-1.09,1.88-1.7,2.79-5.93,7.69-10.91,15.15-19.27,18.93-.81.5-1.63,1-2.45,1.41a45.46,45.46,0,0,1-5.12,2.34,44,44,0,0,1-11,2.69,42.52,42.52,0,0,1-10-.08c-1.08-.13-2.15-.31-3.19-.4-9.61,1.46-17.08-6-22.89-12-.81-.63-1.59-1.28-2.34-1.94a42.49,42.49,0,0,1-13.78-25.45c-.29-1.05-.56-2.1-.8-3.16-2.14-9.53-2-19.36,2.83-28.15,5.6-10.58,15.55-17.11,26.67-20,1.11-.28,2.23-.53,3.35-.84,7.3-5.32,16-2.84,23.93.86,1.09.31,2.17.62,3.24,1s2.1.73,3.13,1.15a48.38,48.38,0,0,1,7.2,3.43c.57.33,1.15.68,1.71,1,10.38,5.88,22.82,14.59,20.9,28.16.15.65.29,1.3.41,2s.22,1.31.32,2,.17,1.35.23,2,.12,1.38.17,2.1S326.27,238.76,326.32,239.53Z" style="fill:#412312"/><path d="M326.32,239.53c-.05-.77-.1-1.52-.15-2.24s-.1-1.42-.17-2.1-.14-1.36-.23-2-.2-1.33-.32-2-.26-1.31-.41-2a18.72,18.72,0,0,0-1.64-10.76,18.67,18.67,0,0,1,1,9.29c.15.64.29,1.29.41,1.95s.23,1.32.32,2,.17,1.34.23,2,.12,1.39.17,2.11.1,1.47.15,2.24c2.62,5.82,1.43,12.18-1.68,17.87-.52.95-1.09,1.88-1.7,2.79-5.93,7.7-10.91,15.16-19.27,18.93-.81.5-1.63,1-2.45,1.41a45.53,45.53,0,0,1-5.12,2.35,44.85,44.85,0,0,1-11,2.69,42.51,42.51,0,0,1-10-.09c-1.08-.13-2.15-.3-3.19-.4-9.61,1.46-17.07-6-22.89-12-.81-.63-1.59-1.28-2.34-1.94a41.6,41.6,0,0,1-10.25-13.85,41.59,41.59,0,0,0,10.9,15.33c.75.66,1.53,1.31,2.34,1.94,5.81,6,13.28,13.44,22.89,12,1,.09,2.11.27,3.19.4a42.52,42.52,0,0,0,10,.08,44,44,0,0,0,11-2.69,45.46,45.46,0,0,0,5.12-2.34c.82-.44,1.64-.91,2.45-1.41,8.36-3.78,13.34-11.24,19.27-18.93.61-.91,1.18-1.85,1.7-2.79C327.75,251.71,328.94,245.35,326.32,239.53Z" style="fill:#fff"/><path d="M319.56,238.47a37.91,37.91,0,0,1-10.17,25.89c-.79.85-1.62,1.66-2.48,2.44-7.85,6.7-19,13.53-29.6,10.18a19,19,0,0,1-2.89-1.17c-8.5.55-15.32-3.55-20.34-9.65-.72-.87-1.4-1.78-2.05-2.72a38.69,38.69,0,0,1-9.3-21.33c-.16-1.06-.29-2.12-.37-3.18a34,34,0,0,1,2.5-15.82c7.47-16.17,23.64-23.63,41.05-22.39,12.44,1.25,22.39,8.71,28.46,18.55a37.89,37.89,0,0,1,5.19,19.2Z" style="fill:#1f120b"/></g></svg>