<svg xmlns="http://www.w3.org/2000/svg" viewBox="0 0 502.9 515.08"><g id="a70d057f-a1e9-4425-b6ac-00e16e09a578" data-name="Layer 9"><polygon points="352.32 241.44 392.06 226.72 318.82 211.54 330.97 202.32 388.38 185.56 397.45 170.49 387.42 158.89 329.02 164.63 341.92 148.97 325.54 145.14 317.67 138.35 347.32 106.97 294.05 132.39 293.77 121.3 325.45 76.93 274.67 115.93 264.7 115.23 283.56 72.79 282.41 52.97 287.24 16.15 273.63 11.75 258.07 13.49 237.36 37.96 224.71 41.35 207.05 88.97 199.55 79.32 190.85 23.02 178.46 22.21 163.05 0 160.3 58.08 148.91 55.06 121.57 7.43 112.69 22.9 132.99 94.14 88.8 34.86 117.11 101.13 111.66 108.29 68.42 71.95 91.23 111.92 79.59 113.99 51.84 104.88 41.68 111.87 36.09 122.19 43.92 139.09 5.59 134.8 6.65 149.01 56.77 175.6 34.35 180.4 63.09 194.66 0.36 199.07 27 211.54 37.01 221.64 29.85 232.75 5.13 248.47 7.08 260.78 71.98 251.91 54.41 268.05 41.79 285.05 14.91 313.17 14.98 329.11 48.84 320.52 73.72 314.26 99.83 302.57 55.62 365.73 70.45 368.44 117.89 320.81 85.59 393.78 134.57 325.73 117.91 387.61 139.38 363.19 154.57 346.85 149.92 417.52 164.17 414.54 177.22 420.18 190.85 339.09 199.49 337.24 208.57 340.09 211.57 399.04 261.38 379.21 224.46 401.84 196.13 429.04 265.06 404.38 249.45 426.8 238.63 451.32 292.44 411.94 276.74 444.24 274.07 467.87 276.25 490.7 306.77 450.64 298.14 515.08 321.58 472.93 328.94 512.92 343.47 513.16 354.56 475.67 360.81 448.67 384.11 498.97 380.21 450.92 398.01 465.61 424.45 486.8 394.87 424.2 438.59 460.41 466.55 468.3 455.31 440.55 479.96 440.63 477.06 422.63 493.09 414.06 488.61 397.37 423.14 371.02 434.57 364.56 456.45 356.08 502.9 340.74 432.08 338.79 430.89 330.12 448.75 313.44 422.57 314.84 478.82 267.87 408.74 304.05 422.87 279.14 441.57 240.74 384.93 296.54 405.77 245.33 396.78 235.46 369.57 277.34 366.2 256.21 352.32 241.44" style="fill:#736357"/><path d="M295.19,208.12c3.18,20.24-1.17,42-15.91,55-.93,1.45-1.87,2.88-2.85,4.28q-1.76,2.52-3.66,4.95c-9.23,17-11.4,43.12-38.19,30.3-2,.69-3.88,1.49-5.81,2.24a104.23,104.23,0,0,1-69.11,2.09c-2.12-.6-4.2-1.26-6.43-1.92-22.46-.48-33.35-15.72-43.48-32.73-1.26-1.6-2.48-3.25-3.65-4.93a103.28,103.28,0,0,1-15.16-32.71c-.45-1.7-.85-3.41-1.27-5.17-9.29-19.08-16.88-38.88-3.47-55.25a47.14,47.14,0,0,1,10.72-9.38c14.26-25.74,31.67-49.68,62.76-55.67,2-.59,4-1.17,6-1.68a103.85,103.85,0,0,1,129.1,94C295,203.69,295,205.88,295.19,208.12Z" style="fill:#412312"/><path d="M295.19,208.12c-.15-2.24-.24-4.43-.37-6.6A103.56,103.56,0,0,0,256,127a103.5,103.5,0,0,1,35,71.27c.14,2.16.23,4.35.38,6.6,3.18,20.23-1.17,42-15.91,55-.93,1.45-1.87,2.88-2.85,4.28-1.17,1.68-2.39,3.32-3.66,4.95-9.23,17-11.41,43.11-38.19,30.3-2,.68-3.88,1.49-5.82,2.24a104.28,104.28,0,0,1-69.1,2.08c-2.12-.59-4.2-1.25-6.43-1.91A39.34,39.34,0,0,1,125.91,294,39.48,39.48,0,0,0,153.23,305c2.23.66,4.31,1.32,6.43,1.92a104.23,104.23,0,0,0,69.11-2.09c1.93-.75,3.84-1.55,5.81-2.24,26.79,12.82,29-13.31,38.19-30.3q1.91-2.43,3.66-4.95c1-1.4,1.92-2.83,2.85-4.28C294,250.12,298.37,228.36,295.19,208.12Z" style="fill:#fff"/><path d="M406.74,376.85c3.62,12.7-2.83,22-11.73,30.22-1.48,1.38-3.05,2.72-4.67,4.06-15.78,17.48-39.73,30.54-61.07,16.37q-2.72-.86-5.33-2c-27.74-10-51.69-33.93-34.45-64.23.32-1.74.73-3.46,1.2-5.14A58.22,58.22,0,0,1,318.87,321c1.64-.89,3.34-1.71,5.07-2.44,4.74-6.83,9.82-10.62,15-12.21a19.9,19.9,0,0,1,5.29-.86c19.35,5.32,40.82,16.24,52.16,33.41a49.63,49.63,0,0,1,2.82,4.84c5.81,8.67,3.63,19.55,7,29.23C406.38,374.26,406.57,375.55,406.74,376.85Z" style="fill:#412312"/><path d="M280.58,208.38c.38,13.45-1.8,26.51-8.78,38-.82,1.65-1.65,3.27-2.54,4.87q-1.51,2.76-3.23,5.4c-6.84,17.42-17.72,32.65-37.19,32.28q-2.85,1.32-5.82,2.46a89.15,89.15,0,0,1-69.33-164.15q2.85-1.33,5.82-2.47c3-1.48,5.93-3,8.92-4.44q2.23-1.06,4.5-2c21.23-2.11,47.65,1.06,67.59,13.13q2.49,1.51,4.88,3.21c20.32,17.5,48.62,39.27,35.69,69.46C280.92,205.48,280.74,206.89,280.58,208.38Z" style="fill:#1f120b"/><path d="M399.64,378.4c2,8.26-1.49,14.75-6.86,20.19q-1.62,1.65-3.44,3.16c-19.14,16-36.55,31.22-59.65,17.34a51.34,51.34,0,0,1-5.18-2.18c-21.78-7.89-41.37-27.48-27.66-50.7.3-1.89.63-3.76,1.06-5.6a50,50,0,0,1,26.66-33.42c1.66-.81,3.37-1.59,5.12-2.41a32,32,0,0,1,3.81-5.63,18.51,18.51,0,0,1,4.09-3.62C357.51,310,376,324.2,389.1,339.16c2.63,3,5,6,7.21,9,0,8.64,4.37,17.35,2.8,26.29C399.29,375.76,399.47,377.09,399.64,378.4Z" style="fill:#1f120b"/></g></svg>