<svg xmlns="http://www.w3.org/2000/svg" viewBox="0 0 1000 1000"><g id="ef2332d7-ea3e-4713-8fb5-30a9ca685102" data-name="Layer 1"><polygon points="236.69 463.6 254.95 456.84 221.3 449.87 226.88 445.63 253.26 437.93 257.43 431.01 252.81 425.68 225.99 428.31 231.91 421.12 224.39 419.36 220.77 416.24 234.39 401.83 209.92 413.5 209.79 408.41 224.35 388.03 201.02 405.94 196.44 405.62 205.1 386.12 204.57 377.02 206.79 360.11 200.54 358.08 193.39 358.88 183.88 370.12 178.06 371.68 169.95 393.56 166.51 389.13 162.51 363.26 156.82 362.89 149.74 352.68 148.48 379.37 143.25 377.98 130.68 356.1 126.6 363.2 135.93 395.93 115.63 368.7 128.64 399.14 126.13 402.43 106.27 385.74 116.74 404.1 111.4 405.05 98.65 400.87 93.98 404.08 91.41 408.82 95.01 416.58 77.4 414.61 77.89 421.14 100.92 433.35 90.61 435.56 103.82 442.12 75 444.14 87.23 449.87 91.83 454.51 88.55 459.61 77.19 466.83 78.08 472.49 107.9 468.41 99.83 475.83 94.03 483.64 81.68 496.56 81.72 503.88 97.27 499.93 108.7 497.06 120.7 491.69 100.39 520.7 107.2 521.95 128.99 500.07 114.15 533.59 136.66 502.33 129 530.76 138.86 519.54 145.84 512.03 143.71 544.49 150.25 543.13 156.25 545.72 162.51 508.46 166.48 507.62 170.65 508.93 172.03 536.01 194.91 526.9 177.95 537.29 164.94 549.79 196.6 538.46 189.43 548.76 184.46 560.02 209.18 541.93 201.97 556.77 200.74 567.63 201.75 578.12 215.76 559.71 211.8 589.32 222.57 569.95 225.95 588.33 232.63 588.43 237.72 571.21 240.59 558.81 251.3 581.92 249.5 559.84 257.68 566.59 269.83 576.33 256.24 547.56 276.32 564.2 289.17 567.82 284 555.08 295.33 555.12 294 546.84 301.36 542.91 299.31 535.24 269.23 523.13 274.48 520.17 284.53 516.27 305.87 509.22 273.34 508.32 272.79 504.34 280.99 496.68 268.96 497.32 294.81 475.75 262.61 492.37 269.1 480.92 277.69 463.28 251.67 488.92 261.25 465.39 257.12 460.86 244.62 480.1 243.07 470.39 236.69 463.6" style="fill:#9b9b9b"/><path d="M210.45,448.3c1.46,9.29-.54,19.29-7.31,25.25-.43.66-.86,1.32-1.31,2s-1.1,1.53-1.68,2.28c-4.24,7.8-5.24,19.8-17.55,13.92-.9.31-1.78.68-2.67,1a47.81,47.81,0,0,1-31.75.95c-1-.27-1.93-.57-3-.88-10.32-.22-15.32-7.22-20-15-.58-.74-1.14-1.5-1.68-2.27a47.35,47.35,0,0,1-7-15c-.2-.78-.39-1.56-.58-2.37-4.27-8.76-7.76-17.86-1.6-25.38a21.3,21.3,0,0,1,4.93-4.31c6.55-11.83,14.55-22.83,28.83-25.58.91-.27,1.84-.53,2.77-.77a47.7,47.7,0,0,1,59.31,43.19C210.34,446.26,210.38,447.27,210.45,448.3Z" style="fill:#414042"/><path d="M210.45,448.3c-.07-1-.11-2-.18-3A47.59,47.59,0,0,0,192.43,411a47.55,47.55,0,0,1,16.06,32.74c.06,1,.1,2,.17,3,1.46,9.29-.54,19.29-7.31,25.25-.42.66-.86,1.32-1.31,2s-1.1,1.53-1.68,2.28c-4.24,7.8-5.24,19.8-17.54,13.92-.91.31-1.78.68-2.67,1a47.81,47.81,0,0,1-31.75.95c-1-.27-1.93-.57-3-.88a18.06,18.06,0,0,1-10.77-3.58,18.16,18.16,0,0,0,12.56,5.08c1,.31,2,.61,3,.88a47.81,47.81,0,0,0,31.75-.95c.89-.35,1.77-.72,2.67-1,12.31,5.88,13.31-6.12,17.55-13.92q.87-1.12,1.68-2.28c.45-.64.88-1.3,1.31-2C209.91,467.59,211.91,457.59,210.45,448.3Z" style="fill:#fff"/><path d="M261.69,525.81c1.66,5.84-1.3,10.11-5.39,13.89-.68.63-1.4,1.25-2.14,1.86-7.25,8-18.25,14-28.06,7.52-.83-.26-1.65-.56-2.45-.9-12.74-4.59-23.74-15.59-15.83-29.51.15-.8.34-1.59.56-2.36a26.77,26.77,0,0,1,12.94-16.15c.76-.41,1.54-.78,2.33-1.12,2.18-3.13,4.51-4.88,6.9-5.61A9.14,9.14,0,0,1,233,493c8.89,2.44,18.75,7.46,24,15.35a22.22,22.22,0,0,1,1.3,2.22c2.67,4,1.67,9,3.19,13.43C261.53,524.62,261.62,525.22,261.69,525.81Z" style="fill:#414042"/><path d="M203.73,448.42c.18,6.17-.82,12.17-4,17.45-.37.76-.76,1.51-1.17,2.24s-1,1.67-1.48,2.48c-3.14,8-8.14,15-17.09,14.83-.87.41-1.76.78-2.67,1.13a41,41,0,0,1-31.85-75.41q1.31-.61,2.67-1.14c1.36-.68,2.73-1.38,4.1-2,.69-.32,1.37-.63,2.07-.91,9.75-1,21.89.48,31.05,6,.76.46,1.51.95,2.24,1.47,9.34,8,22.34,18,16.4,31.91C203.89,447.08,203.81,447.73,203.73,448.42Z" style="fill:#231f20"/><path d="M258.43,526.53c.92,3.79-.68,6.77-3.15,9.27-.5.5-1,1-1.58,1.45-8.79,7.34-16.79,14.34-27.4,8a24.5,24.5,0,0,1-2.38-1c-10-3.63-19-12.63-12.71-23.3.13-.86.29-1.72.48-2.57A23,23,0,0,1,223.94,503c.77-.38,1.55-.73,2.35-1.11A14.93,14.93,0,0,1,228,499.3a8.86,8.86,0,0,1,1.88-1.66c9.16-2.54,17.63,4,23.67,10.86,1.21,1.37,2.32,2.76,3.31,4.12,0,4,2,8,1.29,12.08Z" style="fill:#231f20"/></g></svg>