<svg xmlns="http://www.w3.org/2000/svg" viewBox="0 0 567.51 515.08"><g id="bf41e838-a1c1-4a6a-a420-ae423035d348" data-name="Layer 9"><path d="M567.34,351.49l-11.28-3.08-8.8-3.87L557.65,325l1.36-2.58-2.55,1.37-14,7.52L537.72,318l-.26-.75-.81-.13-8.29-1.41-.92-.15-.59.83-10.72,14.93L512.39,319l-.68-2.23-2.19.95-9.63,4.18,0,0-.11.06-7.84,4.1-5.12-7.95-.79-1.24-1.55.09-7.9.46-6.94-3.93-.44-.25-.6-.08-6.64-.86L457,301.06l-1.55-3.56-3.31,2.29-5.65,3.91-1.51-.56,7.51-6.66,6.38-5.65-8.29-1.27L434.16,287l1.61-3.42,11.86-17.39,12.11-17.74L441.4,259.4l-13.4,8-1.67,1-.84.5-.42.25-.21.13-.1.06-.39.26-3.22,2.22-2.78,1.92-4.06-4.17-2-2-3,.71-3.56.85-3.38-13.59-2.58-10.35-7.34,8.14-4.34,4.8-8.92-11.23,11.58-7-5.92-10.77-.15-.8.13-.11-.05-.15h.93l5.11,5,3.78,3.69,4.1-2.94,8.83-6.32,1.17-.83.59-1.05,2.26-4,3.31,5.78.91,1.59,1.49.67,8.58,3.87,6.25,2.81,1-6.57L435,218.52l3.83,3.56,5,4.6,2.34-6.15,3.84-10.06,1.85-3.86,7.47,2.62,2.87,1,1.65-2.37,4.09-5.89,3.78-4,.29.7.55,1.28,1.26.23,2.16.39,1.1.2.2-.14,0,.27-.24,2.35,2.25.13,2.18.13,1.19,1.34,1.16,1.31,1.43-.84,2.62-1.54.55-.32.24-.48.53-1,1.15,1.39.38.45.48.15,2.05.61,2.5.75-.22-2.53-.11-1.35.86,1,1.09-1.44,1.57-2.1,1.31-.26.33,2.45.08.62.48.3,1.78,1.1,1.51,1.59.34.36h.45l1.6.06,1.18,2.13.54,1,.89-.54,3.86-2.35,1.29,3.11.69,1.65.76-1.57,2.47-5.06,1.43,0,2.09,3.2.47.72.4-.73,1.55-2.82,2.17,4.44.17.36.28-.28,1.92-1.92h0l1.94-2.36,1.93,1.94.06.06.05-.07,2-2.6-2,2.44-1.89-2.09-.1-.11-.11.12L528.54,206l-1.71,1.55-2.12-4.92-.31-.72-.42.69-1.65,2.68-1.69-2.88-.16-.28h-.36l-2.17,0h-.38l-.2.36-2,3.7-.91-2.52-.35-1-.94.52-3.91,2.13-.91-1.82-.26-.53-.65,0-1.69-.15-1.26-1.45-.09-.1-.15-.1-1.32-.91-.29-3.37-.12-1.41-1.46.22-3.28.51-.51.08-.36.44-.8,1-1.59-2-3-3.79.2,4.92.11,2.63-1.6-2.11L488.45,195,487,197.6l-1.68,3-.66.35-.67-.84-.53-.64-.93-.1-.65-.07.5-3.33.77-5.18-4.44,3L476,195.49l-1.17-3.12-.24-.65.59-3.3,7.83-3.32,2.58-1.09-.63-2.6L482.74,172l-.62-6,11.22.29,4.31.11-1.86-3.78L488,146.61l3.81-3.62,4.69,3.21,6.39,7.05.69.76.9-.29,9.11-2.9,6.59,4.77.56.41.55-.34,6.08-3.64,8.26,1.4.19,0,.15-.08,6.64-3.27.17-.08,0-.17,1.17-5.05,8.15-7,6.95,12.68-6.61-13.26-.16-.31-.28.22-7.68,6.07,1.33-5.76-1.79,6.12-.22.17-6.2-7.48-.41-.49-.55.39-8.31,6-1,.73-1.06.72L524,145.08l-3.21,2.21-8.61-15.36-1.4-2.49-1.22,2.65-5,10.87-11.42-5.16-1.15-.51-.3.27-.94-.73-1.32.86-9.27,6.05-4-7.89-.95-1.88-2.21.51-8.18,1.88L459,131.74l-.65-.52-1-.12-8.55-1-.3,0-.51.06-5.7.66L435.14,129l-2.83-.73-1.69,2.82L426,138.69l-4.2,6.68-3.42,2.9L408,144.35l-6.44-2.42-.57,7.45-.59,7.69-4.43.25-4.38.25-1.07,4.79L388.8,170l-2.42,1.21L377,169.08l-1.28,6.11L364,176.33l-4.26-1.6,9.19-19.54.21-17.51-11.68,2.71-1.2-3.89-1.29-5,6.58-3.47,2.79-1.47-.39-2.86-1.12-8.36.67-6.42,5.09-5,1.49-1.47-.43-1.82-1.65-7,8.63-2.65,3.76-1.15-2-2.95,1.43,1.29.91.82,1.13-.16,2-.28,1.63-.24.16-.56,0,0,1.2,2.24,2.06-1.36.69-.45.92.7,1.8,1.37,1.3-1.76,2-2.74.19-.25.08-.22.17-.42.53,1.09.25.53.44.28,2.49,1.58,2.52,1.59.37-2.88.42-3.18.59.7,2,2.44.83-3,1-3.47.29-.79,2.06,1,1,.48.74-.71,1.4-1.38,1.89-.78.51-.21.22-.45.65-1.35,2.49.1,1.43,0-.08-1.38L419.9,72l0-1.31,3.23,1.09,2.34.78-1-2.22L422,64.71l.86-.8,3.7,1.75,1.18.55V64.94l0-2.74,3.4,3.38.65.65.36-.83,1.27-3L434.53,60l2.11,1.6.38.29.25-.4,1.64-2.61,2,4,.1.19.2,0,2.13-.44h.05l0,0,2-1.37,2.14,1.61.13.09.08-.13,1.85-3.29L452.13,62l-2.39-2.82-.06-.07-.05.08-1.94,3.16-2.06-1.67-.11-.09-.11.08L443.26,62l-1.89.31-2.09-4.43-.28-.58-.37.54-1.82,2.68-2.17-1.78-.48-.4-.28.58-1.43,3-1,2.14-3.87-4.14-1.19-1.28-.07,1.78-.14,3.18L423.13,62l-.53-.28-.48.41-1.87,1.62-.5.43.26.65,1.61,4L419.2,68l-1.46-.56-.1,1.61L417.46,72v.1l0,1.73-2-.15-.85-.06-.42.79L413.39,76l-1.73.64-.24.09-.22.2-.84.77-2.67-1.48-1.5-.82L405.53,77l-1,2.44v0l0,.09-.14.44-1.11-1.44-2.42-3.12-.67,4-.6,3.6-1.79-4.1-1.85-4.23L394,78.94,392.1,83.3l-.55.69-.47-.38-1.2-1-1.25.76-1.54-3.1-2.56-5.19-1.86,5.57-.79,2.39-2.61-2.54-1.62-1.59-1.85,1.48-1.11.88-3.78-5.65,4.53-4.74,8.23-5.39,1.19-.78-.38-1.26-2.82-9.27,5.59-5.78.22-.24.08-.24L390,40.33l8.44-4.5.2-.11.09-.16,3.83-7,.11-.19-.07-.17-5-13.52,4.14,13.59-4,6.41-8.92,4.09-.34.15-.15.41-2.89,7.49-6.43,5.89-.62.57.22.91L380.61,63,373,67.42l-.16.09-.22.21-6.42,5.94-1.36,1.26,1,1.73,5.62,9.6-8.15,2-2.85.69L361,92l1.37,7.93-5.08,4.44-.94.81-.24,1.46-1.37,8.19-.06.36,0,.6.42,5.64-7.63,3.45-3.22,1.46.72,3.75,1.63,8.58,0,.13v.1l.07.27.06.27.13.53.26,1.06.26,1.08-5.57.73L331.72,154l-1.63.46-1.69-2.86-2.41-.32-3.44-7.86-9.15-11.76L309,142.27l-4.52-6.68-12.17-7.42-8.56.71,0-1.7-.06-4.51-3.87-1.25-.33-.11,1.62-4-4.59-1.78,2.7-4.73-5.71-2-1.68-.59.92-3,.38-1.23-.17-.94-.61-3.45L272,97.42l-1-.61,2.25-1.51-.35-2.39-.37-2.52.81-2.17.88-2.37-1.55-1.62-2.71-2.83,4.39-1.11,6-1.51-4.43-3.92-3.11-2.75.7-.44,2.29-1.41-1.2-2.18-2.41-4.35-.66-1.29,6.33-.27,3.15-.14-1.37-2.68-2.33-4.57-2-4.12.68-2,6.1-.53.16,0,.07,0,4.54-1.31,1.25-.36-.57-1.09L285,40.54l4.2.12h.66l-.05-.61L289.32,35l1.6-5.12,4.75.17-4.86-.53-.13,0-.06.14-2.05,5.18,0,.06V35l.06,4.49-4.91-.5-1.29-.12.54,1.24,2.17,5-3.28.69-7.05.1h-.89l-.4.92L272,50.19l-.23.55.26.66,1.9,4.82.8,1.9-7.1-.21-3.59-.11,1.48,3.46,2,4.64,1,2.19-2.08,1.08-3.36,1.75,2.79,2.87,1.25,1.28-1.28.22-2.08.37L263.21,78l-.91,3.59-.42,1.64,1.24,1.5,2.2,2.66-.51,1.11-.36.79.08,1.15.05.7-3.59,2-.52-.57L255,86.48l-2.58-2.89L249.05,85l-9.66,4-6.32-.27-3.73-2L228.54,71l-.14-2.77-2.22-1.13L219,63.47l-1.28-.65-1.26.2L208,64.32l-6.65-2.21-2-.68-1.62,1.2-9.32,6.9-2.62-4.68-1.34-16.72-.36-4.57-4,1.89L170.64,50l-9-.79-4-4.47-.41-8.58v-.25l0-.15,0-.3-.05-.59L157,33.65l-.21-2.38-.42-4.76-.19-2.15-2,.15-13.26,1-3.26-5.19,3.75-14.48.8-3.07-2.71,1.43-10,5.29-.11,0-.06.05-7.52,5.67L114.78,1l-.34-.69-.57.49L105.45,8l-8.22,4.5-7.92-4.1,7.82,4.49.08,0,.1,0,8.51-4.22,0,0,0,0L114,2.25l6.64,14.9.44,1,.94-.65,8.55-5.92,7.3-3.49L134.2,20.21l-.21.71.39.69,4,6.93.53.91,1.11,0,12.2-.4.36,7.39.07,9.59v.87l.61.74,5.06,6.14.62.75,1.06.14L170.69,56l.71.09.79-.33,6.17-2.64.52,13.21,0,.72.39.76L183.94,77l1.81,3.58,3.49-2.37,11.13-7.56,5.71,2.18.83.32L208,73l7.91-.89,3.6,2,.17,16.15,0,2.73,2.45,1.44,7,4.09.86.51,1.2.1,8.53.72,1,.09,1.19-.44L249,96.94l1.3,1.59-.87,9.52-.11,1.26.5,1.4,3,8.2,1,2.71,2.91.89,6.69,2.06,1.19,2-.64,1.29,1.86.76.26.45.34,1-1,.53-3.23,1.73-2.83-.2.15,1.64-8.58,4.6,9.24,2.39,1.41,15.09-13-1.35-3.16,10.81-12.05,2.92-7.39,3.35-7.66-3.14-4.17-4-1.54-2.89L217.7,150l1.33-3-1.87-2.35-5.08-6.38-1.2-1.51-1.64-.33-8.61-1.75-1.2-.24-1.09-.19-2.16-.38-4.32-.76-3.73-.65-1.32,3.3-3.24,8.14-3.79-1.17-13.33-6.7-3.51-1.76-1.47,3.44-4.17,9.74-5.3,7.84-8.55-.31-2.55-8.56-1.69-8.71-.68-3.52-2.8,2.06-9.18,6.77-5.13-1-6.32-10-.77-1.22-1.17.71-7.62,4.6-.09.05,0,0-6.37,4.88-7.93-10.78-.45-.61-.5.53L84,136.66l-.38.4-.18.19-.2.19-.82.75L80.8,139.7l-3.23,3-6.94.48,7-.14h0l.05,0,3.42-2.85,1.72-1.42.85-.71.21-.18.22-.21.41-.38,5.92-5.6,7.54,11.42.54.82.85-.58,7.33-5.06,6.54-3.51,5.52,9.8.35.62.77.19,6.64,1.66.77.19.75-.49,7.19-4.77.78,5.52v.06l0,.18,2.61,10.71.45,1.84,2,.18,12.16,1.06,1.61.14,1.06-1.41L163,151l.14-.19.17-.36,3-6.2L176.4,150l.2.12.41.14,7.68,2.81,3.55,1.3,1.66-3.62,3.64-8,.81.19,2.14.49,1.07.24.27.06.14,0H198l-.11,0,.07,0,.53.14,6.64,1.7,1.88,2.61-4.19,8.24-1.51-.57.56,2.44-.52,1-1.17,2.29.14.29-.78.34-2,.87-1.28.57v1.31l0,1.48-.52-.09-1.77-.3-.43,1.65-.31,1.19-1-.48-1.82-.85-.61,1.83-.73,2.21-1.06-.13-2.36-.59-.39-.1L185,171l-2.2.47-.71.15-.32.57-.78,1.43-1.45-1.66-.58-.67-.78.23-2,.57-2-.25-.79-.1-.4.62L171.21,175l-1.1.16L168,172.12l-1-1.45-.72,1.57-1.58,3.45-1.52-1.16-.6-.47-.5.53-3.66,3.87-2.26-4.67-.36-.74-.53.6-2.15,2.45-2,2.41-1.87.35-2.66-3.22,0,0,0,0L143.85,174l-.18-.11-.08.19-1.54,3.86-2.86-2L142,178.1l.08.06,0-.1,1.67-3.68,2.41,1.6,2.61,3.47.12.15.2,0,2.24-.31.13,0,.1-.11,2.15-2.43,1.67-1.72,2.12,4.94.39.89.71-.69,4-3.86,1.78,1.5.84.7.51-1,1.43-2.78,1.46,2.31.35.55.7-.07,2.31-.24.49,0,.31-.44,1.7-2.38,1.56.26.23,0,.28-.07,1.37-.33,2.15,2.71,1.25,1.58,1.08-1.77,1.53-2.49,1.18-.2,2.16.65.06,0,.14,0,2.5.42,1.32.22.5-1.32.59-1.54,1.29.67,1.91,1,.66-2.14.47-1.51,1.21.26,2.27.49.08-2.41.07-2.28,2.76,1.35,1.2,2.56.33.71.74.78,5.38,5.64.66.69,1.14.53L216,180.5l-1.84,2.34,6.86,5.57-.75,6-.28,2.26,1.43,2.18,5.95,9,1.84,2.79,3.69.17,2.63.13-4.18,5.76-10.08,10.15L237,233.78l-1.67,1.42-.67-.45L230,231.62l-3.77,4.09-7,7.63L214,248.62l-2.84-.16-7.69-9-1.73-2-2.42,0-8.07-.07-4.24,0-1.37,4L180.56,256l-4.37,1.45-5.74,0-8.52-5.83-6.27-4.3L154.38,255l-1.61,9.57-.34,2,1,1.5,1.58,2.37-2.16.07-4.17-.13,1.31-7.3,0-.27-.27,0-4.48-.56-4.63-1.26-2.3-3.63,2.18,3.75v0h0l4.62,1.45h0l4.18.68-1.63,7.45-.1.46.48,0,4.63.33,2.93,0,3,4.42.28,6.19-3.82,7.42-.22.44-.1.33-2.06,6.94-3.37,1.66-1.56-.4L146,298l-1.45,1.18-6.2,5-7.1.25-1.47.05-.95,1-6.84,7-.5.52-.24.56-4.87,11.54-5.22,1.39-8.77-5.95-10.12-6.42-2.32-1.47-1.23,2.47-5.42,10.92L77,329l-1.36.62,0,1.44.18,8.06-9.3.53-1.06.06-.45.94-3.21,6.79-8.95,1.8-1.07.22-.11,1.06-.94,9.34-6.08-10.14-.43-.71-.71.38-9.94,5.36-9,2.19-7.71-3.63-.06,0h-.05l-8.48-.85-6.93-7.49L8,352.72l0,0h.07L16.56,354l7.68,4,.15.08.18,0,9.34-1.91H34l.09-.05,9.43-4.64,7,12.73,1.67,3,.48-3.55,1.61-11.7,8.8-1.44.77-.12.4-.77,3.31-6.4,10.24-.2,1.88,0,0-2,.12-8.48L85.68,330l.73-.3.42-.79L91.65,320l7.57,5.22,9.6,7.06,1,.72,1.3-.3,8-1.82,1.45-.33.69-1.49L126.89,317l5.55-5.32,7,0h1.15l1.05-.79,5.7-4.32,1.21.37,1.26.37,1.36-.61,6.38-2.86,1.59-.72.62-1.83,2.72-8.09,4.55-8.13.57-1,0-1.32,0-2.92,1.65.81.3.15.37-.09,4.48-1.12,2.37,1.88.15.13.24.07,2.67.79,2,4.64.7,1.58,1.36-1.14,3.46-2.9,2.71-.35,3.6.62h.14l1.94.16,1,.08.24,0h.33l.49,0,2.16.07-.11,3.06,0,1.38,1.4.38,3.13.85,0,2.88v1.57l1.6.33,3.92.83.51,1.32-2.88,6.62-.59,1.36h-.08l-12.3.58-2.62.12-1,2.23-4.62,10.28-.47,1.05.11,1,.92,7.83-3.2,5.27-.76,1.25.26,1.28,1.79,8.51.12.55.2.37,5.48,9.95-2.51,4.6-10.1,1.65-10.95.84-2.44.18.24,2.33,1.16,11-4.65,5.65-.27.33-.1.33-2.51,8.67L148.8,390l-.71-.13-.49.45-5.72,5.27-9.06-2-.77-.17-.33.67-4.52,9.18-9.91-7.59-.36-.27-.26.35-6.13,8.34-7.44,5.05,7.69-4.73,0,0,0,0,6.23-7.73L127,405l.67.56.43-.8,5-9.05L142,398l.58.15.49-.42,5.86-4.93,10.5,2.38,1.4.32.49-1.44,3.23-9.51,5.26-5.85.55-.61-.06-.9-.56-9.45,8.82-.28h0l.17,0,11.65-1.37,1.31-.16.75-1.23,4.29-7.08.82-1.36-.76-1.55-5.48-11.1-1.1-6.72,3.45-5.16.66-1-.09-1.34-.57-7.89,3.44-6.84,10.24,0h.17l.36-.05,7.58-.94,7.51,1.5,1.19.24,1.34-.47,7.09-2.51,1.27-.45.95-1.24,4.69-6.05,3.93-.78,2.74,1,.05.31.4,2.43-4.17,3.51-1.24,1.05.37,1.5,1,4.13.47,1.89,1.88,0,5.74.09-3.65,2.89-1,.77.12,1.17.4,3.92.16,1.64,1.57.29,4.17.78-.88,2.36-.77,2,2,.61,3.17.94-1.67,2.76-1.25,2.07,2.26.71,4.38,1.38-.54,2.16-1.79,3.36-.21.38v.4l0,3.43v.87l.66.5,2.81,2.07-4.22,1.93-1,.45.1,1,.29,3.05-1.21,2.82-.4.94.72.67,4.12,3.79-.26,1.9-6.56,1.26-2.39.46,1.79,1.61,5,4.5-3,1.27-1,.41.4.95,2,4.79,1.27,3.55-9.29-1.37-1.31-.2.45,1.23,1.91,5.11,2,4.8L249,405l-7.19.36h-.09l-.08,0-4.86,2-.56.23.38.47,4.3,5.34-5.28,1.87-.37.13.22.3,3.37,4.71h0l3.46,4-1.35,3-8.1,4,8.23-3.86,0,0,0,0,1.48-3.09,0-.09-.06-.07-3.43-4.12-3-4.45,5.46-1.78.48-.16-.32-.41L237.71,408,242,406.4l7.5-.19h.38l.16-.36,1.4-3.22.1-.24-.09-.25-1.93-5.08-1.33-3.86,9.46,1.63,1.49.26-.48-1.46-1.65-5-1.58-4,3.7-1.46,1.6-.63-1.27-1.2-4.37-4.13,5.15-.86.9-.15.15-.94.56-3.5.11-.67-.52-.5L257.63,367l1-2.26.14-.32,0-.39-.16-2.33,5.79-2.48,2.46-1.05-2.14-1.67-4.18-3.24.08-2.16,1.8-3.18.1-.17.06-.23,1.1-4,.44-1.61-1.62-.56-3.66-1.25,1.84-2.87,1.35-2.11-2.43-.78-3.44-1.11,1.08-2.67.92-2.27-2.45-.52-4.95-1.06-.08-1.1,8.06-6.05,5.24-3.94-6.6-.27-10.34-.42-.16-.72,4.24-3.4,1.14-.91-.21-1.51-.17-1.24.77.29,2.19.83,2.31-1.18,8-4.12,1.1-.56.88-1.19,5.4-7.29,2.52-3.42-1.62-2.23,4.38-1.88,6.49,7.64,7,10.59,8.08,18.55,12,.81,6.29-3.15.15,1.4,3.18,1.28,6.17,2.48-4.35,3.15-2.18,1.58-.24,2.49-.79,8.18-.27,2.79,1.83,1.68,5.24,4.83-2.25,5-1.42,3.15,2.12,2.31,5.72,6.23,2.86,8.68,1.07,3.22,3.14-.17,9-.49,1.48,1.88,1.41,1.79.7.9.35.45.18.22.08.12,0,0,5.19,7.38.4.57.43.31,7,5.09.88.64.94.06,5.29.29-3.9,4.66-.89,1.07.08,1.25.49,8.15-1.45,8-.24,1.32.72.94,6,7.88.05,6.44-8.32,7.59-2,1.81,2,1.55,9,7,1.28,7.25.21,1.16,1,.22,16.68,3.52L388,482.24l-.3,1.07,1,.19,9.21,1.77,9.07,1.57,5.36,5.08-.86,11.79v.05l1.95,9.13-1.57-9.18,1.36-12,0-.2-.15-.15-5.41-5.58-.11-.12-.18,0-9.15-2-8-1.91,4.54-14.26.42-1.32-1.34-.35-16.7-4.29-.94-7-.09-.67-.57-.49-7.25-6.15,7.53-6.32.82-.69,0-1.19.27-8.46,0-.83-.53-.74L371,421.29l1.61-7.2.06-.3v-.44l-.15-7.1,7.93-8.72,4.59-5.06-6.71-.67-10.77-1.08L362,386.34l-4.66-7.25-5.44-7.59-1.17-1.63-2.17,0L341,370,339,363.2l-.24-.87-.7-.82-3.88-4.6,2.75-5.48,1.65-3.3-2.66-2.66-5.64-5.67.4-2.9,11.51-7.65,3.34-2.21-.38,1.61,3.45,2,6.6,3.74-.28,7.39-.19,4.87,4.64.38,9,.73,3.75,4.8.35.44.28.23,6.89,5.84,1,.85,1.11.18,8.53,1.33,1.94.31,1.37-1.13,5.5-4.54,5.56,6.17,1.31,1.44,1.76-.19,1.48-.16-.16.69-.29,1.34-.32,1.42.66.64-.51,0-.61,1.22-1.11,2.21-.73,1.45,1.09,1,1.42,1.35-.46.9-.88,1.72,1.59.89.69.39-.38.53-1.12,1.55,1.51,1,1.28.85-.18.34L409.42,384l-.22.21-.1.2-.84,1.62-.33.63.21.58.39,1.14-1.66.15-.9.08-.28.79-.64,1.84-1.19,1.61-.47.63.33.65,1.3,2.58L404.8,398l-2.56,2.59-1.78,1.81,2.48-.14,3.55-.19.72,1.68.24.57.57-.08,2.51-.31,1.75.83L409,407l-.46.32.36.4,1.68,1.81,1.38,2.15-.31,1.61-3.28,1h-.06L406.21,416l-.1.08.09.08,2.74,2.28-2.51-2.35,2-1.44,3.46-.83.16,0,0-.17.48-1.89,0-.12-.06-.12-1.35-2.37v0l0,0L410,407.53l3.9-2.35.9-.55-1-.52L411,402.56l-.16-.09h-.23l-2.1.15-.64-1.77-.19-.54h-2.22l1.13-1,.23-.21.08-.36.45-2,.08-.33-.17-.38-1-2.23,1-1.16.1-.12.09-.22.46-1.11,2.74-.1,1.82-.06-.53-1.83-.64-2.22.46-.78,1.42-1.21.17-.14.16-.28,1.12-1.88.76-1.27-1.26-.95-.89-.67.62-.77,1.29-1.58-1.81-1.16-.77-.49.38-.65.73-1.25-1.07-1.14-.72-.78,3.1.32,6,.63-4.19-4.58-2.26-2.47.85-.42,2.13-1.07-.53-1.26,4.76,1.23,1.45.37,1.14-.72,7.45-4.69,4.21,1.73.22,10.06.07,3.22,3-.63,10.45-2.17.88,6.63.18,1.38,1.23.4L461,382.9l7.13,2.62-6.59,12.85-.73,1.43,1.46.48,9.14,3,.06,0h0l9,2.21,4.7,4.6-.51,11.68v.13l.05.11,4.41,9,.11.23.24-.1,11.21-4.86-11.17,4.27-3.85-8.85,1.06-11.89,0-.32-.24-.26-4.9-5.24-.16-.16-.26-.08-9.08-2.65-7.48-2.85L472,385.4l.94-1.65-1.82-.76-8.74-3.67-7.64-2.88-.69-7.93-.22-2.45-2.53.41-9.79,1.58.21-8.92,0-1.83-1.77-.82-7.3-3.39-1.37-.64-1.44.82-7.66,4.37-6.05-1.84-.53-.16-.7,0-5.92.38-6.59-8-2.33-2.82-3.06,2.3L390,352.86l-5.43-1.09-5.39-5-4.6-6.43-1.14-1.6-2.15-.27-6.05-.76.49-6,.26-3-2.79-1.75-5.44-3.41,1.61-5.64,1.06-3.7-3.32-2.41-6.75-4.87-.07-2.53L360,292.89l9.53-11.32,11.29.4L377,273.51l7.44,1.9,3.74.95,2.45-2.9,3.44-4.06,2.3,8.1,1.49,5.26,5-1.38,6-1.63,5,4.82,3.13,3,3.44-2.53,6.3-4.65,1.27-.94-.06.14-3.95,9.19-2.34,5.42,5.5.65,14,1.66-5.55,5.24L431,306.12l5.72,1.93,9,3,1.72.57,1.41-1,3.89-2.87,4.25,9,.76,1.6,1.63.16,7.9.76,7.21,3.77.74.38.75-.06,7.28-.67,5.71,8.26,1.27,1.85,1.91-1.08,9.66-5.45,7.29-3.45,4.56,13.41,1.22,3.58,2.11-3.14L528.8,319l6.6.89,5.3,13.56.49,1.24,1.13-.65,12.46-7.21-8.73,17.79-.27.54.52.21,9.48,3.79,0,0h0l11.25,2.66-2.8,10.6,3.18-10.69,0-.17ZM504.75,146.85l1.63.67L507,146l4.11-10,8.3,13.53.64,1.05.95-.71,4.11-3.06,2.05-1.54,1-.76,1-.8,7.57-5.91,6.37,7.09.24.27-1.29,4.43-6.46,2.73-8.31-1.94-.26-.07-.3.16-5.88,3.08-6.33-5.19-.46-.38-.65.17-8.81,2.24-4.14-5.16ZM396.9,180l2.86-1.65.49-2.93,1.07-6.55,4.58-.54,5.19-.61.1-5,.12-5.94,6.29,1.93,2.78.86,2-1.87,5.89-5.59.66-.62.3-.55,4.34-7.87,2.73-5.18,4.7.92.79.15.58-.1,6.16-1.09,7.26.37,6.38,4.44,1.27.89,1.32-.39,7.57-2.23,4.63,8,1.41,2.45,2.19-1.61,2.93-2.17,5.92,13.35-10.3-.67-3.19-.21.21,3.3.6,9.51v.14l.05.26,1.38,6.9-7.25,2.75-1.68.64-.41,1.88L467.31,192,462.25,197l-.15.15-.22.29-2.61,3.46-8.2-3.24-3.37-1.34-1.76,3.35-3.79,7.23,0,.08-.1.23L440.39,211,435,205.5l-6.25-6.28L427,208.1l-2.6,13.06-.82-.41-7-13.39L412,198.61l-5.3,8.59-6.84,11.08-3.66,2.41-3.35-3.54-1.73-1.83-2.77-.06-1.95,0L377.94,208l1.23-6,5.61-10.82,2.43-6.15.82.13,1.82-1ZM263.59,103.07,262.44,106l0,.1-.12.44-.47,1.82-.52-1.27.3-5.74,1.95,1.39ZM217,304.59l.21-.08.26.16Zm41.42-11.09-4.53,2.57-8.24-2.7-1.56-.5-1.36.33L235.5,295l-2,.49-1.05,1.48-4.82,6.84-4.33,1.75-.86-2.88-.3-1-.85-.47-2.66-1.48-1.14-.64-1.1.53-2.64,1.27.81-2.09.34-.85-.33-.76L213.22,294l-.45-1.06-1.06-.18-3.55-.61-.07-2.66L208,288l-1.37-.31-3.26-.75v-5h-1.67l-3.9,0h-.89l-1,0-1.92-.08-3.7-.5-.25,0-.19,0-3.32.55-.43.08-.29.25-2.4,2.17-1.67-3.45-.26-.52-.52-.13L178,279.5l-2.66-1.94-.44-.33-.49.14-4.63,1.35-2.16-1,0-3.72v-1.2l-.7-1.15-4.49-7.3,3.54,2.63,1.14.84,1.6,0,8,.26.71,0,.87-.26,7.83-2.27,2.54-.74,1-2.72,5-12.95,1.39.06,7.47,9.4,1.47,1.85,2.56.25,8.09.79,2.69.27,2.19-2.09,3.75-3.58,1.88-1.78.94-.9.47-.44.23-.23.37-.36,3.21-3.25,4.19,3.06.83-1.23,5,3.37L235,264.79l20.43-3.39,2.71,3.89-.55.27-2.32,1.14-.89,2.12-2.45,5.86-1.51,3.6,2.25,2.83,7.64,9.62Zm83,25.46-12.18-5.52-.11-1.73,1.93-2.33,1.58-1.72,5.87,1.1.11,1.5.22,3.05,2.33,1.53,6.29,4.13-.59,2.46Z" style="fill:#c7b299"/><path d="M360.32,224.29c3,6.67,1.65,14-1.92,20.49-.59,1.09-1.25,2.15-1.94,3.2-6.81,8.82-12.51,17.37-22.1,21.7-.93.58-1.86,1.11-2.81,1.62a54.41,54.41,0,0,1-5.86,2.69,51.27,51.27,0,0,1-12.6,3.08,48.51,48.51,0,0,1-11.5-.1c-1.24-.15-2.47-.35-3.66-.46-11,1.68-19.58-6.88-26.24-13.73-.93-.72-1.82-1.46-2.68-2.23a48.68,48.68,0,0,1-15.8-29.17c-.33-1.2-.64-2.41-.91-3.63-2.46-10.92-2.26-22.18,3.24-32.27,6.42-12.11,17.82-19.6,30.57-22.87,1.27-.32,2.56-.61,3.84-1,8.37-6.11,18.35-3.26,27.43,1,1.26.35,2.49.71,3.71,1.11s2.42.84,3.6,1.32a56.48,56.48,0,0,1,8.24,3.93c.67.38,1.32.78,2,1.2,11.9,6.74,26.16,16.72,24,32.28.17.74.33,1.49.47,2.24s.26,1.51.36,2.28.2,1.54.27,2.32.14,1.59.19,2.41S360.27,223.41,360.32,224.29Z" style="fill:#412312"/><path d="M360.32,224.29c-.05-.88-.11-1.74-.17-2.57s-.12-1.63-.19-2.41-.16-1.56-.27-2.32-.22-1.53-.36-2.28-.3-1.5-.47-2.24c1.75-12.4-6.95-21.24-16.57-27.74,8.3,6.26,15,14.49,13.49,25.54.17.74.33,1.49.47,2.24s.26,1.51.36,2.28.2,1.54.27,2.32.14,1.59.2,2.41.11,1.69.16,2.57c3,6.67,1.65,14-1.92,20.49-.59,1.09-1.25,2.16-1.94,3.2-6.81,8.82-12.51,17.38-22.09,21.7-.94.58-1.87,1.11-2.82,1.62a53.54,53.54,0,0,1-5.86,2.69,51.27,51.27,0,0,1-12.6,3.08,49.05,49.05,0,0,1-11.5-.09c-1.24-.16-2.46-.35-3.66-.47-5.5.84-10.38-.87-14.73-3.65,5.08,4,11,6.89,17.81,5.85,1.19.11,2.42.31,3.66.46a48.51,48.51,0,0,0,11.5.1,51.27,51.27,0,0,0,12.6-3.08,54.41,54.41,0,0,0,5.86-2.69c.95-.51,1.88-1,2.81-1.62,9.59-4.33,15.29-12.88,22.1-21.7.69-1,1.35-2.11,1.94-3.2C362,238.25,363.33,231,360.32,224.29Z" style="fill:#fff"/><path d="M352.58,223.07a43.44,43.44,0,0,1-11.67,29.68c-.9,1-1.85,1.9-2.83,2.8-9,7.68-21.73,15.51-33.94,11.67a21.52,21.52,0,0,1-3.31-1.35c-9.74.64-17.56-4.06-23.32-11.05-.82-1-1.61-2-2.35-3.13a44.27,44.27,0,0,1-10.66-24.45c-.19-1.21-.33-2.42-.42-3.64A38.84,38.84,0,0,1,267,205.47C275.5,186.93,294,178.37,314,179.8c14.26,1.43,25.67,10,32.62,21.26a43.28,43.28,0,0,1,4.4,10.42A43.87,43.87,0,0,1,352.58,223.07Z" style="fill:#1f120b"/></g></svg>