<svg xmlns="http://www.w3.org/2000/svg" viewBox="0 0 556.1 515.08"><g id="a2ba9876-2c15-4fea-bd1e-f9a1a92a8278" data-name="Layer 9"><polygon points="436.07 232.63 459.53 232.66 427.6 197.13 445.14 186.97 483.44 175.71 465 154.86 447.69 138.95 480.08 113.85 430.11 112.14 418.37 102.11 459.05 53.46 425.05 56.77 405.84 52.04 401.97 24.95 379.85 27.16 368.43 0 343.28 30.95 326.95 30.85 307.33 5.68 289.43 14.81 268.01 12.6 262.04 42.42 250.15 54.77 253.7 81.61 205.42 61.59 229.43 98.57 175.63 92.18 163.84 111.18 209.52 139.38 161.88 154.86 222.11 199.47 175.09 205.27 160.28 193.98 140.09 145.89 121.27 154.08 118.2 201.47 91.11 180.65 84.12 202.08 62.18 201.7 38.97 204.96 50.35 236.57 33.99 246.16 20.34 259.36 39.56 282.66 10.56 294.26 13.4 312.44 0 331.88 53.11 338.88 45.63 355.91 67.13 361.3 39.61 395.74 62.28 399.26 78.4 404.88 71.13 441.59 75.85 473.24 116.16 428.81 129.84 435.88 144.88 439.2 160.28 435.49 176.9 448.54 201.88 480.46 208.4 438.71 240.51 464.44 225.85 406.94 242.41 443.73 236.86 445.04 275.54 442.91 298.5 443.73 270.29 490.43 281.32 506.73 309.51 498.18 324.59 505.44 352.95 474.67 357.84 508.28 376.58 481.81 389.06 490.4 402.66 482.86 416 480.41 437.17 498.04 462.15 510.41 450.01 459.53 498.44 494.62 488.21 459 524.32 464.55 545.09 453.09 489.22 409.15 556.1 412.31 555.36 391.33 533.23 371.17 517.33 356.1 495.96 345.7 533.92 318.22 518.96 305.63 514.04 288.55 519.01 261.5 495.53 257.59 478.28 250.41 473.51 223.53 437.23 258.06 436.07 232.63" style="fill:#736357"/><path d="M237.89,313.51a80.64,80.64,0,0,1-4.71,27.25,79.78,79.78,0,0,1-3.5,8.29c-14.44,21-33.83,30.67-54.18,42.74a53.58,53.58,0,0,1-9,2,81.41,81.41,0,0,1-27.95-1.59C115,376.49,89.16,357.09,78.46,332a72,72,0,0,1-1.63-9.06,81.34,81.34,0,0,1-.54-9.42A80.38,80.38,0,0,1,88.87,270.2a63.37,63.37,0,0,1,5.39-7.2c20.77-19.06,46.63-22.29,72.26-29.69a68.87,68.87,0,0,1,9.1,1.54A80.82,80.82,0,0,1,237.89,313.51Z" style="fill:#412312"/><path d="M221.6,264.88a80.55,80.55,0,0,1,6,81.29c-14.43,21-33.83,30.68-54.18,42.75a54.24,54.24,0,0,1-9,2,82.52,82.52,0,0,1-18.85,0,80.06,80.06,0,0,1-9.1-1.59c-18.19-12.12-37.72-26.47-50.62-43.93,12.81,18.78,33.52,34,52.69,46.8a81.18,81.18,0,0,0,27.95,1.59,53.58,53.58,0,0,0,9-2c20.35-12.07,39.74-21.76,54.18-42.74a79.78,79.78,0,0,0,3.5-8.29,80.89,80.89,0,0,0-11.58-75.88Z" style="fill:#fff"/><path d="M410.31,151.91a80.52,80.52,0,0,1-17.75,50.54,43.6,43.6,0,0,1-6,6.22c-19.41,6.18-38.81,15.88-57.16,23.45a44.4,44.4,0,0,1-9.36,0,80.76,80.76,0,0,1-55.93-127.78C279.9,72.6,315.46,72.6,345.4,67.45a42.68,42.68,0,0,1,7.72.32c17,2.44,30.73,15.72,39.43,33.56,1.86,2.36,3.59,4.77,5.18,7.26A80.48,80.48,0,0,1,410.31,151.91Z" style="fill:#412312"/><path d="M397.73,108.59c-1.59-2.49-3.32-4.9-5.18-7.26-4.9-10-11.38-18.63-19.14-24.66a72.62,72.62,0,0,1,15.95,22,88.11,88.11,0,0,1,5.18,7.26,80.81,80.81,0,0,1-5.18,93.85,43.63,43.63,0,0,1-5.95,6.23c-19.42,6.18-38.81,15.88-57.16,23.44a43.1,43.1,0,0,1-9.36,0,80.43,80.43,0,0,1-41.23-17.32,80.45,80.45,0,0,0,44.42,20,44.4,44.4,0,0,0,9.36,0c18.35-7.57,37.75-17.27,57.16-23.45a43.6,43.6,0,0,0,6-6.22,80.85,80.85,0,0,0,5.17-93.86Z" style="fill:#fff"/><path d="M483.21,355.91A90.92,90.92,0,0,1,456.5,420.4q-3.09,3.09-6.48,5.89c-18.18,21.32-47.27,27.79-76.39,19-3-.61-5.89-1.35-8.81-2.16-36.43,4.51-46.13-21.35-56.85-51.69q-1.73-4.1-3.06-8.38a91.31,91.31,0,0,1-4.1-27.12,92.46,92.46,0,0,1,.47-9.32c-11.68-50.92,36.81-80,81.41-81.5a38.26,38.26,0,0,1,7.63-3.33c18-5.58,37.26,3.7,52.68,18.53q3.64,2.46,7,5.25A91,91,0,0,1,483.21,355.91Z" style="fill:#412312"/><path d="M472.55,313.14a91.2,91.2,0,0,1-18.18,103q-3.09,3.11-6.47,5.89c-18.18,21.33-47.28,27.79-76.4,19-3-.6-5.89-1.35-8.8-2.15-24.46,3-36.86-7.65-45.62-24.16,8.89,18.9,21.24,31.69,47.74,28.41,2.92.81,5.84,1.55,8.81,2.16,29.12,8.82,58.21,2.35,76.39-19q3.39-2.79,6.48-5.89a91.18,91.18,0,0,0,16.05-107.26Z" style="fill:#fff"/><path d="M221.73,313.51a65,65,0,0,1-.6,8.77c-5.89,28.35-35,34.81-55.31,55.12a47.56,47.56,0,0,1-8.73.75,65.13,65.13,0,0,1-8.77-.59,61.84,61.84,0,0,1-8.47-1.78c-21.59-21.92-60.39-51-42.32-87.43a48.31,48.31,0,0,1,3.89-7.44c23.3-17.57,45.93-27.27,72.85-29.72a63.68,63.68,0,0,1,8,2.76A64.67,64.67,0,0,1,221.73,313.51Z" style="fill:#1f120b"/><path d="M391.49,151.91A61.74,61.74,0,0,1,383,183.19c-15.84,15.49-38.47,25.19-61.94,30.1a56.92,56.92,0,0,1-8.06-1.61,62,62,0,0,1-39.65-86.1C283.13,92,315.46,88.77,344.6,87.32a34.84,34.84,0,0,1,7.75,1.07c15.91,4.57,27.45,21.14,34.26,39.4a61.06,61.06,0,0,1,4.88,24.12Z" style="fill:#1f120b"/><path d="M469.53,355.91a77.2,77.2,0,0,1-17,48.48,75.85,75.85,0,0,1-5.68,6.33c-18.21,20.73-47.31,33.66-72.57,20.69q-2.67.6-5.17,1c-38.26,5.82-47.38-28.11-52.54-58.69A75.78,75.78,0,0,1,315,365a77,77,0,0,1-.52-9c0-3.06.15-6.09.31-9.15-18.75-47.86,29.75-67.25,68-68.52a35.14,35.14,0,0,1,7.83-5.3c18.35-8.75,39.44,5.71,49.84,22.35,2.21,1.91,4.33,3.81,6.33,5.81A77.28,77.28,0,0,1,469.53,355.91Z" style="fill:#1f120b"/></g></svg>