<svg xmlns="http://www.w3.org/2000/svg" viewBox="0 0 1000 1000"><g id="b9161c0d-89b4-48a5-96d1-05f7ff52e8ab" data-name="Layer 1"><polygon points="305.06 410.79 300.94 391.76 289.3 424.09 285.89 417.97 281.98 390.77 275.71 385.67 269.79 389.49 268.62 416.42 262.33 409.54 259.53 416.74 255.93 419.88 243.58 404.37 251.69 430.24 246.63 429.65 228.5 412.36 242.95 437.99 241.99 442.47 223.9 431.15 214.82 430.39 198.38 425.81 195.5 431.72 195.29 438.9 205.07 449.91 205.8 455.88 226.31 467 221.44 469.78 195.27 470.1 194.1 475.68 183 481.25 209.24 486.26 207.13 491.24 183.69 500.6 190.15 505.64 223.87 501.02 194.05 517.28 226.02 508.69 228.93 511.63 209.6 528.95 229.26 521.16 229.44 526.59 223.5 538.62 226.02 543.69 230.36 546.9 238.55 544.44 234.12 561.59 240.65 562.03 255.99 540.95 256.72 551.46 265.07 539.32 263.01 568.13 270.41 556.82 275.65 552.92 280.24 556.9 285.79 569.16 291.51 569.07 291.68 538.98 297.88 548.01 304.8 554.85 315.85 568.9 323.1 569.9 321.39 553.94 320.15 542.22 316.53 529.59 342.39 553.78 344.58 547.22 325.99 522.56 357.09 541.97 329.31 515.28 356.37 526.87 346.66 515.53 340.2 507.56 372.05 514.25 371.61 507.57 375.02 502 339.02 490.55 338.75 486.51 340.63 482.56 367.63 485.01 361.84 461.07 369.74 479.33 380.28 493.98 373.52 461.03 382.71 469.58 393.16 476.08 378.73 449.06 392.41 458.3 402.98 461.04 413.51 461.52 397.26 445.05 426.01 453.15 408.36 439.76 427.03 439 428.08 432.4 411.74 424.94 399.87 420.34 424.25 413 402.14 411.67 409.98 404.52 421.33 393.87 390.94 403.27 410.24 385.73 415.64 373.52 402.29 376.84 403.92 365.63 395.55 365.79 392.69 357.94 384.8 358.9 368.58 386.97 366.38 381.35 363.95 370.85 359.98 348.73 354.5 380.81 350.48 380.8 344.05 371.6 342.99 383.59 325.27 354.97 337.19 389.19 326.78 381.15 310.52 370.15 332.24 399.53 310.29 386.74 305.22 390.19 322.51 405.27 312.68 405.43 305.06 410.79" style="fill:#9b9b9b"/><path d="M286.21,434.62c9.41-.14,19,3.25,24,10.79.6.52,1.19,1,1.76,1.58s1.36,1.3,2,2c7.13,5.3,18.87,8,11.3,19.33.19.94.43,1.86.65,2.79a47.86,47.86,0,0,1-3.53,31.57c-.41.93-.84,1.83-1.28,2.8-1.68,10.19-9.31,14.15-17.71,17.66-.81.47-1.63.91-2.47,1.34a47.7,47.7,0,0,1-15.86,4.78c-.8.09-1.61.16-2.44.24-9.27,3-18.77,5.16-25.35-2A21.21,21.21,0,0,1,253.7,522c-10.79-8.15-20.55-17.62-21.26-32.15-.14-.94-.27-1.89-.38-2.86a47.74,47.74,0,0,1,51.12-52.63Z" style="fill:#414042"/><path d="M286.21,434.62l-3-.26a47.6,47.6,0,0,0-36.41,12.85,47.53,47.53,0,0,1,34.68-11.29c1,.08,2,.18,3,.25,9.4-.13,19,3.26,24,10.8.6.52,1.19,1,1.76,1.57s1.36,1.31,2,2c7.13,5.29,18.87,8,11.31,19.33.18.94.42,1.86.64,2.79a47.9,47.9,0,0,1-3.52,31.56c-.41.93-.85,1.83-1.29,2.81a18,18,0,0,1-5.07,10.15,18.18,18.18,0,0,0,6.81-11.71c.44-1,.87-1.87,1.28-2.8a47.86,47.86,0,0,0,3.53-31.57c-.22-.93-.46-1.85-.65-2.79,7.57-11.35-4.17-14-11.3-19.33-.66-.68-1.33-1.34-2-2s-1.16-1.06-1.76-1.58C305.24,437.87,295.62,434.48,286.21,434.62Z" style="fill:#fff"/><path d="M370.17,394.8c6-.82,9.83,2.72,13,7.3.53.76,1,1.56,1.54,2.38,6.93,8.31,11.32,20,3.49,28.84a25.38,25.38,0,0,1-1.23,2.3c-6.34,12-18.78,21.31-31.44,11.51-.77-.26-1.53-.56-2.26-.88a26.74,26.74,0,0,1-14.17-15.09c-.3-.81-.56-1.63-.78-2.47-2.8-2.59-4.19-5.15-4.58-7.61a9.22,9.22,0,0,1-.05-2.46c3.67-8.46,10-17.52,18.57-21.56a22.61,22.61,0,0,1,2.39-1c4.32-2.08,9.12-.38,13.74-1.27Z" style="fill:#414042"/><path d="M285.38,441.28c6.14.7,11.94,2.54,16.72,6.46.69.47,1.38,1,2,1.47s1.52,1.18,2.25,1.81c7.48,4.24,13.7,10.18,12.27,19,.28.92.53,1.86.74,2.8a41,41,0,0,1-79.15,20.91c-.27-.92-.52-1.86-.74-2.8-.49-1.44-1-2.9-1.44-4.35-.23-.72-.44-1.45-.62-2.17.41-9.8,3.56-21.61,10.35-29.9q.84-1,1.77-2c9.28-8.11,21-19.57,33.9-11.74Z" style="fill:#231f20"/><path d="M370.42,398.14c3.88-.38,6.61,1.63,8.74,4.42.43.56.83,1.16,1.21,1.77,6,9.74,11.84,18.65,4,28.25a24.12,24.12,0,0,1-1.33,2.22c-5,9.4-15.17,17-24.85,9.3-.84-.26-1.67-.53-2.48-.85A23,23,0,0,1,342.27,429c-.26-.8-.5-1.63-.77-2.48a14.63,14.63,0,0,1-2.31-2.1,8.38,8.38,0,0,1-1.38-2.09c-1.23-9.42,6.42-16.89,14.08-21.9,1.53-1,3.06-1.91,4.55-2.7,3.93.55,8.17-.86,12.14.43Z" style="fill:#231f20"/><polygon points="477.18 139.9 478.92 143.78 466.32 146.61 465.87 149.94 448.75 150.36 464.32 156.47 476.75 163.25 465.29 163.78 464.13 167.05 460.77 169.41 445.67 166.07 438.54 165.39 439.1 168.5 438.37 170.98 448.52 181.19 444.73 182.24 443.73 185.36 452.42 197.52 450.1 200.46 446.64 202.2 426.87 184.4 445.11 212.29 428.73 195.88 434.95 211.17 425.98 203.01 427.15 212.13 420.35 205.97 410.46 190.41 417.59 216.94 417.03 227.09 405.1 197.92 408.28 224.48 402.59 213.88 397.41 199.52 396.24 216.4 392.24 201.49 389.54 224.42 386.19 216.63 384.7 195.03 380.71 206.87 376.06 216.39 376.86 197.02 366.88 224.47 365.81 215.18 359.23 223.16 358.24 215.46 350.53 223.53 363.1 190.73 344.32 218.2 346.47 207.5 346.22 201.77 344.31 198.84 331.9 208.58 326.99 208.15 323.92 205.51 330.11 194.35 343.53 178.49 324.84 189.55 325.73 184.58 326.91 179.79 319.16 180.53 314.98 178.72 329.11 168.07 333.39 163.15 323.41 163.97 333.15 157.68 331.96 155.34 330.5 153 305.87 154.64 309.91 150.37 299.99 147.72 297.42 143.91 302.48 139.9 306.21 136.26 303.71 132.4 308.3 129.21 320.33 127.69 305.59 121.29 333.37 124.84 307.95 114.17 304 108.75 307.2 105.78 317.63 106.36 314.66 100.91 327.96 104.34 322.28 97.04 341.77 106.46 319.69 86.28 341.43 99.53 336.33 91.14 335.72 86.06 341.9 87.9 340.21 81.11 346.77 84.14 358.15 95.03 340.24 62.53 345.98 64.46 352.1 67.98 359.65 75.79 354.29 54.78 361.75 63.52 371.21 81.78 369.16 63.83 377.27 84.63 375.93 62.66 379.3 62.09 381.6 48.89 386.28 65.11 389.54 79.13 392.9 63.01 396.31 62.57 399.13 67.14 404.62 54.34 401.92 84.14 412.89 52.75 416.2 55.35 413.75 73.39 413.71 81.54 421.48 71.41 431 60.29 425.42 77.75 424.15 85.56 428.66 84.03 430.11 87.02 440.7 78.93 439.49 85.39 439.48 89.97 450.32 84.2 438.22 99.06 436.78 103.67 462.85 88.55 461.58 94 454.78 102.24 447.74 109.61 471.16 101.82 446.52 116.31 447.98 118.63 449.25 121.07 457.9 121.58 443.36 127.95 450.88 129.07 446.67 132.35 447.92 134.78 450.44 137.22 477.18 139.9" style="fill:#9b9b9b"/><path d="M431.22,139.06a52.57,52.57,0,0,1-2.31,14.19c0,1.06,0,2.1,0,3.12-.47,11.11-4.43,19.63-17.83,19.51-.92.57-1.87,1.11-2.84,1.62a42.38,42.38,0,0,1-47-5.47c-.82-.7-1.62-1.44-2.38-2.21-12.17-5.09-15.55-16.38-12.4-29.92,0-1,0-1.94.1-2.9a42.19,42.19,0,0,1,12.3-27c.76-.77,1.56-1.5,2.36-2.25,5.79-7.33,11.43-13,20.57-9.75.61,0,1.21-.06,1.82-.09a44.07,44.07,0,0,1,5.18-.31A42.19,42.19,0,0,1,418.67,110c.77.76,1.51,1.56,2.24,2.34,9.27,5,11.52,15.17,10.4,24.67C431.29,137.69,431.25,138.38,431.22,139.06Z" style="fill:#414042"/><path d="M419.28,110.68l.18.11c-.26-.27-.52-.55-.79-.82s-.56-.54-.84-.81Z" style="fill:#414042"/><path d="M424.6,114.91c4.79,5.44,5.94,13.13,5.08,20.44,0,.7-.06,1.4-.09,2.08a53,53,0,0,1-2.31,14.19c0,1.06,0,2.1,0,3.11-.47,11.12-4.43,19.64-17.83,19.52q-1.4.85-2.85,1.62a42.36,42.36,0,0,1-47-5.47c-.82-.7-1.62-1.44-2.38-2.21a23.33,23.33,0,0,1-6.62-4.11,22.26,22.26,0,0,0,8.25,5.74c.76.77,1.56,1.51,2.38,2.21a42.38,42.38,0,0,0,47,5.47c1-.51,1.92-1.05,2.84-1.62,13.4.12,17.36-8.4,17.83-19.51,0-1,.05-2.06,0-3.12a52.57,52.57,0,0,0,2.31-14.19c0-.68.07-1.37.09-2.08C432.26,128.9,430.76,120.36,424.6,114.91Z" style="fill:#fff"/><path d="M426.36,132.45c-3,7.45-.7,17.6-3.69,25.51a23.25,23.25,0,0,1-.93,2.51c-2.49,5.57-7.25,9.38-15,10.23-.88.51-1.79,1-2.71,1.43A35.7,35.7,0,0,1,368.17,169c-.83-.59-1.63-1.21-2.41-1.86-14.59-5.84-21.36-14.87-12.61-29.88.08-.87.17-1.72.29-2.56a35.68,35.68,0,0,1,8-17.83c.66-.77,1.35-1.52,2.06-2.25,3.45-13.14,13.61-14.27,25.23-10.43,1,0,2,0,2.92.11A35.6,35.6,0,0,1,414,114.67c.71.72,1.4,1.47,2.06,2.24,2.86,4.93,13,6.06,10.53,13.42C426.52,131,426.46,131.69,426.36,132.45Z" style="fill:#231f20"/><polygon points="251.49 690.4 251.88 697.81 234.84 702.75 250.67 712.69 252.44 721.07 249.29 728.2 251.37 737.79 245.63 743.89 223.35 738.36 216.74 741.23 225.58 757.75 217.67 760.11 210.66 762.71 204.47 765.91 200.33 772.39 197.06 781.89 187.43 778.13 184.49 792.52 171.93 773.3 165.92 776.07 159.86 781.98 153 793.25 145.91 784.91 137.41 793.89 131.34 785.27 121.41 792.8 118.12 779.26 111.61 776.34 98.26 785.18 100.02 768.1 92.81 765.87 90.28 757.99 86.83 751.79 76.69 751.26 77.82 741.65 60.67 743.71 54.24 737.97 73.74 721.5 65.71 717.33 66.49 710.15 72.75 702.52 63.44 697.12 70.17 690.4 47.26 682.49 44.57 674.08 72.07 671.92 57.69 661 54.22 651.63 79.41 654.98 79.67 648.08 71.54 634.86 71.55 625.44 81.61 624.16 96.07 629.04 85.11 605.28 95.78 606.49 101.72 601.6 116.36 614.3 119.67 605.48 126.91 605.85 129.76 588.56 138.98 597.44 145.16 585.68 153 583.99 159.87 598.68 166.92 598.05 174.12 597.88 178.22 608.63 189.84 596.54 187.96 617.77 207.8 595.51 209.53 607.48 209.46 619.59 225.68 612.07 212.24 635.44 223.95 633.82 240.75 630.56 231.35 645.17 240.99 648.03 234.07 658.59 235.21 665.04 239.94 670.55 242.27 676.94 260.2 682.38 251.49 690.4" style="fill:#9b9b9b"/><polygon points="208.81 669.05 226.2 670.87 223.07 679.38 224.81 686.72 220.25 694 216.41 700.52 208.63 705.37 209.1 712.01 210.19 719.63 212.03 728.84 199.23 727.94 194.52 732.02 191 737.44 184.41 738.87 181.43 746.35 176.87 752.81 167.84 746.12 164.75 765.13 156.95 767.43 149.62 753.44 141.99 759.39 135.31 756.11 130.62 748.49 118.49 757.94 115.56 747.91 106.61 747.55 98.6 744.68 103.63 730.29 96.33 727.11 84.28 725.31 99.45 710.88 84.68 708.63 96.45 699.28 86.19 693.83 95.97 687.35 89.88 680.34 84.66 672 86.15 664.65 87.62 657 103.86 658.4 99.83 647.25 105.82 643.12 116.74 645.53 113.61 629.6 120.32 626.09 131.63 634.55 134.47 620.96 142.69 624.87 149.57 623.51 156.93 616.91 164.45 618.63 171.5 621.68 173.63 636.83 179.37 638.78 184.21 642.48 192.96 641.18 205.58 637.93 207.73 646.18 214.64 650.47 210.35 661.25 208.81 669.05" style="fill:#c1c1c1"/><path d="M197.79,690.4a44.51,44.51,0,0,1-.41,6c-.13,1-.3,2-.5,2.95-5.88,13.82-13.88,28.82-29,33.06-.92.31-1.85.6-2.79.86a44.44,44.44,0,0,1-11.83,1.59c-1,0-2,0-3-.1a27.39,27.39,0,0,1-3-.42,37.31,37.31,0,0,0-16.41-5.75,15.31,15.31,0,0,1-2.44-1.33,44.38,44.38,0,0,1-8.06-7q-.9-1-1.74-2a115.23,115.23,0,0,1-9.8-27.91c0-1,0-1.92.07-2.88a44.52,44.52,0,0,1,35.44-40.68,8.51,8.51,0,0,1,2.93-.2c5.75,4.61,11.75,4.61,17.87.95a21.55,21.55,0,0,1,2.79.8A44.47,44.47,0,0,1,184,658.24c.66.62,1.29,1.27,1.91,1.94,5.05,9,8.05,18,11.75,27.33C197.76,688.46,197.79,689.43,197.79,690.4Z" style="fill:#414042"/><path d="M197.7,687.51c-3.33-8.35-6.1-16.47-10.29-24.58,3.69,7.51,6.3,15,9.38,22.76.06,1,.09,1.93.09,2.9a44.62,44.62,0,0,1-.41,6c-.13,1-.3,2-.5,3-5.88,13.82-13.88,28.82-29,33q-1.38.48-2.79.87a44.39,44.39,0,0,1-11.83,1.59c-1,0-2,0-3-.1a26.89,26.89,0,0,1-3-.43,37.51,37.51,0,0,0-16.42-5.74,16.15,16.15,0,0,1-2.44-1.33,44.77,44.77,0,0,1-8.06-7c-.58-.64-1.14-1.29-1.68-2,.29.58.56,1.16.85,1.74q.84,1.05,1.74,2a44.38,44.38,0,0,0,8.06,7,15.31,15.31,0,0,0,2.44,1.33,37.31,37.31,0,0,1,16.41,5.75,27.39,27.39,0,0,0,3,.42c1,.07,2,.1,3,.1a44.44,44.44,0,0,0,11.83-1.59c.94-.26,1.87-.55,2.79-.86,15.09-4.24,23.09-19.24,29-33.06.2-1,.37-2,.5-2.95a44.51,44.51,0,0,0,.41-6C197.79,689.43,197.76,688.46,197.7,687.51Z" style="fill:#fff"/><path d="M191.75,690.45c0,.93-.05,1.88-.12,2.82s-.17,1.89-.31,2.82C186,708.21,180,722.21,167,726.34c-.84.32-1.71.62-2.59.88a38.36,38.36,0,0,1-11.1,1.63c-1,0-1.92,0-2.86-.13-6.43-4.51-11.43-9.51-20.27-7.66a23.16,23.16,0,0,1-2.09-1.64,41.19,41.19,0,0,1-3.8-3.79c-.58-.68-1.15-1.38-1.69-2.1C116,705.21,124,695.22,117,687.22c-2-2-1-7,.63-11.22.36-.89.75-1.77,1.18-2.62a38.51,38.51,0,0,1,26.05-20.5,15.86,15.86,0,0,1,2.75-.4c5.39,2.74,11.39,3.74,16.78,1.17a18.65,18.65,0,0,1,2.6.82,38.54,38.54,0,0,1,14.19,9.47c.65.69,1.28,1.4,1.88,2.15,3.94,7.13,4.94,15.13,8.56,21.65A18.1,18.1,0,0,1,191.75,690.45Z" style="fill:#231f20"/><polygon points="214.27 268.21 223.46 268.23 210.95 254.31 217.82 250.34 232.82 245.93 225.6 237.76 218.82 231.53 231.5 221.7 211.93 221.03 207.34 217.1 223.27 198.05 209.95 199.35 202.43 197.5 200.92 186.89 192.25 187.76 187.78 177.12 177.93 189.24 171.54 189.2 163.85 179.34 156.84 182.92 148.46 182.05 146.12 193.73 141.46 198.56 142.85 209.08 123.94 201.24 133.35 215.72 112.28 213.21 107.66 220.66 125.55 231.7 106.89 237.76 130.48 255.23 112.07 257.5 106.27 253.08 98.36 234.25 90.99 237.46 89.79 256.01 79.18 247.86 76.44 256.25 67.85 256.1 58.76 257.38 63.22 269.76 56.81 273.51 51.47 278.69 58.99 287.81 47.64 292.35 48.75 299.47 43.5 307.08 64.3 309.83 61.37 316.5 69.79 318.61 59.01 332.09 67.89 333.47 74.2 335.67 71.35 350.05 73.2 362.44 88.99 345.04 94.35 347.81 100.23 349.11 106.27 347.66 112.77 352.77 122.56 365.27 125.11 348.92 137.69 358.99 131.94 336.48 138.43 350.89 136.25 351.4 151.4 350.57 160.39 350.88 149.34 369.17 153.67 375.56 164.71 372.21 170.61 375.05 181.72 363 183.63 376.16 190.97 365.8 195.86 369.16 201.18 366.21 206.41 365.25 214.7 372.15 224.48 377 219.73 357.07 238.69 370.81 234.69 356.87 248.83 359.04 256.96 354.55 235.08 337.35 261.27 338.58 260.98 330.37 252.32 322.47 246.09 316.57 237.72 312.5 252.59 301.73 246.73 296.81 244.8 290.12 246.75 279.52 237.55 277.99 230.8 275.18 228.93 264.65 214.72 278.18 214.27 268.21" style="fill:#9b9b9b"/><path d="M136.66,299.89a31.64,31.64,0,0,1-1.84,10.67,31.06,31.06,0,0,1-1.38,3.25c-5.65,8.21-13.24,12-21.21,16.74a22.08,22.08,0,0,1-3.52.77,32.52,32.52,0,0,1-7.38,0,32.46,32.46,0,0,1-3.57-.62c-9.22-6.15-19.34-13.74-23.53-23.57a27.43,27.43,0,0,1-.64-3.55,32.07,32.07,0,0,1-.22-3.69,31.48,31.48,0,0,1,4.93-17,24.94,24.94,0,0,1,2.11-2.82c8.13-7.46,18.26-8.73,28.3-11.63a27.84,27.84,0,0,1,3.56.6A31.66,31.66,0,0,1,136.66,299.89Z" style="fill:#414042"/><path d="M130.28,280.85A31.64,31.64,0,0,1,134,309.44a28.85,28.85,0,0,1-1.37,3.24c-5.65,8.22-13.25,12-21.22,16.74a21,21,0,0,1-3.51.78,32.61,32.61,0,0,1-7.39,0,29.75,29.75,0,0,1-3.56-.63c-7.12-4.74-14.77-10.36-19.82-17.2,5,7.35,13.12,13.32,20.63,18.33a32.46,32.46,0,0,0,3.57.62,32.52,32.52,0,0,0,7.38,0,22.08,22.08,0,0,0,3.52-.77c8-4.73,15.56-8.53,21.21-16.74a31.06,31.06,0,0,0,1.38-3.25,31.69,31.69,0,0,0-4.54-29.71Z" style="fill:#fff"/><path d="M204.18,236.61a31.5,31.5,0,0,1-7,19.79,17.4,17.4,0,0,1-2.33,2.43c-7.61,2.42-15.2,6.22-22.39,9.19a17.92,17.92,0,0,1-3.66,0,31.65,31.65,0,0,1-23.68-47.33c.55-.94,1.14-1.84,1.77-2.71,6.17-12.45,20.1-12.45,31.82-14.47a16.65,16.65,0,0,1,3,.13c6.67,1,12,6.15,15.45,13.14.72.92,1.4,1.87,2,2.84A31.51,31.51,0,0,1,204.18,236.61Z" style="fill:#414042"/><path d="M199.25,219.64c-.62-1-1.3-1.92-2-2.84a27.3,27.3,0,0,0-7.5-9.66,28.51,28.51,0,0,1,6.25,8.6,34.84,34.84,0,0,1,2,2.84,31.64,31.64,0,0,1-2,36.75,17,17,0,0,1-2.33,2.44c-7.61,2.42-15.2,6.22-22.39,9.18a16.6,16.6,0,0,1-3.66,0,31.42,31.42,0,0,1-16.15-6.78,31.57,31.57,0,0,0,17.4,7.85,17.92,17.92,0,0,0,3.66,0c7.19-3,14.78-6.77,22.39-9.19a17.4,17.4,0,0,0,2.33-2.43,31.66,31.66,0,0,0,2-36.76Z" style="fill:#fff"/><path d="M232.73,316.5a35.6,35.6,0,0,1-10.46,25.25c-.81.81-1.66,1.58-2.54,2.31-7.12,8.35-18.51,10.88-29.91,7.43-1.17-.24-2.31-.54-3.45-.85-14.27,1.77-18.07-8.36-22.26-20.24a32.18,32.18,0,0,1-1.2-3.28,35.56,35.56,0,0,1-1.61-10.62q0-1.86.18-3.66c-4.57-19.94,14.42-31.33,31.88-31.91a15,15,0,0,1,3-1.3c7.05-2.19,14.59,1.44,20.63,7.25,1,.64,1.87,1.33,2.75,2.06A35.63,35.63,0,0,1,232.73,316.5Z" style="fill:#414042"/><path d="M228.55,299.75a35.67,35.67,0,0,1-7.11,40.33c-.81.81-1.66,1.58-2.54,2.31-7.12,8.35-18.51,10.88-29.92,7.43-1.16-.24-2.3-.53-3.45-.85-9.57,1.19-14.43-3-17.86-9.46,3.48,7.4,8.32,12.41,18.7,11.13,1.14.31,2.28.61,3.45.85,11.4,3.45,22.79.92,29.91-7.43.88-.73,1.73-1.5,2.54-2.31a35.69,35.69,0,0,0,6.28-42Z" style="fill:#fff"/><path d="M130.33,299.89a25.77,25.77,0,0,1-.23,3.43c-2.31,11.11-13.7,13.64-21.67,21.59a18.25,18.25,0,0,1-3.41.29,24.44,24.44,0,0,1-3.44-.23,24.76,24.76,0,0,1-3.32-.69c-8.45-8.59-23.64-20-16.57-34.24a19.33,19.33,0,0,1,1.53-2.92c9.12-6.88,18-10.67,28.53-11.63a24,24,0,0,1,3.12,1.08A25.31,25.31,0,0,1,130.33,299.89Z" style="fill:#231f20"/><path d="M196.81,236.61a24.12,24.12,0,0,1-1.91,9.44,25.36,25.36,0,0,1-1.4,2.81c-6.21,6.06-15.07,9.86-24.26,11.79a22.39,22.39,0,0,1-3.16-.64,24.28,24.28,0,0,1-16.77-30.47,23.85,23.85,0,0,1,1.25-3.24c3.82-13.15,16.48-14.42,27.89-15a13.93,13.93,0,0,1,3,.42c6.23,1.79,10.75,8.28,13.42,15.43a24.16,24.16,0,0,1,1.91,9.45Z" style="fill:#231f20"/><path d="M227.37,316.5a30.24,30.24,0,0,1-6.67,19,30.69,30.69,0,0,1-2.22,2.48c-7.13,8.12-18.53,13.18-28.42,8.1-.7.16-1.37.28-2,.38-15,2.28-18.55-11-20.57-23a29.95,29.95,0,0,1-.8-7c0-1.2.06-2.39.12-3.59-7.34-18.74,11.65-26.34,26.63-26.83a14.11,14.11,0,0,1,3.07-2.08c7.19-3.42,15.45,2.24,19.52,8.76.87.74,1.69,1.49,2.48,2.27A30.27,30.27,0,0,1,227.37,316.5Z" style="fill:#231f20"/></g></svg>