<svg id="sherlock" data-name="Layer 1" xmlns="http://www.w3.org/2000/svg" viewBox="0 0 650.18 1080.23"><defs><style>.a086081b-c884-42ab-99ab-2381859c2cce{fill:#1f110b;}</style></defs><title>sherlock</title><path class="a086081b-c884-42ab-99ab-2381859c2cce" d="M609.82,845.06a94.35,94.35,0,0,1-54.15,17.12,93.26,93.26,0,0,1-39.87-8.89c-26.9-12.54-62.37-62.24-71.26-142.26-17.78-26.67-4.45-35.56-4.45-44.45,0-27.78-12.67-58.68-31.29-71.13-6.94-4.57-9.38-7.91-17.61-8.89-.26,5,0,8.89-4.44,13.34-22.27,22.27-9.69,40.63-8.93,72.61a32.53,32.53,0,0,0,.74,5.81c6,28.82-27.51,37.16-31.82,37.16-35.53,0-72.28-37.05-108.63-27.47a11.73,11.73,0,0,0-4,2.1c-4.64,3.54-11.33,6.9-7.36,38.71,3.36,26.83-1.6,63.11,4.45,93.35,48.9,84.46,115.58,190.63,115.58,222.27,4.44,26.67-15.07,35.56-46.68,35.56a80.43,80.43,0,0,1-13.11-1.07l-.08,0q-12.12-3.33-23.88-7.76C246.1,1062.84,88.24,919.39,0,895.56V30.89C29,9.15,141.72-.23,162.26-.23c126,0,229.91,80.82,244.85,185.2v0l29.78,36.59,69.88,85.93s34.94,37.38,41.92,51.52S368,330.87,364.52,346.51c-8.89,40,75.57,80,88.91,146.7,3.86,19.31-65.63-2.11-75.57,17.78-4.45,8.89,0,22.24,4.44,31.12,4.45,4.44,9.32,10.59,8.89,17.78-.31,5-4.13,3.82-4.44,8.89l-.27,4.67c58.06,4.22,66.95,30.89,89.18,84.24,9,2.93,26.67,22.23,13.33,48.9,0,6.67,4.45,66.68,26.67,80,9.57,5.74,13.34-57.79,22.23-66.69,0-17.78,93.35-17.78,112.29,13.61C649,751,636.13,826.79,609.82,845.06Z" transform="translate(0 0.23)"/></svg>