<svg id="efe58d72-4316-47cb-9f62-58b4a3e080cf" data-name="Layer 1" xmlns="http://www.w3.org/2000/svg" viewBox="0 0 612 792"><title>wood</title><g id="b804c807-3466-461b-8945-274b0beae045" data-name="Vector wooden texture backgrounds. vector layered."><rect x="-44.31" width="661.89" height="824.03" style="fill:#935022"/><path d="M-12,753.68q6.16,31,12.18,56.69h-6.3c-1.95-8.8-3.91-18-5.88-27.62V753.68ZM617.58,75c-7.21,63.27-17.76,144.81-30.25,207.91,0,0-13.12,49.31,10.68,123.31,0,0,14.11,46.93,19.57,137V691.82c-2,36.24-5.47,75.79-11,118.55H598c36.36-267.68-4.1-410.29-4.1-410.29C571.35,328,582.18,275.26,582.18,275.26c12.42-64.5,29.46-168.9,35.4-231.45V75ZM486.68,810.37h11.7c-15.63-60.1-36.25-169.58-19-285,5.25-35.12,15.47-69.28,28.94-104.27,0,0,34.63-63,59.83-173.11a1461.69,1461.69,0,0,0,34-248H598.3c-7.46,267.27-95.18,426.3-95.18,426.3-56.9,143.76-36,298.69-16.44,384.07ZM592,616.16c2.89-23.85.64-52.24-2.22-79.93-5.09-49.38-15.94-96.58-30.2-112C546.38,409.89,526.92,445,509.54,501c-1.85,6-5.4,12.16-7.14,18.56-19.09,69.94,1.78,177.52,28.33,232.32,11,26.31,20.42,27.12,27.8,25.63,26.36-5.33,31.48-142,33.48-161.39Zm1.42,0c8.29-66.37-11.14-186.62-35.19-208.74C545.59,395.79,519.85,453,501.13,519.6c-19.67,69.94,2.62,185.41,30,240.21C583,880.05,590.8,641,593.43,616.16Zm-54.76,75.1c4.91,10.37,12,38.88,18.16,15.74a384.63,384.63,0,0,0,7.83-40.64c4-19.43,4.65-41.42,7.27-61.24,4.22-32,0-60.16-10.4-89.11-12.26-46.82-35.4,9.8-41.5,29.9-13.18,38.48,1.25,108.67,18.64,145.35Zm-1.11,2.44c5.31,10.74,13,40.26,19.62,16.31a388,388,0,0,0,8.46-42.09c4.29-20.11,5-42.89,7.84-63.41,4.56-33.14,0-62.3-11.23-92.27-13.24-48.48-38.22,10.15-44.81,31C503.2,583,518.79,655.73,537.56,693.7ZM408.44,810.37h-6.67c8-101.39,16.91-171,39.45-236.13,11.59-33.52,23.65-62.26,33.26-96.9C492.59,412,526.74,277.61,538,156.14c0,0,8.27-79.95-10.66-156.14h11.09C552.18,72.61,545,142,545,142c-11.84,127.1-47.89,267.74-67,336.09-10.15,36.25-22.88,66.32-35.12,101.4-23.71,68-27.79,127-34.38,230.89Zm99.08-628.62c-5.71,88.74-89,474.06-134.59,235-18.3-96-77.22-215.41-59.55-316C320,63.33,331.37,26.56,333.43,0H345c-3.82,27.42-19.74,61-29,112.24-17.19,94.61,40.12,207,57.92,297.26,44.35,224.91,125.35-137.59,130.9-221.07,3.3-49.52-5.53-92.63-21-125.52C472.54,39.05,457.61,20,446.72,0h15.4c7.36,19.09,22.1,42.74,29.1,61.15,12.57,33.05,19.28,74.17,16.3,120.6Zm-20,22.15C483,251.78,416.62,459.68,380.3,330.69c-14.58-51.77-61.52-116.22-47.44-170.48a122.8,122.8,0,0,1,13-32.13c13.7-23,29.68-53.63,49.86-54.86,8.17-.49,13.53,10.3,22.36,15.23A211.05,211.05,0,0,1,451.27,111a107.51,107.51,0,0,1,15,15.29c15.16,19.45,24.24,46.28,21.27,77.57Zm-2.44,1.75c-4.4,44.95-68.68,240.13-103.87,119-14.12-48.6-59.6-109.11-46-160a113.48,113.48,0,0,1,14.63-33.7c11.82-17.93,26.52-39.68,43.37-41.88,18.26-2.39,43.58,16.92,57.63,27.79a85.6,85.6,0,0,1,11.81,10.79c16.2,18.39,25.44,47.06,22.4,78ZM463,208.56c-2.77,28-46.29,149.64-71.59,74.18-10.16-30.3-42.24-68-33.07-99.75,8.47-29.29,21.12-43.14,39.25-57.37,7.37-5.78,16.44,3.62,29.32,12.16,11.8,7.83,24.93,23.22,30,31.92,5.74,9.91,7.46,25.5,6.13,38.86Zm-1.76.7c-2.94,26.14-45.91,139.64-69.42,69.22-9.44-28.27-39.84-63.45-30.72-93.07,8.53-27.72,19.45-45.24,41.48-51.08,6-1.61,13.24,5.19,21.47,11.52,12.82,9.88,26.77,16.62,31.82,33.36,2.78,9.21,6.62,19,5.37,30Zm-28.81,9.55c1-13.16-11.51-25-23.45-26.18-9.29-.94-13.5,4.13-19.37,15.42-5.64,10.86,8.37,27,12.93,38.16,11.35,27.89,29.09-17,29.89-27.4Zm-2.74,2.95c2.33-19.14-30.95-28.84-38.39-7.72-3.38,9.59,8.37,21,12.08,30.14,9.24,22.81,25.27-14,26.31-22.42Zm104.61-63.41c-1.52,27.14-13.59,113.79-34.13,206.56-12.55,56.74-27.22,115.77-47.66,164.89-9.09,21.86-17.47,49.26-24.92,78.84-17.58,69.8-30,151.74-34.58,201.73h-1.55c3.86-48,17.6-133.77,35.85-206.25,7.32-29.06,15.55-56,24.49-77.44,20.07-48.25,34.48-106.24,46.81-162,20.17-91.13,32-176.23,33.52-202.89,3.27-58.15-.52-113.93-14.36-160.57-.12-.41-.25-.83-.39-1.25h3.77C534,46.42,537.47,101.26,534.26,158.35Zm-112.09,652c2.82-52.81,9.6-137.91,25.06-183.45,0,0,.39,29.74-.58,91.32,0,0-.59,50.25,6.67,92.13h-1.84c-8.36-47.92-7.17-123.21-7-163.62C431.87,690.09,426,765,423.54,810.37Zm-271.29,0c6.26-35.4,12.3-71,17-106.76,6.65-50.8,11.54-101.91,17.95-152.76q2.56-20.36,5.31-40.8c6.07-68.21,10-136.76,10.77-205.26.67-60.93-1.15-122.22-7.19-182.85-3.93-39.4-8.94-83.1-17-121.94h-7.58c3.51,12.69,6.7,25.73,9.17,39.57,15.25,85.5,21.45,182.15,20,277.73-1.26,80.53-7.9,163.42-15.41,236.45-5.23,50.91-11.14,98.9-18.64,149.55-5.31,35.8-10.64,71.5-17,107.07ZM260.46,0h3.79c1.29,19.06,4.22,44.11,4.52,62.17a588.84,588.84,0,0,1-12.27,127c-2.82,13.43-5,21.14-5,21.14-26.08,74.34-43,187.86-53.8,299.24C186,629.53,181.41,747,179.88,810.37H177.4q1-34.22,2.56-68.43c1.75-39.74,4.51-79.47,7.19-119.15,3.08-45.45,6.22-90.87,10.91-136.18,2.18-18.6,3.6-37.33,6.71-55.79,5.4-32,9.19-64,13.67-95.74,3.95-22.67,8.41-45.29,13.7-67.67,6.22-26.29,16.85-51.56,22.43-77.94A556.48,556.48,0,0,0,266.14,90.8,509.52,509.52,0,0,0,260.46,0Zm-15,0c4.61,42.91,7.11,88,2.41,128.6-4,34.09-12.69,79.31-21.51,119.47-7.19,32.68-11.53,12.87-12.11-7.81-1.43-51.2-4.4-108.49-11.07-165.11-1.86-15.79-1.55-32.54-4.71-47.94C196.52,17.82,196.11,9,191.73,0h7.63c5.25,9.27,6.88,19.9,8.22,30.76,1.48,11.94-1,25.19.17,37.59,5.52,57.55,8.12,118.89,9.21,172.48.27,13.22,4.35,13.52,5.89,7.53,10-39.18,19.07-85,22.82-124.57,3.85-40.5.15-82.66-5.13-123.79Zm97.3,810.37c1.84-72.07-.08-150.77-5.05-218-6.37-86-14.79-139.93-29.7-210.86-3.93-18.66-6.4-42.78-11.25-58.88-24.9-82.74-37.52-79.7-42.67-32.67-1.94,17.64-9.76,25.09-14.61,56.63-7.73,50.16-13.87,86.45-20.78,159.17-3.37,35.51-16.58,114.77-18.49,150.78-2.83,53.4-2.75,105.45-.49,153.79h2.15c-2.12-46.23-1.5-95.8,1.12-146.62,1.83-35.4,15.68-113.31,18.9-148.21,6.62-71.48,12.5-107.15,19.89-156.46,4.65-31,16.13-40.49,17.29-58.09,3.38-51.05,12.75-49.78,37.55,34.54,4.65,15.81,7,39.53,10.77,57.87,14.28,69.73,22.33,122.76,28.43,207.27,4.66,64.63,6.82,140.11,5.26,209.7Zm-21.41,0h2.36c-.09-105.65-11-221.17-33.11-296.82-9.11-31.11-14.51-60.38-21.46-59.45-8.94,1.18-18.76,41.78-24.43,81.6-9.79,68.78-21.35,177-23.55,274.67h1.42c.8-93.25,12.85-201.38,23-268.31,5.45-36.1,14.89-72.91,23.48-74,6.68-.83,11.87,25.7,20.63,53.9,22.73,73.23,33.1,187.65,31.7,288.4Zm-14.45,0c.65-38.93-3.1-80.7-11.32-116.35-3.2-13.89-4.31-29.35-8.69-40.54-5.71-14.61-11.42-43.8-15.69-44.32-6.24-.78-14.93,34.4-19.43,55.68-7.7,36.38-15.53,94.26-15.59,145.53h2.71c.33-46.81,7.51-99,14.56-132.08,4.22-19.72,12.34-52.31,18.17-51.59,4,.49,9.33,27.53,14.67,41.06,4.1,10.37,5.14,24.69,8.13,37.56,7.49,32.19,11,69.77,10.62,105Zm-14.75,0c-.11-29.5-4.37-61.6-13-82.69-8.15-20-14-13.68-18,6.22-3.8,19.16-8.27,49.22-9.2,76.47h1.65c.78-24.43,4.63-51,8.06-68.94,3.31-17.43,6.34-22.07,16.15-7.4,3.05,4.56,3.88,9.7,5.29,15.22,4.62,18.18,7,40.26,7.13,61.12ZM278.81,0c-2.62,46.08-.84,121.21,17.91,234.31,0,0,47.19,195,48.83,248.81,2.2-.75,10.33,80.56,13.58,177,1.66,49.12,2.05,102.17-.25,150.27h6.53c1.82-49.78-1.78-108.54-3.47-159.08-3.08-92.14-10.78-169.86-12.87-169.13-1.55-51.46-46.24-237.79-46.24-237.79C282,117.56,283.28,40.68,287.46,0ZM124.5,810.37c29.26-150.84,39.58-303.84,52-456.76,2.64-32.59,5.92-73.6,2.47-116.85C173.48,168.08,167.4,80.88,141.36,0h9.17c14.18,72.91,25.6,160.54,31.3,236.64,3.21,42.74,1.67,88.46-1.78,131.23-1.25,15.47-4.06,28.12-5.13,43.54-10.06,144.31-27.17,291.54-46.67,399Zm242.89,0h1.13c6.1-100.67.68-258.18-14.41-348.58C340,377.44,307.38,269.4,294.94,160.9c-5.87-51.14-5.72-113.49.68-155.14.31-2,.63-3.85.95-5.76h-3.13c-6.44,42.41-6.56,105.57-.62,157.41,12.67,110.47,45.92,220.46,60.25,306.33,15,89.64,19.83,244,14.32,346.63Zm-229.32,0H136.7c21.68-124.63,38.07-294.49,48.38-457.73C190.44,267.83,179.73,119,153.88,0H159c24.83,118.1,34.73,261.2,29.41,344-10.7,166.52-27.75,339.86-50.34,466.37ZM-.71,233C-5.57,259.76-9.27,289-12,319.13V267.76C-7.49,237.26-1.33,209,5.52,178.65q4.1-18.09,8.21-33C28.1,93.64,45.52,50.33,35.22,0h6.15C51.46,47.05,31,105.16,18.69,146.57,12.12,168.76,5.74,197.32-.71,233ZM96.68,42.73c7.23-36.31,12.43-63.17,25.32-7.65C152.9,168,146,226.4,146,226.4c3,30.9-14.86-10.88-14.86-10.88-40.58-72-42.32-133-34.41-172.79Zm1.5,5.55c6.78-34,11.66-59.16,23.77-7.17,29,124.52,22.48,179.17,22.48,179.17,2.79,28.94-14-10.18-14-10.18C92.39,142.65,90.75,85.55,98.18,48.28ZM82.71,0C72.3,78.19,74,147.46,85.83,192.88c14.42,55.17,55.33,97.29,60.24,157.41,2.85,34.88,3.73,66.71,2.21,91-8.67,137.88-23.79,282.62-44.3,369.11H98.61c10-34.67,18.93-82.45,26.54-136.88C135,603.17,141.49,521.31,145.23,442c1.17-24.66-.11-56.95-3.35-92.08-5.58-60.54-44.61-100.17-59.52-153C70.51,155,69.28,51.74,76.7,0ZM16.5,359.18c4.66-27.68,10-49.47,14.2-67.18,5.64-23.94,11.44-38.28,18.54-46.42,14-16.06,22.44,40.49,24.81,46.78,10.28,27.26,33.4,56,38.38,90.06,7.29,49.82,11.09,102.17,9.09,135.79-5.16,86.82-13.27,180-23.19,246.44-2.83,19-5.77,34.12-8.9,45.72h2.43c17.85-58.9,28.56-180.1,32-296.54.89-30.24-1.34-74.16-6.53-118.62-1.36-11.72-1-23.11-3.44-34.38-5.51-25.89-29.28-43.33-33.18-67.1-5.61-34.23-34-94.88-37.07-84.32-2.8,9.8.07,16.66-3.65,32-5.43,22.33-16.3,57.21-24.26,108.77C11,382,7.7,418.24,5.73,454.66,1.26,536.87,3.21,620,8.57,655.75c11.21,74.92,22.48,124.7,33.25,154.62h2.72a239.19,239.19,0,0,1-7.4-25.7c-2.55-10.77-10-37.61-12.66-51-5.92-30-10.2-48-14.92-77.56-2-12.69-2.75-31.39-3.83-54.2-.62-13-2.06-27.36-2.13-42.69-.11-24.62.29-51.84,1.45-79.12.37-8.48.67-17,1.17-25.38,2-33.46,5.4-66.51,10.28-95.51ZM53.88,512.44c-5.61,18.74-5,45.19-2.29,53.63,7.32,51.22,13.22,46.41,18.42,17.16,2.09-11.74,5.43-27,6.29-41.83s-6.82-55.86-15.24-52.57c-2.81,1.09-3.58,11.6-7.18,23.61Zm.46,4.91c-5.33,16.58-4.73,40-2.17,47.45,6.94,45.32,12.55,41.06,17.49,15.18,2-10.39,5.15-23.84,6-37s-6.48-49.42-14.47-46.51c-2.67,1-3.4,10.26-6.82,20.89ZM33.08,430.47C22.41,465.64,22,513.25,22.7,551.76a481.48,481.48,0,0,0,5,62.21c4.08,27.63,10.48,51,14.29,69,31,146.43,48.39-8.39,59.32-154.18,2.11-28.14-7.53-82-18.1-123.09-6.34-24.65-11.45-45.24-18.95-51.4-11-9-14.1,20-31.18,76.2Zm1.1,6.62c-10.27,33.17-10.65,78.09-10,114.41A444.11,444.11,0,0,0,29,610.19c3.92,26.07,10.08,48.1,13.74,65.07,29.86,138.12,46.55-7.93,57.07-145.45,2-26.55-7.25-77.35-17.42-116.11-6.1-23.25-11-42.68-18.22-48.49-10.6-8.54-13.57,18.84-30,71.88Zm9.54,43.4C35.65,516.39,37.66,569,40.81,587c3.68,21,8,42.9,13.55,63.19,10,36.65,20.35-8.56,22.42-24.1,2.08-15.7,5.32-35.76,7.91-57,4.83-39.47,2.2-71.16-7.48-109.79-4.49-17.9-7.14-37-13.36-36.65-6,.34-13.76,29.58-20.13,57.87Zm-.81-4.5c-8.44,37.76-6.34,93-3,111.94C43.71,610,48.23,633,54,654.38c10.49,38.52,21.28-9,23.44-25.35,2.18-16.51,5.57-37.6,8.28-59.91,5-41.5,2.3-74.82-7.83-115.43-4.7-18.82-7.47-38.93-14-38.54-6.26.36-14.4,31.1-21.05,60.84ZM-12,611.8v34.7C-.36,718.17,10.81,771.94,21.47,810.37H27.7c-12.17-39-24.87-99.22-37.94-185.48C-10.86,621-11.45,616.58-12,611.8Z" style="fill:#a06026;fill-rule:evenodd"/><path d="M141.77,810.37q7.48-42.3,13.88-84.83,2.78-18.3,5.36-36.63,3.59-28.11,7-56.28c3.28-27.17,6.53-54.41,10-81.78q2.55-20.36,5.31-40.8c6.07-68.21,10-136.76,10.77-205.26.66-60.93-1.15-122.22-7.2-182.85C184,93.16,179,64.44,173.86,36,171.66,24,169.44,12,167,0h-4.72c3.51,12.69,6.7,25.73,9.17,39.57,15.24,85.5,21.45,182.15,20,277.73-1.26,80.53-6.9,160.58-14.41,233.61-6.72,65.39-15,125.17-22.54,174.45-5.18,33.75-10.11,62.59-14.14,85ZM584.65,610.11c7.22-56.3-7.85-139.9-32.85-147.22-13.09-3.83-26.39,10.15-42.71,66.65-17.14,59.34-.16,157.29,23.68,203.78C578,821.61,582.35,628,584.65,610.11Zm-2.11,0c-1,8.08-.9,53.28-7.25,90.38-5.11,29.91-12.17,40.28-19.54,46-4.71,3.64-10.62-.57-16-11.53-3.36-6.86-10.9-15.86-15.21-26.6a294.24,294.24,0,0,1-11.74-38.67c-3.29-14.12-4.46-29.41-6.07-44.38-3.64-33.7-3.27-66.22,4.34-92.59,9-31.17,19.4-52.05,26.3-59.27,5.36-5.61,8-6,13.66-4.36,5,1.46,11.08,9.91,15.07,16.31,15.64,25.13,22.08,80.72,16.43,124.72Zm30.73,200.27c1.45-15.58,2.94-33.4,4.31-52.9v16.38c-1.13,13.53-2.28,25.8-3.36,36.52Zm4.31-323.61q-.65-6.81-1.36-13.56c-8-74.34-38.06-124.18-20.77-202.12,8.72-39.29,16.16-87.93,22.13-139v31.5c-5.29,41.85-11.61,81.3-18.87,114-15.9,71.66,10,118.53,18.87,185.13v24.08ZM541.3,690.46c-19.79-44.32-31.7-109.45-17-146,1.15-2.87,3.64-7.86,6.2-13.31,13-27.8,19.77-43.36,29.35-4.82,2.87,11.59,6.67,24.91,8,36.47,3,25.43-2.2,51.26-4.72,76.61-1.48,14.81-3.23,29.62-5.72,44.32-2.82,16.58-4.36,28.13-8.56,23.79-1.91-2-3.77-8.5-7.61-17.1Zm-.14-12.85c-17.49-38.57-28-95.23-15-127,1-2.5,3.23-6.84,5.48-11.58,11.52-24.19,17.47-37.73,25.93-4.19,2.54,10.08,5.9,21.67,7.09,31.73,2.62,22.12-1.94,44.6-4.17,66.66-1.3,12.88-2.85,25.77-5,38.56-2.5,14.43-3.85,24.48-7.57,20.7-1.68-1.71-3.32-7.4-6.71-14.88Zm56.15-52.69c-2.86,14.86-5.43,169.13-40.08,177.1-8,1.84-14.32-5.61-25.77-23.06-22.1-41-39.22-106.62-41.61-171-1.15-30.86.21-61.77,6.43-86.69,9.9-39.61,26.7-81.23,43.2-115.8,11.29-23.65,20.58-28.82,23.67-17.05,6.78,25.76,15.7,47,23.61,86.66,7.49,37.62,12.1,76.8,12.92,111.92a259.94,259.94,0,0,1-2.37,37.88Zm-1.81-1.38c-2.74,14.24-4.58,166.63-38.45,173.19-7.7,1.49-14.07-8.92-25-25.63C510.84,731.87,494,669,491.7,607.34c-1.1-29.56.66-59.17,6.62-83,4.89-19.57,9.28-39.09,16.73-57.94,4.93-12.46,10.76-26.08,16.79-37.79,2.54-4.94,5-9.51,7.29-14.27,10.81-22.65,20.48-27.07,23.44-15.8,6.24,23.71,15.13,38.61,22.46,73.75.3,1.43,1.89,9.93,2.18,11.42,7.18,36,9.78,69.95,10.56,103.59a249.74,249.74,0,0,1-2.27,36.28Zm13-67.92c2.25,76.28-1.9,181-18.65,254.75h-8.09c.58-1.88,1.15-3.8,1.68-5.76,19.13-69.7,23.86-178.53,21.57-256.15-1.19-40.19-4.16-83.24-12.5-116.1-8.88-35-24.59-73.27-23.22-110.74,1.12-30.88,11.63-71.22,16.38-104.32,1.47-10.2,3.16-21.34,4.52-32C595.7,142.05,604,96.84,607.81,62.05c1.7-15.66,3.51-29.42,5.21-39.65.24-1.47,1.23-2.6,1.43-3.93A143.8,143.8,0,0,0,615.2,0h2.38V4.69c-4,43.37-15.25,127.89-25.41,199.18-5,35.11-14.69,73-15.89,105.72-1.45,39.74,9.52,85.77,19,122.89,8.84,34.84,12,80.51,13.25,123.14ZM607.85,0h3.47c-.43,4.83-.72,9.77-.87,12.46-.27,5.06-3.93,68.1-21.55,170.83-4.72,27.46-10.83,57.76-17.66,90.54-11.1,53.29-42.82,128.46-46.4,135.85-10.11,20.88-24,49.59-34.36,89.05-22.34,84.79-4.94,238.14,25.1,311.64H505.37C478.8,726.7,465.46,584.69,487,502.86c11-41.84,22.79-74.11,33.52-96.25,3.79-7.85,38.58-85.76,50.36-142.28C598.28,132.87,604.17,34.06,607.85,0ZM425.5,810.37c2.1-43,6.83-110.4,16.66-144.42,1,49.39-1.3,98,7.36,144.42h-2.18c-5.67-36.85-6.44-75.3-7.8-114.28-8.41,26.7-10.77,77.83-12.08,114.28Zm-14,0h3c.37-37.61,4-87.15,11.51-141.85,6.61-48.2,27.83-109.23,40.65-141.43,0,0-4.17,20.73-6.58,111.6-.11,4.29-.39,15.93-.47,20.45,0,0,.5,83.5,15.64,151.23h6.45C465.2,738,462.31,648.91,462.31,648.91,464.2,544,477.4,491.29,477.4,491.29,463.71,525.08,430.81,614,423.75,664.57c-7.76,55.57-11.62,106.71-12.22,145.8ZM561,183.33C568.42,148.64,575.75,64.92,576.71,0h-4.58C572.24,50.49,566,140.51,561,183.33ZM479.3,487.43c.51-7.69,4.7-21.57,9-38.2,10.62-40.89,25.55-99.09,30.76-121.73A1375.24,1375.24,0,0,0,548,150.22c4.83-51.55,2.93-99.76-4.94-150.22h7.3c9.08,51.69,7.7,101.66,2.82,153.72-5.2,55.6-13.9,110-26.79,160.43C521.31,334,505.79,388.08,497,424.76c-3.64,15.12-10.3,32.95-12.51,42.3,1.7-8.24,20.56-60.34,38-105.54,5.35-13.89,9.59-31.21,15.07-44.3C552.66,281,566.14,229.28,575.87,161c2-14.18,5.25-30.46,7.07-45.92,4-34.11,5.88-80.12,7.55-115h6c-2,35.06-5.05,75.57-8.79,107.39-2,17.12-5.6,35.14-7.83,50.83-10.77,75.63-25.7,132.89-42.45,173-6.06,14.49-10.34,31.36-16.88,46.34C499,426.91,481.18,478.31,479.3,487.43ZM417.41,217.21c-.5,4.08-7.8,21.79-11.79,10.8-1.61-4.4-6.77-9.9-5.22-14.52,3.4-10.17,18.14-5.5,17,3.72Zm19.59.2c1.92-17.29-16.15-34.63-31.31-34.36-9.72.17-17.12,10.69-21,22.91-4.76,14.21,11.12,31.1,16.06,44.66C413,284.42,435.61,230,437,217.41Zm-1.88,1.69c2-15.6-12.9-29.8-27-29.56-9.05.16-17.79,8.19-21.59,19.22-4.43,12.83,10.33,28.08,14.91,40.32,11.42,30.51,32.27-18.66,33.7-30Zm24-9.18c2.39-21.48-9.78-36.86-25-49.82-10.44-8.86-21-20.55-32.67-19.5-16.66,1.5-31,23.09-38.08,46.24-8.72,28.65,20.36,62.68,29.39,90,22.49,68.12,63.58-41.66,66.4-66.94Zm-2.83,2.2c3.94-35.69-28.36-59.17-56.45-59.53-14.74-.18-27.54,16.95-33.75,37.58-8.21,27.26,19.17,59.65,27.67,85.66,21.18,64.81,59.88-39.65,62.53-63.71Zm35.55-5.34C487,261,417,496.28,378.72,350.29c-15.38-58.61-64.9-131.55-50.05-193,12.52-51.74,47.32-106.78,71-106.74,10.71,0,13.39,13.25,25.09,22,18.67,14,38.56,35.7,49.7,54,12.89,21.19,20.15,48.69,17.37,80.17Zm-2.65-.36c-4.64,51-72.39,272.48-109.47,135.07-14.88-55.16-62.82-123.81-48.44-181.61,7.86-31.62,20.91-56,36.4-71.82,25.88-26.38,22.71-31,50.43-10.23,18.58,13.94,41.51,30.54,53,51.15,11.79,21.14,20.87,46.82,18.08,77.44Zm12,5.75a1266.64,1266.64,0,0,1-26.71,128.14c-27.81,103.89-70.58,205.05-98.73,70.14C367.46,371,352,326.87,338.43,282.16c-9.81-32.39-20.75-72.65-23.6-108.81A189.86,189.86,0,0,1,317,127.72c3.68-22.43,8.79-41.52,14.92-57.5C338.49,53,352.64,21.72,355.7,0h14.13C361,19.26,346.58,43.47,335.08,72.2c-6.44,16.07-11.79,35.52-15.58,58.62-2.19,13.36-4.34,28.39-3.08,44.36a370.71,370.71,0,0,0,8.82,55.13c4.54,18.71,9.13,35,14.05,51.24,13.15,43.47,28.15,86.37,37.33,124.17,28.43,117.11,69.51,25.45,96-68.2,14.06-49.74,24-100.86,27.59-124.6,9.23-61.68-4.3-113-27.46-146.82C458.94,46,438,23.93,422,0h14c9.73,18.71,26.46,42.35,40.38,64.19,22.15,34.77,34,86.35,24.73,148Zm10.07-31.56c2.49-39.3-.73-78.46-8.36-112.5C496.39,39.33,485.23,23.36,474.07,0h12.08c7.27,23.83,18.21,44.56,23.17,67.27a402.15,402.15,0,0,1,8,109.43c-3.81,60.92-42.26,250.62-81.05,327.62-4.51,8.94-15.2,16.75-19.93,23.63-7.37,10.72-8.09,25-14.91,23-7.64-2.32-12.31-22.65-17.86-46.92-3.92-17.16-9.52-38.46-13.89-62-17-91.52-65-202-68.77-302.5C298.55,76.45,313.29,53.7,319,0h7.83c-2.16,22.37-8.37,46.29-12.75,70-4.2,22.71-7.81,45.71-7.68,68.39.55,95.92,48.71,202.36,65.17,290.16,47.3,252.24,133.71-154.31,139.63-247.94Zm18.48-9.89c-1.55,18.49-7.07,66.57-19,124.37-4.56,22.12-13.32,66-18.56,90.17-11.57,53.44-22.41,90.25-41.24,136.52a522.76,522.76,0,0,0-24,72.62c-12.54,50.86-39.35,157.31-43.87,216H372.32c.15-8,.22-19.73.39-23,5.08-96.36-.63-242.33-15.51-330.06-11.45-67.55-37-151.6-52.43-238.27-3.84-21.52-7.62-44.34-9.85-66.68a662.2,662.2,0,0,1-3.05-67.1A646.71,646.71,0,0,1,298.13,0h5.36q-1.71,8.32-3.11,17.34a576.8,576.8,0,0,0-6.89,82.1A596.34,596.34,0,0,0,297,163c2.19,21.15,6.39,42.75,10.16,63.12,7.54,40.79,18.74,80.52,28.14,118.47,9.51,38.38,18.27,74.93,23.93,107.08,10.84,61.63,17.07,99.4,20.51,152.2,3.36,51.44,7.47,48.52,6.67,54-1.43,9.91-.8,48.51,9.94,24.88,9.55-21.05,14.19-78.85,25-100.2,6.31-12.46,13-24.31,16.07-33.39,10.94-32.08,25.14-59.1,35.12-92.82C479.14,434,484.49,411,490.7,383.37c3.38-15,7.28-38.07,10.83-58.06,8.57-48.21,18.79-94.67,23.16-145,4.56-52.43,5-106-7.76-148.34-2.25-7.47-5.32-21.09-8.3-31.95h5.7c1.79,5.23,3.39,10.16,4.51,14,13,44.72,15.48,101.31,10.84,156.71ZM289.28,810.37c-.09-24.93-3.68-52-11.15-69.59-8.61-20.33-14.08-14.22-16.2,5.29-1.63,15-5.2,37.2-6.81,58.29-.15,2-.28,4-.37,6h1.36c1.27-21.79,5.24-45.71,7-61.47,2-18.67,5.73-22.57,14-3.13,7.2,16.86,10.66,41.1,10.76,64.6Zm13.85,0c-1.05-52.7-8.89-109.77-22.35-147.39-12.87-36-14-24.11-22.78,11.21-2.28,9.19-6.44,26.79-8.12,38.77-4.22,30.16-8.07,64.78-9.31,97.41h1.52c1.25-29.88,4.86-61.44,8.81-89,1.6-11.14,5.56-27.51,7.74-36,8.36-32.85,9.45-43.92,21.72-10.43,12.68,34.6,20.13,86.92,21.26,135.48Zm7.95,0c.16-6.37.21-12.82.1-19.31-1-64.34-11.41-132.81-26.14-179.09-12.16-38.24-20.54-44.8-21.85-18.34-.43,8.55-5.38,18.36-8.07,32.51-.82,4.32-4.18,19.82-5.35,24.41-11.26,44.35-17,105.39-17.42,159.82h1.3c.22-51.54,5.74-110,16.86-152.17,1.12-4.27,4.37-18.73,5.16-22.75,2.6-13.2,7.39-22.35,7.8-30.32,1.27-24.67,9.37-18.55,21.13,17.1,14.23,43.15,24.26,107,25.26,167,.12,7.12.05,14.19-.19,21.16Zm9.48,0c.59-83.51-7.32-175.58-24.1-242.62-2.09-8.35-8.82-27.37-14.08-45.1s-9.05-34.19-12.83-33.52C260,490.84,249.43,546.93,247,563c-9.49,61.82-20.75,160.48-22.15,247.42H227c.86-80.23,11.93-172.86,21.21-230.33,2.34-14.52,12.42-65.34,21.53-66.88,3.6-.61,7.21,14.29,12.22,30.36s11.43,33.3,13.43,40.86c16.43,62.4,23.94,148.72,22.91,226Zm10.31,0c.55-24.36-.58-49.88-1-75.11-1-59.1-3.66-119.33-11.32-173.55-5.59-39.57-14.66-75.94-23.66-106.35-8.53-28.82-17.93-89.13-23.67-81.66-12,15.65-22.44,57.78-29.32,105.6-12,83.06-28.6,211.51-28.43,325.61,0,1.81,0,3.64,0,5.46h3.86c-.21-6.42-.33-12.83-.33-19.16-.16-99.26,15.47-211,26.7-283.26,6.47-41.6,16.25-78.24,27.55-91.86,5.39-6.5,14.22,46,22.24,71,8.46,26.46,17,58.1,22.23,92.52,7.19,47.17,9.69,99.56,10.63,151,.45,24.39,1.72,49.09.71,72.38q-.16,3.71-.37,7.37Zm6.68,0c4.59-145.66-5.38-314.12-36.05-420.86-5.34-18.58-8.47-45.12-14.35-65.81C282,305.44,274,282.89,269.6,281.49c-6-1.92-5.18,31.58-13.18,46.78-13.41,25.45-15,52.45-20.19,89.71-7.2,51.57-14.52,125.68-22.84,199-1.44,12.67-6,24.33-7.1,37.18-4.49,52.43-3.52,106-1.61,156.21H207c-1.9-49.16-1.84-92,2.62-144.21,1.06-12.36,4.57-34.82,6-47,8-70.56,15-141.89,22-191.53,5-35.86,6.52-61.85,19.43-86.35,7.7-14.63,8.59-32.68,14.37-30.83,4.2,1.35,10.21,8.86,15.21,26.43,5.66,19.91,8.68,45.46,13.81,63.35,29.86,104,40.29,268.84,35.48,410.16Zm14.92,0h-4.53c.3-20.77,1.21-42.26,1-64.14-.65-66.93-3.1-137.67-9-203.79-7.54-85.05-21.35-166-40.28-227.31-15.13-49-28-73.64-38.24-65.37-7,5.67-9.09,31.07-16.75,57.51a312.58,312.58,0,0,0-8.19,37C231.27,377.48,225.73,417,220,460.63c-8.54,65-19.2,138.24-23.7,210.08-2.93,46.83-2.69,96.41-1.73,139.66h-5c-.91-44,.58-91.36,3.58-139.25,7.67-122.53,27.12-249.19,40.42-333.38,2.2-13.93,6.11-28.1,8.57-39.08,6.09-27.26,11.93-53.17,19.08-59,10.46-8.44,24.73,18.44,40.16,68.45,19.3,62.58,35.43,145.38,43.12,232.14,7.83,88.38,11.76,184.85,8,270.07ZM235.28,0h-4.11a562.1,562.1,0,0,1,6.9,110.65,465.62,465.62,0,0,1-6.2,60.51c-1.26,7.4-2.49,15.46-3.68,23.28-4,26.56-6,0-6.13-8.1-.29-19.72-2.52-41.25-3.56-62.13-.88-17.5-1.81-34.85-3-51.28-.86-12.39,6.78-28.64,6.76-39.73,0-14.17-3.54-22-7.35-33.19H201.49c12.57,8.63,14.94,29.66,13,44-1.35,10-3.7,21.64-3,27.79,4.55,40.24,6.85,85,7.94,125.05.18,6.63-.45,14.57-.49,19.32-.2,29.38,4.69,30.22,11.93-15.41,1.09-6.84,1.54-14.35,2.72-21.23,3.47-20.24,5.86-39.31,6.9-48.43,4.26-37.14.77-90.91-5.2-131.06ZM190.4,529.54c0,21.67-2.73,50.59-4.68,81.14-3.08,48.24-6.12,100.57-8.09,134.92-1.27,22.18-3.67,43.37-5.51,64.77h-2.94c1.42-12.7,3.15-25.44,4.42-38,1.4-13.84,1-27.44,2.14-40.46,2-23.82,13.41-170.62,13-179.44-2.31,14.89-10.93,105.09-15.3,140-5.71,45.59-13.16,95.77-17.15,117.89h-2.57c9.32-50.82,31.89-237.24,36.66-280.83ZM258.9,0a525,525,0,0,1,5.5,57.23,502.85,502.85,0,0,1-12.27,132.52c-8.24,35.85-21.62,69.07-28.5,106.58-2.2,12-4.33,24.06-6.58,35.92-1.52,8-17.09,113.21-18.49,121.29.59-16.68,5.41-130.86,5.61-147.53.38-29.81.42-59.63-.38-89.4-1.1-41-4.4-81.53-9.07-122.13C191.07,62.76,186.74,31,180,0h2.56c2,8.86,4.41,17.63,6,26.63,1.33,7.45,1.88,15.11,3,22.62,2.29,15.27,4.21,30.63,5.95,45.93,4.52,39.58,7.59,79.1,8.65,119,.77,29,0,58.09-.38,87.14-.2,16.25-4.92,118.11-5.5,134.37,1.36-7.88,13.71-101,15.18-108.79,2.18-11.56,4.73-23.28,6.87-35C229,255.37,242.08,223,250.05,188.05,263.2,125.39,265.46,63,256,0h2.87ZM55.78,518.32c-4.68,14.9-4.27,36.77-2.9,44.48,3.72,23.52,7.11,32.05,10,31.42,4.89-1.05,8.28-26.35,10.82-51.42,1.18-11.76-5.2-41.28-11.08-43.32-2.67-.93-2.64,5.35-6.88,18.84Zm.58,3c3.9-12.13,3.87-17.78,6.32-16.95,5.41,1.84,11.28,28.39,10.19,39-2.33,22.55-5.45,45.31-10,46.25-2.7.57-5.81-7.11-9.23-28.26-1.26-6.94-1.64-26.6,2.67-40Zm-9.88-40.6c5.28-24.95,12.87-46,17.85-46.33,5.16-.32,5.74,15.36,9.07,30.4,4.88,22,10.94,51.68,10.79,66.79-.46,48.68-11.59,117.46-21,120.29-5.65,1.7-13.36-32.36-20.77-77.25-2.62-15.86-2.64-62.23,4.07-93.9Zm1.42,8.5c4.81-21.56,11.73-39.76,16.26-40,4.7-.27,5.23,13.27,8.27,26.27,4.44,19,10,44.65,9.83,57.7-.43,42.05-10.57,101.47-19.14,103.92-5.15,1.46-12.18-28-18.92-66.74-2.39-13.7-2.4-53.77,3.7-81.12Zm-23-86.84c11.7-57.46,15.73-110.52,26.85-113.68,7.44-2.11,7.07,15.46,14.17,31.31,4.26,9.51,8.71,18.68,13,27.88,7.1,15.33,13.65,30.73,17.8,47.88,11.26,46.47,16,100.85,14.13,129.24C98.71,712.69,65.55,923.21,19.2,631.32c-6.15-38.67-10.06-151.74,5.67-229Zm2.36,9c7.31-43.18,15.07-65.13,16.64-82.12,1.35-14.57,3-27,9.67-18.31,9.85,12.69,13.82,28.7,19.94,43.35,6,14.42,13.81,27.84,17.93,43.5,11.33,43,18.34,97.64,16.35,128.52C96.44,702.24,65.36,899.55,21.91,626c-5.75-36.24-9.42-142.21,5.32-214.58ZM12,313.34c5.9-29.69,10.82-50.07,16.31-65.64,2.77-7.87,6.42-46.19,14.4-78.94,6-24.85,5.06-27.26,8.63,1,2.57,20.31,8.53,45.53,12.18,50.47,8.78,11.9,13.15,32.17,24.47,67.4,7.89,24.55,29.3,46.19,33.5,74.22,4.76,31.76,7.67,63.54,8.17,90.83.74,40.23-1,94.49-6.21,134.3,3.18-48.51,5-93.42,3.66-134.09a716.72,716.72,0,0,0-9.2-89.09c-5-30.41-23.7-45.24-32.88-67.3-1.19-2.85-7.91-36.79-17.59-58.91C61.2,223.33,48,187.94,46,192.19c-3.67,7.73-6.07,6.08-6.58,13-1.89,25.35-4.33,34.42-10,59.3-3.52,15.36-9.49,35.63-14.6,61.33C-4.4,422.2-4.45,561.66,2.1,622.52c3.27,30.38,9.15,60.81,14.42,90.59,7.47,42.2,14.64,75.59,21.85,97.26H36.44C29,788.2,21.54,753.7,13.8,710,8.4,679.48,2.38,648.31-1,617.19-7.68,554.87-7.62,412,12,313.34ZM-.46,261.1c-5.21,28.53-9,59.81-11.55,92.09v31a1016.69,1016.69,0,0,1,14.29-112c4.88-26.7,8.82-49.29,13.94-69C17.85,197,37.67,134.73,45.86,80.16c5.27-35,4.7-59.19,2.65-79.53h-5C54.74,45,23.4,158.88,11.06,195.82,3.2,219.32,2.54,244.73-.46,261.1ZM66.61,0h7.91c-8.17,60.77-9.94,118.75.09,179.67a263.39,263.39,0,0,0,15.92,56.15c16.71,40.91,42.27,71.92,46.79,117.38,4.83,48.59,5.77,94.87,3.91,127-1,16.74-2,33.59-3.17,50.41-6.64,98-22.58,205.51-40.25,279.72H96c17.76-71.15,32.53-182.51,39.16-280.32,1.09-16.1,1.77-32.22,2.69-48.23,1.88-27.3,1.65-65.24-1.64-105.92-2.5-31.1-11.05-50.11-25.25-77.85-6.63-13-10.81-29.56-16.62-43.55-9.81-23.62-19.86-46.93-24.88-73.26-9.15-48-6.91-104.76-3.67-153,.64-9.58.17-19,.85-28.23ZM-12,598.85c1.45,11.85,3.13,22.87,4.66,32.89,4.86,31.9,9.19,63,15.81,94.32,6.14,29,13.14,57.26,20,84.31h1.77c-7.53-29.24-15.55-58.44-21.46-91C5.16,699.57,1.53,679-1.77,658.13c-2.49-15.72-4.84-31.61-6.55-47.48C-10.25,592.86-11.32,575-12,557v41.81Zm0,67.65c10.54,60.62,20.51,108,30.11,143.87h1.53C9.46,773.71-.73,724-12,658.05v8.45ZM110.66,810.37h-2.94c16.81-75.17,29.51-192.44,38.5-312.74,4.08-54.51,6.72-107.52,1.79-162.43-2.52-28.06-14.84-49.57-27.37-71.89-12.87-22.93-25-46.62-32.41-72.09-6.23-21.38-9.06-43.62-9.29-72.54C78.65,83.23,81.81,33.47,84.54,0h6.19c-3.94,30.05-10,79.45-9.42,116.62.42,28.12,3.45,50,9.66,71.13,7.67,26.11,20,50.59,33.08,74.2,11.91,21.44,23.63,42.29,26.12,70,5.05,56.25,2.28,110.59-1.89,166.43-8.89,118.84-21.3,234.79-37.62,312ZM24.72,0C29,24.79,28.47,53,19.36,83.52c-12.56,42.13-29,77-31.37,124.36v14.8c.25-1.28.5-2.57.77-3.84C-3.3,160.18,9.92,130.27,24.94,86.33,33.34,61.75,34.58,29.54,30.16,0Zm78.09,56.35c3.26-16.14,5-32.48,8.44-29.47,2.06,1.81,3.11,9.14,5.73,27,2.54,17.37,10,27.2,12,40.89,4.29,29.6,16.76,110.19-13.07,57.94-11.24-19.67-14.53-35.08-16.88-51.48-2.54-17.75,1.39-32.84,3.83-44.92Zm-3.42,4.53c4.18-21.09,7.28-45.67,10.72-42.19,2.06,2.09,8,6.93,10.62,27.61,2.54,20.08,9.07,42.31,12,58,6.32,34.6,17.72,114,5,108.89-4.22-1.72-11.33-16.6-21.9-40.64C105.64,149.4,101.31,132,99,113.07c-2.55-20.52-2.33-38.29.42-52.19ZM-12,729.1c1.22,6.09,2.21,12,2.81,17.65,2.44,22.78,8.82,44.91,14.25,63.62H9.66C.52,778-6.37,748-12,716.6v12.5Zm132.73,81.27h-3.81c23.1-100.3,35.25-267.91,46.66-421.85,1.53-20.61,5.06-48.27,7.17-75.65,2.36-30.68,1.87-61.68.22-92.37C167,145.85,153.58,67.78,128.71,0h9.78c19.73,67.36,30.39,142.16,34.7,214.29,3.34,55.89,3.33,111.7-4.76,167.23-9.07,156.89-25.15,323.29-47.71,428.85ZM-2.13,0H2.5C9,50.49-2.91,72.78-12,96.44V71.27C-5.26,60.47,2.23,37.84-2.13,0Z" style="fill:#ac7029;fill-rule:evenodd"/><path d="M-12,700.72c7.44,43.12,16.45,80.12,24.06,109.65h4.58C14.82,805,12.38,798.66,11,793.2,3.74,765.47-5.79,725.87-12,682.46v18.26ZM116.77,86.77a50.91,50.91,0,0,1,3.09,10A143.22,143.22,0,0,1,122.17,121c.16,11.13-3,14.39-11.12-2.43-2.59-6.56-3.3-13.45-4.3-20.38-.85-6-1.22-11.29.32-16.14,5-15.77,6.29-3.83,9.7,4.76Zm-.14,9.57c-3.26-8.78-10.07-12.84-6.88,1.35.48,3.32-.47,7,1,10,9.15,19.15,10.71-4.54,5.91-11.32Zm7-1.49c-1-5.36-8.24-17-9.87-26.48-2.18-12.74-4-13.54-7.6-.08a58,58,0,0,0-1.75,11.34,56.75,56.75,0,0,0-.62,19c1,7.24,1.78,14.26,4.49,21.11,1.64,4.17,3.93,9.54,6.71,13.07,21.7,27.48,12.17-26.7,8.64-37.93ZM105.09,62.09c-1,10.21-6.46,22.11-4.33,37,1,7.29,1.75,14.48,4.68,21.82,33.11,83.2,32.38,12.12,20.87-26.37-3.35-11.21-7.89-17.11-10-31.65-4.39-33.35-9.16-21.93-11.2-.77ZM617.58,417.46c-10.23-48.13-22.42-90.43-10.47-148,3.75-18.05,7.24-38.08,10.47-59.41v39.91c-.55,3-1.09,5.87-1.65,8.74-8.07,41.59-4.55,75.32,1.65,108.9v49.91ZM509.12,391.14c21.61-71.34,24.08-90.2,36-149a774.15,774.15,0,0,0,13.11-97.74c2.89-43.15,3-100.93-2-144.38h10.31c2.6,38.78-.66,87.19-2.88,124.23-3.43,57.26-14.74,123.28-27.42,177.74,15.32-56.23,33-129,40.84-200.45,3.71-33.79,2.83-67.6,2.67-101.52h5.72C585,39.78,584,79.1,579.12,118.78,572.89,169.5,563,220.72,549.87,267.52c-11.7,41.73-37.94,113.18-40.75,123.62Zm26.19,241.69c-8.21-27.51-11.1-57.47-3.59-79,.71-2,2.23-5.54,3.79-9.38,8-19.6,12.06-30.57,17.9-3.4,4.12,19.2,4.11,31.14,4.86,49.74.4,10.05,1.28,19.91.41,30-1.68,19.48-11.73,51.06-23.37,12Zm3.55-17.42c4.69,34.75,15.82.24,13.82-13.45-2.31-15.75-4.49-36.26-4.26-46.91-.39-4.57-1.22-11.52-2.42-19.18-.86,2.73-1.58,5.1-2.11,6.9-5.93,18.62-8.68,45.68-5,72.64Zm41.68-6.65c9.5-76-26.75-217-67.75-71.4-14.81,52.58,1.4,139.38,22,180.57,39.1,78.24,43.78-93.33,45.77-109.17Zm-4.64,1.55c8.64-68.78-23.58-196.36-60.81-64.6-5.56,19.7-6.16,47-2.88,72,3.38,25.8,11.71,48.3,17.91,66.34,9.07,26.37,15,40.29,22.39,40.19,12-.15,14.84-45.81,23.39-114Zm12-2.7c3.83-31.46-2.37-71.35-8.72-104.45s-15.11-51.93-28.66-51.51c-12.31.39-25.34,16.67-42.19,70.48-16.19,51.68-6.71,127.08,10.45,180.68,4.35,13.59,8.93,25.91,13.83,36,24.13,43.92,36.84,14.38,43.82-27.25s10.34-94.69,11.47-103.94Zm2.07.24c4.07-33.42-1.87-75.76-8.61-110.91C574.84,462.89,567,433.27,553.45,432c-3.39-.32-7.54,1.31-12.33,6.69-12.43,13.94-15.6,21.05-23.15,41.9q-5.69,15.71-11.84,36.5c-20.41,68.87.16,177.42,25.79,230.1,8.74,18,16.41,26.26,22.62,26.61C582.88,775.42,588,624.47,590,607.85ZM600.07,628c5.64-41,4-97.28-4.12-152-4.33-29.07-15.12-56.87-20.86-82.28-5.47-24.16-9.59-46-13-62.68-1.56-7.7-7,18-18.32,44.68-16.5,38.95-41,93-52.86,136.71-18.53,68.52-6.23,187.31,17.26,260.23a237.42,237.42,0,0,0,15.55,37.74H545.9c-9.4-6.65-19.51-24.18-30.5-51.73-9.52-23.89-20.27-55.17-24.66-86.92-7.57-54.73-8.16-113.37,2.95-153.42,7-25.25,15.44-54.21,27.05-81.15,7-16.17,17.28-31.53,23-45.11,23.49-55.61,24,3.29,36.56,38.89,5.87,16.58,10,35.27,12.82,53.73,7.73,50.59,11,102.59,5.68,140.43-1,8.83-2.43,51.95-8.17,95.14-1.76,13.22-2.06,26.07-5.24,38.43-7.29,28.25-15,45.23-23.26,51.71h17.13c15.35-59.43,19.07-167,20.8-182.35ZM430.63,810.37c0-26.68,1.33-59.42,6.79-78.18a295.58,295.58,0,0,0,2.19,51.29s.16,12.27,1.31,26.89Zm-14.29,0h2.76c1.39-59.3,8.23-151.37,35.14-215.08,0,0-2.69,25.71-3.93,101.36,0,0-.77,62.17,8.66,113.72h11.17c-1.11-6.07-2.12-12.26-3-18.49C456,716.2,451.74,629.05,462.17,553.12c-34.54,71.12-43.7,184.87-45.83,257.25Zm25.89-594.44c-1.84,15-28.72,80.22-43.43,39.77-5.9-16.24-24.92-36.46-19.22-53.48,4.71-14,15.28-23.69,26.44-24.36,18.59-1.12,38.81,16.85,36.21,38.07Zm9.76-3.41c3.69-33.71-18.27-49.88-48.78-55.75-12.25-2.36-27.74,18.2-33,35.73-7.44,24.86,17.38,54.38,25.08,78.1,19.21,59.1,54.28-36.15,56.69-58.08Zm29.9-5.74C477.7,250,416.53,437.45,383,321.12c-13.44-46.69-56.73-104.81-43.75-153.75a122.46,122.46,0,0,1,5.82-17c11.67-27.14,30-53.78,50.45-54.75,16.62-.8,24.61,10,36,17.45,12.2,8,26,16.82,34,28.15,12,17.09,18.84,39.63,16.32,65.56Zm-12.07.41c2.19-20.42-3.89-39.12-14.63-52.28-4.09-5-6.37-11.31-10.85-16-6.54-6.8-15.59-11.6-23.89-16.22-14.57-8.11-27.81-4.33-34.6,2.46-15,14.94-15.42,17.57-25.08,33a79,79,0,0,0-8.63,19.65c-10.71,36.4,25,79.63,36.1,114.37,27.64,86.54,78.12-52.94,81.58-85.06ZM495.63,201c-4.16,49.24-50.72,226.76-89.27,219-10.8-2.18-21-19.69-29.53-57.32-10-44-37.55-95.81-49.44-145.22-5.89-24.49-7.59-48.91-2.44-71.62,4.68-20.66,12.06-45.6,23.56-65.12,7.4-12.57,20-37.76,33.48-53.25,20.93-24,22.11-7.44,35.29,10.75a260.72,260.72,0,0,0,31.55,35.39C478,101.33,500,148.8,495.63,201Zm-1.37-1.59c-3.93,47.8-48.49,211.7-86.43,204.14-10.62-2.12-21.14-10.77-29.53-47.29-9.82-42.7-37.91-93-49.61-140.92-8.27-33.87-4.88-57,3.33-81.77,8.51-25.65,23.59-53.91,44.42-81.13C393,30.73,401,40.66,416.73,54.05c8.95,7.62,18.32,16.53,27.64,25.07,29.84,27.32,54.08,69.34,49.89,120.27Zm5.77-5.14c-5.27,71.57-82.22,382.33-124.34,189.52-16.91-77.4-71.35-173.73-55-254.84,4.34-21.53,9.4-40,16.79-54.6C352.58,44.5,359.77,32.24,383.22,0h9.08c-17.94,26.12-37.05,55.94-49.13,77.09-10.27,18-16.47,38.36-20.84,58.6-16.18,75,35.92,165.67,53.67,236.86,42.62,171,117.55-111.24,122.51-175.28,4.36-56.24-16-103.91-44.37-131.81C442.83,54.32,418,17.94,410.76,0h9.55c8.4,17.07,31.59,47.7,40.76,58.78,25.51,30.81,43.11,79.17,39,135.47Zm22.45-35.9C525.91,97.42,518.22,43.45,503.84,0h-5C514.38,43.44,523,98.56,519.42,161.25c-.81,14.38-1.92,35-5.4,59.11-13,90.06-43.83,231-74.95,298.66-6,13-15.45,14.25-23.56,32.35-9.18,20.52-11.31,30.24-17.41,27.63-9.51-4.08-13.43-40.6-20.34-78.77-2-11.31-6.82-23.57-9.21-37.92C355.34,383.15,322,291.51,306.1,201.89c-7.83-44.14-11.8-87.94-6.29-129.23C303.2,47.25,312.26,34.55,314.25,0h-8.58c-1.18,14.45-4.47,36.19-6.86,51.72-20.36,132.41,47.53,289.69,68.61,416,2.47,14.75,5.56,27.35,7.66,39C382.18,546,386.21,639.8,396,644c6.27,2.69,11-42.73,20.43-63.82,8.32-18.6,17.7-38.53,23.85-51.89,40.52-88.08,78.27-299.88,82.21-369.93Zm-237.82,652c.2-21.08-2.32-44.36-8.2-59.12-6.66-16.73-10.76-11.71-12,4.33-1.09,14.07-4.82,35.59-5.71,54.79H260c.86-16.44,4.16-34.75,5.14-46.76,1.13-13.87,4.84-18.21,10.86-3.75,5.26,12.62,7.55,32.45,7.43,50.51Zm13,0h-3c-.7-32.85-5.07-68.35-13.74-92-4.08-11.15-7.63-19.1-10.32-19.36-4.48-.43-8.41,14.87-12.28,31.09-6.53,27.31-8.49,54.86-8.14,80.32h-3.71A395.52,395.52,0,0,1,259.57,703c7.94-29.77,11.26-46.52,20.93-12.73,9.11,31.85,17,78.69,17.17,120.13Zm17.72,0c1.4-65.35-3.81-138.21-16.39-194.91-5.34-24.06-13-47.59-20.87-69.64-3.43-9.58-6.66-16.63-9.42-17-8.07-1.09-14.53,34.74-19.55,65.16-8.89,54-19.51,141.47-20,216.4h2c.55-69.36,10.64-150.13,19.09-200C252,600,253.93,590,255.88,581.42c9.19-40.27,16.14-25.79,23.67-3.08,5.83,17.57,14,33.46,18.21,51.95,11.94,52.38,16.92,119.64,15.64,180.08Zm18.85,0a1603.29,1603.29,0,0,0-3.63-165.83C326,584.46,320,524.91,310.41,472.37c-4.5-24.76-11.06-47.19-15.37-68.81-8.39-42-15.33-67.18-23.43-67.59s-18.34,24-26.33,57c-2.56,10.6-2.67,23.48-4.66,37.73C235.73,465.7,232,509,226.5,556.15c-4.52,39.1-10.92,80.92-13.62,123-2.87,44.48-4.25,89.22-3.84,131.27h2.66c-.55-41.7.76-86.32,3.62-130.66,2.6-40.3,8.73-80.38,13.06-117.87,5.24-45.24,11-85.41,15.63-118.92,1.91-13.66,2.44-26.87,4.89-37,7.66-31.72,17.06-46.43,24.83-46.05s8.12,15.46,16.16,55.72c4.14,20.73,12.11,42.23,16.41,66,9.15,50.37,17.51,107.46,21.89,165.05a1550.9,1550.9,0,0,1,4,163.8Zm22.48,0c1.19-23.52,2-47.68,2.13-72.66.35-66.18-3.77-136.6-9.52-201.49-8-89.93-23.77-174.72-42.74-240.65C299,269.1,282.76,189,277.52,106.69c-2.6-40.81-3.11-80.94-3-106.69h-8.06c1.56,26,6.83,74.73,3.19,114.06-2,21.69-2.72,43.93-7.57,64.67-15.64,67-31.4,119-35.7,147.5C219.93,369,211,422.15,204.28,480.11c-7,60.72-11.8,126.74-15.87,191.73-2.88,46.1-6.31,95.07-6.11,138.53h4.16c-.09-1.83-.16-3.67-.2-5.54-1-42.68,2.36-98.58,5.28-145.15,3.73-59.56,10.49-120.09,16.94-175.75,6.16-53.13,14.46-101.84,20.36-141a734.3,734.3,0,0,1,17-83.12c2.25-8.46,5.66-17.35,9-26.63,5.78-16,11-49.48,13.95-53.79,2.08-3,2.35-38.47,3.75-38.3,6.11.76,8.26,61,11.5,70.91,13.58,41.65,16.14,81.67,20.89,98.16,17.39,60.44,33.48,142.33,41.14,224.65,3.91,42,7.58,86.78,8.88,130.83,1.21,41.08.75,83.16.53,124.25-.06,12.32-.49,17.4-1.11,20.53ZM226.73,0c3,34.53,7.81,61.59,8.31,83.3.14,6.18-1,102.16-9.79,47.13-2.59-16.29-5.47-43.2-4.68-59.65.37-7.73,4-12.64,6-23.83,1.81-9.89-4-37.78-6.73-46.95Zm27.51,0c7.13,44.58,6.72,91.42,1.45,136.13-2,17.23-4.8,34.43-8.36,51.25-1.31,6.17-2.73,12.66-4.43,18.69-13.49,39.75-22.77,83.64-30.16,125.79-1.4,8-6,42.87-7.26,50.95.55-16.67,2.68-60.13,2.87-76.8.71-61.54.35-123.58-5.72-184.67-2.09-21.14-4.72-42.36-8-63.45-1.54-9.88-2.07-20.26-3.93-30.06a203.86,203.86,0,0,0-7-27.83h4.63c4,9.88,6.6,21.17,8.33,31.93,1.91,11.9,1.88,24.27,3.47,36.42,7.08,53.91,9.94,109.73,11.57,160.36.62,19.19.73,38.94-.62,59.09-1.29,19.45,1.31,31.32,8.26-.18,5.22-23.71,10.14-45.36,17.66-78,1.63-5.81,4.17-16.5,5.43-22.43,3.43-16.19,6-33.57,8-50.14a576.63,576.63,0,0,0-.62-137ZM175.31,710.9q-.72,14.75-1.37,29.48c-1,23.17-5.15,46.6-8.1,70H159.3q8.73-49.53,16-99.47Zm-117-181.44c-1.28,14.5-2.09,22.92,1.85,36,2,6.46.34,15.18,1.32,16.6,3,4.24,7.13-16.72,8.82-39.84.94-13-9-46.47-12-12.79Zm-9.45-27.35c2.82-11.55,3.93-22.14,7.32-30.77,10.21-26,10.32-2.77,13.38,9.1,5.13,19.84,11.37,47.4,11,59.32-1.22,37.22-8.89,87-16.94,89.13-4.82,1.26-10.48-24-16.81-57.23-2.24-11.74-3.66-46.09,2.07-69.55Zm2,7.12c2.42-9.61,3.71-12.35,6.28-19.7,3.13-9,4.74-11.76,6.35-11.11,2.69,1.07,4.43,5.72,6.22,12.78,4.21,16.57,8.66,39.45,8.32,49.37-1,31-7.62,69.9-14.52,71.64-4.14,1-9-17.42-14.42-45.09-1.93-9.78-3.15-38.37,1.77-57.89ZM33.94,457.47c7.31-34.42,19-84,26.05-87.38,8.86-4.32,7.13,6,15.07,33.86,11.07,38.83,22.9,104.6,21.3,128.33C91,611.6,79.7,721.48,63.56,715.73c-8.16-2.91-21.73-51.65-32.07-114.05-4.07-24.61-8-95.08,2.45-144.21Zm2.94,9.63c6.54-28.88,17-70.46,23.31-73.32,7.93-3.63,8.55,16.38,15.65,39.76,9.9,32.59,18.58,76.47,16.9,96.35-5.23,61.89-16.07,149.05-26.35,157.76a2.6,2.6,0,0,1-2.65.24c-7.31-2.44-19.79-47.38-29.05-99.75-3.64-20.66-7.16-79.8,2.19-121ZM19.63,370.18c13.62-69.8,23-115.61,35.86-116.47,6.66-.45,9.92,16.78,12.22,31.11,5.3,33.1,31.6,69.21,38.51,112.45,7.4,46.3,13.42,93.75,11.59,123.32C113.12,596.7,107.85,681,97.08,737c-5.32,27.7-9.14,54.15-16.21,73.33H52.65C40.19,788.05,26.71,732.73,13,642.71,10.16,624,7.13,585.94,6.29,544.9,5.13,488.67,9.64,421.38,19.63,370.18Zm6,5.75c10.36-62.62,13.78-74,20.11-91,2-5.34,9.07-11.66,13.16-5.75,5.26,7.6,9.67,29.49,13,36.26,12.09,24.67,30.68,66.65,35.46,106.45,4.49,37.37,9.29,72.84,7.9,94.87C110.81,588,105.77,666.92,95.5,719.41c-4.11,21-7.78,34.08-15.72,51.81-6.84,15.29-6.08,25.4-16.94,22C52.16,790,32.43,741.94,15.24,631.1c-2.72-17.52-5.61-53.16-6.42-91.58C8.39,519,9,496.9,10.41,474.76c2.19-34.54,10.37-69.27,15.26-98.83Zm-21-85.83c2.76-13.88,8.5-48.51,11.17-61,8-37.48,20.37-80.56,29-114.78C49.73,94.88,53.26,31.71,50.49,0H63.58c-2.68,22.13-4.42,55.72-2.93,97.85,1.07,30.11,1.56,60.89,5,83,4.4,28.34,20.9,54.5,26.88,83.54,6.38,31,29.7,53.41,34.74,83.29,8.58,50.83,9.58,99.85,7.64,130.84-.86,13.71-1,27.44-1.76,41.18-1.88,34.79-4.33,69.6-7.87,104.13-7.65,74.68-18.82,142.3-30.95,186.54H92.75c1.06-2.92,2.1-6,2.94-8.92,1.18-4.14,1.14-8,2-10.92,7.8-26.85,11.57-63.24,17.27-106.78,6.8-51.94,13.62-113.63,16.45-165.93.68-12.62.64-26,1.43-38.58,1.88-30-.34-78.23-9.18-127.61-4.3-24-29.52-55.48-36.83-86.17C80,236.83,66.33,211.2,59.74,183.15c-5.67-24.1-6.85-48-8-59.43C33.77,177.3,26.9,218.56,13.47,287.46.52,353.88-8.46,419.24-8.5,487.29c0,61,3.3,119,7.57,146.51,3.76,24.27,7.37,47,10.92,67.46,5.45,31.44,12.76,77.86,23.82,109.11H32C21.15,774.76,9.67,720-2.44,641.88c-2.92-18.8-7-49.06-9.57-85.4V417.26A1046.91,1046.91,0,0,1,4.62,290.1ZM113.75,810.37c7.92-37.23,16.12-81.84,22.44-130.74,10.63-82.32,17.58-176.77,21.9-268.56,1-22.29,2.75-50.78,5.42-81.92.75-8.74,1.28-19,1.62-30.07,1.25-40.6-1.48-85.27-6.39-127.06-6.48-55.19-12.47-121.21-35.68-172h-4.7c48.08,190.21,36,274.16,36,274.16,3.54,39.31-17.67-13.83-17.67-13.83-62-117.78-48.74-219-39-260.33h-5C77.85,58,79.33,137.81,98.39,192.29a680,680,0,0,0,40,90.89c8.15,15.3,15.63,30.07,16.58,43,1.38,18.89,2,36.83,1.66,53.78-.2,9.62-.92,32.59-1.3,40.68-4.05,86.07-10.58,167.79-20.56,245C128.39,714.8,119.9,773,112,810.37ZM9.6,0C13.38,43.08,1.46,91.82-12,120.8v35.63c10.83-34.76,22.22-60.26,25.57-80.81C18.54,50,19.85,18.35,18.42,0Z" style="fill:#b98133;fill-rule:evenodd"/><path d="M131.57,132.44c.57,10.38-.47,15-1.46,17.3-1.44,3.33-3.91,4.06-6.59,1.48-1.83-1.77-4.59-6-9.16-16.6-.08-.13,9,17.09,12.8,15.49,3.12-1.32,4.14-10.88,4.41-17.67Zm140.54,99.87c5.26,3.25,12.13,12.18,20,33.5,0,0,8.51,23-5.31-29.56,0,0-10.63-35.75-12.76-63.12-2.83-15,1,32.39-9.92,49.26-.93,1.43-2.54,4.62-4.05,7.75-6.13,12.64-1.84,4.14,4.83,1.65a7.86,7.86,0,0,1,7.17.52Zm6.22,578.06c.3-14.78-.8-33.09-3.47-41.51-3.24-10.26-6.76,1.13-6.43,11,.33,10.07-2.77,19.45-3.71,30.52ZM614.72,376.65c-.51-2.79-6.55-27.1-7.45-47-.41,15.19,4,36.82,7.45,47Zm-47.37,379A35.67,35.67,0,0,1,562.5,764c-5.35,6.54-10.33,5-16.15,0a32.85,32.85,0,0,1-7.92-10.4,43.61,43.61,0,0,0,8.5,9.89c4,3.55,11.18,4.23,15-.16a41,41,0,0,0,5.4-7.66ZM537,451.85a120.05,120.05,0,0,1,7.85-9.61c1.77-2,5.17-5.28,8.09-5,6.61,0,15.31,18.38,17.94,26.28-18.36-37.4-25.36-18.92-33.88-11.67Zm20.79,276.09c-4,7.36-8.55,4.09-12.76-.85-1.84-2.17-4.22-5.85-6.88-12.31,2.89,5.68,5.33,9.18,7.37,11.34,3.49,3.68,8,4.64,12.27,1.82ZM540.19,485.23c2.61-3.2,6-6.21,9.17-5.85,3.41.38,7.51,2.73,15,14.66-14.81-16.58-15.2-13-24.2-8.81ZM536,615.2c-2.94-16.47-5-38.85-.65-55.53-2.18,17.83-1.32,37.71.65,55.53Zm34.28,195.17a70.77,70.77,0,0,0,9.26-19.56c-.29,6.06-5.74,15.6-7.69,19.56Zm-3.63-440.46c-8.22-21.78-9.56-19.57-20.07,7.24,1.69-5.49,2.87-9.1,8.65-23.07,3.15-7.62,5.55-9.94,7.12-3.7,1.1,4.37,3.51,15.66,4.3,19.53ZM507.9,753.58c.91,2.37,1.84,4.72,2.77,7.06,4.53,11.36,16.46,36.08,26.08,49.73h-6c-6.58-13.2-12.94-24.8-17.64-39.4q-2.78-8.61-5.17-17.39ZM458,761.7q1.82,15.52,4.1,31c.54,3.67,2.06,12.78,2.89,17.7h-.77c-1-5.83-2.67-16.27-3.29-21q-1.81-13.76-2.93-27.64ZM429.2,397.8c-16.41,23.88-31.22,17.56-38.41-2.21,8.9,12.74,19.75,23,38.41,2.21Zm-63.13-341c3.61-3.79,21.78-34.71,32.62-36,1.67.48,4.12,4.29,5,5.69C411,40,419.46,48.41,428.65,58.73a142.3,142.3,0,0,1-18-17.29c-2.15-2.51-4.2-7.07-6.92-9-11.37-8.2-28.55,13-37.69,24.39ZM476.8,206.25a127.38,127.38,0,0,1-2.23,13.61c-1.29,6.25-2.82,12.47-4.48,18.63-4,15.06-8.86,30.05-14.33,44.63-3.47,9.24-7.23,18.41-11.42,27.33a196.66,196.66,0,0,1-12.52,23.07c-4.15,6.43-13.91,20.22-22.58,19.83-11.15-.5-18.89-25.36-21.3-33.73a253.36,253.36,0,0,0-11.74-31.15c-4.75-10.84-9.82-21.54-14.62-32.36-11.37-25.63-24.92-58.81-17.35-87.35a117.56,117.56,0,0,1,5.55-16.26c7.47-17.37,25.24-50.63,46-51.63,14.49-.69,21.9,9.34,33.06,16.64,10.95,7.18,24.94,15.91,32.56,26.79,12.61,18,17.52,40,15.38,61.95Zm-1.9,1.52c2.16-20-3.13-40.72-15.79-56.25-3.07-3.77-5.19-8.53-8.06-12.54a34.49,34.49,0,0,0-3.07-3.74c-7.08-7.35-16.34-12.27-25.1-17.14-7.15-4-15.17-6-23.29-4.95a30,30,0,0,0-17.3,8.26c-5.68,5.67-11.27,11.45-15.87,18.1-3.52,5.09-6.66,10.61-9.95,15.87a84.68,84.68,0,0,0-9.22,21,53.27,53.27,0,0,0-1.71,8.1c-2.9,22,7.67,45.42,17.15,64.58,3.88,7.83,7.93,15.56,11.74,23.43a165.37,165.37,0,0,1,8.95,21.43c3.83,12,11.4,30.78,25.94,31.5,21.54,1.08,40.11-40.18,47.11-56.82a347.09,347.09,0,0,0,12.46-34.71c1.45-4.85,2.8-9.76,3.95-14.7a99.94,99.94,0,0,0,2.06-11.39Zm-40.12,43c-6.31,14.34-22.19,40.26-34.68,18,0,.05-1.58-1.94-1.56-1.89,11.71,36,29.18.38,36.14-15.86a2.44,2.44,0,0,0,.1-.24ZM374,203.25a22.25,22.25,0,0,1,.75-2.74c3.94-18.08,11.89-28.24,22.92-32.35,11.45-4.27,26.16,1.26,36.51,12.24a47.69,47.69,0,0,1,10.11,16.74,37.18,37.18,0,0,1,2.95,10.21c-1-27.59-21.5-39.89-45-45.4-3.37-.65-7.41,2.11-9.85,4.19-9.74,8.29-18.84,23.58-18.42,37.11Zm17.75,217.51c3.35,6.72,8.67,19.61,17.09,19.9,7.92.26,20.8-16.68,28.34-30.42-8.33,10-20.31,27.52-29.17,27.23-5.48-.18-11.92-10-16.26-16.71Zm1.66,197.46c-3.1-16.82-5.26-28.37-7-45.38,6.13,27.66,13,30.76,24.95,1,3.1-6.62,5.77-13.57,8.77-20.27a51.25,51.25,0,0,1,7.43-12.11c.62-.74,1.26-1.45,1.91-2.15-6,12.85-11.94,25.7-17.73,38.65-3.7,8.27-5.77,16-7.89,24.87-1.55,6.47-2.57,9.42-4.12,15.9-2.05,8.53-4,12.47-6.35-.52ZM280.23,703.63c-1.57-2.15-6.69-17.73-9.32-18-1.51-.15-3.2,3-5,10,1.17-7.25,2.12-10.52,2.93-12.19,4-8.34,10.32,16.21,11.38,20.18Zm-3.09-145.16c-9.73-19.16-12.31-13.8-18.05.76,1.23-9,2.28-13.64,3.56-16.32,6.59-13.8,8.23-4.23,10.55,4.6,1.29,3.6,2.69,7.34,3.94,11Zm6.59-192.66c-4.6-10.82-8.36-15.68-11.91-16.1-6.76-.82-12.71,14.52-22.06,35.5,3.05-9.92,6.09-20.82,11-30.36,2.17-4.22,12.44-21.62,15.24-9.83,3.37,3,4.12,9.12,7.76,20.79Zm-6.27-221.54c-.47-.18-3.59-15.41-4.14-15.48-.05,0-4.69,21.2-4.75,21.19.11-1.42,2.91-14,3.55-21.89.87-10.62.69-24.8,1.22-29.27.65,12.25.17,19.52,1.21,30.33.73,7.52,2.78,13.66,2.91,15.12ZM228.27,60.38c4.21,11.65.2,25.54,2.8,35.75-2.19,61.79-3.63,18.27-5.21-8.28-.6-10-1.51-9.65,2.41-27.47ZM61.51,273.69c-6.54-14.06-11.08-15.9-19.31,7,.59-4,3.88-12,6.23-15.45,7.33-13.92,12.28.82,13.08,8.47Zm24.12,497c-2.37,19.47-5.9,31-10.33,39.66H56.87c-6.06-10.78-9.74-23.46-13.11-34.63,3.12,6.86,12,28.75,17.23,30.37,12.17,14.36,19.59-20.24,24.64-35.4ZM68.13,389.29c-5.7-15.45-9.67-12.79-16.65,8.47C54.1,387.47,56,382,57.55,379.12c5.79-11.19,9.44,5.24,10.58,10.17ZM74.89,682c-.84,3.59-6.67,34.28-12,25.2-3.77-6.44-12.68-26.19-18.44-54,1.15,3.67,13.11,45,20.29,45.26,4.29.15,8.2-8.49,10.12-16.46ZM54.29,485.37c.92-5.32,2.9-15.6,8.18-18.81-5.54,5-5,10.9-8.18,18.81ZM69.66,606.82c-.44,4.14-4.79,21.56-9.81,11.68-1.17-2.32-2.62-6.21-4.28-12.83.55,1.89,4.08,14.63,7.2,14.55,3.3-.1,6.23-10.4,6.89-13.4Zm-3-71.84a19.46,19.46,0,0,1-1,10.51c-1.82,4.73-3.09-.07-3.28-1.93a42.47,42.47,0,0,0-1.71-7c-2.16-7.69,4.92-9.31,6-1.59Zm-9-535c.05,4.05,0,8.09-.17,12.12-.66,14.9-1.7,47.87-2,52-.24-17-.47-34.35,0-51.64.1-4.14.25-8.29.4-12.43ZM55.34,65.57c.06,8.38-.1,24.1.2,32.47.73,20.72,2.85,41.38,3.52,62.08L54.38,99.6l-9,32.25c6.86-28.69,9.83-45.7,10-66.28ZM154.7,308.85c-3.2-10.49-11.18-22.58-14.12-28.5,20.63,37.14,19.36,5.13,19.66-14.24q.27,16.45-.22,32.81c-.09,3,1.73,6.42,1.38,9.37-1.82,15.54-2.74,13.57-6.7.56ZM8.33,75.83c-1.94,11.1-5.89,22.53-9.57,33.09C-5.22,120.4-6.46,124.2-12,128.8v-4C-2.83,112.86,2.06,100.41,6.5,83.3Q7.46,79.6,8.33,75.83Z" style="fill:#a56627;fill-rule:evenodd"/></g></svg>